<svg width="1028" height="500" viewBox="0 0 1028 500" fill="none" xmlns="http://www.w3.org/2000/svg"><g clip-path="url(#a)" fill="#000"><path fill-rule="evenodd" clip-rule="evenodd" d="M656.054 246.637c0-82.96 34.305-124.215 87.668-124.215 53.139 0 88.117 41.928 88.117 124.215s-34.978 123.991-88.117 123.991-87.668-41.704-87.668-123.991zm87.444-97.31c-38.565 0-57.624 36.099-57.624 97.534 0 28.924 4.261 51.345 12.332 67.713l75.785-154.933c-8.744-6.95-18.834-10.314-30.493-10.314zm-29.821 184.978c8.52 6.502 18.386 9.866 30.045 9.866 38.565 0 58.072-36.323 58.072-97.31 0-28.251-4.036-50.448-12.332-67.264l-75.785 154.708z"/><path d="M1022.87 194.17l-48.879 82.96 53.359 89.238h-32.731l-42.825-72.198h-12.108l-43.722 72.198h-31.838l53.587-88.117-48.206-84.081h30.942l39.461 68.386h12.332l40.359-68.386h30.269zM105.022 316.009l38.812-40.157-48.251-65.112-61.435-86.928C12.444 160.852 0 203.969 0 250c0 76.256 34.148 144.529 88.004 190.381l77.983-55.112c-26.525-16.525-47.893-40.583-60.965-69.26zm78.969-210.987l40.157 38.812 65.112-48.251 86.928-61.435C339.148 12.444 296.031 0 250 0 173.744 0 105.471 34.148 59.619 88.004l55.112 77.983c16.525-26.525 40.583-47.893 69.26-60.965zm172.175 119.126l48.251 65.112 61.435 86.928C487.556 339.148 500 296.031 500 250c0-76.256-34.148-144.529-88.004-190.381l-77.983 55.112c26.525 16.525 47.893 40.583 60.965 69.26l-38.812 40.157zm84.215 187.848l-55.112-77.982c-16.525 26.524-40.583 47.892-69.26 60.964l-40.157-38.812-65.112 48.251-86.928 61.435C160.852 487.556 203.969 500 250 500c76.256 0 144.529-34.148 190.381-88.004z"/></g><defs><clipPath id="a"><path fill="#fff" d="M0 0h1027.35v500H0z"/></clipPath></defs></svg>