<svg xmlns="http://www.w3.org/2000/svg" viewBox="0 0 1589.72 420.83334" height="420.833" width="1589.72"><defs><clipPath id="a"><path d="M687.479 279.183c-2.696-1.993-4.747-4.627-6.147-7.904L598.78 65.423l-82.553 205.856c-1.406 3.277-3.458 5.911-6.148 7.904-2.696 1.986-5.68 2.985-8.96 2.985-4.919 0-8.782-1.465-11.596-4.391-2.805-2.93-4.212-6.851-4.212-11.767 0-2.109.35-4.099 1.057-5.972l86.765-210.423c4.919-10.772 12.172-16.157 21.777-16.157h7.733c9.598 0 16.857 5.385 21.776 16.157l86.773 210.423c.7 1.873 1.049 3.863 1.049 5.972 0 4.916-1.406 8.837-4.212 11.767-2.813 2.926-6.676 4.391-11.596 4.391-3.279 0-6.264-.999-8.954-2.985"/></clipPath><linearGradient id="b" gradientTransform="scale(948.57175 -948.57175) rotate(-14.587 -.069 -.087)" gradientUnits="userSpaceOnUse" x2="1"><stop offset="0" stop-color="#30bac6"/><stop offset="1" stop-color="#b6509e"/></linearGradient><clipPath id="c"><path d="M760.261 280.411c-4.453 0-8.206-1.581-11.245-4.741-3.047-3.163-4.563-6.971-4.563-11.417V51.022c0-4.453 1.516-8.199 4.563-11.242 3.039-3.047 6.792-4.567 11.245-4.567h140.865c4.213 0 7.78 1.408 10.711 4.217 2.929 2.809 4.39 6.322 4.39 10.538s-1.461 7.784-4.39 10.714c-2.931 2.926-6.498 4.392-10.711 4.392H776.419v77.985h112.062c4.213 0 7.78 1.404 10.711 4.216 2.929 2.811 4.391 6.323 4.391 10.539 0 4.213-1.462 7.781-4.391 10.714-2.931 2.926-6.498 4.391-10.711 4.391H776.419v77.633h124.707c4.213 0 7.78 1.407 10.711 4.216 2.929 2.809 4.39 6.323 4.39 10.538 0 4.217-1.461 7.785-4.39 10.714-2.931 2.927-6.498 4.391-10.711 4.391z"/></clipPath><linearGradient id="d" gradientTransform="scale(948.57175 -948.57175) rotate(-14.587 .22 -.124)" gradientUnits="userSpaceOnUse" x2="1"><stop offset="0" stop-color="#30bac6"/><stop offset="1" stop-color="#b6509e"/></linearGradient><clipPath id="e"><path d="M389.893 282.168c-9.603 0-16.861-5.385-21.781-16.159l-37.754-91.556h-28.431c-8.609 0-15.588-6.977-15.588-15.586v-.319c0-8.609 6.979-15.588 15.588-15.588h15.444l-36.027-87.372c-.704-1.873-1.054-3.863-1.054-5.973 0-4.916 1.406-8.837 4.216-11.766 2.81-2.926 6.673-4.391 11.592-4.391 3.282 0 6.268.998 8.958 2.984 2.695 1.993 4.744 4.628 6.147 7.904l39.547 98.614h27.377c8.607 0 15.586 6.979 15.586 15.588v.319c0 8.609-6.979 15.586-15.586 15.586h-14.748l30.376 75.749 82.553-205.856c1.407-3.276 3.458-5.911 6.148-7.904 2.695-1.986 5.681-2.984 8.956-2.984 4.92 0 8.782 1.465 11.596 4.391 2.809 2.929 4.212 6.85 4.212 11.766 0 2.11-.349 4.1-1.053 5.973l-86.769 210.421c-4.916 10.774-12.171 16.159-21.776 16.159z"/></clipPath><linearGradient id="f" gradientTransform="scale(948.57175 -948.57175) rotate(-14.587 -.184 -.072)" gradientUnits="userSpaceOnUse" x2="1"><stop offset="0" stop-color="#30bac6"/><stop offset="1" stop-color="#b6509e"/></linearGradient><clipPath id="g"><path d="M130.75 282.168c-9.602 0-16.86-5.385-21.781-16.159l-37.753-91.556H42.827c-8.609 0-15.588-6.977-15.588-15.586v-.319c0-8.609 6.979-15.588 15.588-15.588H58.23L22.201 55.588c-.703-1.873-1.053-3.863-1.053-5.973 0-4.916 1.407-8.837 4.217-11.766 2.809-2.926 6.671-4.391 11.591-4.391 3.283 0 6.267.998 8.957 2.984 2.696 1.993 4.744 4.628 6.148 7.904l39.546 98.614h27.42c8.607 0 15.586 6.979 15.586 15.588v.319c0 8.609-6.979 15.586-15.586 15.586h-14.791l30.377 75.749 82.552-205.856c1.407-3.276 3.458-5.911 6.148-7.904 2.697-1.986 5.681-2.984 8.957-2.984 4.92 0 8.782 1.465 11.595 4.391 2.811 2.929 4.213 6.85 4.213 11.766 0 2.11-.35 4.1-1.053 5.973l-86.768 210.421c-4.917 10.774-12.172 16.159-21.778 16.159z"/></clipPath><linearGradient id="h" gradientTransform="scale(948.57175 -948.57175) rotate(-14.587 -.453 -.038)" gradientUnits="userSpaceOnUse" x2="1"><stop offset="0" stop-color="#30bac6"/><stop offset="1" stop-color="#b6509e"/></linearGradient><clipPath id="i"><path d="M1006.252 198.188a9.06 9.06 0 0 1-.025-.641V44.981a9.298 9.298 0 0 1 9.299-9.298c5.135 0 9.299 4.163 9.299 9.298v27.038c0 5.135 4.162 9.299 9.297 9.299a9.3 9.3 0 0 0 9.299-9.299V59.201a9.298 9.298 0 0 1 9.298-9.298 9.298 9.298 0 0 1 9.299 9.298v12.818c0 5.135 4.162 9.299 9.298 9.299h.001c5.134 0 9.298-4.164 9.298-9.299V68.52a9.298 9.298 0 0 1 9.298-9.298 9.298 9.298 0 0 1 9.298 9.298v3.499c0 5.135 4.164 9.299 9.298 9.299 5.136 0 9.3-4.164 9.3-9.299V59.201a9.297 9.297 0 0 1 9.297-9.298 9.298 9.298 0 0 1 9.299 9.298v12.818a9.3 9.3 0 0 0 9.299 9.299c5.135 0 9.297-4.164 9.297-9.299V44.981c0-5.135 4.164-9.298 9.3-9.298a9.298 9.298 0 0 1 9.298 9.298v152.566c0 .216-.01.43-.025.641-1.027 45.326-38.089 81.754-83.661 81.754-45.573 0-82.635-36.428-83.661-81.754m99.628 3.685c0 9.429 6.667 17.073 14.891 17.073 8.223 0 14.89-7.644 14.89-17.073 0-9.43-6.667-17.073-14.89-17.073-8.224 0-14.891 7.643-14.891 17.073m-61.714 0c0 9.429 6.666 17.073 14.889 17.073 8.224 0 14.892-7.644 14.892-17.073 0-9.43-6.668-17.073-14.892-17.073-8.223 0-14.889 7.643-14.889 17.073m59.928-31.242c0-5.486-6.05-9.933-13.514-9.933-7.463 0-13.514 4.447-13.514 9.933s6.051 2.176 13.514 2.176c7.464 0 13.514 3.31 13.514-2.176"/></clipPath><linearGradient id="j" gradientTransform="scale(243.00443 -243.00443) rotate(-48.641 1.874 -4.698)" gradientUnits="userSpaceOnUse" x2="1"><stop offset="0" stop-color="#50b5ac"/><stop offset="1" stop-color="#b22f92"/></linearGradient></defs><g clip-path="url(#a)" transform="matrix(1.33333 0 0 -1.33333 0 420.833)"><path d="M687.479 279.183c-2.696-1.993-4.747-4.627-6.147-7.904L598.78 65.423l-82.553 205.856c-1.406 3.277-3.458 5.911-6.148 7.904-2.696 1.986-5.68 2.985-8.96 2.985-4.919 0-8.782-1.465-11.596-4.391-2.805-2.93-4.212-6.851-4.212-11.767 0-2.109.35-4.099 1.057-5.972l86.765-210.423c4.919-10.772 12.172-16.157 21.777-16.157h7.733c9.598 0 16.857 5.385 21.776 16.157l86.773 210.423c.7 1.873 1.049 3.863 1.049 5.972 0 4.916-1.406 8.837-4.212 11.767-2.813 2.926-6.676 4.391-11.596 4.391-3.279 0-6.264-.999-8.954-2.985" fill="url(#b)"/></g><g clip-path="url(#c)" transform="matrix(1.33333 0 0 -1.33333 0 420.833)"><path d="M760.261 280.411c-4.453 0-8.206-1.581-11.245-4.741-3.047-3.163-4.563-6.971-4.563-11.417V51.022c0-4.453 1.516-8.199 4.563-11.242 3.039-3.047 6.792-4.567 11.245-4.567h140.865c4.213 0 7.78 1.408 10.711 4.217 2.929 2.809 4.39 6.322 4.39 10.538s-1.461 7.784-4.39 10.714c-2.931 2.926-6.498 4.392-10.711 4.392H776.419v77.985h112.062c4.213 0 7.78 1.404 10.711 4.216 2.929 2.811 4.391 6.323 4.391 10.539 0 4.213-1.462 7.781-4.391 10.714-2.931 2.926-6.498 4.391-10.711 4.391H776.419v77.633h124.707c4.213 0 7.78 1.407 10.711 4.216 2.929 2.809 4.39 6.323 4.39 10.538 0 4.217-1.461 7.785-4.39 10.714-2.931 2.927-6.498 4.391-10.711 4.391z" fill="url(#d)"/></g><g clip-path="url(#e)" transform="matrix(1.33333 0 0 -1.33333 0 420.833)"><path d="M389.893 282.168c-9.603 0-16.861-5.385-21.781-16.159l-37.754-91.556h-28.431c-8.609 0-15.588-6.977-15.588-15.586v-.319c0-8.609 6.979-15.588 15.588-15.588h15.444l-36.027-87.372c-.704-1.873-1.054-3.863-1.054-5.973 0-4.916 1.406-8.837 4.216-11.766 2.81-2.926 6.673-4.391 11.592-4.391 3.282 0 6.268.998 8.958 2.984 2.695 1.993 4.744 4.628 6.147 7.904l39.547 98.614h27.377c8.607 0 15.586 6.979 15.586 15.588v.319c0 8.609-6.979 15.586-15.586 15.586h-14.748l30.376 75.749 82.553-205.856c1.407-3.276 3.458-5.911 6.148-7.904 2.695-1.986 5.681-2.984 8.956-2.984 4.92 0 8.782 1.465 11.596 4.391 2.809 2.929 4.212 6.85 4.212 11.766 0 2.11-.349 4.1-1.053 5.973l-86.769 210.421c-4.916 10.774-12.171 16.159-21.776 16.159z" fill="url(#f)"/></g><g clip-path="url(#g)" transform="matrix(1.33333 0 0 -1.33333 0 420.833)"><path d="M130.75 282.168c-9.602 0-16.86-5.385-21.781-16.159l-37.753-91.556H42.827c-8.609 0-15.588-6.977-15.588-15.586v-.319c0-8.609 6.979-15.588 15.588-15.588H58.23L22.201 55.588c-.703-1.873-1.053-3.863-1.053-5.973 0-4.916 1.407-8.837 4.217-11.766 2.809-2.926 6.671-4.391 11.591-4.391 3.283 0 6.267.998 8.957 2.984 2.696 1.993 4.744 4.628 6.148 7.904l39.546 98.614h27.42c8.607 0 15.586 6.979 15.586 15.588v.319c0 8.609-6.979 15.586-15.586 15.586h-14.791l30.377 75.749 82.552-205.856c1.407-3.276 3.458-5.911 6.148-7.904 2.697-1.986 5.681-2.984 8.957-2.984 4.92 0 8.782 1.465 11.595 4.391 2.811 2.929 4.213 6.85 4.213 11.766 0 2.11-.35 4.1-1.053 5.973l-86.768 210.421c-4.917 10.774-12.172 16.159-21.778 16.159z" fill="url(#h)"/></g><g clip-path="url(#i)" transform="matrix(1.33333 0 0 -1.33333 0 420.833)"><path d="M1006.252 198.188a9.06 9.06 0 0 1-.025-.641V44.981a9.298 9.298 0 0 1 9.299-9.298c5.135 0 9.299 4.163 9.299 9.298v27.038c0 5.135 4.162 9.299 9.297 9.299a9.3 9.3 0 0 0 9.299-9.299V59.201a9.298 9.298 0 0 1 9.298-9.298 9.298 9.298 0 0 1 9.299 9.298v12.818c0 5.135 4.162 9.299 9.298 9.299h.001c5.134 0 9.298-4.164 9.298-9.299V68.52a9.298 9.298 0 0 1 9.298-9.298 9.298 9.298 0 0 1 9.298 9.298v3.499c0 5.135 4.164 9.299 9.298 9.299 5.136 0 9.3-4.164 9.3-9.299V59.201a9.297 9.297 0 0 1 9.297-9.298 9.298 9.298 0 0 1 9.299 9.298v12.818a9.3 9.3 0 0 0 9.299 9.299c5.135 0 9.297-4.164 9.297-9.299V44.981c0-5.135 4.164-9.298 9.3-9.298a9.298 9.298 0 0 1 9.298 9.298v152.566c0 .216-.01.43-.025.641-1.027 45.326-38.089 81.754-83.661 81.754-45.573 0-82.635-36.428-83.661-81.754m99.628 3.685c0 9.429 6.667 17.073 14.891 17.073 8.223 0 14.89-7.644 14.89-17.073 0-9.43-6.667-17.073-14.89-17.073-8.224 0-14.891 7.643-14.891 17.073m-61.714 0c0 9.429 6.666 17.073 14.889 17.073 8.224 0 14.892-7.644 14.892-17.073 0-9.43-6.668-17.073-14.892-17.073-8.223 0-14.889 7.643-14.889 17.073m59.928-31.242c0-5.486-6.05-9.933-13.514-9.933-7.463 0-13.514 4.447-13.514 9.933s6.051 2.176 13.514 2.176c7.464 0 13.514 3.31 13.514-2.176" fill="url(#j)"/></g></svg>