<svg xmlns="http://www.w3.org/2000/svg" viewBox="0 0 2000 765.98"><defs><style>.cls-1{fill:#1b75bc}.cls-2{fill:#3c3c3b}</style></defs><title>adex-vector-logo</title><g id="Layer_2" data-name="Layer 2"><g id="Layer_1-2" data-name="Layer 1"><path class="cls-1" d="M470.25 529.98L322.8 382.53l147.45-147.45-87.67-87.68-147.45 147.45L87.67 147.4 0 235.08l147.45 147.45L0 529.98l87.67 87.67L235.13 470.2l147.45 147.45 87.67-87.67z"/><path class="cls-2" d="M183.93 51.2l-86.11 86.11 72.54 72.54 64.77-65.55 64.76 65.55 72.55-72.54-86.11-86.11L235.13 0l-51.2 51.2m0 663.58l-86.11-86.11 72.54-72.54 64.77 65.54 64.76-65.54 72.55 72.54-86.11 86.11-51.2 51.2-51.2-51.2M741 152.91L553.82 622.69h36l64.93-165.14h189.1l64.62 165.14H945L761.7 152.91zm92 275.2H666.51l65.25-168a513.83 513.83 0 0 0 18.77-55.67q11.13 35.19 19.1 55zm410.63-178.23q0 38.71 1.93 79h-1.93q-21.65-33.28-49-47t-65-13.76q-71.61 0-109.17 47.68t-37.55 137.91q0 85.75 37.89 130.58t109.51 44.81q73.84 0 113.32-59.52h2.56l7.95 53.11h20.7V124.75h-31.2zm0 203.83q0 78.71-27.37 113t-85.95 34.25Q1016 600.92 1016 453.08q0-76.16 28.47-116.16t85.15-40q60.16 0 87.08 35.36t26.88 116zm155.35 169h254.36V592.6h-221.87V392h209.45v-30.12h-209.45v-177h221.87v-30.06H1399zm473.67-178.9l118.74-169h-34.69L1854.51 421.4l-103.12-146.57h-36.29l120.64 169-125.42 178.9H1745l109.5-155.22 108.88 155.22H2000z"/></g></g></svg>