<svg width="907" height="206" viewBox="0 0 907 206" xmlns="http://www.w3.org/2000/svg"><title>Airswap_2018_Logo_Final</title><g fill="#2B71FF" fill-rule="evenodd"><path d="M354.5 57.4h17.8v100h-17.8zm180 41.7c18.5 4.4 29.4 10.6 32 23 .4 1.9.6 4 .6 6.2 0 18.7-13 30.5-34.3 30.5-15.5 0-32-6-44.2-16.6l10.7-12.5c9.7 8.2 21.3 13.6 33.9 13.6 11 0 16.1-5.7 16.1-13.4 0-7.2-4.1-11.1-22.9-15.3-21.6-5.1-34.1-12.3-34.1-30.7 0-17.3 12.9-28.3 33-28.3 14.8 0 28.4 4.7 38.7 12.8l-9.6 13.2c-9.1-6.7-19.4-11.2-28.7-11.2-10.4 0-15.7 5.3-15.7 12 .1 7.8 5.1 12.1 24.5 16.7m170.1-41.7L680.3 131l-25.1-73.6h-15.1L615 131l-24.3-73.6h-19.4l35.6 99.9h15.4L647.4 86l25 71.3h15.5l35.5-99.9z"/><path d="M866.2 73.2h-25.3v35h25.3c13.5 0 21.9-5.1 21.9-18-.1-13.7-8.6-17-21.9-17m-.6 50.8h-24.7v33.3h-17.8v-100h44.5c23.6 0 38.5 11.9 38.5 32.2 0 22.5-16.7 34.5-40.5 34.5M440.2 73.2h-25.9v35h26.1c12.7 0 20.8-7.5 20.8-17.7 0-10.9-7.8-17.3-21-17.3zm18.5 84.1l-22.2-33.6h-22.3v33.6h-17.8v-100h45.2c23.3 0 37.6 13.8 37.6 33.2 0 16.5-10 26.4-24.2 30.2l24.6 36.6h-20.9zM288.1 78.2l14.5 37.9s-15.9-.6-31.8 7.1l17.3-45zm-51.4 79.1h18.8s13.5-28.8 53.1-25.5l10.7 25.5H338l-41.4-100h-17.5l-42.4 100zm541.6-34.1c-15.9-7.7-31.8-7.1-31.8-7.1L761 78.2l17.3 45zM770 57.4h-17.5l-41.4 100h18.7l10.7-25.5c39.6-3.3 53.1 25.5 53.1 25.5h18.8L770 57.4z" fill-rule="nonzero"/><path d="M154.5 153.8L103 205.2l-25.5-25.5c27.5-1.6 54.1-10.6 77-25.9z"/><path d="M203.3 100.9l-6.3-6.3-94-94-94 94-8.1 8.1c1 .8 1.9 1.7 2.9 2.5 3.3 2.8 6.7 5.4 10.2 7.8 37.2 26.2 83.3 34.1 125.9 23.7 17.4-4.2 33.9-11.5 48.8-21.4 3.7-2.5 7.3-5.1 10.8-7.9 1.9-1.5 3.8-3.1 5.7-4.8l-1.9-1.7zm-75.5 23.6c-28-17.3-60.3-26.3-93.3-26.2C77.4 79.6 130 77 178.3 104.8c-15.4 9.8-32.6 16.5-50.5 19.7z" fill-rule="nonzero"/></g></svg>