<svg id="Layer_1" data-name="Layer 1" xmlns="http://www.w3.org/2000/svg" viewBox="0 0 126.25 25.09"><defs><style>.cls-1{fill:#fed402}.cls-2{fill:#7cc242}.cls-3{fill:#fff}.cls-4{fill:#ef3b39}.cls-5{fill:#4cc9f5}.cls-6{font-size:13.76px;fill:#59585a;font-family:Montserrat-SemiBold,Montserrat;font-weight:700}.cls-7{letter-spacing:-.06em}</style></defs><title>AlphaWalletLogo</title><g id="_Group_" data-name="&lt;Group&gt;"><circle id="_Path_" data-name="&lt;Path&gt;" class="cls-1" cx="23.6" cy="11.69" r="2.51"/><path id="_Path_2" data-name="&lt;Path&gt;" class="cls-2" d="M35.43 21l-.09.14z" transform="translate(-7.02 -10.6)"/><path id="_Path_3" data-name="&lt;Path&gt;" class="cls-3" d="M35.43 21l-.09.14z" transform="translate(-7.02 -10.6)"/><path id="_Path_4" data-name="&lt;Path&gt;" class="cls-2" d="M41.42 11.62l-5.49 8.64-.31.48-.19.31a5 5 0 0 0-4-3.66l3.54-5.6c.08-.13.15-.22.33-.22h6.07z" transform="translate(-7.02 -10.6)"/><path id="_Path_5" data-name="&lt;Path&gt;" class="cls-4" d="M42.59 33A6.68 6.68 0 0 1 39 35.39a6.55 6.55 0 0 1-5.59-1 7.59 7.59 0 0 1-2.54-3.54l-.06-.15c-.14-.37-.39-1-.63-1.78s-.39-1.23-.51-1.76a5 5 0 0 0 4.68-1.57c.33.83.68 2.13 1 3.14.09.28.18.53.27.75A6.48 6.48 0 0 0 37.11 32l.15.13a5.19 5.19 0 0 0 3.3 1 18.87 18.87 0 0 0 2.03-.13z" transform="translate(-7.02 -10.6)"/><path id="_Path_6" data-name="&lt;Path&gt;" class="cls-5" d="M26.43 24.94a29.71 29.71 0 0 1-4 4.6 13.54 13.54 0 0 1-4.24 2.85 5.17 5.17 0 0 1-1.93.37 3.6 3.6 0 0 1-3.64-3.15 10.7 10.7 0 0 1 .38-5.19A22.28 22.28 0 0 1 17.62 16a7.83 7.83 0 0 1 3.51-2.53 3.85 3.85 0 0 1 3 .1 4.35 4.35 0 0 1 1.73 1.76 14 14 0 0 1 1.31 3.31 5 5 0 0 1 4.18-1.29l.3-.47c-.23-.52-.42-1-.63-1.46a8.55 8.55 0 0 0-2.93-3.58 7.83 7.83 0 0 0-5.21-1.25 14.87 14.87 0 0 0-6.67 2.16 20.82 20.82 0 0 0-7.58 8.06 12.63 12.63 0 0 0-1.62 6.93 7.87 7.87 0 0 0 4.71 6.87 12.17 12.17 0 0 0 7 .89 14.73 14.73 0 0 0 5.61-1.9A26.71 26.71 0 0 0 30 29.11c.06-.06.1-.15.18-.19-.2-.6-.39-1.23-.51-1.76a5 5 0 0 1-3.24-2.22z" transform="translate(-7.02 -10.6)"/></g><text class="cls-6" transform="translate(39.09 16.61)">Alpha<tspan class="cls-7" x="41.49" y="0">W</tspan><tspan x="56.47" y="0">allet</tspan></text></svg>