<svg xmlns="http://www.w3.org/2000/svg" viewBox="0 0 755.90668 755.90668" height="755.907" width="755.907"><defs><clipPath id="a"><path d="M0 566.93h566.93V0H0z"/></clipPath></defs><g clip-path="url(#a)" transform="matrix(1.33333 0 0 -1.33333 0 755.907)"><path d="M261.534 282.465l-2.127 6.158c-.475 1.397-.792 2.667-1.11 3.904h-.065c-.317-1.237-.635-2.57-1.078-3.873l-2.095-6.19zm-7.047-2.158l-2.221-6.73h-2.855l7.299 21.393h3.3l7.3-21.392h-2.951l-2.286 6.729zm39.095-3.364c1.24-.795 3.016-1.396 4.92-1.396 2.824 0 4.476 1.492 4.476 3.65 0 1.967-1.144 3.141-4.033 4.22-3.488 1.27-5.648 3.11-5.648 6.094 0 3.333 2.762 5.808 6.918 5.808 2.158 0 3.777-.507 4.699-1.046l-.762-2.253c-.666.411-2.095 1.014-4.031 1.014-2.92 0-4.033-1.745-4.033-3.206 0-1.997 1.305-2.984 4.254-4.124 3.619-1.397 5.428-3.144 5.428-6.284 0-3.302-2.413-6.19-7.459-6.19-2.063 0-4.315.635-5.459 1.396zm39.128 0c1.237-.795 3.015-1.396 4.92-1.396 2.823 0 4.474 1.492 4.474 3.65 0 1.967-1.141 3.141-4.03 4.22-3.492 1.27-5.65 3.11-5.65 6.094 0 3.333 2.762 5.808 6.92 5.808 2.158 0 3.777-.507 4.697-1.046l-.764-2.253c-.666.411-2.093 1.014-4.03 1.014-2.921 0-4.03-1.745-4.03-3.206 0-1.997 1.3-2.984 4.254-4.124 3.619-1.397 5.428-3.144 5.428-6.284 0-3.302-2.415-6.19-7.46-6.19-2.064 0-4.318.635-5.458 1.396zm50.518 6.665h-8.28v-7.712h9.265v-2.318h-12.059v21.392h11.584v-2.316h-8.79v-6.762h8.28zm32.114 9.013h-6.506v2.35h15.836v-2.35h-6.537v-19.043h-2.793zm37.951 2.349v-8.949h10.348v8.95h2.793v-21.393h-2.793v10.03h-10.348v-10.03H450.5v21.392z"/><path d="M157.077 313.454l52.04-23.88-52.025-30.86-52.025 30.892z" fill="#f8f7f7"/><path d="M157.092 313.448l52.024-23.875-52.024-30.86z" fill="#d7d7d8"/><path d="M209.116 289.573l-52.04 23.88-52.01-23.846 52.024 86.229z" fill="#0757a4"/><path d="M157.092 313.448v62.411l52.024-86.265" fill="#004a8c"/><path d="M157.092 249.813l52.024 30.447-52.024-73.213-52.025 73.213z" fill="#e84438"/><path d="M157.092 249.813l52.024 30.447-52.024-73.213z" fill="#b41f18"/></g></svg>