<svg xmlns="http://www.w3.org/2000/svg" viewBox="0 0 600 252"><defs><style>.cls-1{fill:#f0b90b}.cls-2{fill:none}</style></defs><title>Labs-Horizontal</title><g id="Logos"><path class="cls-1" transform="rotate(-45 63.343 127.043)" d="M53.28 116.99h20.13v20.13H53.28z"/><path class="cls-1" d="M112.14 92.49l24.4 24.4 14.23-14.24-38.63-38.63-38.63 38.63 14.23 14.24 24.4-24.4z"/><path class="cls-1" transform="rotate(-45 160.935 127.048)" d="M150.87 116.99H171v20.13h-20.13z"/><path class="cls-1" d="M112.14 161.61l-24.4-24.39-14.23 14.23 38.63 38.63 38.63-38.63-14.23-14.23-24.4 24.39z"/><path class="cls-1" transform="rotate(-45 112.145 127.048)" d="M102.08 116.99h20.13v20.13h-20.13z"/><path class="cls-1" d="M226.87 127.05h-23.22V78.24h22.66c10 0 16.11 5 16.11 12.62V91c0 5.51-2.93 8.57-6.42 10.53 5.65 2.16 9.14 5.44 9.14 12v.14c0 8.92-7.26 13.38-18.27 13.38zm4.88-34.38c0-3.21-2.51-5-7-5h-10.6V98H224c4.74 0 7.74-1.53 7.74-5.16zm2.72 19.53c0-3.28-2.44-5.3-7.95-5.3h-12.41v10.74h12.76c4.74 0 7.6-1.68 7.6-5.3zm22.45 14.85V78.24h10.74v48.81zm59.33 0L292.61 96v31H282V78.24h9.9l22.87 30.05V78.24h10.6v48.81zm57.39 0l-4.46-11h-20.64l-4.47 11h-10.94l20.92-49.16H364l20.92 49.16zm-14.78-36.26l-6.49 15.83h13zm68.06 36.26L403.28 96v31h-10.6V78.24h9.9l22.87 30.05V78.24h10.6v48.81zm44.56.84a24.64 24.64 0 0 1-25-25.11v-.14c0-13.87 10.46-25.24 25.45-25.24 9.2 0 14.71 3.07 19.25 7.53l-6.84 7.88c-3.76-3.42-7.6-5.51-12.48-5.51-8.23 0-14.16 6.84-14.16 15.2v.14c0 8.37 5.79 15.34 14.16 15.34 5.58 0 9-2.23 12.83-5.71l6.83 6.9c-5.05 5.37-10.62 8.72-20.04 8.72zm28.67-.84V78.24H537v9.55h-26.19v9.9h23v9.56h-23v10.25h26.5v9.55zm-92.91 14.22h6.07v29h18.16v5.52h-24.23zm65.51 34.55h-6.42l-3.51-8.34h-16.34l-3.55 8.34h-6.22l15.2-34.8h5.63zm-18.12-27.54l-5.92 13.82h11.89zm51.44 1.83c0 4.24-2.37 6.41-4.94 7.75 4.05 1.38 6.86 3.7 6.86 8.44 0 6.22-5.08 9.52-12.78 9.52h-16v-34.55h15.5c6.97 0 11.36 3.41 11.36 8.84zm-6.07 1c0-2.81-2.17-4.44-6.07-4.44h-8.74v9.18h8.29c3.9-.02 6.52-1.55 6.52-4.76zm1.92 14.57c0-3-2.32-4.69-7.11-4.69h-9.62v9.47h10.07c4.15-.02 6.66-1.64 6.66-4.8zm27.16-9.9c7.3 1.78 11.1 4.4 11.1 10.17 0 6.52-5.08 10.37-12.34 10.37a21.3 21.3 0 0 1-14.41-5.53l3.65-4.34c3.31 2.86 6.62 4.49 10.91 4.49 3.75 0 6.12-1.73 6.12-4.4 0-2.51-1.38-3.85-7.8-5.33-7.35-1.77-11.5-4-11.5-10.36 0-6 4.94-10.07 11.8-10.07a19.19 19.19 0 0 1 12.54 4.34l-3.26 4.59a15.69 15.69 0 0 0-9.38-3.55c-3.55 0-5.63 1.82-5.63 4.14 0 2.7 1.58 3.9 8.2 5.48zm-325.43-.06h189.22v5.75H203.65z"/><path class="cls-2" d="M0 0h600v252H0z"/></g></svg>