<svg xmlns="http://www.w3.org/2000/svg" viewBox="0 0 384 157.44" height="157.44" width="384"><defs><clipPath id="a"><path d="M0 118.08h288V0H0z"/></clipPath><clipPath id="b"><path d="M67.559 49.974h4.385V45.59H67.56z"/></clipPath><clipPath id="c"><path d="M71.24 45.174h3.947v-3.947H71.24z"/></clipPath><clipPath id="d"><path d="M74.162 40.325h3.197v-3.198h-3.197z"/></clipPath><clipPath id="e"><path d="M76.554 35.688h2.59v-2.59h-2.59z"/></clipPath><clipPath id="f"><path d="M78.1 31.322h2.33V28.99H78.1z"/></clipPath><clipPath id="g"><path d="M79.165 27.073h1.887v-1.888h-1.888z"/></clipPath><clipPath id="h"><path d="M69.968 65.257h4.386V60.87h-4.386z"/></clipPath><clipPath id="i"><path d="M75.614 66.914h3.948v-3.947h-3.948z"/></clipPath><clipPath id="j"><path d="M81.031 67.579h3.198V64.38h-3.198z"/></clipPath><clipPath id="k"><path d="M86.1 67.922h2.591v-2.59h-2.59z"/></clipPath><clipPath id="l"><path d="M90.698 67.83h2.331V65.5H90.7z"/></clipPath><clipPath id="m"><path d="M95.01 67.166h1.888v-1.888H95.01z"/></clipPath><clipPath id="n"><path d="M56.18 72.27h4.384v-4.385H56.18z"/></clipPath><clipPath id="o"><path d="M56.29 77.792h3.947v-3.947H56.29z"/></clipPath><clipPath id="p"><path d="M57.235 82.534h3.197v-3.197h-3.197z"/></clipPath><clipPath id="q"><path d="M58.396 86.963h2.59v-2.59h-2.59z"/></clipPath><clipPath id="r"><path d="M59.87 91.094h2.33v-2.33h-2.33z"/></clipPath><clipPath id="s"><path d="M61.776 94.626h1.888v-1.888h-1.888z"/></clipPath><clipPath id="t"><path d="M45.247 61.324h4.386v-4.387h-4.386z"/></clipPath><clipPath id="u"><path d="M39.972 62.775h3.948v-3.947h-3.948z"/></clipPath><clipPath id="v"><path d="M35.657 64.523h3.198v-3.197h-3.198z"/></clipPath><clipPath id="w"><path d="M31.725 66.497h2.59v-2.59h-2.59z"/></clipPath><clipPath id="x"><path d="M28.218 68.963h2.33v-2.331h-2.33z"/></clipPath><clipPath id="y"><path d="M25.39 71.504h1.888v-1.888H25.39z"/></clipPath><clipPath id="z"><path d="M52.28 47.544h4.386v-4.386H52.28z"/></clipPath><clipPath id="A"><path d="M49.212 42.616h3.948v-3.947h-3.948z"/></clipPath><clipPath id="B"><path d="M46.119 38.436h3.197V35.24H46.12z"/></clipPath><clipPath id="C"><path d="M42.947 34.808h2.59v-2.59h-2.59z"/></clipPath><clipPath id="D"><path d="M39.485 32.021h2.33v-2.33h-2.33z"/></clipPath><clipPath id="E"><path d="M36.137 29.754h1.888v-1.888h-1.888z"/></clipPath></defs><g clip-path="url(#a)" transform="matrix(1.33333 0 0 -1.33333 0 157.44)"><path d="M112.636 66.235c.912 0 1.437.356 1.437.989v.03c0 .588-.464.975-1.468.975h-2.288v-1.994zm-.433 4.095c.912 0 1.422.31 1.422.943v.03c0 .588-.464.928-1.36.928h-1.948V70.33zm-4.806 4.312h5.548c1.36 0 2.318-.34 2.952-.973.432-.433.695-1.005.695-1.747v-.031c0-1.251-.711-1.993-1.669-2.411 1.314-.432 2.148-1.174 2.148-2.642v-.031c0-1.855-1.514-2.983-4.095-2.983h-5.579zm16.617 0h2.998v-8.191h5.24v-2.627h-8.238zm22.691-5.44v.031c0 1.561-1.128 2.921-2.782 2.921-1.638 0-2.735-1.329-2.735-2.89v-.031c0-1.561 1.128-2.921 2.767-2.921 1.653 0 2.75 1.329 2.75 2.89m-8.592 0v.031c0 3.106 2.503 5.625 5.842 5.625 3.338 0 5.81-2.488 5.81-5.594v-.031c0-3.106-2.503-5.625-5.842-5.625-3.338 0-5.81 2.488-5.81 5.594m18.41 0v.031c0 3.152 2.426 5.625 5.703 5.625 2.21 0 3.631-.927 4.59-2.256l-2.257-1.746c-.618.772-1.329 1.267-2.364 1.267-1.515 0-2.58-1.283-2.58-2.859v-.031c0-1.623 1.065-2.89 2.58-2.89 1.127 0 1.792.525 2.441 1.314l2.257-1.608c-1.02-1.406-2.396-2.441-4.79-2.441-3.092 0-5.58 2.364-5.58 5.594m17.22 5.44h2.998v-4.389l3.725 4.389h3.554l-4.095-4.652 4.234-6.166h-3.6l-2.72 4.018-1.098-1.221v-2.797h-2.998zm15.629-5.44v.031c0 3.152 2.426 5.625 5.703 5.625 2.21 0 3.631-.927 4.59-2.256l-2.257-1.746c-.618.772-1.329 1.267-2.364 1.267-1.515 0-2.58-1.283-2.58-2.859v-.031c0-1.623 1.065-2.89 2.58-2.89 1.127 0 1.792.525 2.441 1.314l2.257-1.608c-1.02-1.406-2.396-2.441-4.79-2.441-3.092 0-5.58 2.364-5.58 5.594m17.22 5.44h2.998v-4.049h3.848v4.049h2.998V63.824h-2.998v4.111h-3.848v-4.111h-2.998zm23.695-6.552l-1.205 3.074-1.22-3.075zm-2.627 6.63h2.89l4.606-10.897h-3.215l-.788 1.932h-4.173l-.773-1.932h-3.152zm14.177-.078h3.014V63.824h-3.014zm10.557 0h2.797l4.451-5.718v5.718h2.968V63.824h-2.628l-4.62 5.934v-5.934h-2.967zM107.49 48.72v.03c0 3.06 2.287 5.595 5.47 5.595 1.964 0 3.138-.696 4.22-1.716l-.835-.896c-.911.865-1.931 1.483-3.4 1.483-2.395 0-4.188-1.946-4.188-4.435v-.03c0-2.504 1.808-4.467 4.187-4.467 1.485 0 2.459.572 3.494 1.561l.803-.789c-1.127-1.143-2.363-1.9-4.326-1.9-3.123 0-5.426 2.457-5.426 5.563m24.469-1.421l-2.457 5.517-2.473-5.517zm-3.013 6.939h1.143l4.93-10.895h-1.314l-1.267 2.858h-5.888l-1.283-2.858h-1.252zm17.668-5.966c1.793 0 2.967.958 2.967 2.38v.031c0 1.545-1.159 2.35-2.905 2.35h-2.735v-4.76zm-3.895 5.89h4.05c2.442 0 4.048-1.299 4.048-3.433v-.03c0-2.334-1.947-3.54-4.25-3.54h-2.626v-3.817h-1.222zm16-.001h1.22V43.342h-1.22zm12.814-1.129H167.9v1.128h8.5v-1.128h-3.631v-9.69h-1.237zm18.348-5.733l-2.457 5.517-2.473-5.517zm-3.013 6.939h1.143l4.93-10.895h-1.314l-1.267 2.858h-5.888l-1.283-2.858h-1.252zm13.773-.077h1.22v-9.69h6.09v-1.128h-7.31z" fill="#2a2f37"/><path d="M64.27 54.5a2.436 2.436 0 1 0 3.028-3.818 2.436 2.436 0 0 0-3.027 3.817" fill="#2e5fac"/><g clip-path="url(#b)" opacity=".9"><path d="M68.39 49.5a2.192 2.192 0 1 0 2.724-3.436 2.192 2.192 0 0 0-2.725 3.436" fill="#2e5fac"/></g><g clip-path="url(#c)" opacity=".8"><path d="M71.988 44.747a1.973 1.973 0 1 0 2.452-3.094 1.973 1.973 0 0 0-2.452 3.094" fill="#2e5fac"/></g><g clip-path="url(#d)" opacity=".7"><path d="M74.767 39.979a1.6 1.6 0 1 0 1.986-2.508 1.6 1.6 0 0 0-1.986 2.508" fill="#2e5fac"/></g><g clip-path="url(#e)" opacity=".6"><path d="M77.044 35.408a1.295 1.295 0 1 0 1.609-2.03 1.295 1.295 0 0 0-1.609 2.03" fill="#2e5fac"/></g><g clip-path="url(#f)" opacity=".5"><path d="M78.541 31.07a1.165 1.165 0 1 0 1.448-1.827 1.165 1.165 0 0 0-1.448 1.826" fill="#2e5fac"/></g><g clip-path="url(#g)" opacity=".4"><path d="M79.522 26.869a.944.944 0 1 0 1.173-1.48.944.944 0 0 0-1.173 1.48" fill="#2e5fac"/></g><path d="M64.078 59.927a2.437 2.437 0 1 0 4.568 1.698 2.437 2.437 0 0 0-4.568-1.698" fill="#2e5fac"/><g clip-path="url(#h)" opacity=".9"><path d="M70.106 62.299a2.194 2.194 0 0 0 4.11 1.529 2.193 2.193 0 0 0-4.11-1.53" fill="#2e5fac"/></g><g clip-path="url(#i)" opacity=".8"><path d="M75.738 64.252a1.974 1.974 0 1 0 3.7 1.376 1.974 1.974 0 0 0-3.7-1.376" fill="#2e5fac"/></g><g clip-path="url(#j)" opacity=".7"><path d="M81.132 65.423a1.597 1.597 0 1 0 2.996 1.115 1.598 1.598 0 1 0-2.996-1.115" fill="#2e5fac"/></g><g clip-path="url(#k)" opacity=".6"><path d="M86.183 66.175a1.295 1.295 0 1 0 2.428.903 1.295 1.295 0 0 0-2.428-.903" fill="#2e5fac"/></g><g clip-path="url(#l)" opacity=".5"><path d="M90.772 66.259a1.165 1.165 0 1 0 2.184.812 1.165 1.165 0 0 0-2.184-.812" fill="#2e5fac"/></g><g clip-path="url(#m)" opacity=".4"><path d="M95.07 65.893a.944.944 0 1 0 1.769.659.944.944 0 0 0-1.77-.659" fill="#2e5fac"/></g><path d="M58.857 61.42a2.436 2.436 0 1 0-.203 4.87 2.436 2.436 0 0 0 .203-4.87" fill="#2e5fac"/><g clip-path="url(#n)" opacity=".9"><path d="M58.464 67.887a2.193 2.193 0 1 0-.184 4.382 2.193 2.193 0 0 0 .184-4.382" fill="#2e5fac"/></g><g clip-path="url(#o)" opacity=".8"><path d="M58.346 73.847a1.972 1.972 0 1 0-.166 3.941 1.972 1.972 0 0 0 .166-3.941" fill="#2e5fac"/></g><g clip-path="url(#p)" opacity=".7"><path d="M58.9 79.338a1.598 1.598 0 1 0-.134 3.194 1.598 1.598 0 0 0 .134-3.194" fill="#2e5fac"/></g><g clip-path="url(#q)" opacity=".6"><path d="M59.745 84.374a1.295 1.295 0 1 0-.108 2.588 1.295 1.295 0 0 0 .108-2.588" fill="#2e5fac"/></g><g clip-path="url(#r)" opacity=".5"><path d="M61.084 88.764a1.165 1.165 0 1 0-.099 2.328 1.165 1.165 0 0 0 .099-2.328" fill="#2e5fac"/></g><g clip-path="url(#s)" opacity=".4"><path d="M62.76 92.74a.944.944 0 1 0-.08 1.886.944.944 0 0 0 .08-1.887" fill="#2e5fac"/></g><path d="M55.823 56.917a2.436 2.436 0 1 0-4.693 1.309 2.436 2.436 0 0 0 4.693-1.309" fill="#2e5fac"/><g clip-path="url(#t)" opacity=".9"><path d="M49.552 58.54a2.192 2.192 0 1 0-4.223 1.18 2.192 2.192 0 0 0 4.223-1.18" fill="#2e5fac"/></g><g clip-path="url(#u)" opacity=".8"><path d="M43.847 60.271a1.973 1.973 0 1 0-3.801 1.06 1.973 1.973 0 0 0 3.8-1.06" fill="#2e5fac"/></g><g clip-path="url(#v)" opacity=".7"><path d="M38.795 62.495a1.599 1.599 0 1 0-3.079.86 1.599 1.599 0 0 0 3.08-.86" fill="#2e5fac"/></g><g clip-path="url(#w)" opacity=".6"><path d="M34.267 64.854a1.294 1.294 0 1 0-2.493.695 1.294 1.294 0 0 0 2.493-.695" fill="#2e5fac"/></g><g clip-path="url(#x)" opacity=".5"><path d="M30.506 67.484a1.165 1.165 0 1 0-2.245.627 1.165 1.165 0 0 0 2.245-.627" fill="#2e5fac"/></g><g clip-path="url(#y)" opacity=".4"><path d="M27.243 70.306a.943.943 0 1 0-1.817.507.943.943 0 0 0 1.817-.507" fill="#2e5fac"/></g><path d="M59.168 52.64a2.435 2.435 0 1 0-2.696-4.06 2.436 2.436 0 0 0 2.696 4.06" fill="#2e5fac"/><g clip-path="url(#z)" opacity=".9"><path d="M55.686 47.177a2.193 2.193 0 1 0-2.426-3.653 2.193 2.193 0 0 0 2.426 3.653" fill="#2e5fac"/></g><g clip-path="url(#A)" opacity=".8"><path d="M52.278 42.286a1.974 1.974 0 1 0-2.184-3.288 1.974 1.974 0 0 0 2.184 3.288" fill="#2e5fac"/></g><g clip-path="url(#B)" opacity=".7"><path d="M48.602 38.17a1.6 1.6 0 1 0-1.771-2.664 1.6 1.6 0 0 0 1.771 2.663" fill="#2e5fac"/></g><g clip-path="url(#C)" opacity=".6"><path d="M44.959 34.592a1.294 1.294 0 1 0-1.432-2.157 1.294 1.294 0 0 0 1.432 2.157" fill="#2e5fac"/></g><g clip-path="url(#D)" opacity=".5"><path d="M41.295 31.827a1.165 1.165 0 1 0-1.289-1.941 1.165 1.165 0 0 0 1.29 1.94" fill="#2e5fac"/></g><g clip-path="url(#E)" opacity=".4"><path d="M37.603 29.596a.944.944 0 1 0-1.045-1.572.944.944 0 0 0 1.045 1.572" fill="#2e5fac"/></g></g></svg>