<svg viewBox="0 0 2176 656" xmlns="http://www.w3.org/2000/svg"><title>Bloom</title><desc>Bloom Logo</desc><path d="M411.416 164.193C411.258 217.685 367.797 261 314.208 261c-53.59 0-97.05-43.315-97.208-96.807 0 0-3.503-18.079 15.18-58.318 31.939-68.792 80.762-98.557 80.762-98.557s52.935 33.24 84.462 98.557c16.54 34.266 14.012 58.318 14.012 58.318zm0 328.614C411.258 439.315 367.797 396 314.208 396c-53.59 0-97.05 43.315-97.208 96.807 0 0-3.503 18.079 15.18 58.318 31.939 68.792 80.762 98.557 80.762 98.557s52.935-33.24 84.462-98.557c16.54-34.266 14.012-58.318 14.012-58.318zm49.391-261.223c-53.492.158-96.807 43.619-96.807 97.208 0 53.59 43.315 97.05 96.807 97.208 0 0 18.079 3.503 58.318-15.18 68.792-31.939 98.557-80.762 98.557-80.762s-33.24-52.935-98.557-84.462c-34.266-16.54-58.318-14.012-58.318-14.012zm-297.614-1c53.492.158 96.807 43.619 96.807 97.208 0 53.59-43.315 97.05-96.807 97.208 0 0-18.079 3.503-58.318-15.18-68.792-31.939-98.557-80.762-98.557-80.762s33.24-52.935 98.557-84.462c34.266-16.54 58.318-14.012 58.318-14.012zm850.881-4.369c0 24.753-12.653 56.107-51.714 70.96 50.064 12.65 71.52 55.556 71.52 86.36 0 62.708-45.663 116.064-121.034 116.064H750V120.602h151.843c68.219 0 112.231 40.705 112.231 105.613zm-183.201 44.006h63.268c20.905 0 35.21-16.502 35.21-39.055 0-23.653-12.104-39.605-35.76-39.605h-62.718v78.66zm75.921 66.558h-75.921v91.862h77.572c26.957 0 40.711-24.203 40.711-46.756 0-21.453-13.754-45.106-42.362-45.106zM1071.09 103v396.6h76.472V103h-76.472zm244.619 326.19c31.909 0 58.316-23.102 58.316-58.857 0-34.654-26.407-58.307-58.316-58.307-31.359 0-57.766 23.653-57.766 58.307 0 35.755 26.407 58.858 57.766 58.858zm0 74.81c-72.62 0-133.137-52.807-133.137-133.667s60.517-133.116 133.137-133.116 133.688 52.256 133.688 133.116c0 80.86-61.068 133.667-133.688 133.667zm286.43-74.81c31.91 0 58.317-23.102 58.317-58.857 0-34.654-26.407-58.307-58.316-58.307-31.36 0-57.767 23.653-57.767 58.307 0 35.755 26.408 58.858 57.767 58.858zm0 74.81c-72.62 0-133.137-52.807-133.137-133.667s60.517-133.116 133.138-133.116c72.62 0 133.687 52.256 133.687 133.116 0 80.86-61.067 133.667-133.687 133.667zm452.578-192.524c22.556 0 42.362 17.602 42.362 51.156V499.6H2173V353.831c0-77.56-37.96-116.614-99.028-116.614-18.155 0-52.265 5.5-77.021 45.655-14.305-29.703-41.812-45.105-82.524-45.105-27.507 0-55.015 15.402-67.119 42.355v-37.405h-76.471V499.6h76.471V363.733c0-39.055 21.456-52.257 44.563-52.257 22.006 0 41.812 17.052 42.362 49.506V499.6h76.471V363.733c0-37.405 19.806-52.257 44.013-52.257z" fill="#6067f1" fill-rule="evenodd"/></svg>