<svg width="4096" height="1024" viewBox="0 0 4096 1024" fill="none" xmlns="http://www.w3.org/2000/svg"><path d="M529.49 519.626c14.514 20.957 21.577 50.434 21.577 88.344 0 46.387-11.381 79.025-35.004 97.154-22.869 17.551-60.987 25.945-114.57 25.945-71.182 0-125.993-1.686-164.519-5.071a9.834 9.834 0 0 1-8.974-9.795v-434.19a9.834 9.834 0 0 1 8.869-9.785c34.369-3.394 82.919-5.082 145.74-5.082 56.479 0 96.193 8.248 119.48 25.536 24.134 17.916 35.759 50.709 35.759 97.564 0 33.363-6.359 59.133-19.505 77.204-7.114 9.778-16.361 17.352-27.632 22.741 16.557 6.312 29.548 16.104 38.779 29.435zm-141.845-62.443c28.149 0 47.028-4.267 56.403-11.936 8.78-7.182 13.702-22.838 13.702-47.45 0-23.998-5.263-38.994-14.777-45.81-10.499-7.522-31.824-11.689-63.511-11.689h-70.105v116.885h78.288zm-78.288 200.172l82.694.563c31.125 0 51.792-4.325 61.572-12.044 9.094-7.177 14.199-23.202 14.199-48.601 0-28.925-5.631-47.751-15.883-56.823-10.63-9.408-31.937-14.757-63.664-15.149h-78.918v132.054zm423.974-375.342v341.059c0 12.377 2.271 20.404 6.053 24.319 3.68 3.811 11.492 6.122 23.768 6.122h154.216a9.834 9.834 0 0 1 9.814 9.195l3.147 48.453a9.831 9.831 0 0 1-8.905 10.427c-41.057 3.809-97.147 5.706-168.344 5.706-66.955 0-102.365-32.75-102.365-95.412V282.013c0-5.431 4.404-9.833 9.836-9.833h62.945c5.432 0 9.835 4.402 9.835 9.833zM1166.98 264c67.38 0 115.34 17.396 143.08 52.858 27.27 34.854 40.49 95.51 40.49 182.25s-13.22 147.396-40.49 182.25c-27.74 35.462-75.7 52.858-143.08 52.858-66.95 0-114.71-17.402-142.45-52.858-27.263-34.854-40.481-95.51-40.481-182.25s13.218-147.396 40.481-182.25c27.74-35.456 75.5-52.858 142.45-52.858zm76.06 107.622c-13.51-21.167-38.44-31.953-76.06-31.953-37.6 0-62.4 10.773-75.7 31.901-14.08 22.359-21.47 65.061-21.47 127.538 0 62.477 7.39 105.179 21.47 127.537 13.3 21.129 38.1 31.902 75.7 31.902 37.62 0 62.55-10.786 76.06-31.953 14.26-22.346 21.74-65.027 21.74-127.486s-7.48-105.14-21.74-127.486zm946.61 148.004c14.51 20.957 21.58 50.434 21.58 88.344 0 46.387-11.38 79.025-35.01 97.154-22.87 17.551-60.98 25.945-114.57 25.945-71.18 0-125.99-1.686-164.51-5.071-5.08-.447-8.98-4.698-8.98-9.795v-434.19a9.837 9.837 0 0 1 8.87-9.785c34.37-3.394 82.92-5.082 145.74-5.082 56.48 0 96.19 8.248 119.48 25.536 24.13 17.916 35.76 50.709 35.76 97.564 0 33.363-6.36 59.133-19.51 77.204-7.11 9.778-16.36 17.352-27.63 22.741 16.56 6.312 29.55 16.104 38.78 29.435zm-141.84-62.443c28.15 0 47.02-4.267 56.4-11.936 8.78-7.182 13.7-22.838 13.7-47.45 0-23.998-5.26-38.994-14.78-45.81-10.49-7.522-31.82-11.689-63.51-11.689h-70.1v116.885h78.29zm4.4 200.735c31.13 0 51.79-4.325 61.57-12.044 9.1-7.177 14.2-23.202 14.2-48.601 0-28.925-5.63-47.751-15.88-56.823-10.63-9.408-31.94-14.757-63.66-15.149h-78.92v132.054l82.69.563zM2479.33 264c67.38 0 115.34 17.396 143.08 52.858 27.27 34.854 40.49 95.51 40.49 182.25s-13.22 147.396-40.49 182.25c-27.74 35.462-75.7 52.858-143.08 52.858-66.95 0-114.71-17.402-142.45-52.858-27.26-34.854-40.48-95.51-40.48-182.25s13.22-147.396 40.48-182.25c27.74-35.456 75.5-52.858 142.45-52.858zm76.06 107.622c-13.51-21.167-38.44-31.953-76.06-31.953-37.6 0-62.4 10.773-75.7 31.901-14.08 22.359-21.47 65.061-21.47 127.538 0 62.477 7.39 105.179 21.47 127.537 13.3 21.129 38.1 31.902 75.7 31.902 37.62 0 62.55-10.786 76.06-31.953 14.26-22.346 21.75-65.027 21.75-127.486s-7.49-105.14-21.75-127.486zm430.11 223.527h-158.57l-38.15 123.946a9.833 9.833 0 0 1-9.4 6.94h-64.21c-6.68 0-11.42-6.523-9.35-12.878l135.89-416.948c4.6-15.544 16.23-24.029 32.72-24.029h64.2c16.89 0 28.47 8.547 32.15 24.19l136.45 416.775c2.08 6.356-2.66 12.89-9.35 12.89h-64.83a9.833 9.833 0 0 1-9.4-6.94l-38.15-123.946zm-69.42-226.335c-1.31-3.928-3.13-9.909-5.47-17.995a769.49 769.49 0 0 0-3.11-10.521h-2.37l-8.09 28.311-47.05 152.13h113.07l-46.98-151.925zm552.26 207.401l40.91 137.179c1.88 6.305-2.84 12.641-9.43 12.641h-67.35c-4.43 0-8.31-2.96-9.48-7.23l-37.03-134.906c-7.97-25.01-22.56-36.574-45.46-36.574l-79.47-.56v169.438c0 5.43-4.41 9.832-9.84 9.832h-62.32c-5.43 0-9.83-4.402-9.83-9.832v-434.19c0-5.03 3.8-9.248 8.8-9.778 36.07-3.818 86.95-5.718 152.73-5.718 54.54 0 93.67 9.528 117.4 29.343 24.26 20.245 35.95 55.886 35.95 106.342 0 36.665-6.63 64.785-20.35 84.309-10.1 14.369-24.72 24.601-43.62 30.764 18.85 12.432 31.73 32.303 38.39 58.94zm-129.16-102.67c28.85-.39 47.98-5.384 57.34-14.054 9.09-8.433 14.16-26.199 14.16-53.514 0-26.866-5.04-44.282-14.09-52.504-9.32-8.466-28.44-13.175-57.28-13.175-35.22 0-61.33.142-78.28.426v132.821h78.15zm252.58 242.658v-434.19c0-5.169 4-9.455 9.16-9.809 55.19-3.791 107.66-5.687 157.4-5.687 66.53 0 113.97 17.183 141.5 52.211 27.06 34.439 40.18 94.472 40.18 180.38s-13.12 145.941-40.18 180.38c-27.53 35.028-74.97 52.211-141.5 52.211-49.74 0-102.21-1.896-157.4-5.687a9.83 9.83 0 0 1-9.16-9.809zm82.61-60.385c24.52.98 52.51 1.47 83.95 1.47 36.33 0 60.5-10.739 73.82-31.901 14.08-22.366 21.47-64.638 21.47-126.279 0-61.641-7.39-103.913-21.47-126.279-13.32-21.162-37.49-31.902-73.82-31.902-12.55 0-29.2.105-49.94.314-14.23.144-25.57.239-34.01.284v314.293zM1689.22 781.671l3.63 1.413c45.18 17.582 75 20.978 145.01 8.649 6.65-1.172 12.48 4.559 11.42 11.23l-9.42 59.072a9.827 9.827 0 0 1-7.58 8.051c-58.93 13.093-104.22 7.708-157.52-17.154-56.94-26.566-84.31-35.521-123.97-38.353-5.84-.417-10.03-5.809-8.98-11.566l6.56-36.052a9.83 9.83 0 0 1 9.67-8.073c53.21 0 80.88-6.331 106.16-27.387-13.32 1.813-27.66 2.715-43.03 2.715-66.94 0-114.79-17.396-142.74-52.827-27.49-34.859-40.82-95.53-40.82-182.281s13.33-147.422 40.82-182.281c27.95-35.432 75.8-52.827 142.74-52.827 67.37 0 115.34 17.396 143.08 52.858 27.27 34.854 40.49 95.51 40.49 182.25 0 85.548-8.09 131.513-31.78 178.886-21.43 42.851-59.1 80.228-100.78 97.342 5.18 1.799 10.76 3.888 17.04 6.335zm8.01-410.049c-13.51-21.167-38.44-31.953-76.06-31.953-37.6 0-62.41 10.773-75.71 31.901-14.07 22.359-21.46 65.061-21.46 127.538 0 62.477 7.39 105.179 21.46 127.537 13.3 21.129 38.11 31.902 75.71 31.902 37.62 0 62.55-10.786 76.06-31.953 14.26-22.346 21.74-65.027 21.74-127.486s-7.48-105.14-21.74-127.486z" fill="#17517C"/></svg>