<svg xmlns="http://www.w3.org/2000/svg" width="753.84" height="639.42" viewBox="0 0 753.84 639.42"><title>Group 9</title><path fill="#5A31C3" d="M148.986 529.015c3.335 0 6.063-.455 8.337-1.213 2.122-.758 3.941-1.817 5.154-3.186 1.213-1.363 2.274-2.881 2.729-4.697s.758-3.484.758-5.455c0-1.975-.303-3.94-.91-5.457-.606-1.668-1.516-3.031-2.88-4.096-1.364-1.213-3.032-1.971-5.305-2.574-2.122-.604-4.851-.908-8.034-.908H131.1v27.734h17.886v-.148zM131.1 459.743v27.285h13.794c2.88 0 5.457-.306 7.882-.759 2.274-.454 4.244-1.213 5.76-2.272 1.516-1.062 2.729-2.426 3.486-4.24.758-1.819 1.212-3.791 1.212-6.367 0-2.575-.303-4.698-1.061-6.366-.758-1.666-1.667-3.183-3.031-4.244-1.364-1.062-3.184-1.818-5.306-2.271s-4.699-.76-7.579-.76l-15.157-.006zm15.006-15.764c6.821 0 12.581.605 17.432 1.972 4.851 1.213 8.792 3.031 11.823 5.457 3.032 2.272 5.305 5.151 6.669 8.487 1.364 3.335 2.122 7.123 2.122 11.218 0 2.272-.303 4.547-1.061 6.67-.606 2.121-1.667 4.092-3.183 6.062a22.343 22.343 0 0 1-5.457 5.15 34.374 34.374 0 0 1-7.882 3.938c6.821 1.668 11.975 4.244 15.31 7.884 3.334 3.639 5.002 8.487 5.002 14.248 0 4.243-.758 8.188-2.425 11.975-1.667 3.643-4.093 6.822-7.276 9.555-3.183 2.729-7.124 4.851-11.671 6.361-4.547 1.52-10.004 2.273-15.916 2.273h-39.259V444.128h35.772v-.149zm86.4 28.042c5.457 0 10.308.909 14.704 2.577s8.185 4.244 11.368 7.429c3.183 3.182 5.608 7.123 7.276 11.67 1.667 4.549 2.577 9.701 2.577 15.463 0 5.764-.909 10.912-2.577 15.461-1.667 4.547-4.093 8.488-7.276 11.67-3.183 3.188-6.973 5.609-11.368 7.432-4.396 1.668-9.247 2.578-14.704 2.578s-10.307-.91-14.854-2.578c-4.396-1.666-8.185-4.244-11.369-7.432-3.183-3.182-5.608-7.119-7.427-11.67-1.819-4.549-2.577-9.697-2.577-15.461 0-5.762.909-10.914 2.577-15.463 1.819-4.547 4.244-8.484 7.427-11.67 3.184-3.185 6.973-5.605 11.369-7.429 4.395-1.82 9.398-2.577 14.854-2.577zm0 59.722c5.457 0 9.55-1.814 12.278-5.604 2.577-3.791 3.941-9.397 3.941-16.979 0-7.429-1.364-13.035-3.941-16.824-2.577-3.789-6.669-5.605-12.278-5.605-5.608 0-9.701 1.816-12.429 5.605-2.577 3.789-3.941 9.396-3.941 16.824 0 7.432 1.364 13.188 3.941 16.979 2.728 3.632 6.821 5.604 12.429 5.604zm111.26-58.51v71.85h-11.819c-2.429 0-4.097-1.061-4.699-3.336l-1.212-5.002c-1.521 1.365-2.881 2.729-4.396 3.789-1.516 1.213-3.183 2.123-4.851 3.033-1.667.907-3.642 1.516-5.608 1.971-1.97.453-4.244.762-6.518.762-3.941 0-7.427-.606-10.459-1.975-3.032-1.365-5.608-3.185-7.579-5.605-1.97-2.43-3.638-5.309-4.699-8.645-1.061-3.334-1.667-6.971-1.667-11.062v-45.627h19.25v45.627c0 3.938.91 7.123 2.729 9.246 1.819 2.271 4.547 3.334 8.185 3.334 2.729 0 5.307-.604 7.579-1.817 2.425-1.213 4.699-2.729 6.821-4.853v-51.688l18.943-.002zm33.65 8.338c1.517-1.365 2.88-2.729 4.547-3.789 1.668-1.062 3.188-2.123 5.003-3.033 1.818-.904 3.643-1.516 5.608-1.969a29.539 29.539 0 0 1 6.518-.761c3.941 0 7.429.607 10.459 1.972 3.031 1.365 5.608 3.188 7.579 5.608 2.122 2.427 3.639 5.306 4.698 8.642 1.062 3.334 1.518 6.977 1.518 11.063v45.775h-19.252v-45.625c0-3.939-.908-7.123-2.729-9.246-1.818-2.273-4.547-3.334-8.188-3.334-2.729 0-5.307.604-7.579 1.668-2.427 1.213-4.695 2.729-6.817 4.85v51.689H359.53V473.23h11.819c2.43 0 4.097 1.062 4.854 3.334l1.213 5.007zm136.118 63.512H494.43v-58.055h-31.827v37.438c0 1.972.451 3.64 1.359 4.695.909 1.217 2.273 1.818 4.094 1.818.908 0 1.667-.15 2.429-.304a5.58 5.58 0 0 0 1.668-.76c.454-.305.909-.453 1.36-.76.453-.148.762-.303 1.214-.303.604 0 1.062.149 1.362.452.307.306.758.759 1.062 1.365l5.76 9.246c-2.577 2.121-5.607 3.639-8.942 4.695-3.335 1.062-6.817 1.668-10.459 1.668-3.184 0-6.062-.453-8.641-1.361-2.577-.91-4.699-2.272-6.366-4.096-1.668-1.816-3.031-3.938-3.938-6.363-.909-2.428-1.364-5.309-1.364-8.488v-38.805h-6.821c-1.061 0-1.813-.305-2.575-.908-.759-.606-1.062-1.668-1.062-2.881v-7.578l11.521-2.123 3.939-18.646c.455-2.121 1.971-3.185 4.244-3.185h10.005v21.828h51.082v71.411zm3.031-92.463c0 1.52-.308 3.031-.909 4.547-.606 1.363-1.52 2.576-2.577 3.641-1.062 1.062-2.425 1.816-3.789 2.578-1.364.758-3.032.904-4.699.904-1.516 0-3.03-.303-4.548-.904-1.516-.606-2.729-1.52-3.789-2.578-1.062-1.062-1.971-2.272-2.576-3.641-.604-1.361-.909-2.881-.909-4.547 0-1.668.307-3.185.909-4.549.605-1.359 1.52-2.729 2.576-3.789 1.062-1.062 2.273-1.972 3.789-2.576 1.518-.604 2.881-.906 4.548-.906s3.188.303 4.699.906c1.517.604 2.729 1.52 3.789 2.576 1.062 1.062 1.971 2.272 2.577 3.789.606 1.367.909 2.881.909 4.549zm59.117 48.049c0-1.973-.305-3.938-.759-5.764-.604-1.814-1.362-3.482-2.577-4.851-1.213-1.364-2.576-2.426-4.396-3.336-1.819-.758-3.941-1.211-6.367-1.211-4.547 0-8.185 1.359-10.762 3.938-2.577 2.575-4.244 6.366-5.153 11.217h30.014v.007zm-30.317 11.369c.604 6.67 2.577 11.676 5.76 14.854 3.185 3.183 7.428 4.699 12.582 4.699 2.576 0 5.002-.309 6.82-.91 1.971-.606 3.638-1.364 5.15-2.123 1.52-.758 2.729-1.516 3.939-2.12 1.213-.607 2.426-.91 3.484-.91 1.518 0 2.575.606 3.484 1.668l5.607 6.977c-1.974 2.427-4.244 4.396-6.82 5.908-2.576 1.521-5.003 2.729-7.729 3.641a36.064 36.064 0 0 1-8.032 1.816c-2.729.307-5.31.453-7.884.453-5.003 0-9.699-.758-14.101-2.424-4.396-1.668-8.185-4.095-11.367-7.277-3.184-3.182-5.761-7.271-7.578-11.975-1.815-4.851-2.729-10.308-2.729-16.675 0-4.854.759-9.549 2.426-13.793 1.668-4.396 3.941-8.032 6.977-11.368 3.028-3.183 6.671-5.761 11.062-7.578 4.396-1.818 9.246-2.881 14.703-2.881a38.7 38.7 0 0 1 12.731 2.123c3.938 1.362 7.271 3.639 10.005 6.366 2.729 2.728 5.003 6.215 6.519 10.308 1.519 4.092 2.273 8.641 2.273 13.944 0 1.517 0 2.576-.151 3.482-.15.91-.304 1.668-.758 2.273-.306.604-.759.909-1.364 1.213-.604.149-1.213.303-2.121.303l-42.888.006zm104.135-24.1c-.454.758-1.061 1.364-1.516 1.668-.455.303-1.213.454-2.122.454s-1.819-.303-2.88-.758c-.909-.455-2.122-.91-3.336-1.52-1.216-.604-2.576-1.062-4.096-1.517-1.517-.455-3.334-.758-5.457-.758-3.184 0-5.456.604-7.271 1.969-1.667 1.214-2.577 3.033-2.577 5.005 0 1.516.455 2.575 1.517 3.637.909.91 2.273 1.817 3.94 2.578 1.668.758 3.485 1.362 5.457 1.973 1.971.604 4.093 1.361 6.366 2.119 2.121.762 4.24 1.668 6.362 2.576 1.975.91 3.94 2.123 5.457 3.643 1.667 1.517 2.88 3.185 3.94 5.306a18.518 18.518 0 0 1 1.516 7.428c0 3.485-.604 6.67-1.971 9.701-1.213 2.881-3.183 5.457-5.607 7.577-2.426 2.123-5.457 3.791-9.242 5.005-3.643 1.211-7.887 1.817-12.732 1.817-2.426 0-4.852-.151-7.275-.606a52.481 52.481 0 0 1-6.974-1.818c-2.122-.758-4.244-1.814-6.062-2.881-1.973-1.062-3.483-2.271-5.004-3.482l4.396-7.123c.454-.909 1.212-1.52 1.971-1.975.76-.455 1.818-.758 3.031-.758s2.273.305 3.184.91c.909.604 2.121 1.211 3.336 1.817 1.216.604 2.576 1.359 4.242 1.814 1.669.606 3.643.91 6.217.91 1.817 0 3.484-.152 4.854-.604 1.364-.455 2.426-1.062 3.335-1.672.909-.758 1.517-1.516 1.818-2.424.453-.91.604-1.816.604-2.881 0-1.517-.454-2.881-1.516-3.938-1.062-1.062-2.273-1.819-3.94-2.578-1.668-.758-3.482-1.362-5.604-1.975-2.122-.604-4.244-1.213-6.366-1.971-2.122-.759-4.244-1.666-6.366-2.576-2.122-1.062-3.938-2.271-5.457-3.938-1.667-1.52-2.88-3.485-3.938-5.762-1.062-2.271-1.519-5.004-1.519-8.338 0-3.027.604-5.76 1.667-8.484 1.213-2.729 2.88-5.002 5.308-7.125 2.271-1.975 5.151-3.643 8.643-4.854 3.483-1.213 7.428-1.816 11.975-1.816 5.153 0 9.701.906 13.945 2.574s7.579 3.789 10.31 6.521l-4.563 7.13zM113.971 564.03h.91c.304 0 .455.149.606.149.151.148.303.148.606.306.152.149.303.453.606.604l21.827 27.892c-.151-.604-.151-1.363-.151-1.972V563.88h6.821v41.836h-3.941c-.606 0-1.061-.149-1.516-.307-.455-.148-.758-.604-1.213-1.062l-21.827-27.739c0 .606.151 1.213.151 1.819v27.283h-6.821v-41.68h3.942zm108.228 0v6.215h-18.493v11.521h14.552v5.912h-14.552v11.818h18.493v6.219h-26.223V564.03h26.223zm78.518 0v6.364h-12.581v35.318h-7.73v-35.318h-12.581v-6.364h32.892zm43.504 0h6.521c.604 0 1.213.149 1.667.455.455.303.758.758.91 1.211l7.124 24.858c.146.604.303 1.213.45 1.972.151.758.308 1.516.455 2.272.15-.758.307-1.52.454-2.272.151-.759.454-1.363.606-1.972l8.185-24.858a2.36 2.36 0 0 1 .909-1.211c.455-.306 1.062-.604 1.668-.604h2.273c.604 0 1.213.146 1.668.451.454.307.758.762.907 1.215l8.188 24.855c.454 1.213.758 2.576 1.062 4.094a52 52 0 0 1 .455-2.119c.15-.604.307-1.363.453-1.975l7.125-24.855a2.38 2.38 0 0 1 .909-1.215c.454-.305 1.062-.451 1.667-.451h6.063l-12.888 41.685h-6.974l-9.095-28.496c-.152-.306-.308-.758-.308-1.213-.147-.455-.304-.91-.304-1.365-.151.455-.304.91-.304 1.365s-.305.758-.305 1.213l-9.247 28.496h-7.429l-12.865-41.536zm146.576 20.918c0 3.03-.454 5.91-1.516 8.487-1.062 2.576-2.425 4.851-4.244 6.82-1.818 1.971-4.093 3.336-6.67 4.396-2.576 1.062-5.456 1.666-8.644 1.666-3.184 0-6.062-.604-8.641-1.666-2.577-1.062-4.851-2.578-6.67-4.396-1.817-1.975-3.335-4.096-4.244-6.82-1.061-2.577-1.516-5.457-1.516-8.487 0-3.031.455-5.912 1.516-8.484 1.062-2.578 2.427-4.854 4.244-6.822 1.819-1.971 4.093-3.334 6.67-4.396 2.576-1.062 5.457-1.668 8.641-1.668 3.188 0 6.062.606 8.644 1.668 2.578 1.062 4.852 2.578 6.67 4.396 1.819 1.818 3.335 4.095 4.244 6.67.909 2.724 1.516 5.453 1.516 8.636zm-8.033 0c0-2.271-.305-4.396-.91-6.215a13.248 13.248 0 0 0-2.572-4.548c-1.062-1.213-2.577-2.274-4.096-2.881-1.669-.604-3.483-1.062-5.457-1.062-1.973 0-3.938.307-5.457 1.062-1.668.604-3.028 1.668-4.094 2.881-1.213 1.211-1.972 2.88-2.576 4.548-.604 1.817-.906 3.788-.906 6.215 0 2.424.304 4.396.906 6.215a13.328 13.328 0 0 0 2.576 4.551c1.213 1.213 2.576 2.271 4.094 2.879 1.671.604 3.484 1.062 5.457 1.062 1.974 0 3.788-.303 5.457-1.062 1.666-.604 3.029-1.666 4.096-2.879a13.155 13.155 0 0 0 2.572-4.551c.606-1.971.91-3.941.91-6.215zm64.572 4.547v16.223h-7.729V564.03h12.729c2.881 0 5.307.303 7.276.908 1.97.606 3.638 1.364 5.002 2.426 1.361 1.062 2.271 2.272 2.88 3.789.604 1.52.909 3.033.909 4.854 0 1.359-.151 2.729-.606 3.938-.453 1.211-1.061 2.424-1.813 3.334-.762.91-1.669 1.975-2.884 2.729-1.213.758-2.427 1.361-3.938 1.814.909.606 1.818 1.365 2.577 2.43l10.459 15.31h-6.977c-.604 0-1.214-.15-1.668-.453-.454-.306-.908-.604-1.214-1.213l-8.791-13.341c-.303-.455-.758-.907-1.062-1.062-.454-.146-.909-.303-1.667-.303h-3.486l.003.305zm0-5.609h4.852c1.52 0 2.729-.149 3.79-.604 1.062-.303 1.974-.91 2.729-1.517.758-.606 1.213-1.364 1.518-2.272.307-.91.453-1.816.453-2.881 0-2.121-.758-3.789-2.121-4.851-1.36-1.062-3.482-1.668-6.362-1.668h-5.003v13.793h.144zm80.185-2.424h1.813c.759 0 1.364-.152 1.819-.307a2.353 2.353 0 0 0 1.213-.91l11.521-14.553c.455-.604.909-1.062 1.52-1.211.455-.306 1.213-.306 1.971-.306h6.67l-14.097 17.279c-.455.604-.91 1.062-1.213 1.361-.455.309-.909.606-1.364.909.606.304 1.213.605 1.667.91.455.304 1.062.908 1.517 1.666l14.399 19.556h-6.82c-.909 0-1.668-.148-2.122-.455-.454-.304-.759-.604-1.212-1.213l-11.822-15.31c-.452-.455-.759-.91-1.361-1.062a6.857 6.857 0 0 0-1.975-.304h-2.427V605.7h-7.729v-41.67h7.729v17.436l.303-.004zM354.982 415.028v4.396h-8.488v24.103h-5.31v-24.103h-8.641v-4.396h22.439zm34.106 28.496h-5.306v-12.431h-13.339v12.431h-5.31v-28.496h5.31v12.276h13.339v-12.276h5.306v28.496zm30.164-28.496v4.244h-12.581v7.881h10.004v4.094h-10.004v8.033h12.581v4.244h-18.038v-28.496h18.038z"/><g fill="#5A31C3"><path d="M371.359 132.656l12.258 9.722c3.269-6.205 5.924-11.791 14.302-23.994-15.936 6.826-26.56 14.272-26.56 14.272zm-99.492-15.098c-.204-2.896-.816-9.1-1.634-11.376-2.043-5.998-10.214-20.063-13.892-26.268-.203-.414-.816 0-.613.413l13.483 39.092c.409-.207.817-.621 1.021-.828.411-.413 1.022-.827 1.635-1.033zm-14.096 14.272c-.817.826-2.248 0-2.248 0s-10.624-11.376-12.666-12.617c-5.924-3.723-24.107-6.206-30.646-7.032-.409 0-.613.62-.204.62 0 0 42.901 22.752 43.105 22.338.821-1.241 1.842-2.276 2.659-3.309zm183.868 230.208c3.269 2.275 10.214 2.068 14.097 1.861l4.496-.828c.405 0 .405-.62.2-.62-6.944-3.101-34.317-18.407-40.243-28.956-1.229-2.275 3.472-18.203 3.472-18.203l-21.451-6.619s7.764 22.133 11.031 26.682c4.697 6.623 19.817 20.686 28.398 26.683z"/><path d="M458.594 250.347c-2.451-1.861-2.653 0-9.396 17.788-6.741 17.582-25.129 40.954-54.957 34.542 1.021 1.447 2.453 2.482 4.086 3.928 1.432 1.448 7.561 6 7.561 6s12.872 11.375 24.924 13.858c29.622 5.997 42.29-27.925 46.172-38.058 2.452-6.412 4.698-18.822 5.106-26.683 0-1.447 0-5.583-.815-4.755-2.859 3.102-6.742 2.896-11.236 1.654-4.295-1.035-10.014-7.033-11.445-8.274zm80.901-198.356c-2.654-3.31-4.902-5.792-7.965-7.446-8.175-5.378-19.614-6.826-37.796.207-18.999 7.239-33.709 16.96-46.58 28.13-39.836 31.439-55.773 73.633-55.773 73.633s7.151 4.343 10.01 5.791c6.743 3.93 17.367 10.135 17.367 10.135s49.234 2.482 83.354-19.029c15.934-10.134 39.428-49.848 41.062-75.289.817-6.412-.203-11.79-3.679-16.132zm27.173 60.602c-.408-6.825-21.044-15.099-23.087-10.548-6.537 14.064-16.548 35.782-37.997 48.193 19.611-5.584 62.308-17.582 61.084-37.645zm-172.63 71.566c-26.765 13.651-34.527 39.298-34.118 57.086.204 4.965.817 9.929 2.043 14.065 1.634 5.793 1.838 6.825 4.086 11.998 3.472-28.75 13.688-52.122 32.893-66.601 12.054-9.101 22.268-11.169 30.03-11.169 2.859-.206 7.763.207 8.581.621-2.862-3.931-18.183-19.237-43.515-6z"/><path d="M454.1 204.429c-4.698-4.55-6.129-4.757-10.011-7.032-5.924-.827-17.159-1.033-29.215 4.964-20.428 10.342-30.849 28.336-38.814 52.949-3.063 9.307-4.085 21.098-3.882 21.305 6.743 10.134 9.807 16.134 18.798 18.407 25.944 6.412 43.719-17.788 50.867-34.334 3.679-8.688 9.603-25.234 11.237-26.061 2.861-1.655 8.582 7.446 12.26 11.376 4.902 4.963 8.783 6.826 13.483 5.791 12.866-2.895-15.325-38.471-24.723-47.365z"/><path d="M419.778 388.308c-5.106-3.516-32.277-22.959-36.568-33.715-2.656-6.41 1.224-20.892 0-27.716-.613-3.104-3.271-14.271-5.721-21.099-4.698-12.824-18.795-37.024-22.679-50.053-.611-2.276-8.376-33.92 8.99-57.5 23.085-31.44 44.741-28.545 52.709-26.062-4.902-7.032-26.969-13.031-34.525-18.822-9.603-7.445-24.721-23.58-36.161-29.785-2.86-1.654-5.516-2.689-8.375-3.516-2.86-.827-5.924-.62-9.396-.827-5.107 0-36.773 3.103-51.074 42.608-9.397 26.062-1.839 37.231.203 40.748.613 1.033 1.431 2.067 2.451 3.103 6.742 7.239 20.43 17.787 21.043 28.542.203 4.963-8.172 10.962-8.989 15.926-1.634 10.963 6.537 34.542 9.602 45.09 3.27 10.548 15.936 41.367 15.936 41.367-.204-2.688 1.226-5.169 1.838-6.205 0 0 4.7 2.069 5.926 3.517l1.021 1.448s-.204-.619-.816-1.655c-2.86-5.79-10.828-21.924-14.302-29.577-1.226-2.689-2.859-6.825-4.29-10.135-2.859-6.619-.205-23.58 2.859-29.991 3.473-7.032 12.667-9.308 12.667-9.308s29.214 37.23 35.751 51.503c4.495 9.928 5.925 32.681 10.827 42.401 4.496 9.099 22.065 26.683 31.258 35.782 3.676 3.518 8.58 5.378 13.688 4.965l5.721-.414c.406.001.609-.413.406-.62z"/><path d="M272.48 208.153c-1.022-1.241-2.452-3.102-2.861-3.93-1.226-2.274-4.903-8.687-4.289-19.649-.408-4.963-1.227-1.033-1.227-.62-2.655 6.618-2.45 19.856 1.021 29.371 3.677 9.721-3.881 19.648-6.537 25.649-2.247 5.17-2.656 7.032-.613 4.755 3.27-3.102 14.71-13.858 16.753-17.58 0 0 2.247-3.104 2.451-12.825-1.634-1.864-3.267-3.723-4.698-5.171zm26.559-88.32c6.742-3.516 12.258-3.929 10.01-3.723-6.945.207-15.117 1.241-22.881 6.826-.204.206-1.021-.413-2.042-1.24-2.657-2.689-8.582-4.551-12.258-3.93-6.742 1.034-13.891 2.896-20.634 13.445-6.945 10.962-18.999 47.572-7.968 54.19 3.677 2.068 13.485-5.998 22.065-11.79 1.634-4.343 3.881-12.824 6.129-18.409 10.418-26.475 21.45-31.439 27.579-35.369zm-30.44 11.376c-2.247 1.448-8.171 3.102-9.602 0-.817-1.654 3.269-4.137 5.925-3.723 1.43.413 5.311 2.688 3.677 3.723z"/></g></svg>