<svg width="677" height="203" viewBox="0 0 677 203" fill="none" xmlns="http://www.w3.org/2000/svg"><path fill="#000" fill-opacity="0" d="M0 0h676.5v203H0z"/><path fill="#000" fill-opacity="0" d="M139 57.5h325.9v82.8H139z"/><path fill="#000" fill-opacity="0" d="M139 57.5h325.9v82.8H139z"/><path fill="#000" fill-opacity="0" d="M139 57.5h67.222v82.8H139z"/><path d="M139 107.4V57.5h4.8c3.9 0 7 3.2 7 7v22.2c7.7-6.8 14.2-9.6 22.8-9.7 16.6-.3 31.1 12 32.5 28.6 1.6 19.8-12.8 34.7-31.5 34.7-20.6 0-35.6-12.8-35.6-32.9zm11.6 3.9c1.2 10.3 11 18.8 21.4 19 13.5.2 22.8-8.6 22.8-21.7 0-12.9-9-21.7-22.2-21.7-14 .1-23.6 10.3-22 24.4z" fill="#77777A"/><path fill="#000" fill-opacity="0" d="M215.8 76.6h249.1V140H215.8z"/><path fill="#000" fill-opacity="0" d="M215.8 76.6h249.1V140H215.8z"/><path d="M228 78.2v8.9c7.4-8.3 11.8-10.5 20.5-10.5 2.4 0 4 .1 7.6.6V89c-3.5-.9-5.4-1.1-8.2-1.1-6.3 0-11.6 2.1-15.5 6-3.4 3.4-4.4 6.1-4.4 11.4v32.9h-12.2v-60H228zm33.1 19.9c.6-5.8 1.8-9 4.3-12.1 5-6.2 14.1-9.4 27-9.4 10.2 0 17.6 1.6 22.8 5 4.3 2.8 6.1 6.9 6.1 14.2v26.7c0 5.8 1.5 7.9 5.7 7.8.8 0 1.8-.1 2.8-.2v8c-2.3.7-3.8 1-6.4 1-7.7 0-11.2-2.3-13.6-9-7.6 6.9-15.4 9.9-26.6 9.9-15 0-24.2-6.8-24.2-17.9 0-6.5 3.7-12.1 9.5-14.6 4.5-2 7.3-2.6 20.3-3.9 11.1-1.1 13-1.3 16.1-2.3 3.4-1.1 4.9-2.9 4.9-6 0-6.5-5.4-9.4-16.8-9.4-10.7 0-16.3 2.1-18.5 7.6-1.1 2.7-3.7 4.6-6.8 4.6h-6.6zm48.5 10.2c-6.8 2.1-14 3.4-23.8 4.4-11 1.1-14.4 3.2-14.4 8.6 0 6.1 5 9.3 15 9.3 8.2 0 14.4-2.1 18.8-6.1 3.5-3.3 4.4-5.6 4.4-11.3v-4.9zm52.8 30h-3.2c-2.8 0-5.4-1.6-6.5-4.1l-26.4-56h7.3c4.3 0 8.2 2.5 9.9 6.4l17.6 40.3 18.2-40.4c1.7-3.8 5.6-6.3 9.9-6.3h6.7l-27.1 56c-1.1 2.5-3.6 4.1-6.4 4.1zm44.9-26.6c1.3 11.6 10.3 18.8 23.8 18.8 7.7 0 13.4-2.3 17-6.8 2-2.6 5.2-4.1 8.6-4.1h7.1c-6.2 13.6-17.3 20.3-33.8 20.3-20.7 0-34.5-12.5-34.5-31.3 0-18.9 14.2-31.9 34.8-31.9 14.9 0 26.8 6.7 31.6 17.9 2.1 5.1 3 9.7 3 17.2h-57.6v-.1zm45.2-9.2c-2.8-10.6-11-16.6-22.3-16.6-11.5 0-19.5 6-22.4 16.6h44.7z" fill="#77777A"/><path fill="#000" fill-opacity="0" d="M0 36.4h110.5v129.9H0z"/><path fill="#000" fill-opacity="0" d="M0 36.4h110.5v129.9H0z"/><path d="M110.5 78.5l-4-10.9 2.8-6.2c.4-.8.2-1.7-.4-2.4l-7.6-7.7c-3.3-3.3-8.2-4.5-12.7-3l-2.1.7-11.6-12.5-19.6-.1h-.1l-19.7.2L24 49.2l-2.1-.7c-4.5-1.6-9.5-.4-12.8 3l-7.7 7.8c-.5.5-.6 1.2-.3 1.9L4 67.7 0 78.6l2.6 9.8L14.3 133c1.4 5.1 4.5 9.6 8.8 12.7 0 0 14.2 10 28.3 19.2 1.2.8 2.5 1.4 3.9 1.4s2.7-.6 3.9-1.4c15.8-10.4 28.3-19.2 28.3-19.2 4.3-3.1 7.4-7.6 8.8-12.7L108 88.4l2.5-9.9z" fill="#FF3A1E"/><path fill="#000" fill-opacity="0" d="M12.4 56.2h85.9v82.6H12.4z"/><path fill="#000" fill-opacity="0" d="M12.4 56.2h85.9v82.6H12.4z"/><path fill="#000" fill-opacity="0" d="M37.748 116.2h35.543v22.6H37.748z"/><path d="M58.5 117c-1.1-.5-2.1-.8-2.3-.8h-1.4c-.2 0-1.2.4-2.3.8l-3.5 1.5c-1.1.5-2.9 1.3-4 1.8l-6.4 3.4c-1.1.6-1.1 1.6-.2 2.3l5.6 3.9c1 .7 2.5 1.9 3.4 2.7L49 134c.9.8 2.4 2.1 3.3 2.9l1.5 1.3c.9.8 2.4.8 3.3 0l1.6-1.4c.9-.8 2.4-2.1 3.3-2.9l1.6-1.4c.9-.8 2.4-2 3.4-2.7l5.6-4c1-.7.9-1.7-.2-2.3l-6.4-3.3c-1.1-.5-2.9-1.4-4-1.8l-3.5-1.4z" fill="#fff"/><path fill="#000" fill-opacity="0" d="M12.4 56.2h85.9v63.549H12.4z"/><path d="M98.1 80.9l.2-.6c0-.7-.1-1.7-.1-2.3 0-.6-1.4-2.9-2.1-3.9l-3.6-5.3c-.7-1-1.8-2.6-2.6-3.5L85 59.2c-.8-.9-1.4-1.7-1.4-1.7h-.1s-1 .2-2.2.4l-7.4 1.4c-1.2.2-2.6.5-3.3.6-.7.1-2-.1-3.2-.5l-5.9-1.9c-1.1-.4-3-.9-4.2-1.2 0 0-.5-.1-1.9-.1-1.3 0-1.9.1-1.9.1-1.2.3-3.1.8-4.2 1.2l-5.9 1.9c-1.1.4-2.6.6-3.2.5-.6-.1-2.1-.4-3.3-.6l-7.5-1.4c-1.2-.2-2.2-.4-2.2-.4h-.1s-.7.8-1.4 1.7l-4.9 6.1c-.7.9-1.9 2.5-2.6 3.5l-3.6 5.3c-.7 1-1.4 2.3-1.7 2.9-.3.6-.5 2.7-.5 3.4l.2.6c.3 1 .3 1.1.3 1.1.8.9 2 2.4 2.9 3.3l12.7 13.5c.8.9 1.1 2.5.6 3.6l-2.1 4.9c-.5 1.1-.5 2.9-.1 4.1l.4 1.1c.7 1.9 1.9 3.5 3.4 4.8l2 1.6c.9.8 2.6 1 3.7.4l7.1-3.4c1.1-.5 2.7-1.6 3.6-2.4l5.7-5.1c1-.9 1-2.3.1-3.3l-12.8-8.7c-1-.7-1.4-2.1-.8-3.2l5-9.4c.6-1.1.7-2.7.2-3.7-.4-1-1.7-2.1-2.8-2.6l-15.6-5.9c-1.1-.4-1.1-.9.1-1l9.2-.9c1.2-.1 3.1.1 4.3.4l8 2.2c1.2.3 1.9 1.6 1.7 2.7l-3.1 17.1c-.2 1.2-.3 2.5-.2 2.9.1.4 1.2.9 2.4 1.2l4.9 1c1.2.3 3.1.2 4.3 0l4.4-1c1.2-.3 2.2-.8 2.4-1.2.1-.4.1-1.7-.2-2.9l-3.2-17.1c-.2-1.2.6-2.4 1.7-2.7l8-2.2c1.2-.3 3.1-.5 4.3-.4l9.2.9c1.2.1 1.3.6.1 1l-15.6 5.9c-1.1.4-2.4 1.6-2.8 2.6-.4 1-.3 2.7.2 3.7l5 9.4c.6 1.1.2 2.5-.8 3.2l-12.8 8.7c-.9.9-.8 2.4.1 3.3l5.7 5.1c.9.8 2.5 1.9 3.6 2.4l7.1 3.4c1.1.5 2.7.3 3.7-.4l2-1.6c1.5-1.3 2.7-2.9 3.4-4.8l.4-1.1c.4-1.1.4-3-.1-4.1l-1.9-4.9c-.5-1.1-.2-2.7.6-3.6l12.7-13.5c.8-.9 2.1-2.4 2.9-3.3 0-.1.1-.1.3-1.2z" fill="#fff"/><path fill="#000" fill-opacity="0" d="M460.4 74h10.2v10h-10.2z"/><path d="M470.6 79c0 2.8-2.2 5-5.1 5-2.8 0-5.1-2.2-5.1-5s2.3-5 5.1-5c2.9 0 5.1 2.2 5.1 5zm-8.9 0c0 2.2 1.6 4 3.9 4 2.2 0 3.8-1.8 3.8-3.9 0-2.2-1.6-4-3.8-4-2.3-.1-3.9 1.7-3.9 3.9zm3 2.6h-1.1v-5c.5-.1 1.1-.2 1.9-.2.9 0 1.4.2 1.7.4.3.2.5.6.5 1.1 0 .5-.4 1-1 1.1v.1c.5.2.8.5.9 1.2.2.8.2 1.1.4 1.2h-1.2c-.2-.2-.2-.6-.4-1.2-.1-.5-.4-.8-1-.8h-.5v2.1h-.2zm.1-2.8h.5c.6 0 1.1-.2 1.1-.7 0-.5-.3-.8-1.1-.8-.3 0-.5 0-.6.1v1.4h.1z" fill="#77777A"/><path d="M530.6 0v203" stroke="#77777A" stroke-miterlimit="10"/><path fill="#000" fill-opacity="0" d="M577.5 56.3h99v85.3h-99z"/><path d="M676.5 141.6L627 113.1l-49.4 28.5h98.9z" fill="#67308F"/><path d="M627.2 56.4l-.1 56.8 49.4 28.4-49.3-85.2z" fill="#9E2064"/><path d="M577.5 141.6l49.6-28.2.1-57.1-49.7 85.3z" fill="#FF3A1E"/><path d="M627.2 90.6l-20.1 34.2 40.2.1-20.1-34.3z" fill="#fff" stroke="#FF3A1E" stroke-width=".782" stroke-miterlimit="10"/><path fill="#000" fill-opacity="0" d="M643.9 57h31.4v12.1h-31.4z"/><path d="M649.1 57c.5 0 1 0 1.5.1s.9.3 1.2.5c.4.2.6.5.9.9.2.4.3.8.3 1.4 0 .3-.1.6-.2.9-.1.3-.2.6-.4.8-.2.2-.4.4-.7.6-.3.2-.5.3-.9.4.8.1 1.4.4 1.9 1 .5.5.7 1.2.7 2 0 .2 0 .4-.1.6 0 .2-.1.5-.2.7-.1.3-.2.5-.4.8-.2.3-.4.5-.8.6-.3.2-.7.3-1.2.5-.5.1-1 .2-1.7.2h-5.1V57h5.2zm0 5.3c.5 0 .9-.1 1.2-.2.3-.1.6-.3.8-.4.2-.2.4-.4.5-.6.1-.2.2-.5.2-.8 0-1.5-.9-2.3-2.7-2.3h-3.9v4.3h3.9zm0 5.8c.4 0 .8 0 1.2-.1.4-.1.7-.2 1-.4.3-.2.5-.4.7-.8.2-.4.3-.7.3-1.2 0-.8-.3-1.4-.8-1.7-.5-.4-1.3-.6-2.4-.6h-3.9v4.8h3.9zM661 57l4.7 12h-1.2l-1.5-3.7h-5.4l-1.5 3.7h-1.2l4.8-12h1.3zm1.7 7.4l-2.3-6.2-2.4 6.2h4.7zm12.6-7.4v1h-4.2v11.1H670V58h-4.2v-1h9.5z" fill="#67308F"/></svg>