<svg id="Layer_1" xmlns="http://www.w3.org/2000/svg" viewBox="0 0 552 214.7"><style>.st0{fill:#0053d2}.st1{fill:#0035dd}.st2{fill:#003ed9}.st3{fill:#003cda}.st4{fill:#00b2af}.st5{fill:#00c0ab}.st6{fill:#00e2a0}.st7{fill:#00d3a6}.st8{fill:#00d1a7}.st9{fill:#004cd3}.st10{fill:#00b5b0}.st11{fill:#00a0b8}.st12{fill:#00cea7}.st13{fill:#00beae}.st14{fill:#00afb2}.st15{fill:#00b7af}.st16{fill:#00bcad}.st17{fill:#007bc3}.st18{fill:#00a6b6}.st19{fill:#0051d1}.st20{fill:#0054d1}.st21{fill:#0063cb}.st22{fill:#0089c0}.st23{fill:#00a0b6}.st24{fill:#0195bb}.st25{fill:#01a4b7}.st26{fill:#009db8}.st27{fill:#0096bb}.st28{fill:#0071c7}.st29{fill:#0145d6}.st30{fill:#008cbd}.st31{fill:#008dbd}.st32{fill:#007cc2}.st33{fill:#005fcd}.st34{fill:#005ecf}.st35{fill:#0068cb}.st36{fill:#0042d7}.st37{fill:#0079c4}.st38{fill:#0072c8}.st39{fill:#0052d2}.st40{fill:#0064cc}.st41{fill:#0062cd}.st42{fill:#005bce}.st43{fill:#0157d0}.st44{fill:#0056d1}.st45{fill:#004cd5}.st46{fill:#014ad5}.st47{fill:#fff}</style><switch><g><path class="st0" d="M202.5 9.5c-2.1-1.9-4.5-3.6-7.1-5-3.2-1.8-6.8-3.1-10.5-3.8-2.3-.5-4.7-.7-7.1-.7H36.7C25.9 0 16.1 4.8 9.4 12.3 5 17.2 1.9 23.3.6 30c-.4 2.1-.5 4.2-.5 6.3L0 64.5v74.2l.1 27.9V178c0 5.7 1.2 11.3 3.8 16.4 2.1 4.2 5 7.9 8.5 11 6.5 5.8 15.1 9.4 24.4 9.4H178c11.4 0 21.6-5.2 28.4-13.4 2.2-2.7 4.1-5.7 5.5-9 1.9-4.4 3-9.3 3-14.4V36.8c-.2-10.8-5-20.5-12.4-27.3z"/><path class="st1" d="M214.7 158.9v-5.4l-4.1 4.9z"/><path class="st2" d="M210.6 158.4l4.1-4.9v-14.2l-13 11.7z"/><path class="st3" d="M214.7 139.3V98.1l-13 52.9z"/><path class="st4" d="M59 20.1L52.3 0h-11l-2.5 33.9z"/><path class="st5" d="M41.3 0h-4.6C25.9 0 16.1 4.8 9.4 12.3L38.8 34l2.5-34z"/><path class="st6" d="M-.1 116.7v2.7l1.7-2z"/><path class="st2" d="M211.7 192.3c1.9-4.4 3-9.3 3-14.4v-19l-4-.5 1 33.9z"/><path class="st7" d="M9.4 12.3C5 17.2 1.9 23.3.6 30c-.4 2.1-.5 4.2-.5 6.3L0 64.5 38.8 34 9.4 12.3z"/><path class="st8" d="M12.6 92.7H-.1v24l1.7.7zm26.2-58.8L0 64.5v7.3h21.9z"/><path class="st9" d="M187.5 60.8l27.2 13.1v-3.6L194.6 47z"/><path class="st10" d="M69.3 147l3.1 1.4-.2-1.4zM49 71.8h12.2l-1.5-10.3zM69.3 127l-5.1-34.3H27.3L1.6 117.4 69.3 147z"/><path class="st11" d="M48.1 177.4l41.6 37.3h10.2l-27.5-66.3z"/><path class="st12" d="M.1 166.6V178c0 5.7 1.2 11.3 3.8 16.4 2.1 4.2 5 7.9 8.5 11l35.8-27.9L.1 166.6zm1.5-49.2l-1.7 2v19.2l.2 28 48 10.8z"/><path class="st13" d="M12.3 205.3c6.5 5.8 15.1 9.4 24.4 9.4h8.8l2.6-37.3-35.8 27.9z"/><path class="st14" d="M59 20.1L38.8 33.9l20.9 27.6z"/><path class="st15" d="M69.3 147L1.6 117.4l46.5 60 24.3-29-3.1-1.4z"/><path class="st16" d="M38.8 33.9L21.9 71.8H49l10.7-10.3zM12.6 92.7l-11 24.7 25.7-24.7z"/><path class="st17" d="M133.1 153.2l-22 61.5h16.6l25.2-16.8z"/><path class="st18" d="M45.5 214.7h44.2l-41.6-37.3z"/><path class="st19" d="M201.7 151l13-52.9V75.7L160 68.6z"/><path class="st20" d="M160 68.6l54.7 7.1v-1.8l-27.2-13.1z"/><path class="st21" d="M152.9 197.9l8.4 16.8h13.6z"/><path class="st22" d="M107 25l.5 46.8h4.3l7.5-49zm1.7 67.7h-1l.1 5.7z"/><path class="st23" d="M69.3 54.1V21.2L59 20.1l.7 41.4zm21-30.8v14.6L107 25z"/><path class="st24" d="M69.3 13.6L59 20.1l10.3 1.1zm21 9.7L107 25l.3-25H90.9l-.6.4z"/><path class="st25" d="M90.9 0h-.6v.4zM69.3 13.6V0h-17L59 20.1z"/><path class="st26" d="M72.2 147l.2 1.4.9-1.4zm-11-75.2h11.9L59.7 61.5zm8.1 33.3h21V123l17.5-24.6-7.5-5.7H64.2l5.1 34.3z"/><path class="st27" d="M90.3 37.9v21.5h-21v-5.3l-9.6 7.4 13.4 10.3h34.4L107 25zm17.4 54.8h-7.4l7.5 5.7z"/><path class="st28" d="M157.7 43.6l-38.4-20.8L160 68.6z"/><path class="st29" d="M214.7 40.6v-3.8c0-10.8-4.7-20.5-12.2-27.3L194.6 47l20.1-6.4z"/><path class="st22" d="M119.3 22.8L111.2 0h-3.9l-.3 25z"/><path class="st30" d="M90.3 123v2.7h30.1l-12.6-27.3zm-17 24l-.9 1.4 60.7 4.8-2.8-6.2z"/><path class="st31" d="M72.4 148.4l27.5 66.3h11.2l22-61.5z"/><path class="st32" d="M119.3 22.8l-7.5 49h33.3v5.3l14.9-8.5zm-1.5 69.9h-9.1l-.9 5.7z"/><path class="st33" d="M174.9 214.7l16.7-52.6-38.7 35.8z"/><path class="st34" d="M133.1 153.2l58.5 8.9 10.1-11.1z"/><path class="st35" d="M152.9 197.9l38.7-35.8-58.5-8.9z"/><path class="st36" d="M214.7 70.3V40.6L194.6 47z"/><path class="st37" d="M130.3 147l2.8 6.2 2-6.2zm-9.9-21.3h3.4v-33h-6l-10 5.7zm24.7-48.6v38.4L160 68.6z"/><path class="st38" d="M127.7 214.7h33.6l-8.4-16.8z"/><path class="st39" d="M191.6 162.1l-16.8 52.6h3c11.4 0 21.6-5.2 28.4-13.4l-14.6-39.2z"/><path class="st40" d="M160 68.6l-14.9 46.9V147h-10l-2 6.2 68.6-2.2z"/><path class="st41" d="M187.5 60.8l-29.8-17.2 2.3 25z"/><path class="st42" d="M194.6 47l-36.9-3.4 29.8 17.2z"/><path class="st43" d="M194.6 47l7.9-37.5c-2.1-1.9-4.5-3.6-7.1-5l-37.7 39.1 36.9 3.4z"/><path class="st44" d="M174.9 214.7h.1-.1z"/><path class="st45" d="M201.7 151l-10.1 11.1 19-3.7z"/><path class="st35" d="M157.7 43.6l37.7-39.1c-3.2-1.8-6.8-3.1-10.5-3.8l-65.6 22.1 38.4 20.8z"/><path class="st28" d="M184.9.7c-2.3-.5-4.7-.7-7.1-.7h-66.7l8.2 22.8L184.9.7z"/><path class="st46" d="M191.6 162.1l14.6 39.1c2.2-2.7 4.1-5.7 5.5-9l-1.1-33.9-19 3.8z"/><path class="st47" d="M69.3 21.2v38.2h21V0h-21v13.6zm-42 71.5h96.5v33H90.3v-20.6h-21V147h75.8V71.8H0l-.1 5.5v15.4h12.7z"/><path class="st0" d="M306.9 125.5c-9.6 0-18.1-7.8-18.1-18.9 0-11.8 8.5-18.6 18.1-18.6 10.1 0 18.1 7.5 18.1 18.6 0 11.6-8.3 18.9-18.1 18.9m4.5-59.4c-9.8 0-19.1 3.8-22.9 11.1V25.4h-23.1v120.4h23.1v-9.6c3.8 7 13.3 11.3 22.9 11.3 20.1 0 37.7-15.8 37.7-40.5 0-25-17.6-40.9-37.7-40.9m210.2 37.4l25.6-35.7h-26.9l-11.5 17.1-11.6-17.1h-26.9l25.6 35.7-30.6 42.3h26.9l16.6-23.9 16.6 23.9H552zm-254.9 79.7c-.1-.1-.2-.3-.2-.5v-17.5c0-.2.1-.4.2-.5.1-.1.3-.2.5-.2h2.2c.3 0 .6.2.8.5l5.2 9.6 5.2-9.6c.2-.3.5-.5.8-.5h2.1c.2 0 .4.1.5.2.1.1.2.3.2.5v17.5c0 .2-.1.4-.2.5-.1.1-.3.2-.5.2h-2.3c-.2 0-.3-.1-.5-.2-.1-.1-.2-.3-.2-.5v-11.5l-3.7 7.1c-.2.4-.5.6-.9.6h-1.1c-.4 0-.7-.2-.9-.6l-3.7-7.1v11.5c0 .2-.1.3-.2.5-.1.1-.3.2-.5.2h-2.3c-.2 0-.4-.1-.5-.2zm22.8-.1c-.8-.4-1.4-.9-1.8-1.5-.4-.6-.7-1.3-.7-2.1 0-1.2.5-2.2 1.5-3 1-.8 2.3-1.3 4.1-1.5l3.7-.5v-.5c0-.8-.2-1.4-.6-1.7-.4-.4-1-.6-1.9-.6-.6 0-1.1.1-1.4.3-.4.2-.6.4-.9.7l-.4.4c-.1.2-.2.3-.4.3h-2.1c-.2 0-.3-.1-.4-.2-.1-.1-.2-.3-.2-.4 0-.4.2-1 .7-1.5.4-.6 1.1-1.1 1.9-1.5.9-.4 2-.6 3.2-.6 2.1 0 3.6.5 4.6 1.4 1 .9 1.4 2.2 1.4 3.7v8.4c0 .2-.1.3-.2.5-.1.1-.3.2-.5.2H297c-.2 0-.3-.1-.5-.2-.1-.1-.2-.3-.2-.5v-1c-.4.6-.9 1-1.7 1.4-.7.4-1.6.6-2.7.6-.8 0-1.6-.2-2.4-.6zm5.8-3c.6-.6.9-1.6.9-2.8v-.5l-2.7.4c-2.1.3-3.1 1-3.1 2.1 0 .6.2 1 .7 1.3.5.3 1 .5 1.7.5 1.1 0 1.9-.3 2.5-1zm8.2 3.1c-.1-.1-.2-.3-.2-.5v-12.6c0-.2.1-.4.2-.5.1-.1.3-.2.5-.2h2.2c.2 0 .4.1.5.2.1.1.2.3.2.5v1.1c.9-1.2 2.2-1.8 3.9-1.8h1.1c.2 0 .4.1.5.2.1.1.2.3.2.5v2c0 .2-.1.3-.2.5-.1.1-.3.2-.5.2h-2.1c-.8 0-1.5.2-2 .7-.5.5-.7 1.1-.7 2v7.4c0 .2-.1.3-.2.5-.1.1-.3.2-.5.2H304c-.2-.2-.4-.3-.5-.4zm13.3 5.3c-1-.5-1.7-1.1-2.1-1.8-.4-.7-.6-1.3-.6-1.7 0-.2.1-.3.2-.4.1-.1.3-.2.5-.2h2.4c.2 0 .3 0 .4.1.1.1.2.2.3.4.2.5.5.9.9 1.2.4.3 1 .5 1.8.5 1.1 0 1.9-.2 2.4-.7.5-.5.8-1.3.8-2.5v-1.8c-1 1.1-2.3 1.7-4.1 1.7-1.9 0-3.3-.6-4.2-1.7-.9-1.1-1.4-2.7-1.5-4.6v-1.4c.1-1.9.6-3.5 1.5-4.6.9-1.2 2.3-1.7 4.2-1.7.9 0 1.8.2 2.5.5.7.4 1.3.8 1.8 1.4v-1c0-.2.1-.4.2-.5.1-.1.3-.2.5-.2h2.2c.2 0 .3.1.5.2.1.1.2.3.2.5v12.9c0 2-.6 3.5-1.7 4.6-1.1 1.1-2.8 1.6-5 1.6-1.8 0-3.1-.3-4.1-.8zm6-9c.5-.6.8-1.4.8-2.4v-1.8c-.1-.9-.3-1.7-.8-2.4-.5-.6-1.3-1-2.3-1-1.9 0-3 1.2-3.1 3.5v.6c0 2.8 1 4.2 3.1 4.2 1 .2 1.8-.1 2.3-.7zM331 167c-.1-.1-.2-.3-.2-.5v-2c0-.2.1-.4.2-.5.1-.1.3-.2.5-.2h2.5c.2 0 .4.1.5.2.1.1.2.3.2.5v2c0 .2-.1.3-.2.5-.1.1-.3.2-.5.2h-2.5c-.3 0-.4-.1-.5-.2zm.1 16.2c-.1-.1-.2-.3-.2-.5V170c0-.2.1-.4.2-.5.1-.1.3-.2.5-.2h2.3c.2 0 .3.1.5.2.1.1.2.3.2.5v12.7c0 .2-.1.3-.2.5s-.3.2-.5.2h-2.3c-.3 0-.4-.1-.5-.2zm7.1 0c-.1-.1-.2-.3-.2-.5V170c0-.2.1-.4.2-.5.1-.1.3-.2.5-.2h2.2c.2 0 .4.1.5.2.1.1.2.3.2.5v1.1c1.1-1.3 2.6-2 4.5-2 1.6 0 3 .5 3.9 1.6 1 1.1 1.4 2.5 1.4 4.4v7.5c0 .2-.1.3-.2.5-.1.1-.3.2-.5.2h-2.4c-.2 0-.3-.1-.5-.2-.1-.1-.2-.3-.2-.5v-7.4c0-1-.3-1.8-.8-2.4-.5-.6-1.2-.9-2.2-.9-.9 0-1.6.3-2.2.9-.6.6-.8 1.4-.8 2.4v7.4c0 .2-.1.3-.2.5-.1.1-.3.2-.5.2h-2.4c-.1.1-.2 0-.3-.1zm16.6 0c-.1-.1-.2-.3-.2-.5V180c0-.2.1-.3.2-.5.1-.1.3-.2.5-.2h2.7c.2 0 .3.1.5.2.1.1.2.3.2.5v2.7c0 .2-.1.3-.2.5-.1.1-.3.2-.5.2h-2.7c-.2 0-.4-.1-.5-.2zm13.8 0c-.1-.1-.2-.3-.2-.5v-17.5c0-.2.1-.4.2-.5.1-.1.3-.2.5-.2h6.5c5.3 0 8 2.4 8.1 7.3 0 1 .1 1.7.1 2.1 0 .3 0 1-.1 2.1-.1 2.5-.7 4.4-2 5.5-1.3 1.2-3.3 1.8-5.9 1.8h-6.7c-.2.1-.4 0-.5-.1zm7-2.9c1.5 0 2.6-.3 3.2-1 .7-.7 1-1.8 1-3.3 0-1.1.1-1.7.1-2 0-.3 0-.9-.1-2 0-1.5-.4-2.5-1.1-3.2-.7-.7-1.8-1-3.3-1h-3.3v12.6h3.5zm12.6 1.6c-1.2-1.1-1.8-2.8-1.9-4.9v-.7c0-2.2.6-4 1.8-5.3 1.2-1.3 2.8-1.9 4.9-1.9 2.1 0 3.8.6 4.9 1.9 1.2 1.3 1.7 3 1.7 5.2v.6c0 .2-.1.3-.2.5-.1.1-.3.2-.5.2H390v.2c0 1 .3 1.8.8 2.5s1.2 1 2.1 1c1 0 1.9-.4 2.5-1.2l.4-.4c.1 0 .2-.1.5-.1h2.4c.2 0 .3 0 .4.1.1.1.2.2.2.4 0 .4-.3.9-.8 1.5s-1.2 1.1-2.2 1.5c-.9.4-2 .6-3.3.6-2 .1-3.6-.5-4.8-1.7zm7.7-6.7c0-1.1-.3-2-.8-2.6-.5-.6-1.2-1-2.2-1-.9 0-1.6.3-2.1 1-.5.6-.8 1.5-.8 2.5v.1h5.9zm7.9 6.8c-1.2-1.1-1.8-2.6-1.9-4.5v-2.2c.1-1.9.7-3.4 1.9-4.5s2.7-1.6 4.7-1.6c1.4 0 2.6.3 3.6.8s1.7 1.1 2.2 1.8c.5.7.7 1.4.8 2.1 0 .2 0 .3-.2.5-.1.1-.3.2-.5.2H412c-.2 0-.3 0-.4-.1-.1-.1-.2-.2-.3-.4-.3-.7-.6-1.2-1.1-1.5-.4-.3-1-.5-1.7-.5-.9 0-1.6.3-2.1.9-.5.6-.8 1.4-.8 2.6v1.9c.1 2.3 1.1 3.5 3 3.5.7 0 1.3-.1 1.7-.4.4-.3.8-.8 1-1.5.1-.2.2-.3.3-.4.1-.1.2-.1.4-.1h2.4c.2 0 .3.1.5.2.1.1.2.3.2.5 0 .6-.3 1.3-.8 2s-1.2 1.3-2.1 1.9c-1 .5-2.2.8-3.6.8-2.1-.3-3.6-.9-4.8-2zm15.3-.1c-1.2-1.1-1.8-2.8-1.9-4.9v-.7c0-2.2.6-4 1.8-5.3 1.2-1.3 2.8-1.9 4.9-1.9 2.1 0 3.8.6 4.9 1.9 1.2 1.3 1.7 3 1.7 5.2v.6c0 .2-.1.3-.2.5-.1.1-.3.2-.5.2h-8.9v.2c0 1 .3 1.8.8 2.5s1.2 1 2.1 1c1 0 1.9-.4 2.5-1.2l.4-.4c.1 0 .2-.1.5-.1h2.4c.2 0 .3 0 .4.1.1.1.2.2.2.4 0 .4-.3.9-.8 1.5s-1.2 1.1-2.2 1.5c-.9.4-2 .6-3.3.6-2 .1-3.6-.5-4.8-1.7zm7.7-6.7c0-1.1-.3-2-.8-2.6-.5-.6-1.2-1-2.2-1-.9 0-1.6.3-2.1 1-.5.6-.8 1.5-.8 2.5v.1h5.9zm6.7 8c-.1-.1-.2-.3-.2-.5V170c0-.2.1-.4.2-.5.1-.1.3-.2.5-.2h2.2c.2 0 .4.1.5.2.1.1.2.3.2.5v1.1c1.1-1.3 2.6-2 4.5-2 1.6 0 3 .5 3.9 1.6 1 1.1 1.4 2.5 1.4 4.4v7.5c0 .2-.1.3-.2.5-.1.1-.3.2-.5.2h-2.4c-.2 0-.3-.1-.5-.2-.1-.1-.2-.3-.2-.5v-7.4c0-1-.3-1.8-.8-2.4-.5-.6-1.2-.9-2.2-.9-.9 0-1.6.3-2.2.9-.6.6-.8 1.4-.8 2.4v7.4c0 .2-.1.3-.2.5-.1.1-.3.2-.5.2H434c-.2.1-.3 0-.5-.1zm19.1-1.1c-.8-.8-1.2-2.1-1.2-3.7v-6.1h-2.1c-.2 0-.3-.1-.5-.2-.1-.1-.2-.3-.2-.5V170c0-.2.1-.3.2-.5.1-.1.3-.2.5-.2h2.1V165c0-.2.1-.4.2-.5.1-.1.3-.2.5-.2h2.2c.2 0 .4.1.5.2.1.1.2.3.2.5v4.5h3.4c.2 0 .3.1.5.2.1.1.2.3.2.5v1.6c0 .2-.1.3-.2.5-.1.1-.3.2-.5.2H455v5.8c0 .8.1 1.4.4 1.7.3.4.7.6 1.3.6h1.9c.2 0 .4.1.5.2.1.1.2.3.2.5v1.7c0 .2-.1.3-.2.5-.1.1-.3.2-.5.2h-2.2c-1.7-.3-3-.7-3.8-1.6zm9.1 1.1c-.1-.1-.2-.3-.2-.5v-12.6c0-.2.1-.4.2-.5.1-.1.3-.2.5-.2h2.2c.2 0 .4.1.5.2.1.1.2.3.2.5v1.1c.9-1.2 2.2-1.8 3.9-1.8h1.1c.2 0 .4.1.5.2.1.1.2.3.2.5v2c0 .2-.1.3-.2.5-.1.1-.3.2-.5.2H468c-.8 0-1.5.2-2 .7-.5.5-.7 1.1-.7 2v7.4c0 .2-.1.3-.2.5-.1.1-.3.2-.5.2h-2.4c-.2-.2-.4-.3-.5-.4zm12.4-.1c-.8-.4-1.4-.9-1.8-1.5-.4-.6-.7-1.3-.7-2.1 0-1.2.5-2.2 1.5-3 1-.8 2.3-1.3 4.1-1.5l3.7-.5v-.5c0-.8-.2-1.4-.6-1.7-.4-.4-1-.6-1.9-.6-.6 0-1.1.1-1.4.3-.4.2-.6.4-.9.7l-.4.4c-.1.2-.2.3-.4.3h-2.1c-.2 0-.3-.1-.4-.2-.1-.1-.2-.3-.2-.4 0-.4.2-1 .7-1.5.4-.6 1.1-1.1 1.9-1.5.9-.4 2-.6 3.2-.6 2.1 0 3.6.5 4.6 1.4 1 .9 1.4 2.2 1.4 3.7v8.4c0 .2-.1.3-.2.5-.1.1-.3.2-.5.2h-2.2c-.2 0-.3-.1-.5-.2-.1-.1-.2-.3-.2-.5v-1c-.4.6-.9 1-1.7 1.4-.7.4-1.6.6-2.7.6-.7 0-1.5-.2-2.3-.6zm5.8-3c.6-.6.9-1.6.9-2.8v-.5l-2.7.4c-2.1.3-3.1 1-3.1 2.1 0 .6.2 1 .7 1.3.5.3 1 .5 1.7.5 1.1 0 1.9-.3 2.5-1zm8.2 3.1c-.1-.1-.2-.3-.2-.5V165c0-.2.1-.4.2-.5.1-.1.3-.2.5-.2h2.3c.2 0 .4.1.5.2.1.1.2.3.2.5v17.8c0 .2-.1.3-.2.5-.1.1-.3.2-.5.2h-2.3c-.2-.1-.4-.2-.5-.3zm7-16.2c-.1-.1-.2-.3-.2-.5v-2c0-.2.1-.4.2-.5.1-.1.3-.2.5-.2h2.5c.2 0 .4.1.5.2.1.1.2.3.2.5v2c0 .2-.1.3-.2.5-.1.1-.3.2-.5.2h-2.5c-.2 0-.4-.1-.5-.2zm.1 16.2c-.1-.1-.2-.3-.2-.5V170c0-.2.1-.4.2-.5.1-.1.3-.2.5-.2h2.3c.2 0 .3.1.5.2.1.1.2.3.2.5v12.7c0 .2-.1.3-.2.5s-.3.2-.5.2h-2.3c-.2 0-.3-.1-.5-.2zm6.4 0c-.1-.1-.2-.3-.2-.5v-1.6c0-.2 0-.3.1-.4.1-.1.2-.3.3-.5l6.8-8h-6.4c-.2 0-.3-.1-.5-.2-.1-.1-.2-.3-.2-.5V170c0-.2.1-.3.2-.5.1-.1.3-.2.5-.2h10.2c.2 0 .3.1.5.2.1.1.2.3.2.5v1.7c0 .1 0 .3-.1.4-.1.1-.2.3-.3.4l-6.7 8h7c.2 0 .3.1.5.2.1.1.2.3.2.5v1.5c0 .2-.1.3-.2.5-.1.1-.3.2-.5.2h-11c-.1 0-.2-.1-.4-.2zm15.9-1.3c-1.2-1.1-1.8-2.8-1.9-4.9v-.7c0-2.2.6-4 1.8-5.3 1.2-1.3 2.8-1.9 4.9-1.9 2.1 0 3.8.6 4.9 1.9 1.2 1.3 1.7 3 1.7 5.2v.6c0 .2-.1.3-.2.5-.1.1-.3.2-.5.2h-8.9v.2c0 1 .3 1.8.8 2.5s1.2 1 2.1 1c1 0 1.9-.4 2.5-1.2l.4-.4c.1 0 .2-.1.5-.1h2.4c.2 0 .3 0 .4.1.1.1.2.2.2.4 0 .4-.3.9-.8 1.5s-1.2 1.1-2.2 1.5c-.9.4-2 .6-3.3.6-2 .1-3.6-.5-4.8-1.7zm7.7-6.7c0-1.1-.3-2-.8-2.6-.5-.6-1.2-1-2.2-1-.9 0-1.6.3-2.1 1-.5.6-.8 1.5-.8 2.5v.1h5.9zm7.6 6.7c-1-1.2-1.5-2.7-1.6-4.6v-1.8c.1-1.9.6-3.4 1.6-4.6 1-1.2 2.4-1.8 4.2-1.8 1.7 0 3.1.6 4.1 1.8v-6c0-.2.1-.4.2-.5.1-.1.3-.2.5-.2h2.3c.2 0 .4.1.5.2.1.1.2.3.2.5v17.8c0 .2-.1.3-.2.5-.1.1-.3.2-.5.2h-2.2c-.2 0-.3-.1-.5-.2-.1-.1-.2-.3-.2-.5v-1c-1 1.3-2.4 1.9-4.3 1.9-1.7.1-3.1-.5-4.1-1.7zm7.5-2.1c.5-.7.8-1.5.8-2.4v-2c0-.9-.3-1.7-.8-2.3-.5-.6-1.3-.9-2.3-.9-1.9 0-2.9 1.2-3.1 3.5v1.6c.1 2.4 1.1 3.5 3.1 3.5 1 0 1.8-.4 2.3-1zm8 3.4c-.1-.1-.2-.3-.2-.5V180c0-.2.1-.3.2-.5.1-.1.3-.2.5-.2h2.7c.2 0 .3.1.5.2.1.1.2.3.2.5v2.7c0 .2-.1.3-.2.5-.1.1-.3.2-.5.2h-2.7c-.2 0-.4-.1-.5-.2zm-112.6-92v28.6c0 6-4.9 11-11 11h-35.3c-2 0-3.6-.3-4.9-.9l53.3-69.2v.1L448 47.5c-4-7.6-12-12.9-21.2-12.9h-35.3c-13.2 0-23.9 10.7-23.9 23.9v44.6l15.5-20v-22c0-6 4.9-11 11-11h35.3l-57.9 75.7-2.8 3.6c3.1 9.5 12.1 16.4 22.7 16.4h35.3c13.2 0 23.9-10.7 23.9-23.9V72.3l-14.9 18.9z"/></g></switch></svg>