<svg width="122" height="44" viewBox="0 0 122 44" fill="none" xmlns="http://www.w3.org/2000/svg"><path d="M52.43 22.26a5.689 5.689 0 0 1 5.77-5.93 4.94 4.94 0 0 1 5.1 3.69l-1.81.6a3.14 3.14 0 0 0-3.29-2.48 3.77 3.77 0 0 0-3.75 4.12 3.76 3.76 0 0 0 3.75 4.06 3.39 3.39 0 0 0 3.38-2.49l1.76.57a5.09 5.09 0 0 1-5.14 3.76 5.62 5.62 0 0 1-5.77-5.9zm14.35 5.66h-1.85V16.33h1.85v4.55a2.91 2.91 0 0 1 5.08 2.11v4.93H70v-4.61c0-1-.43-1.73-1.6-1.73a1.628 1.628 0 0 0-1.62 1.76v4.58zm9.2-4.46l2-.31c.45-.06.58-.28.58-.56 0-.65-.45-1.18-1.47-1.18a1.501 1.501 0 0 0-1.6 1.41l-1.7-.39a3.06 3.06 0 0 1 3.28-2.54c2.4 0 3.31 1.36 3.31 2.91v3.84c-.007.419.026.838.1 1.25h-1.73a4.71 4.71 0 0 1-.08-1 2.72 2.72 0 0 1-2.4 1.23 2.44 2.44 0 0 1-2.64-2.35 2.4 2.4 0 0 1 2.35-2.31zm2.58 1.23v-.35l-2 .3c-.58.1-1 .42-1 1.06a1.001 1.001 0 0 0 1.14 1 1.78 1.78 0 0 0 1.86-2.01zm4.98-8.52a1.22 1.22 0 0 1 1.21 1.22 1.21 1.21 0 0 1-2.42 0 1.22 1.22 0 0 1 1.21-1.22zm-.92 11.75v-7.79h1.84v7.79h-1.84zm6.1 0h-1.86v-7.79h1.81v1a2.59 2.59 0 0 1 2.31-1.27c1.9 0 2.81 1.38 2.81 3.09v4.93h-1.85v-4.57c0-1-.43-1.73-1.6-1.73a1.64 1.64 0 0 0-1.62 1.84v4.5zm7.33 0V16.33h1.85v11.59h-1.85zm5.15-11.75a1.22 1.22 0 0 1 1.22 1.22 1.21 1.21 0 1 1-2.42 0 1.222 1.222 0 0 1 1.2-1.22zm-.91 11.75v-7.79h1.84v7.79h-1.84zm6.11 0h-1.86v-7.79h1.81v1a2.59 2.59 0 0 1 2.31-1.27c1.9 0 2.81 1.38 2.81 3.09v4.93h-1.85v-4.57c0-1-.43-1.73-1.6-1.73a1.638 1.638 0 0 0-1.62 1.84v4.5zm11.42-4.5l3.27 4.5h-2.27l-2.29-3.18-1 1v2.17h-1.84V16.33h1.84v7l3-3.15H121l-3.18 3.24zM18.88 9.24l10.9 6.26v12.57l-10.84 6.31-10.9-6.26V15.55l10.84-6.31zm0-9.24l-4 2.32L4 8.64l-4 2.32v21.81l4 2.3 10.9 6.26 4 2.3 4-2.32L33.77 35l4-2.32V10.86l-4-2.3-10.9-6.26-4-2.3h.01z" fill="#2A5ADA"/></svg>