<svg xmlns="http://www.w3.org/2000/svg" viewBox="0 0 1706.6667 960" height="960" width="1706.667"><defs><clipPath id="a"><path d="M4504.98 4604.24c-12.18 13.1-24.3 26.23-37.05 38.98-12.72 12.73-25.84 24.89-38.94 37.09l-37.09-37.09-38.94-38.94L4229.69 4481l-4.1-4.1-71.94-71.94-124.64-124.66v.01l-76.04-76.04c13.47-11.8 27.08-23.37 39.86-36.15 12.78-12.78 24.37-26.41 36.18-39.88 128.35-146.46 199.14-331.73 199.14-528.26 0-214.57-83.57-416.33-235.32-568.1-151.75-151.73-353.51-235.32-568.12-235.32-196.54 0-381.81 70.81-528.26 199.16l-20.75-20.76-55.28-55.28c166.86-148.56 379.03-230.66 604.28-230.66 243.33 0 472.1 94.76 644.16 266.83 172.08 172.05 266.83 400.82 266.83 644.13 0 225.27-82.08 437.43-230.64 604.29l124.63 124.65c181.58-200.07 280.97-456.84 280.97-728.94 0-290.06-112.96-562.73-318.06-767.84-205.12-205.13-477.82-318.08-767.89-318.08-272.08 0-528.85 99.38-728.93 280.97l-76.03-76.03c220.43-201.86 504.17-312.48 804.96-312.48 318.8 0 618.5 124.13 843.92 349.58 225.44 225.41 349.57 525.09 349.57 843.88 0 300.84-110.63 584.55-312.47 804.98l123.23 123.25c495.66-535.81 483.49-1374.83-37.05-1895.4-258.35-258.34-601.84-400.62-967.2-400.62-347.36 0-674.79 128.84-928.24 363.53l-38.94-38.94-37.09-37.09c273.79-254.99 628.18-395.03 1004.27-395.03 394.07 0 764.57 153.45 1043.23 432.12 562.49 562.49 574.61 1469.68 37.05 2047.46z"/></clipPath><linearGradient id="b" gradientTransform="scale(3192.29 -3192.29) rotate(-45 -.303 -1.358)" gradientUnits="userSpaceOnUse" x2="1"><stop offset="0" stop-color="#6ec0ed"/><stop offset="1" stop-color="#8259b2"/></linearGradient><clipPath id="c"><path d="M4225.59 4476.9l4.1 4.1c-220.44 201.86-504.18 312.48-804.96 312.48-318.79 0-618.51-124.13-843.92-349.58-225.43-225.41-349.58-525.09-349.58-843.88 0-300.8 110.62-584.55 312.48-804.99l-123.24-123.24c-495.66 535.81-483.5 1374.83 37.05 1895.4 258.34 258.34 601.83 400.62 967.19 400.62 347.36 0 674.8-128.84 928.25-363.53L4229.69 4481l123.27 123.28 38.94 38.94 37.09 37.09c-273.8 254.99-628.19 395.04-1004.28 395.04-394.07 0-764.57-153.45-1043.22-432.13-562.5-562.49-574.62-1469.68-37.06-2047.46 12.19-13.09 24.31-26.23 37.06-38.98 12.72-12.72 25.84-24.89 38.94-37.09l37.09 37.09 38.94 38.94L2619.74 2719l76.03 76.03 124.65 124.65 55.28 55.28 20.75 20.76c-13.46 11.8-27.08 23.38-39.87 36.16-12.78 12.78-24.36 26.4-36.16 39.87-128.36 146.43-199.16 331.73-199.16 528.23 0 214.61 83.57 416.37 235.33 568.15 151.74 151.72 353.52 235.32 568.12 235.32 196.55 0 381.82-70.83 528.26-199.18l76.04 76.04c-166.86 148.57-379.03 230.68-604.3 230.68-243.33 0-472.1-94.77-644.16-266.83-172.06-172.06-266.83-400.83-266.83-644.14 0-225.27 82.1-437.44 230.67-604.3l-124.65-124.65c-181.59 200.08-280.97 456.84-280.97 728.91 0 290.1 112.95 562.77 318.07 767.89s477.81 318.07 767.89 318.07c272.07 0 528.85-99.38 728.92-280.98l-124.64-124.65v-.01l124.64 124.66z"/></clipPath><linearGradient id="d" gradientTransform="scale(3114.7 -3114.7) rotate(-45 -.861 -1.164)" gradientUnits="userSpaceOnUse" x2="1"><stop offset="0" stop-color="#9ed11f"/><stop offset="1" stop-color="#37b576"/></linearGradient></defs><g clip-path="url(#a)" transform="matrix(.13333 0 0 -.13333 0 960)"><path d="M4504.98 4604.24c-12.18 13.1-24.3 26.23-37.05 38.98-12.72 12.73-25.84 24.89-38.94 37.09l-37.09-37.09-38.94-38.94L4229.69 4481l-4.1-4.1-71.94-71.94-124.64-124.66v.01l-76.04-76.04c13.47-11.8 27.08-23.37 39.86-36.15 12.78-12.78 24.37-26.41 36.18-39.88 128.35-146.46 199.14-331.73 199.14-528.26 0-214.57-83.57-416.33-235.32-568.1-151.75-151.73-353.51-235.32-568.12-235.32-196.54 0-381.81 70.81-528.26 199.16l-20.75-20.76-55.28-55.28c166.86-148.56 379.03-230.66 604.28-230.66 243.33 0 472.1 94.76 644.16 266.83 172.08 172.05 266.83 400.82 266.83 644.13 0 225.27-82.08 437.43-230.64 604.29l124.63 124.65c181.58-200.07 280.97-456.84 280.97-728.94 0-290.06-112.96-562.73-318.06-767.84-205.12-205.13-477.82-318.08-767.89-318.08-272.08 0-528.85 99.38-728.93 280.97l-76.03-76.03c220.43-201.86 504.17-312.48 804.96-312.48 318.8 0 618.5 124.13 843.92 349.58 225.44 225.41 349.57 525.09 349.57 843.88 0 300.84-110.63 584.55-312.47 804.98l123.23 123.25c495.66-535.81 483.49-1374.83-37.05-1895.4-258.35-258.34-601.84-400.62-967.2-400.62-347.36 0-674.79 128.84-928.24 363.53l-38.94-38.94-37.09-37.09c273.79-254.99 628.18-395.03 1004.27-395.03 394.07 0 764.57 153.45 1043.23 432.12 562.49 562.49 574.61 1469.68 37.05 2047.46" fill="url(#b)"/></g><g clip-path="url(#c)" transform="matrix(.13333 0 0 -.13333 0 960)"><path d="M4225.59 4476.9l4.1 4.1c-220.44 201.86-504.18 312.48-804.96 312.48-318.79 0-618.51-124.13-843.92-349.58-225.43-225.41-349.58-525.09-349.58-843.88 0-300.8 110.62-584.55 312.48-804.99l-123.24-123.24c-495.66 535.81-483.5 1374.83 37.05 1895.4 258.34 258.34 601.83 400.62 967.19 400.62 347.36 0 674.8-128.84 928.25-363.53L4229.69 4481l123.27 123.28 38.94 38.94 37.09 37.09c-273.8 254.99-628.19 395.04-1004.28 395.04-394.07 0-764.57-153.45-1043.22-432.13-562.5-562.49-574.62-1469.68-37.06-2047.46 12.19-13.09 24.31-26.23 37.06-38.98 12.72-12.72 25.84-24.89 38.94-37.09l37.09 37.09 38.94 38.94L2619.74 2719l76.03 76.03 124.65 124.65 55.28 55.28 20.75 20.76c-13.46 11.8-27.08 23.38-39.87 36.16-12.78 12.78-24.36 26.4-36.16 39.87-128.36 146.43-199.16 331.73-199.16 528.23 0 214.61 83.57 416.37 235.33 568.15 151.74 151.72 353.52 235.32 568.12 235.32 196.55 0 381.82-70.83 528.26-199.18l76.04 76.04c-166.86 148.57-379.03 230.68-604.3 230.68-243.33 0-472.1-94.77-644.16-266.83-172.06-172.06-266.83-400.83-266.83-644.14 0-225.27 82.1-437.44 230.67-604.3l-124.65-124.65c-181.59 200.08-280.97 456.84-280.97 728.91 0 290.1 112.95 562.77 318.07 767.89s477.81 318.07 767.89 318.07c272.07 0 528.85-99.38 728.92-280.98l-124.64-124.65v-.01l124.64 124.66 71.94 71.94" fill="url(#d)"/></g><path d="M814.815 424.167c19.126 0 30.501 7.569 39.822 18.657.887 1.055 2.475 1.156 3.51.248l4.196-3.685c1.012-.887 1.12-2.411.268-3.454-10.408-12.738-25.952-22.369-47.796-22.369-38.896 0-64.122 29.855-64.122 66.436 0 36.595 25.226 66.436 64.122 66.436 21.845 0 37.389-9.62 47.797-22.357.85-1.042.744-2.564-.265-3.452l-4.2-3.695c-1.035-.91-2.624-.81-3.512.245-9.32 11.088-20.695 18.671-39.82 18.671-33.312 0-52.564-26.572-52.564-55.848 0-29.263 19.252-55.833 52.564-55.833m322.446 0c19.126 0 30.502 7.569 39.823 18.658.885 1.054 2.475 1.155 3.51.247l4.195-3.685c1.011-.887 1.119-2.411.268-3.454-10.408-12.737-25.952-22.369-47.796-22.369-38.896 0-64.122 29.855-64.122 66.436 0 36.596 25.226 66.436 64.122 66.436 21.846 0 37.39-9.62 47.798-22.357.85-1.042.742-2.564-.267-3.452l-4.199-3.695c-1.034-.91-2.625-.81-3.512.245-9.321 11.09-20.696 18.671-39.82 18.671-33.312 0-52.565-26.572-52.565-55.848 0-29.263 19.253-55.833 52.565-55.833m-240.254-9.822a2.476 2.476 0 0 0-2.478 2.476v123.063l.002.013h-.002v3.295a2.478 2.478 0 0 0 2.478 2.477h6.596a2.476 2.476 0 0 0 2.476-2.477v-3.295h-.002l.002-.013V416.821a2.475 2.475 0 0 0-2.476-2.476h-6.596m63.396 62.385v-50.45h51.797c15.984 0 25.61 10.588 25.61 25.225 0 14.639-9.626 25.227-25.61 25.227zm-11.558 63.154l.002.013h-.002v3.295a2.477 2.477 0 0 0 2.478 2.477h6.594a2.478 2.478 0 0 0 2.478-2.477v-3.228c0-.028.008-.053.008-.08v-52.753h47.558l27.151 55.254c.067.124.137.232.207.348l.492.992a3.505 3.505 0 0 0 3.138 1.944h7.332a1.926 1.926 0 0 0 1.732-2.772l-2.665-5.464-.024-.052-.908-1.857-.004-.008-24.127-49.355c18.878-3.456 29.082-17.14 29.082-34.657 0-20.41-14.059-35.625-39.482-35.625h-58.562a2.476 2.476 0 0 0-2.478 2.476v121.529m347.656-6.163h-68.937V420.116c0-.025-.007-.05-.008-.075v-3.218a2.477 2.477 0 0 0-2.477-2.478h-6.595a2.478 2.478 0 0 0-2.477 2.478v124.821a2.477 2.477 0 0 0 2.477 2.477h80.733a2.478 2.478 0 0 0 2.478-2.477v-5.445a2.478 2.478 0 0 0-2.478-2.478h-2.716m30.224 4.629v3.294c0 1.37 1.11 2.477 2.478 2.477h80.357a2.472 2.472 0 0 0 2.467-2.476v-5.447a2.474 2.474 0 0 0-2.467-2.477h-2.72v.002s0-.002-.013-.002h-68.547v-50.64h39.667l.026-.001h2.694c1.373 0 2.48-1.11 2.48-2.477v-5.444a2.476 2.476 0 0 0-2.48-2.478h-42.387V426.28h68.36c.067 0 .133-.018.2-.02v.02h2.72c1.36 0 2.467-1.11 2.467-2.478v-5.445a2.474 2.474 0 0 0-2.467-2.477h-2.72v.018c-.067-.001-.133-.018-.2-.018h-77.437a2.478 2.478 0 0 0-2.478 2.477v119.995" fill="#47474b"/></svg>