<svg width="284" height="48" viewBox="0 0 284 48" fill="none" xmlns="http://www.w3.org/2000/svg"><path fill-rule="evenodd" clip-rule="evenodd" d="M84.731.95H79.6v34.146c2.334.827 5.237 1.498 8.557 1.498 8.504 0 13.43-4.96 13.43-12.346 0-7.335-4.979-11.57-11.617-11.57-2.022 0-4.149.568-5.238 1.136V.951zM48.106 3.018c-1.711 0-3.216 1.395-3.216 3.15 0 1.81 1.505 3.256 3.215 3.256 1.712 0 3.216-1.447 3.216-3.255 0-1.756-1.504-3.151-3.215-3.151zm-31.77 28.416c-1.12.437-2.3.667-3.578.667-4.46 0-7.573-2.893-7.573-7.438 0-4.804 3.216-7.44 7.365-7.44 1.22 0 2.403.21 3.553.668a14.463 14.463 0 0 1 2.18-3.679c-1.907-1.015-3.799-1.534-6.199-1.534C5.341 12.677 0 17.273 0 24.662c0 7.336 5.082 11.932 12.085 11.932 2.354 0 4.514-.493 6.576-1.597a14.256 14.256 0 0 1-2.325-3.564zM30.42 12.677c6.897 0 11.876 4.856 11.876 11.985 0 7.077-4.98 11.932-11.876 11.932-6.845 0-11.823-4.855-11.823-11.932 0-7.129 4.978-11.985 11.823-11.985zm-6.64 11.985c0-4.649 2.8-7.594 6.638-7.594 3.942 0 6.69 2.945 6.69 7.594 0 4.598-2.748 7.541-6.69 7.541-3.837 0-6.638-2.943-6.638-7.541zm21.785 11.416h5.133V13.193h-5.133v22.885zm9.612-21.438c3.216-1.24 7.158-1.963 10.528-1.963 5.86 0 9.595 2.221 9.595 8.679v14.722h-5.082V21.82c0-3.306-2.074-4.495-4.928-4.495-1.815 0-3.629.258-4.979.671v18.08h-5.134V14.642zm29.556 17.1c.986.308 2.284.463 3.578.463 4.72 0 8.092-2.582 8.092-7.852 0-4.443-3.163-7.077-7.053-7.077-2.022 0-3.578.517-4.617 1.086v13.38zm27.279-14.62c2.54 0 4.408 1.135 4.408 3.615v1.913h-2.542c-6.638 0-10.631 2.272-10.631 6.92 0 5.167 4.357 6.975 10.321 6.975 2.593 0 5.704-.362 7.882-.93V20.476c0-5.734-3.579-7.8-8.608-7.8-2.854 0-5.446.724-7.468 1.859v4.443c1.918-1.085 3.993-1.859 6.638-1.859zm4.407 8.937h-2.177c-3.58 0-5.914 1.032-5.914 3.357 0 2.376 2.179 3.306 5.291 3.306.778 0 1.867-.103 2.8-.259v-6.404zm15.763 6.405c-2.333 0-4.873-.982-7-2.583v4.856c1.712 1.137 4.408 1.859 7.106 1.859 4.978 0 8.66-2.17 8.66-6.973 0-4.133-2.281-6.096-7.521-7.233-2.645-.722-3.629-1.498-3.629-2.996s1.192-2.582 3.423-2.582c2.436 0 4.407.879 6.429 2.324v-4.7c-1.918-1.188-3.993-1.757-6.586-1.757-4.667 0-8.194 2.272-8.194 6.923 0 3.977 2.024 5.888 6.795 6.973 2.956.774 4.304 1.445 4.304 3.306 0 1.808-1.504 2.582-3.787 2.582zm15.789-6.663v.102c.312 4.08 3.837 6.302 7.415 6.302 3.163 0 5.446-.723 7.727-2.221v4.495c-2.074 1.446-5.134 2.117-8.089 2.117-7.156 0-12.032-4.546-12.032-11.777 0-7.284 4.77-12.14 11.099-12.14 6.689 0 9.852 4.288 9.852 10.538v2.584h-15.972zm5.967-8.834c3.319 0 5.082 1.962 5.185 5.528H148.13c.674-3.461 2.851-5.528 5.808-5.528z" fill="#1452F5"/><path fill-rule="evenodd" clip-rule="evenodd" d="M182.262.835a.835.835 0 0 1 1.67 0v46.33a.835.835 0 0 1-1.67 0V.835z" fill="#AAB4C0"/><path d="M214.002 13.253l-5.14 20.672-5.372-20.672h-2.474l6.223 22.866h3.169l4.946-20.133 4.947 20.133h3.169l6.222-22.866h-2.357l-5.411 20.672-5.101-20.672h-2.821zm25.46 13.165h-1.894c-5.14 0-8.193 1.732-8.193 5.043 0 3.541 3.053 4.966 7.613 4.966 1.43 0 3.246-.193 4.792-.616V24.224c0-3.773-2.203-5.274-5.603-5.274-1.971 0-3.788.539-5.218 1.309v2.194c1.546-.808 3.015-1.347 4.947-1.347 2.164 0 3.556 1.116 3.556 3.272v2.04zm0 7.853c-.812.154-1.662.231-2.358.231-3.092 0-5.41-.808-5.41-3.041 0-2.233 2.55-3.157 6.028-3.157h1.74v5.967zm8.291-24.329h-2.319V36.12h2.319V9.942zm6.253 0h-2.319V36.12h2.319V9.942zm17.731 17.9v-1.578c0-4.773-2.822-7.314-7.073-7.314-4.521 0-7.999 3.734-7.999 8.777 0 5.466 3.71 8.777 8.579 8.777 2.087 0 4.251-.5 5.758-1.617v-2.31c-1.7 1.27-3.362 1.887-5.758 1.887-3.285 0-6.261-2.426-6.261-6.545v-.077h12.754zm-12.599-1.924c.657-3.157 2.782-4.928 5.41-4.928 2.822 0 4.715 1.425 4.87 4.928h-10.28zm13.039-4.62h2.589v10.47c0 3.465 1.817 4.736 4.252 4.736a7.897 7.897 0 0 0 3.632-.847v-2.04c-1.159.577-2.048.924-3.13.924-1.585 0-2.435-.847-2.435-3.003v-10.24h4.754v-1.963h-4.754v-4.08h-2.319v4.08h-2.589v1.963z" fill="#202A36"/></svg>