<svg xmlns="http://www.w3.org/2000/svg" width="280" height="60" viewBox="0 0 280 60"><path fill-rule="evenodd" clip-rule="evenodd" fill="#0D7F40" d="M18.946-214.944v15.904h5.862v35.296h11.204v-51.2z"/><path fill-rule="evenodd" clip-rule="evenodd" fill="#10A050" d="M6.578-197.877v15.903h5.861v18.23h11.207v-34.133z"/><path fill-rule="evenodd" clip-rule="evenodd" fill="#13C060" d="M-5.79-180.811h17.066v17.067H-5.79z"/><path d="M66.529-194.458c7.431 0 11.251 4.239 11.251 4.239l-3.4 5.542s-3.359-3.064-7.515-3.064c-5.751 0-8.48 4.24-8.48 8.563 0 4.45 2.938 9.026 8.48 9.026 4.534 0 7.976-3.694 7.976-3.694l3.778 5.374s-4.24 5.037-12.09 5.037c-9.404 0-15.743-6.675-15.743-15.575 0-8.731 6.717-15.448 15.743-15.448zm26.32 8.396c6.843 0 12.301 4.576 12.301 11.377 0 6.759-5.458 11.251-12.259 11.251s-12.258-4.492-12.258-11.251c0-6.801 5.457-11.377 12.216-11.377zm.042 16.583c2.645 0 4.912-1.974 4.912-5.206 0-3.274-2.267-5.332-4.912-5.332s-4.912 2.058-4.912 5.332c0 3.232 2.268 5.206 4.912 5.206zm16.036-16.079h6.969v1.889c0 .714-.084 1.344-.084 1.344h.084c1.008-1.512 3.023-3.736 6.423-3.736 2.729 0 4.912 1.218 6.045 3.652h.084c1.134-1.805 3.695-3.652 6.927-3.652 3.946 0 7.01 2.142 7.01 8.103v14.021h-7.262v-12.804c0-1.596-.294-2.729-1.679-2.729-2.309 0-3.527 1.68-3.989 4.072-.167.756-.167 1.638-.167 2.52v8.941h-7.263v-12.804c0-1.596-.294-2.729-1.679-2.729-2.267 0-3.442 1.596-3.946 3.904-.168.798-.21 1.764-.21 2.688v8.941h-7.263v-21.621zm37.854 0h6.549v1.092c0 .713-.084 1.385-.084 1.385h.084s1.973-2.98 6.549-2.98c5.877 0 9.74 4.618 9.74 11.335 0 6.843-4.324 11.293-10.076 11.293-3.527 0-5.5-2.057-5.5-2.057h-.084s.084.755.084 1.847v7.76l-7.262 1.026v-30.701zm11.293 16.121c2.266 0 4.238-1.848 4.238-5.164 0-3.232-1.721-5.332-4.238-5.332-2.184 0-4.24 1.596-4.24 5.332 0 2.602 1.385 5.164 4.24 5.164zm26.752-16.625c6.844 0 12.301 4.576 12.301 11.377 0 6.759-5.457 11.251-12.258 11.251-6.803 0-12.26-4.492-12.26-11.251 0-6.801 5.457-11.377 12.217-11.377zm.043 16.583c2.645 0 4.91-1.974 4.91-5.206 0-3.274-2.266-5.332-4.91-5.332-2.646 0-4.912 2.058-4.912 5.332 0 3.232 2.266 5.206 4.912 5.206zm15.74-16.079h7.264v12.679c0 2.015.797 2.854 2.309 2.854 3.105 0 4.576-2.729 4.576-5.962v-9.571h7.262v21.62h-6.969v-1.889c0-.714.084-1.344.084-1.344h-.084c-1.176 2.309-3.861 3.736-6.758 3.736-4.283 0-7.684-2.016-7.684-8.103v-14.02zm26.784 0h6.969v1.889c0 .714-.084 1.344-.084 1.344h.084c1.008-1.679 3.064-3.736 6.885-3.736 4.367 0 7.768 2.016 7.768 8.103v14.021h-7.264v-12.679c0-2.015-.797-2.854-2.393-2.854-2.268 0-3.652 1.26-4.281 3.106-.295.84-.42 1.806-.42 2.855v9.571h-7.264v-21.62zm35.095-.504c4.365 0 5.666 1.722 5.666 1.722h.084s-.041-.42-.041-.966v-8.306l7.262-1.026v30.7h-6.801v-1.427c0-.672.043-1.218.043-1.218h-.084s-1.805 3.148-6.256 3.148c-5.877 0-9.74-4.618-9.74-11.335 0-6.842 4.115-11.292 9.867-11.292zm1.678 16.625c2.184 0 4.24-1.596 4.24-5.332 0-2.603-1.385-5.164-4.24-5.164-2.266 0-4.238 1.848-4.238 5.164 0 3.232 1.72 5.332 4.238 5.332z" fill="#323538"/><path fill-rule="evenodd" clip-rule="evenodd" fill="#0D7F40" d="M27.049.791v15.462h5.699V50.57h10.893V.791z"/><path fill-rule="evenodd" clip-rule="evenodd" fill="#10A050" d="M15.024 17.384v15.462h5.699V50.57h10.895V17.384z"/><path fill-rule="evenodd" clip-rule="evenodd" fill="#13C060" d="M3 33.977h16.592v16.594H3z"/><path d="M73.311 20.708c7.224 0 10.938 4.122 10.938 4.122l-3.306 5.388s-3.266-2.979-7.306-2.979c-5.592 0-8.244 4.121-8.244 8.325 0 4.326 2.857 8.775 8.244 8.775 4.408 0 7.755-3.59 7.755-3.59l3.673 5.223s-4.122 4.898-11.754 4.898c-9.143 0-15.306-6.488-15.306-15.143 0-8.488 6.531-15.019 15.306-15.019zM98.9 28.871c6.653 0 11.959 4.449 11.959 11.062 0 6.57-5.306 10.938-11.918 10.938s-11.918-4.367-11.918-10.938c0-6.613 5.306-11.062 11.877-11.062zm.041 16.123c2.571 0 4.776-1.918 4.776-5.061 0-3.186-2.205-5.186-4.776-5.186s-4.775 2-4.775 5.186c0 3.143 2.204 5.061 4.775 5.061zm15.591-15.633h6.775v1.837c0 .692-.082 1.306-.082 1.306h.082c.98-1.47 2.939-3.633 6.245-3.633 2.653 0 4.775 1.184 5.877 3.551h.082c1.103-1.755 3.592-3.551 6.735-3.551 3.836 0 6.815 2.081 6.815 7.877v13.633H140V37.934c0-1.553-.285-2.654-1.632-2.654-2.245 0-3.429 1.633-3.878 3.959-.163.734-.163 1.592-.163 2.449v8.693h-7.061V37.934c0-1.553-.286-2.654-1.633-2.654-2.204 0-3.347 1.551-3.837 3.795-.163.777-.204 1.715-.204 2.613v8.693h-7.061v-21.02zm36.803 0h6.367v1.062c0 .693-.082 1.346-.082 1.346h.082s1.918-2.897 6.367-2.897c5.714 0 9.47 4.49 9.47 11.02 0 6.652-4.204 10.98-9.797 10.98-3.429 0-5.347-2-5.347-2h-.082s.082.734.082 1.795v7.545l-7.061.998V29.361zm10.979 15.674c2.203 0 4.121-1.797 4.121-5.021 0-3.143-1.674-5.184-4.121-5.184-2.123 0-4.122 1.551-4.122 5.184 0 2.529 1.346 5.021 4.122 5.021zm26.01-16.164c6.653 0 11.959 4.449 11.959 11.062 0 6.57-5.306 10.938-11.918 10.938-6.613 0-11.919-4.367-11.919-10.938 0-6.613 5.306-11.062 11.878-11.062zm.041 16.123c2.571 0 4.774-1.918 4.774-5.061 0-3.186-2.203-5.186-4.774-5.186-2.572 0-4.775 2-4.775 5.186 0 3.143 2.203 5.061 4.775 5.061zm15.304-15.633h7.062v12.326c0 1.959.775 2.775 2.245 2.775 3.02 0 4.449-2.652 4.449-5.797V29.36h7.06v21.02h-6.775v-1.836c0-.695.082-1.307.082-1.307h-.082c-1.143 2.244-3.754 3.633-6.569 3.633-4.165 0-7.471-1.959-7.471-7.877V29.361zm26.04 0h6.775v1.837c0 .692-.082 1.306-.082 1.306h.082c.979-1.632 2.979-3.633 6.693-3.633 4.246 0 7.552 1.96 7.552 7.877v13.633h-7.062V38.055c0-1.959-.774-2.775-2.326-2.775-2.204 0-3.551 1.225-4.162 3.02-.286.816-.408 1.756-.408 2.777v9.305h-7.062V29.361zm34.121-.49c4.244 0 5.509 1.673 5.509 1.673h.081s-.039-.408-.039-.938V21.53l7.06-.997v29.848h-6.611v-1.387c0-.654.041-1.184.041-1.184h-.081s-1.755 3.061-6.082 3.061c-5.714 0-9.471-4.49-9.471-11.02-.001-6.654 4-10.98 9.593-10.98zm1.631 16.164c2.123 0 4.123-1.551 4.123-5.184 0-2.531-1.347-5.021-4.123-5.021-2.202 0-4.12 1.797-4.12 5.021 0 3.143 1.673 5.184 4.12 5.184z" fill="#323538"/></svg>