<svg id="Layer_1" data-name="Layer 1" xmlns="http://www.w3.org/2000/svg" viewBox="0 0 243.02 83.01"><defs><style>.cls-1{fill:#faa31a}.cls-2{fill:#fcd305}</style></defs><title>Connext Asset Layout</title><path class="cls-1" d="M46.86 40.66h-.38a5.84 5.84 0 0 0-4.14 1.72 8.35 8.35 0 0 1-12-.55c-3-3.18-3.22-8.47-.27-11.65a8.59 8.59 0 0 1 12.25-.25 5.7 5.7 0 0 0 4 1.72h.49a1.59 1.59 0 0 0 1.41-2.35 1.2 1.2 0 0 1 .36-1.58l3.38-3.38a2.59 2.59 0 0 0 0-3.66 2.59 2.59 0 0 0-3.66 0l-2.9 2.85a2.58 2.58 0 0 1-3 .49 13.57 13.57 0 0 0-12 0 2.58 2.58 0 0 1-3-.49l-2.8-2.87a2.59 2.59 0 0 0-3.66 0 2.59 2.59 0 0 0 0 3.66l2.86 2.86a2.58 2.58 0 0 1 .49 3 13.57 13.57 0 0 0 0 12 2.58 2.58 0 0 1-.49 3L20.94 48a2.59 2.59 0 0 0 0 3.66 2.59 2.59 0 0 0 3.66 0l2.86-2.86a2.58 2.58 0 0 1 3-.49 13.57 13.57 0 0 0 12 0 2.58 2.58 0 0 1 3 .49l2.86 2.86a2.59 2.59 0 0 0 3.66 0 2.59 2.59 0 0 0 0-3.66l-3.38-3.38a1.16 1.16 0 0 1-.36-1.62 1.59 1.59 0 0 0-1.38-2.34z"/><path class="cls-2" d="M36.71 42.35h.38a5.84 5.84 0 0 0 4.14-1.72 8.35 8.35 0 0 1 12 .55c3 3.18 3.22 8.47.27 11.65a8.59 8.59 0 0 1-12.25.25 5.7 5.7 0 0 0-4-1.72h-.49a1.59 1.59 0 0 0-1.41 2.35 1.2 1.2 0 0 1-.35 1.61l-3.38 3.38a2.59 2.59 0 0 0 0 3.66 2.59 2.59 0 0 0 3.66 0l2.86-2.86a2.58 2.58 0 0 1 3-.49 13.57 13.57 0 0 0 12 0 2.58 2.58 0 0 1 3 .49L59 62.35a2.59 2.59 0 0 0 3.66 0 2.59 2.59 0 0 0 0-3.66l-2.86-2.86a2.58 2.58 0 0 1-.49-3 13.57 13.57 0 0 0 0-12 2.58 2.58 0 0 1 .49-3L62.62 35a2.59 2.59 0 0 0 0-3.66 2.59 2.59 0 0 0-3.66 0l-2.86 2.89a2.58 2.58 0 0 1-3 .49 13.57 13.57 0 0 0-12 0 2.58 2.58 0 0 1-3-.49l-2.86-2.86a2.59 2.59 0 0 0-3.66 0 2.59 2.59 0 0 0 0 3.66L35 38.4a1.16 1.16 0 0 1 .32 1.6 1.59 1.59 0 0 0 1.39 2.35z"/><path class="cls-1" d="M110.58 36.91a9.94 9.94 0 1 0 9.94 9.94 9.94 9.94 0 0 0-9.94-9.94zm0 17a7.05 7.05 0 1 1 7.05-7.05 7.05 7.05 0 0 1-7.05 7.05zm23.66-17a9.9 9.9 0 0 0-7.09 2.71v-1.29a1.49 1.49 0 0 0-1.36-1.52 1.44 1.44 0 0 0-1.52 1.44v17a1.49 1.49 0 0 0 1.36 1.52 1.44 1.44 0 0 0 1.52-1.44v-8.6a6.74 6.74 0 0 1 6-6.91 7.06 7.06 0 0 1 7.86 7v8.42a1.5 1.5 0 0 0 1.37 1.52 1.44 1.44 0 0 0 1.52-1.44V47.1a10.1 10.1 0 0 0-9.66-10.19zm23.38 0a9.9 9.9 0 0 0-7.09 2.71v-1.29a1.49 1.49 0 0 0-1.36-1.52 1.44 1.44 0 0 0-1.52 1.44v17a1.49 1.49 0 0 0 1.35 1.54 1.44 1.44 0 0 0 1.52-1.44v-8.6a6.74 6.74 0 0 1 6-6.91 7.06 7.06 0 0 1 7.86 7v8.42a1.5 1.5 0 0 0 1.37 1.52 1.44 1.44 0 0 0 1.52-1.44V47.1a10.1 10.1 0 0 0-9.65-10.19zm64.1 17h-1.33a2.48 2.48 0 0 1-2.48-2.48V40.14h3.39a1.44 1.44 0 0 0 0-2.88h-3.39v-6.09a1.49 1.49 0 0 0-1.36-1.52 1.44 1.44 0 0 0-1.55 1.44v6.17h-2.37a1.44 1.44 0 0 0 0 2.88H215v11.38a5.27 5.27 0 0 0 5.27 5.27h1.5a1.44 1.44 0 0 0 1.44-1.52 1.49 1.49 0 0 0-1.49-1.36zM202.14 47l6-7.46a1.44 1.44 0 0 0-2.24-1.81l-5.66 7-5.66-7a1.44 1.44 0 0 0-2.24 1.81l6 7.46-6 7.46a1.44 1.44 0 0 0 2.24 1.81l5.66-7 5.66 7a1.44 1.44 0 0 0 2.24-1.81zM95.28 52A7.05 7.05 0 1 1 93 40.27a7.18 7.18 0 0 1 2.07 1.25 1.54 1.54 0 0 0 1.94.33 1.5 1.5 0 0 0 .6-1.63c-.2-.71-1-1.2-1.57-1.59a9.94 9.94 0 1 0-.13 16.54 4.32 4.32 0 0 0 1.68-1.55 1.51 1.51 0 0 0-.43-1.74 1.43 1.43 0 0 0-1.88.12zm95.11-5.71a9.87 9.87 0 0 0-.48-2.54A9.95 9.95 0 1 0 186.19 55c.78-.55 1.76-1.29 1.44-2.38a1.41 1.41 0 0 0-2.24-.7 8.63 8.63 0 0 1-3.16 1.79 7.06 7.06 0 0 1-3.78-.07 7.14 7.14 0 0 1-4.77-4.85h13.08c1 0 2.24.2 3-.51a2.26 2.26 0 0 0 .63-1.99zm-15.19-.4h-1.72c0-.23.07-.45.12-.67a7 7 0 0 1 13.84.67z"/></svg>