<svg xmlns="http://www.w3.org/2000/svg" viewBox="0 0 333.99 146.41"><defs><style>.cls-1{fill:none}.cls-2{fill:#8422e0}</style></defs><title>ilu01Asset 2</title><g id="Layer_2" data-name="Layer 2"><g id="Layer_1-2" data-name="Layer 1"><path class="cls-1" d="M0 0h333.99v146.41H0z"/><path class="cls-2" d="M60.35 50.29h17.8c15.49 0 23.93 9.56 23.93 23.4 0 13-8.57 22.74-23.73 22.74h-18zm8.9 38h8.9c10.22 0 15-6.59 15-14.64 0-9.09-4.94-15.35-15.16-15.35h-8.74zm36.68-.89c0-6.92 5.14-10 12.19-10a21.21 21.21 0 0 1 5.34.65l2.77.66v-2c0-3.63-2.64-5.61-6.4-5.61s-6.13 2.2-6.83 5.23l-7.31-2c1.65-5.8 6.39-9.82 14.17-9.82 9.56 0 14.37 4.62 14.37 12.66v19.26h-7.71v-4.81c-2 3.5-5.08 5.47-10.35 5.47s-10.24-3.56-10.24-9.69zm20.3-2.5v-.26l-1.91-.6a16.65 16.65 0 0 0-4.88-.92c-3 0-5 1.25-5 3.76 0 2.17 1.65 3.75 5.08 3.75 3.81 0 6.71-2.04 6.71-5.73zm21.27-19.71v4.68a13 13 0 0 1 10.35-5.34c8.43 0 14.7 6.53 14.7 16.41s-6.46 16.15-15.17 16.15c-4.28 0-7.9-1.78-9.55-4.68v17.08h-8.44v-44.3zm8.3 24.72c4.49 0 8.31-3.3 8.31-9s-3.82-9.16-8.31-9.16c-4.28 0-8.3 3.23-8.3 9.16s4.02 9 8.3 9zm28.87-24.72v4.68A13 13 0 0 1 195 64.53c8.44 0 14.7 6.53 14.7 16.41s-6.46 16.15-15.16 16.15c-4.28 0-7.91-1.78-9.56-4.68v17.08h-8.43v-44.3zM193 89.91c4.48 0 8.3-3.3 8.3-9s-3.82-9.16-8.3-9.16c-4.29 0-8.31 3.23-8.31 9.16s4 9 8.31 9zm44.27-5.41l7.18 2.84c-2.1 5.93-7 9.75-14.56 9.75-9.63 0-16.55-6.46-16.55-16.47 0-8.9 6.2-16.09 15.56-16.09 8.63 0 14.5 5.41 14.5 14a17.12 17.12 0 0 1-.4 3.83h-21.22c.13 4.94 4 7.44 8.24 7.44 3.98.04 6.33-2 7.25-5.3zm-15.49-7.71h13.38a.64.64 0 0 0 .07-.26c0-3.17-2.57-5.21-6.33-5.21a7 7 0 0 0-7.12 5.47zm35.38-11.6v4a7.77 7.77 0 0 1 7.51-4.68c5.8 0 9 4 9 9.23a16.08 16.08 0 0 1-.47 3.89h-8a9.94 9.94 0 0 0 .26-2.37 3.75 3.75 0 0 0-3.95-3.89c-2.64 0-4.35 1.78-4.35 4.94v20.1h-8.44V65.19z"/></g></g></svg>