<svg width="282" height="152" viewBox="0 0 282 152" xmlns="http://www.w3.org/2000/svg"><title>dydx logo</title><g fill-rule="evenodd"><path d="M202.437 69.337c-4.85-2.732-8.226-5.334-10.13-7.805-1.902-2.47-2.854-5.24-2.854-8.31 0-3.745 1.435-6.807 4.305-9.185 2.87-2.38 6.592-3.569 11.165-3.569 2.977 0 5.855.315 8.633.944 2.778.63 6.054 1.865 9.83 3.707l-2.072 3.96c-3.438-1.75-6.377-2.947-8.817-3.592a29.175 29.175 0 0 0-7.482-.967c-3.346 0-5.993.775-7.942 2.325-1.95 1.55-2.924 3.614-2.924 6.193 0 2.578.814 4.75 2.44 6.515 1.627 1.765 5.28 4.305 10.958 7.62 5.096 2.916 8.794 5.456 11.096 7.62 2.303 2.163 3.998 4.52 5.088 7.067 1.09 2.548 1.635 5.571 1.635 9.07 0 7.03-1.942 12.554-5.825 16.575-3.883 4.021-9.262 6.032-16.137 6.032-6.661 0-11.987-1.911-15.977-5.733-3.99-3.821-5.985-8.878-5.985-15.17 0-5.986 1.68-10.881 5.041-14.688 3.361-3.806 8.68-6.676 15.954-8.61zm18.14 21.501c0-4.144-1.082-7.704-3.246-10.682-2.164-2.977-5.809-5.77-10.935-8.38-4.542 1.106-7.957 2.264-10.244 3.477-2.287 1.212-4.136 2.624-5.548 4.236-1.412 1.611-2.494 3.499-3.246 5.663-.752 2.164-1.128 4.658-1.128 7.482 0 5.095 1.558 9.177 4.673 12.247 3.116 3.07 7.313 4.604 12.593 4.604 5.433 0 9.638-1.604 12.615-4.811 2.978-3.208 4.466-7.82 4.466-13.836zm38.445-13.398l22.56 35.176h-5.386l-19.89-31.4-20.259 31.4h-5.202l22.652-35.084-20.58-32.23h5.294l18.187 28.823 18.462-28.822h5.019L259.022 77.44zM21.708 69.337c-4.85-2.732-8.226-5.334-10.13-7.805-1.903-2.47-2.854-5.24-2.854-8.31 0-3.745 1.435-6.807 4.305-9.185 2.87-2.38 6.591-3.569 11.165-3.569 2.977 0 5.855.315 8.633.944 2.778.63 6.054 1.865 9.83 3.707l-2.072 3.96c-3.438-1.75-6.377-2.947-8.817-3.592a29.175 29.175 0 0 0-7.482-.967c-3.346 0-5.993.775-7.942 2.325-1.95 1.55-2.924 3.614-2.924 6.193 0 2.578.814 4.75 2.44 6.515 1.627 1.765 5.28 4.305 10.958 7.62 5.096 2.916 8.794 5.456 11.096 7.62 2.302 2.163 3.998 4.52 5.088 7.067 1.09 2.548 1.634 5.571 1.634 9.07 0 7.03-1.941 12.554-5.824 16.575-3.883 4.021-9.262 6.032-16.137 6.032-6.661 0-11.987-1.911-15.977-5.733-3.99-3.821-5.985-8.878-5.985-15.17 0-5.986 1.68-10.881 5.041-14.688 3.361-3.806 8.68-6.676 15.954-8.61zm18.14 21.501c0-4.144-1.082-7.704-3.246-10.682-2.164-2.977-5.809-5.77-10.935-8.38-4.543 1.106-7.957 2.264-10.244 3.477-2.287 1.212-4.136 2.624-5.548 4.236-1.412 1.611-2.494 3.499-3.246 5.663-.752 2.164-1.128 4.658-1.128 7.482 0 5.095 1.558 9.177 4.673 12.247 3.116 3.07 7.313 4.604 12.593 4.604 5.433 0 9.638-1.604 12.615-4.811 2.977-3.208 4.466-7.82 4.466-13.836zm15.654-45.535l19.614 36.833 19.706-36.833h5.065l-22.423 41.3v26.013H72.63V86.97L50.115 45.303h5.387z"/><path d="M176.27 2.98l-.291-.14-.678 1.419.292.14.677-1.419zm-69.286 146.25l.674-1.42-.293-.138-.674 1.418.293.14zM177.329 3.66l-.002.004.001-.002.001-.002zm-2.84-1.346l.75-1.569 3.127 1.495-.678 1.418-69.217 146.104-.745 1.56-3.132-1.487.679-1.421 69.216-146.1z" fill-rule="nonzero"/></g></svg>