<svg width="196" height="68" viewBox="0 0 196 68" xmlns="http://www.w3.org/2000/svg"><title>ethereum</title><g fill="none" fill-rule="evenodd"><path fill="#FFE94D" d="M20.35 47.195V.5L.78 34.667z"/><path fill="#FF9C92" d="M20.35.5l19.548 34.167L20.35 47.195z"/><path fill="#53D3E0" d="M.779 38.698L20.35 51.25v16.198"/><path fill="#5A9DED" d="M39.898 38.698L20.35 51.25v16.198"/><path fill="#88D848" opacity=".75" d="M20.35 23.475L.78 34.667l19.57 12.528z"/><path fill="#CC71C3" opacity=".75" d="M20.35 23.475l19.548 11.192L20.35 47.195z"/><path d="M52.58 22.32c.077 2.413 1.812 3.568 3.802 3.568 1.276 0 2.526-.513 3.037-1.694h3.317c-.74 3.132-3.572 4.775-6.507 4.775-3.547 0-7.068-2.413-7.068-7.676 0-5.083 3.342-7.701 7.094-7.701 3.572 0 6.609 2.387 6.609 7.265v1.463H52.58zm.102-2.618h6.686c0-1.951-1.353-3.055-3.165-3.055-1.633 0-3.215.898-3.521 3.055zm21.41 8.933h-2.323c-2.781 0-4.516-.873-4.516-4.826v-6.752h-2.68V13.85h2.68v-3.34l3.547-.975v4.313h2.934v3.208H70.8v6.65c0 1.026.28 1.77 1.76 1.77h1.506v3.158h.026zm16.331-9.55v9.55h-3.547v-9.242c0-1.668-.995-2.644-2.756-2.644-2.118 0-3.24 1.464-3.24 3.877v7.983h-3.548V8.201h3.573v7.83c.816-1.412 1.965-2.439 4.465-2.439 3.343-.026 5.053 1.977 5.053 5.493zm6.864 3.235c.077 2.413 1.812 3.568 3.802 3.568 1.276 0 2.527-.513 3.037-1.694h3.317c-.74 3.132-3.572 4.775-6.507 4.775-3.547 0-7.068-2.413-7.068-7.676 0-5.083 3.343-7.701 7.094-7.701 3.572 0 6.609 2.387 6.609 7.265v1.463H97.287zm.077-2.618h6.685c0-1.951-1.352-3.055-3.164-3.055-1.633 0-3.19.898-3.521 3.055zm22.073-2.568h-.944c-2.476 0-3.828 1.361-3.828 4.262v7.239h-3.547V13.849h3.521v2.182c.74-1.618 2.118-2.362 3.828-2.362h.97v3.465zm5.154 5.186c.077 2.413 1.812 3.568 3.803 3.568 1.275 0 2.526-.513 3.036-1.694h3.317c-.74 3.132-3.572 4.775-6.507 4.775-3.547 0-7.068-2.413-7.068-7.676 0-5.083 3.343-7.701 7.094-7.701 3.572 0 6.61 2.387 6.61 7.265v1.463H124.59zm.077-2.618h6.686c0-1.951-1.353-3.055-3.165-3.055-1.633 0-3.215.898-3.521 3.055zm26.436 8.933h-3.47V26.53c-.868 1.386-2.067 2.259-4.083 2.259-3.088 0-5.282-1.977-5.282-5.776v-9.164h3.547v8.933c0 2.002 1.046 2.875 2.577 2.875 1.659 0 3.164-1.232 3.164-4.646v-7.162h3.547v14.786zm25.544-9.96v9.986H173.1v-9.293c0-1.746-.817-2.567-2.348-2.567-1.684 0-2.832 1.027-2.832 3.542v8.318h-3.547v-9.293c0-1.746-.893-2.567-2.373-2.567-1.66 0-2.807 1.052-2.807 3.517v8.343h-3.522V13.849h3.496v2.182c.46-1.181 1.633-2.439 3.853-2.439 1.965 0 3.42.898 4.109 2.439.561-1.053 1.684-2.439 4.338-2.439 3.19-.026 5.18 1.874 5.18 5.083zM55.668 39.083c-1.25 0-1.48.642-1.48 1.489v.975h2.704v3.209h-2.704v11.577H50.64V44.756h-2.195v-3.183h2.195v-.796c0-3.979 1.735-4.826 4.49-4.826h2.144v3.157h-1.607v-.025zm17.786 9.883c0 4.826-3.012 7.701-7.324 7.701-4.287 0-7.298-2.875-7.298-7.701 0-4.8 3.01-7.676 7.298-7.676 4.312 0 7.324 2.876 7.324 7.676zm-10.973 0c0 2.978 1.582 4.39 3.725 4.39 2.297 0 3.624-1.618 3.624-4.39 0-2.952-1.582-4.364-3.726-4.364-2.296 0-3.623 1.617-3.623 4.364zm27.227 7.393h-3.444v-2.105c-.868 1.386-2.067 2.259-4.083 2.259-3.088 0-5.283-1.977-5.283-5.776v-9.164h3.547v8.933c0 2.002 1.047 2.875 2.578 2.875 1.658 0 3.164-1.232 3.164-4.646v-7.162h3.547v14.786h-.026zm17.633-9.55v9.55h-3.547v-9.241c0-1.669-.995-2.644-2.756-2.644-2.118 0-3.24 1.463-3.24 3.876v7.983H94.25v-14.76h3.521v2.156c.817-1.386 2.042-2.413 4.491-2.413 3.369-.026 5.078 1.977 5.078 5.494zm18.195 9.55h-3.496V54.1c-.791 1.694-2.629 2.593-4.67 2.593-3.598 0-6.61-2.542-6.61-7.727 0-5.109 3.012-7.65 6.61-7.65 1.914 0 3.725.77 4.593 2.208v-7.599h3.547V56.36h.026zm-3.47-7.419c0-3.055-1.94-4.492-3.854-4.492-2.067 0-3.828 1.463-3.828 4.492 0 2.978 1.761 4.467 3.828 4.467 1.914 0 3.853-1.438 3.853-4.467zm19.852-2.515v9.96h-3.47v-2.157c-1.149 1.9-3.063 2.465-4.62 2.465-2.347 0-4.745-1.258-4.745-4.39 0-3.696 3.342-4.338 4.695-4.544l3.062-.436c.663-.077 1.735-.385 1.735-1.592 0-1.18-1.046-1.617-2.399-1.617-1.964 0-2.934.924-3.087 2.182h-3.394c.383-3.44 3.317-5.006 6.635-5.006 3.496 0 5.588 1.643 5.588 5.135zm-3.42 3.722v-.77c-.459.205-.944.308-1.76.436l-1.735.231c-.919.103-2.373.513-2.373 1.977 0 1.13.867 1.694 2.143 1.694 2.067 0 3.726-1.515 3.726-3.568zm15.388 6.212h-2.322c-2.782 0-4.517-.873-4.517-4.826v-6.751h-2.68v-3.21h2.68v-3.336l3.547-.976v4.313h2.935v3.209h-2.935v6.648c0 1.027.28 1.772 1.76 1.772h1.506v3.157h.026zm3.088-20.819h3.776v4.056h-3.776V35.54zm.102 20.819h3.547V41.573h-3.547v14.786zm21.639-7.393c0 4.826-3.011 7.701-7.324 7.701-4.287 0-7.298-2.875-7.298-7.701 0-4.8 3.011-7.676 7.298-7.676 4.313 0 7.324 2.876 7.324 7.676zm-10.973 0c0 2.978 1.582 4.39 3.726 4.39 2.296 0 3.623-1.618 3.623-4.39 0-2.952-1.582-4.364-3.725-4.364-2.297 0-3.624 1.617-3.624 4.364zm27.61-2.156v9.549h-3.547v-9.241c0-1.669-.995-2.644-2.755-2.644-2.118 0-3.241 1.463-3.241 3.876v7.983h-3.547v-14.76h3.521v2.156c.817-1.386 2.042-2.413 4.491-2.413 3.343-.026 5.078 1.977 5.078 5.494z" fill="#22222D" fill-rule="nonzero"/></g></svg>