<?xml version="1.0" encoding="UTF-8"?>
<svg width="722px" height="160px" viewBox="0 0 722 160" version="1.1" xmlns="http://www.w3.org/2000/svg" xmlns:xlink="http://www.w3.org/1999/xlink">
    <!-- Generator: Sketch 52 (66869) - http://www.bohemiancoding.com/sketch -->
    <title>Group 7</title>
    <desc>Created with Sketch.</desc>
    <g id="Logo" stroke="none" stroke-width="1" fill="none" fill-rule="evenodd">
        <g id="Color-Variation" transform="translate(-268.000000, -3864.000000)">
            <g id="Group-7" transform="translate(267.000000, 3864.000000)">
                <g id="Logo2-Copy-3">
                    <g id="Group-34" transform="translate(1.000000, 0.000000)">
                        <polygon id="Path" fill="#1F294F" points="53.2191195 79.0235975 80.0772327 36.8180025 106.935346 79.0235975 80.0772327 94.3710893"></polygon>
                        <polygon id="Path" fill="#1F294F" points="53.2191195 86.2320906 80.0772327 101.579582 106.935346 86.2320906 80.0772327 122.682385"></polygon>
                        <path d="M92.2910692,19.6966742 C88.1199052,21.6431743 84.0584772,23.8166598 80.1250314,26.207366 C76.1670808,23.7898831 72.0711805,21.6058635 67.8582943,19.6664855 C71.7909449,17.008552 75.8547777,14.5500776 80.034395,12.3003774 C84.1401493,14.5040771 88.2257073,16.9695094 92.2910692,19.6966742 Z" id="Path" fill="#5F9A34"></path>
                        <path d="M149.639487,10.1870491 C134.897348,-4.55498868 108.029424,-2.79398239 80.0344553,12.3003572 C84.1401962,14.5040704 88.2257308,16.9695094 92.2910591,19.6966742 C103.128694,14.6853535 113.453233,11.9984201 122.197977,11.9984201 C130.016845,11.9984201 136.577771,14.1419371 141.126219,18.6903849 C150.776624,28.3405484 149.629434,47.0173384 140.129992,67.5356679 C142.847041,71.5908059 145.312483,75.6763203 147.526319,79.7922113 C162.620649,51.7972126 164.381655,24.9293384 149.639487,10.1870491 Z" id="Path" fill="#FFC750"></path>
                        <path d="M92.2910692,19.6966742 C88.1199052,21.6431743 84.0584772,23.8166598 80.1250314,26.207366 C101.866483,39.656744 120.17246,57.9903266 133.589062,79.7520201 C135.987521,75.8005625 138.17099,71.722549 140.129942,67.5357686 C133.775004,58.1279232 126.526255,49.3558685 118.484659,41.3417862 C110.477654,33.2926316 101.704959,26.0433026 92.2910692,19.6966742 Z" id="Path" fill="#FFC750"></path>
                        <path d="M147.526279,79.7923522 C145.342712,83.8476981 142.877112,87.9330717 140.140035,91.9985208 C138.181856,87.7997043 135.994926,83.7114145 133.589092,79.7520604 C135.987548,75.8006005 138.171016,71.7225873 140.129972,67.5358088 C142.847141,71.5909468 145.312577,75.6764612 147.526279,79.7923522 Z" id="Path" fill="#FF512F"></path>
                        <path d="M140.140055,91.9984201 C138.181883,87.7996006 135.994952,83.7113105 133.589112,79.7519597 C126.94014,90.6259531 119.01098,100.66325 109.971502,109.648815 C101.003777,118.693292 90.9833616,126.629242 80.1250516,133.286551 C84.0541922,135.68479 88.1160462,137.858503 92.2910893,139.797243 C101.70499,133.450552 110.477694,126.201166 118.484709,118.15196 C126.530043,110.153196 133.782303,101.394515 140.140055,91.9984201 Z" id="Path" fill="#FF6895"></path>
                        <path d="M156.150148,99.9782239 C153.917573,92.9930264 151.030134,86.2343467 147.526309,79.7922516 C145.342611,83.8475975 142.877132,87.9329711 140.140055,91.9984201 C149.629364,112.506717 150.776604,131.163361 141.126219,140.803452 C131.476065,150.453857 112.809348,149.296714 92.2910893,139.797162 C91.4458063,140.370818 90.6005233,140.924327 89.7552403,141.467512 C86.535044,143.540528 83.2848,145.452629 80.0344855,147.193489 C94.9376906,155.233741 109.518762,159.490345 122.127648,159.490345 C133.19683,159.490345 142.746516,156.209842 149.639597,149.316649 C160.426878,138.529228 162.731321,121.009821 156.150148,99.9782239 Z" id="Path" fill="#FF6895"></path>
                        <path d="M92.2910692,139.797162 C91.4457862,140.370818 90.6005031,140.924327 89.7552201,141.467512 C86.5350239,143.540528 83.2847799,145.452629 80.0344654,147.193489 C75.9891824,145.019985 71.9304822,142.564616 67.8583648,139.827381 C72.071247,137.887995 76.1671469,135.703976 80.1251019,133.286501 C84.0542204,135.684727 88.1160508,137.85843 92.2910692,139.797162 Z" id="Path" fill="#552990"></path>
                        <path d="M56.2458465,144.335537 C39.7023799,149.517826 26.4797283,148.259965 19.023205,140.803462 C11.5664403,133.346948 10.3085786,120.124216 15.4911296,103.58082 C16.7426852,99.6217513 18.2450967,95.7464036 19.9892428,91.9783044 C17.2621987,87.9229585 14.8068528,83.8476478 12.6231346,79.8023447 C9.12253606,86.2412137 6.23840945,92.9965624 4.00923774,99.9782541 C-2.58188679,121.009852 -0.267491824,138.529258 10.5099472,149.316619 C17.2722113,156.069021 26.6708931,159.500387 37.9212679,159.500387 C45.3711123,159.387867 52.760804,158.1461 59.8382491,155.817449 C66.8267495,153.584858 73.5888348,150.69739 80.0344755,147.193489 C75.9891925,145.019985 71.9304922,142.564616 67.8583748,139.827381 C64.0881505,141.577424 60.2093069,143.083249 56.2458465,144.335537 Z" id="Path" fill="#5666F6"></path>
                        <path d="M67.8583346,139.827381 C72.0712168,137.887995 76.1671167,135.703976 80.1250717,133.286501 C69.230488,126.637272 59.175793,118.700955 50.1779019,109.648765 C41.1257444,100.650844 33.1894309,90.5961535 26.540166,79.701595 C24.1232957,83.6650365 21.9360466,87.7640118 19.9892226,91.9782742 C26.3574309,101.381189 33.6196901,110.146482 41.6746767,118.151859 C49.6762535,126.212049 58.445748,133.471667 67.8583346,139.827381 Z" id="Path" fill="#5666F6"></path>
                        <path d="M26.540166,79.701595 C24.1232957,83.6650365 21.9360466,87.7640118 19.9892226,91.9782742 C17.2621786,87.9229283 14.8068327,83.8476176 12.6231145,79.8023145 C14.8268277,75.6965836 17.3023597,71.5908428 20.0295145,67.5357082 C21.968197,71.7107234 24.1418984,75.7725296 26.540166,79.701595 Z" id="Path" fill="#204FA0"></path>
                        <path d="M19.0232151,18.6903849 C26.4797283,11.2336302 39.7023799,9.97576855 56.2458566,15.1683723 C60.2075911,16.421581 64.0861527,17.9239471 67.8583447,19.6664855 C71.7909952,17.008552 75.8548281,14.5500776 80.0344453,12.3003774 C73.5908772,8.79219335 66.828378,5.90454555 59.8382189,3.67640755 C38.8168352,-2.90452327 21.2973384,-0.600322013 10.509917,10.1870994 C3.61683522,17.0802818 0.336332075,26.6299572 0.336332075,37.6991396 C0.336332075,50.3079447 4.59293585,64.8991396 12.6231245,79.8023648 C14.8268377,75.696634 17.3023698,71.5908931 20.0295245,67.5357585 C10.5300629,47.0173384 9.37281006,28.3405484 19.0232151,18.6903849 Z" id="Path" fill="#5FC5A6"></path>
                        <path d="M67.8583346,19.6664654 C49.0378464,32.4621475 32.8092864,48.7044196 20.0295044,67.5357082 C21.9682,71.7107244 24.1419148,75.7725305 26.5401962,79.701595 C39.9923033,57.9406153 58.3413754,39.6225867 80.1251019,26.2073459 C76.1671415,23.7898619 72.0712311,21.6058423 67.8583346,19.6664654 Z" id="Path" fill="#5FC5A6"></path>
                    </g>
                </g>
                <path d="M704.678344,112.304538 L704.678344,118.970698 C703.515862,119.653909 702.190414,120.008369 700.84301,119.996369 C695.353364,120.131677 690.488076,116.472977 689.08042,111.150893 C680.8808,120.136806 667.636125,122.378321 656.949303,116.588729 C646.262481,110.799138 640.873162,98.4626466 643.875004,86.6608345 C646.876846,74.8590224 657.500304,66.6173756 669.64714,66.6668886 C676.640027,66.6486962 683.353982,69.415342 688.313284,74.3587193 L688.313284,67.6924283 L696.2403,67.6924283 L696.2403,105.638377 C696.2403,110.381716 698.669558,112.304538 701.48221,112.304538 L704.678344,112.304538 Z M688.313284,93.3317264 C688.3132,82.9949203 679.955961,74.6153504 669.646865,74.6154304 C659.337769,74.6155105 650.98066,82.9952103 650.980736,93.3320164 C650.980811,103.668822 659.338044,112.048399 669.64714,112.048327 C679.951257,112.036188 688.301333,103.663541 688.313284,93.3317264 Z M714.671975,41.6666667 L723,41.6666667 L723,120 L714.671975,120 L714.671975,41.6666667 Z M631.391716,92.9865926 C631.397247,103.879276 624.944603,113.708374 615.029945,117.909935 C605.115287,122.111497 593.680924,119.862424 586.036182,112.20703 L586.036182,118.960195 L578.092357,118.960195 L578.092357,40 L586.036182,40 L586.036182,73.7659566 C593.680949,66.1105374 605.11536,63.8614772 615.030035,68.0630896 C624.944711,72.2647019 631.397326,82.0938735 631.391716,92.9865926 Z M623.448173,92.9865926 C623.448173,82.5147861 615.073209,74.0257098 604.742167,74.0257098 C594.411125,74.0257098 586.03616,82.5147861 586.03616,92.9865926 C586.03616,103.458399 594.411125,111.947475 604.742167,111.947475 C609.708183,111.963636 614.475402,109.971169 617.986928,106.411805 C621.498453,102.852442 623.464148,98.0202723 623.448217,92.9865926 L623.448173,92.9865926 Z M509.802556,93.3334598 C509.802484,78.6058687 521.733892,66.6667387 536.452103,66.6666667 C551.170313,66.6665946 563.101839,78.6056077 563.101911,93.3331989 C563.101983,108.06079 551.170574,119.99992 536.452364,119.999992 C529.382768,120.005456 522.601151,117.197717 517.602166,112.195595 C512.603181,107.193473 509.797164,100.407562 509.802556,93.3334598 Z M555.158086,93.3334598 C555.158002,82.9959211 546.783043,74.6157571 536.452088,74.6158372 C526.121134,74.6159173 517.746304,82.996211 517.74638,93.3337498 C517.746456,103.671289 526.121409,112.051459 536.452364,112.051387 C546.77833,112.039247 555.14611,103.666007 555.158086,93.3334598 Z M469.827096,77.4063488 L469.827096,79.7277745 C469.961687,99.8376526 455.463016,116.922356 435.96295,119.632044 C416.462884,122.341733 398.02636,109.833637 392.901269,90.4172288 C387.776178,71.0008203 397.556533,50.7150178 415.744974,43.0362388 C433.933416,35.3574597 454.87295,42.6739686 464.652867,60.1252071 L457.711951,64.1231889 C450.322569,50.7829942 434.616366,44.8046581 420.48744,49.9542242 C406.358513,55.1037903 397.899447,69.8896362 400.439015,84.9974412 C402.978583,100.105246 415.781176,111.158886 430.78182,111.195138 C445.782463,111.23139 458.636074,100.239752 461.24554,85.1443909 L430.830879,85.1443909 L430.830879,77.4063925 L469.827096,77.4063488 Z M486.484076,41.6666667 L494.812102,41.6666667 L494.812102,120 L486.484076,120 L486.484076,41.6666667 Z M378.219745,41.6666667 L378.219745,120 L361.435433,120 L361.435433,88.4056461 L330.17334,88.4056461 L330.17334,120 L313.261146,120 L313.261146,41.6666667 L330.17334,41.6666667 L330.17334,73.1305346 L361.435433,73.1305346 L361.435433,41.6666667 L378.219745,41.6666667 Z M306.598726,56.9417117 L287.474938,56.9417117 L287.474938,120 L270.884233,120 L270.884233,56.9417117 L251.633758,56.9417117 L251.633758,41.6666667 L306.598726,41.6666667 L306.598726,56.9417117 Z M217.052739,56.8111058 L217.052739,73.2611802 L242.373818,73.2611802 L242.373818,88.4056858 L217.052739,88.4056858 L217.052739,104.855539 L246.636943,104.855539 L246.636943,120 L200,120 L200,41.6666667 L246.636943,41.6666667 L246.636943,56.8111058 L217.052739,56.8111058 Z" id="Shape-Copy-2" fill="#1F294F" fill-rule="nonzero"></path>
            </g>
        </g>
    </g>
</svg>