<svg width="185" height="45" viewBox="0 0 185 45" xmlns="http://www.w3.org/2000/svg"><title>Logo - Positive</title><g fill="none" fill-rule="evenodd"><path d="M0 0h185v45H0z"/><path d="M121.702 23.594c0 2.01-.319 3.838-.955 5.486-.637 1.648-1.536 3.058-2.696 4.232-1.161 1.173-2.556 2.08-4.185 2.724-1.629.643-3.43.964-5.402.964H98.447V10.17h10.017c1.972 0 3.773.32 5.402.964 1.629.643 3.024 1.554 4.185 2.733 1.16 1.18 2.06 2.594 2.696 4.241.636 1.648.955 3.476.955 5.486zm-3.726 0c0-1.648-.225-3.12-.674-4.419-.45-1.298-1.086-2.396-1.91-3.295a8.145 8.145 0 0 0-2.996-2.06c-1.173-.474-2.484-.711-3.932-.711h-6.384V34.06h6.384c1.448 0 2.759-.237 3.932-.711a8.198 8.198 0 0 0 2.996-2.05c.824-.893 1.46-1.988 1.91-3.286.449-1.298.674-2.771.674-4.419zM138.197 37c-.325 0-.574-.053-.749-.16-.175-.105-.312-.314-.412-.626l-.374-1.78c-.5.45-.99.853-1.47 1.209a8.82 8.82 0 0 1-1.498.898 7.929 7.929 0 0 1-1.666.562 9.169 9.169 0 0 1-1.976.197 6.801 6.801 0 0 1-2.078-.31 4.801 4.801 0 0 1-1.695-.926 4.36 4.36 0 0 1-1.142-1.564c-.28-.63-.42-1.376-.42-2.237 0-.749.205-1.47.617-2.163.412-.692 1.08-1.307 2.003-1.844.924-.537 2.129-.977 3.614-1.32 1.485-.343 3.308-.54 5.467-.59v-1.479c0-1.473-.318-2.587-.955-3.342-.636-.755-1.566-1.133-2.79-1.133-.823 0-1.513.103-2.068.31a7.76 7.76 0 0 0-1.442.692c-.406.256-.755.487-1.049.693-.293.206-.583.309-.87.309a.957.957 0 0 1-.58-.178 1.632 1.632 0 0 1-.413-.44l-.599-1.067c1.049-1.011 2.178-1.767 3.39-2.266 1.21-.5 2.552-.749 4.025-.749 1.06 0 2.003.175 2.827.525a5.784 5.784 0 0 1 2.078 1.46c.562.624.986 1.38 1.273 2.265.287.887.431 1.86.431 2.921V37h-1.48zm-7.152-2.04c.586 0 1.123-.06 1.61-.179a6.355 6.355 0 0 0 1.376-.505c.43-.219.842-.487 1.236-.805a11.61 11.61 0 0 0 1.151-1.077v-3.932c-1.535.05-2.843.172-3.922.365-1.08.194-1.96.447-2.64.759-.68.312-1.174.68-1.48 1.104a2.376 2.376 0 0 0-.458 1.423c0 .5.08.93.243 1.292a2.4 2.4 0 0 0 .665.89c.28.23.611.399.992.505.38.106.79.16 1.227.16zm13.705 8.462V18.033h2.003c.475 0 .768.231.88.693l.281 2.247a10.072 10.072 0 0 1 2.79-2.378c1.049-.6 2.247-.899 3.595-.899 1.098 0 2.09.21 2.977.627a6.1 6.1 0 0 1 2.265 1.854c.625.818 1.105 1.832 1.442 3.043.337 1.21.506 2.602.506 4.175 0 1.398-.188 2.7-.562 3.904-.374 1.204-.914 2.247-1.62 3.127a7.612 7.612 0 0 1-2.583 2.078c-1.018.505-2.163.758-3.436.758-1.161 0-2.156-.193-2.986-.58a6.772 6.772 0 0 1-2.2-1.648v8.388h-3.352zm8.463-23.03c-1.086 0-2.038.25-2.855.75-.818.499-1.57 1.204-2.256 2.115v9.175c.599.823 1.263 1.404 1.994 1.74.73.338 1.544.506 2.443.506 1.772 0 3.133-.63 4.082-1.89.948-1.261 1.423-3.059 1.423-5.393 0-1.236-.11-2.297-.328-3.183-.218-.886-.534-1.613-.946-2.181a3.679 3.679 0 0 0-1.516-1.245c-.6-.263-1.28-.394-2.041-.394zm12.526 23.03V18.033h2.003c.475 0 .768.231.88.693l.281 2.247a10.072 10.072 0 0 1 2.79-2.378c1.048-.6 2.247-.899 3.595-.899 1.098 0 2.09.21 2.977.627a6.1 6.1 0 0 1 2.265 1.854c.624.818 1.105 1.832 1.442 3.043.337 1.21.506 2.602.506 4.175 0 1.398-.188 2.7-.562 3.904-.375 1.204-.914 2.247-1.62 3.127a7.612 7.612 0 0 1-2.584 2.078c-1.017.505-2.162.758-3.435.758-1.161 0-2.157-.193-2.987-.58a6.772 6.772 0 0 1-2.2-1.648v8.388h-3.351zm8.463-23.03c-1.086 0-2.038.25-2.855.75-.818.499-1.57 1.204-2.257 2.115v9.175c.6.823 1.264 1.404 1.994 1.74.73.338 1.545.506 2.444.506 1.772 0 3.133-.63 4.081-1.89.95-1.261 1.423-3.059 1.423-5.393 0-1.236-.109-2.297-.327-3.183-.219-.886-.534-1.613-.946-2.181a3.679 3.679 0 0 0-1.516-1.245c-.6-.263-1.28-.394-2.041-.394z" fill="#6860F4"/><g fill="#6860F4"><path d="M37.222 17.81a1.854 1.854 0 0 0 3.044-.02h.87L33.514 37H29.32l-4.976-12.542a4.726 4.726 0 0 0 4.003-1.656l2.208 6.11c.2.599.372 1.185.515 1.76.144.574.278 1.148.403 1.722.125-.574.262-1.148.412-1.722.15-.575.33-1.161.543-1.76l3.782-10.26c.087-.25.243-.456.468-.619.16-.115.34-.189.543-.222zm-5.985 18.783a1.856 1.856 0 1 0 0-3.712 1.856 1.856 0 0 0 0 3.712zm-6.5-15a1.856 1.856 0 1 0 0-3.712 1.856 1.856 0 0 0 0 3.712zm0 2.88a4.737 4.737 0 1 1 0-9.473 4.737 4.737 0 0 1 0 9.474z"/><path d="M31.237 36.593a1.856 1.856 0 1 0 0-3.712 1.856 1.856 0 0 0 0 3.712zm0 2.88a4.737 4.737 0 1 1 0-9.473 4.737 4.737 0 0 1 0 9.474zm7.5-20.88a1.856 1.856 0 1 0 0-3.712 1.856 1.856 0 0 0 0 3.712zm0 2.88a4.737 4.737 0 1 1 0-9.473 4.737 4.737 0 0 1 0 9.474z" fill-rule="nonzero"/></g><path d="M20.09 9.926v4.007H8.07v7.508h9.474v3.876H8.07v7.657h12.02V37H3.014V9.926H20.09zm31.68 7.564c1.21 0 2.328.194 3.351.58a7.302 7.302 0 0 1 2.64 1.695c.737.743 1.314 1.654 1.732 2.734.419 1.08.628 2.312.628 3.698 0 .699-.075 1.17-.225 1.413-.15.244-.437.365-.861.365h-11.89c.075.986.25 1.838.525 2.556.274.718.636 1.31 1.086 1.779.449.468.983.817 1.6 1.048a5.817 5.817 0 0 0 2.05.347c.75 0 1.395-.088 1.938-.262a9.087 9.087 0 0 0 1.423-.58c.406-.213.762-.407 1.068-.581.305-.175.602-.262.889-.262.387 0 .674.143.861.43l1.33 1.685a7.708 7.708 0 0 1-1.723 1.508 9.66 9.66 0 0 1-1.994.973c-.693.244-1.398.415-2.116.515-.717.1-1.413.15-2.087.15-1.336 0-2.578-.222-3.726-.665a8.34 8.34 0 0 1-2.996-1.966c-.849-.867-1.517-1.94-2.003-3.22-.487-1.28-.73-2.762-.73-4.447 0-1.31.212-2.543.636-3.698a8.892 8.892 0 0 1 1.826-3.014c.792-.855 1.76-1.532 2.902-2.032 1.142-.5 2.43-.749 3.866-.749zm.094 3.314c-1.348 0-2.403.381-3.165 1.142-.761.762-1.248 1.842-1.46 3.24h8.725c0-.6-.084-1.164-.253-1.695a4.027 4.027 0 0 0-.758-1.395 3.526 3.526 0 0 0-1.283-.945c-.518-.231-1.12-.347-1.806-.347zM63.584 37V17.79H66.3c.475 0 .805.084.993.253.187.168.312.47.374.908l.262 2.172c.612-1.149 1.33-2.05 2.153-2.706.824-.655 1.798-.983 2.921-.983.887 0 1.598.194 2.135.58l-.3 3.464c-.062.225-.153.384-.271.478-.119.093-.278.14-.478.14-.187 0-.465-.031-.833-.093a6.438 6.438 0 0 0-1.077-.094c-.511 0-.967.075-1.366.225-.4.15-.759.365-1.077.646-.318.28-.6.62-.843 1.02s-.47.855-.683 1.367V37h-4.625zm20.952 5.28c-.137.325-.315.571-.534.74-.218.168-.552.252-1.001.252h-3.446l3.595-7.695-7.77-17.787h4.063c.362 0 .646.087.852.262.206.175.359.374.459.6l4.081 9.96c.25.686.456 1.367.618 2.04a20.057 20.057 0 0 1 .712-2.059l3.857-9.942c.1-.25.265-.455.496-.618.23-.162.49-.243.777-.243h3.707L84.536 42.28z" fill="#4A4A4A"/></g></svg>