<svg width="328" height="33" viewBox="0 0 328 33" xmlns="http://www.w3.org/2000/svg"><title>_Group_</title><path d="M182.09 31.44a31.61 31.61 0 0 1-7.06 1c-10 0-17-5-17-15.5s6.48-16.56 17-16.56c2.39.015 4.76.448 7 1.28l-.45 5.24a12.79 12.79 0 0 0-6.7-1.64c-6.4 0-10.4 4.89-10.4 11.24 0 6.35 3.91 11.06 10.53 11.06a17.26 17.26 0 0 0 6.8-1.29l.28 5.17zM195.55.88h7l12.17 31h-6.88l-2.67-7.1h-12.5l-2.71 7.1h-6.49l12.08-31zm3.42 6.22h-.09l-4.48 12.79h9.06L198.97 7.1zM218.21.88h7.86c6.75 0 12.93 1.95 12.93 9.37 0 7.24-5.29 9.86-11.95 9.86h-2.62v11.77h-6.22v-31zm6.22 14.34h2.17c3.11 0 5.91-1 5.91-4.61 0-3.61-2.71-4.85-5.91-4.85h-2.17v9.46zM242.91.88h6.22v31h-6.22zm18.52 4.88h-8.88V.88h24v4.88h-8.88v26.12h-6.22zM285.82.88h7l12.17 31h-6.89l-2.66-7.1h-12.55l-2.71 7.1h-6.44l12.08-31zm3.42 6.22h-.09l-4.48 12.79h9.06L289.24 7.1zM309.01.88h6.22V27h12v4.88h-18.22zM.03.88H17.2v4.87h-11v7.58h10.47v4.87H6.22v13.54H.03zm37.5.17v30.36h-3.16V1.05zM54.67.88h10.8c4 0 10 1.15 10 7.92 0 3.67-2.48 6.24-6.15 6.9v.09c4.2.4 7.08 3.23 7.08 7 0 7.79-7 8.94-10.89 8.94H54.67V.88zm6.2 12.48h2.52c2.61 0 5.84-.58 5.84-3.76 0-3.59-3.14-3.85-6-3.85h-2.39l.03 7.61zm0 13.54h2.92c2.88 0 6.37-.71 6.37-4.29 0-4-3.27-4.65-6.37-4.65h-2.92v8.94zM96.72 1.05v30.36h-3.16V1.05zm42.8 5.8a20.35 20.35 0 0 0-8-1.64c-7.21 0-11.2 4.87-11.2 11.2 0 6.33 3.9 11 10.49 11a16.54 16.54 0 0 0 4.07-.44v-8h-6.55V14.1h12.49v16.64a39.28 39.28 0 0 1-10 1.59c-10 0-17-5-17-15.44s6.46-16.51 17-16.51a30.44 30.44 0 0 1 9.08 1.28l-.38 5.19z" fill="#231916"/></svg>