<svg width="717" height="138" viewBox="0 0 717 138" fill="none" xmlns="http://www.w3.org/2000/svg"><path d="M196.85 112.22h15.7V77.63H241V63.64h-28.45V41.69h35.94V27.71h-51.64v84.51zm82.67-58.6c-16.31 0-29.81 11.65-29.81 29.68s13.5 29.93 29.81 29.93 29.81-11.9 29.81-29.93-13.62-29.68-29.81-29.68zm0 45c-8.22 0-15-6-15-15.33 0-9.08 6.74-15 15-15s15 5.88 15 15c-.04 9.33-6.78 15.34-15 15.34v-.01zm109.81-65.61h-14.84v21.83h-10.42v12.02h10.42v45.27h14.84V66.86h12.15V54.84h-12.15V33.01zm90.03 20.61c-4.54 0-12.63 1.35-18 10.79-3.19-7-9.2-10.18-18.28-10.67-5.39 0-13.24 2.58-16.43 9.57v-8.47h-15v57.29h15V81.58c0-9.81 5.88-13.37 12-13.37 5.88 0 10.42 4.42 10.55 12.39v31.53h15V81.58c0-8.71 4.91-13.37 11.65-13.37 6.14 0 10.8 4.54 10.8 12.76v31.16h14.84V79.38c-.05-16.81-8.27-25.76-22.13-25.76zm79.23 8.34c-4.17-6.38-12.63-8.34-17.78-8.34-15.09 0-29.2 11.4-29.2 29.8s14.11 29.81 29.2 29.81c5.64 0 14.1-2.58 17.78-8.46v7.36h15V54.84h-15v7.12zm-15.7 36.92c-8.22 0-15.82-6.26-15.82-15.46 0-9.2 7.6-15.45 15.82-15.45 7.85 0 15.7 5.52 15.7 15.45s-7.6 15.46-15.7 15.46zm67.21-65.87h-14.84v21.83h-10.42v12.02h10.42v45.27h14.84V66.86h12.15V54.84H610.1V33.01zm30.91-9.32c-5.27 0-9.69 3.92-9.69 8.95 0 5.03 4.42 9.08 9.69 9.08a9 9 0 0 0 0-18v-.03zm7.36 31.15h-14.84v57.28h14.84V54.84zm56.05 38.4a14.757 14.757 0 0 1-11.9 5.76c-8.34 0-16.06-6.38-16.06-15.7s7.72-15.21 16.06-15.21a14.66 14.66 0 0 1 11.9 5.64l11.9-9c-5.4-7.12-14.23-11.16-23.8-11.16-16.43 0-30.91 11.65-30.91 29.68s14.48 30.05 30.91 30.05c9.69 0 18.53-4.17 23.92-11.28l-12.02-8.78zm-384.51-38.4v57.29h15V67.97h13.55c3.84 0 6.95-3.39 6.95-7.58v-5.55h-35.5z" fill="#120533"/><path d="M102.93 0H0v137.04h34.31V34.31h102.93V0h-34.31z" fill="#617BFF"/><path d="M102.93 0H0v137.04h34.31V34.31h102.93V0h-34.31z" fill="#617BFF"/><path d="M68.82 102.73h34.11v34.31h1.2a33.107 33.107 0 0 0 33.09-33.11V68.62h-68.4v34.11z" fill="#617BFF"/></svg>