<svg width="653" height="405" viewBox="0 0 653 405" xmlns="http://www.w3.org/2000/svg"><title>Group</title><g fill="none" fill-rule="evenodd"><path d="M48.376 355.16h35.433v2.833c0 6.442-.759 12.145-2.277 17.106-1.481 4.592-3.981 8.887-7.498 12.886-7.961 8.96-18.087 13.439-30.38 13.439-11.996 0-22.272-4.331-30.823-12.995C4.276 379.727 0 369.286 0 357.104c0-12.441 4.35-22.994 13.053-31.659 8.699-8.7 19.289-13.051 31.768-13.051 6.701 0 12.958 1.365 18.771 4.091 5.555 2.729 11.016 7.16 16.386 13.294l-9.22 8.83c-7.035-9.368-15.608-14.053-25.715-14.053-9.072 0-16.681 3.13-22.827 9.388-6.147 6.146-9.22 13.847-9.22 23.104 0 9.553 3.424 17.422 10.276 23.605 6.404 5.739 13.347 8.608 20.827 8.608 6.368 0 12.088-2.142 17.162-6.426 5.072-4.321 7.905-9.491 8.497-15.511H48.376V355.16z" fill="#15003E" fill-rule="nonzero"/><path fill="#15003E" d="M129.656 314.061h12.942v85.753h-12.942z"/><path fill="#15003E" fill-rule="nonzero" d="M216.437 326.224v73.59h-12.941v-73.59H183.78V314.06h52.317v12.164h-19.66zm121.103-7.582v15.302c-7.479-6.258-15.218-9.387-23.216-9.387-8.812 0-16.237 3.166-22.27 9.498-6.074 6.294-9.109 13.996-9.109 23.104 0 8.998 3.035 16.588 9.109 22.772 6.07 6.183 13.513 9.274 22.325 9.274 4.556 0 8.424-.739 11.609-2.222 1.777-.739 3.618-1.738 5.526-2.997 1.906-1.259 3.915-2.779 6.026-4.556v15.635c-7.405 4.203-15.181 6.304-23.327 6.304-12.256 0-22.716-4.276-31.381-12.831-8.626-8.625-12.939-19.03-12.939-31.211 0-10.923 3.609-20.661 10.83-29.216 8.887-10.477 20.383-15.717 34.49-15.717 7.702 0 15.144 2.083 22.327 6.248"/><path d="M399.397 343.023c0 9.471 3.183 17.257 9.553 23.362 6.33 6.104 13.643 9.156 21.937 9.156 8.998 0 16.588-3.108 22.772-9.323 6.183-6.288 9.276-13.946 9.276-22.973 0-9.137-3.056-16.795-9.165-22.974-6.073-6.215-13.589-9.323-22.55-9.323-8.923 0-16.459 3.108-22.605 9.323-6.146 6.142-9.218 13.726-9.218 22.752m-13.053-.14c0-12.069 4.424-22.438 13.275-31.102 8.811-8.664 19.401-12.995 31.769-12.995 12.218 0 22.696 4.369 31.434 13.107 8.777 8.738 13.163 19.235 13.163 31.491 0 12.329-4.406 22.79-13.218 31.38-8.849 8.628-19.532 12.941-32.046 12.941-11.072 0-21.013-3.832-29.825-11.498-9.701-8.477-14.552-19.586-14.552-33.324" fill="#0FCE7C" fill-rule="nonzero"/><path fill="#15003E" d="M514.099 314.061h12.941v85.753h-12.941z"/><path fill="#15003E" fill-rule="nonzero" d="M577.218 399.814V308.23l62.539 65.424v-59.593h12.94v90.974l-62.538-65.259v60.038h-12.941z"/><path fill="#FFF" fill-rule="nonzero" d="M359.389 107.903l13.955 27.492-10.589 44.961-25.216-20.601 4.419-32.978 17.431-18.874z"/><path d="M322.138 98.69a5.257 5.257 0 0 1-5.256-5.256V52.008a5.256 5.256 0 0 1 10.512 0v41.426a5.257 5.257 0 0 1-5.256 5.256" fill="#15003E" fill-rule="nonzero"/><path d="M330.57 98.69h-16.246a5.257 5.257 0 0 1 0-10.512h16.246a5.257 5.257 0 0 1 0 10.512" fill="#15003E" fill-rule="nonzero"/><path d="M359.389 107.903l17.271-16.278c-13.216-13.216-31.474-21.39-51.641-21.39-40.334 0-73.031 32.697-73.031 73.031s32.697 73.031 73.031 73.031c15.034 0 28.256 5.488 39.87-2.3l14.455 2-.414-23.465-41.391-32.777 8.899-41.911 12.951-9.941" fill="#FFF" fill-rule="nonzero"/><path d="M325.019 223.464c-44.222 0-80.199-35.977-80.199-80.198s35.977-80.199 80.199-80.199c21.422 0 41.562 8.342 56.709 23.491l5.22 5.219-22.642 21.342-9.833-10.432 11.602-10.934c-11.623-9.302-25.952-14.351-41.056-14.351-36.318 0-65.864 29.546-65.864 65.864 0 36.317 29.546 65.863 65.864 65.863" fill="#15003E" fill-rule="nonzero"/><path d="M365.275 182.266l-10.296-9.974c7.581-7.824 11.755-18.132 11.755-29.027 0-11.372-4.493-22-12.652-29.925l-5.37-5.216 5.759-5.435 4.906 5.199 4.692-4.83c10.963 10.648 17 24.927 17 40.207 0 14.639-5.61 28.489-15.794 39.001" fill="#0FCE7C" fill-rule="nonzero"/><path d="M308.53 143.266c0-9.107 7.382-16.489 16.489-16.489 9.107 0 16.49 7.382 16.49 16.489 0 9.106-7.383 16.489-16.49 16.489s-16.489-7.383-16.489-16.489" fill="#EFF4EE" fill-rule="nonzero"/><path d="M325.019 133.944c-5.141 0-9.322 4.182-9.322 9.322 0 5.139 4.181 9.321 9.322 9.321 5.14 0 9.322-4.182 9.322-9.321 0-5.14-4.182-9.322-9.322-9.322m0 32.978c-13.044 0-23.657-10.612-23.657-23.656 0-13.044 10.613-23.657 23.657-23.657s23.657 10.613 23.657 23.657-10.613 23.656-23.657 23.656m51.641-75.298l-41.675 38.506" fill="#15003E" fill-rule="nonzero"/><path fill="#15003E" d="M371.797 86.36l9.728 10.53-41.676 38.505-9.728-10.529 41.676-38.506z"/><path fill="#FFF" fill-rule="nonzero" d="M332.799 157.806l29.957 22.55 16.174 12.176v30.932l-32.492-1.565"/><path fill="#15003E" fill-rule="nonzero" d="M386.098 223.464h-62.381V209.13h48.047v-13.022l-43.275-32.575 8.621-11.453 48.988 36.875z"/><path fill="#25E899" d="M391.183 55.952l5.745-5.745 5.745 5.745-5.745 5.745zm-24.696-27.694l2.747-2.747 2.747 2.747-2.747 2.747z"/><path d="M400.511 4.141a4.141 4.141 0 1 0-8.282 0 4.141 4.141 0 0 0 8.282 0" fill="#25E899" fill-rule="nonzero"/><path d="M297.259 113.159a5.257 5.257 0 0 1-5.256-5.256V52.009a5.257 5.257 0 0 1 10.512 0v55.894a5.257 5.257 0 0 1-5.256 5.256" fill="#15003E" fill-rule="nonzero"/></g></svg>