<svg width="261" height="47" viewBox="0 0 261 47" fill="none" xmlns="http://www.w3.org/2000/svg"><path fill="#000" fill-opacity="0" d="M0 0h260.991v46.667H0z"/><path fill="#000" fill-opacity="0" d="M0 46.667h260.991V0H0z"/><path fill="#000" fill-opacity="0" d="M0 46.667h260.991V0H0z"/><path d="M22.667 21.333c0 .737-.597 1.334-1.334 1.334h-8A1.333 1.333 0 0 1 12 21.333v-8c0-.735.597-1.333 1.333-1.333h8c.737 0 1.334.598 1.334 1.333v8zm22.665 13.334H34.667v-32A2.666 2.666 0 0 0 32 0H2.667A2.667 2.667 0 0 0 0 2.667V32a2.667 2.667 0 0 0 2.667 2.667h31.999v10.666c0 .736.596 1.334 1.333 1.334h9.333c.737 0 1.334-.598 1.334-1.334V36c0-.737-.597-1.333-1.334-1.333zM248.333 17.11c4.113 0 6.397-2.195 6.397-5.53v-.091c0-3.61-2.331-5.485-6.307-5.485h-5.804V17.11h5.714zM237.319 1.16h11.562c3.656 0 6.625 1.098 8.545 3.016 1.691 1.692 2.651 4.114 2.651 7.038v.182c0 4.936-2.742 7.998-6.627 9.369l7.541 12.384h-6.124l-6.809-11.332c-.092.044-.228.044-.32.044h-5.119V33.15h-5.3V1.16zm-14.662 16.177v-.32c0-6.855-3.656-11.47-8.728-11.47-5.027 0-8.638 4.525-8.638 11.425v.32c0 6.854 3.702 11.47 8.728 11.47 5.028 0 8.638-4.525 8.638-11.425zm-22.85.092v-.457c0-9.505 5.85-16.314 14.212-16.314 8.318 0 14.122 6.763 14.122 16.223v.456c0 9.506-5.85 16.315-14.212 16.315-8.318 0-14.122-6.763-14.122-16.223zm-19.562 1.828h-6.443v9.14h6.671c3.656 0 5.941-1.601 5.941-4.526v-.09c0-2.788-2.148-4.524-6.169-4.524zm4.798-9.095c0-2.695-1.965-4.249-5.393-4.249h-5.848v8.866h5.529c3.474 0 5.712-1.554 5.712-4.525v-.092zM168.591 1.16h11.426c3.473 0 6.397.961 8.18 2.743 1.416 1.417 2.146 3.198 2.146 5.393v.138c0 3.928-2.285 5.985-4.705 7.174 3.517 1.233 6.077 3.335 6.077 7.63v.184c0 5.62-4.57 8.728-11.38 8.728h-11.744V1.16zm-23.529 15.95c4.113 0 6.399-2.194 6.399-5.53v-.09c0-3.61-2.331-5.485-6.307-5.485h-5.804v11.106h5.712zM134.05 1.16h11.561c3.656 0 6.626 1.1 8.546 3.017 1.69 1.692 2.65 4.114 2.65 7.038v.182c0 4.936-2.742 7.998-6.626 9.369l7.541 12.384h-6.124l-6.809-11.332c-.092.044-.228.044-.32.044h-5.119V33.15h-5.3V1.16zm-19.449 19.744l-4.569-12.841-4.569 12.84h9.138zM107.565.978h5.118l11.745 32.172h-5.531l-2.65-7.54h-12.43l-2.65 7.54H95.82L107.565.978zm-44.327.182h5.301v13.436h12.567V1.16h5.301v31.99h-5.301V19.533H68.539V33.15h-5.301V1.16z" fill="#363B51"/></svg>