<svg id="Layer_1" xmlns="http://www.w3.org/2000/svg" viewBox="0 0 1126 493.6"><style>.st0{fill:#00c800}.st1{fill:#320078}</style><switch><g><g id="XMLID_243_"><g id="XMLID_244_"><path id="XMLID_1032_" class="st0" d="M246.2 221.6v-34.4h-61.5c15.7-16.3 37.7-26.5 62-26.5 40.1 0 73.8 27.5 83.4 64.7h35.2c-10.1-56.3-59.4-99.1-118.6-99.1-48.2 0-89.8 28.7-109.1 69.8l25.5 25.5h83.1z"/><path id="XMLID_246_" class="st0" d="M246.8 332.9c-24.3 0-46.3-10.2-62-26.5h61.5V272h-83l-25.5 25.5c19.3 41.1 60.9 69.8 109.1 69.8 59.1 0 108.4-42.8 118.6-99.1h-35.2c-9.7 37.2-43.4 64.7-83.5 64.7z"/><path id="XMLID_245_" class="st0" d="M246.2 229.6H127.6c-.8 5.7-1.3 11.5-1.3 17.3 0 5.8.4 11.5 1.2 17.1h118.7v-34.4z"/></g></g><g id="XMLID_2735_"><path id="XMLID_242_" class="st1" d="M446.6 233.4h36.2v26.8h-36.2z"/><path id="XMLID_35_" class="st1" d="M398.2 183.7h33.6V310h-33.6z"/><path id="XMLID_32_" class="st1" d="M730.8 193.1c-7-8.3-18.5-12.5-29.3-12.5-36.6 0-66.3 29.7-66.3 66.3 0 36.6 29.7 66.3 66.3 66.3 10.8 0 22.3-4.2 29.3-12.5v9.4h33.5V183.7h-33.5v9.4zm-29.3 86.5c-18.1 0-32.8-14.7-32.8-32.8s14.7-32.8 32.8-32.8c18.1 0 32.8 14.7 32.8 32.8s-14.7 32.8-32.8 32.8z"/><path id="XMLID_31_" class="st1" d="M856.8 239.1l-44.2-16c-1-.4-2-1.4-2-2.9 0-1.7 1.4-3.1 3.1-3.1h65v-33.5h-65c-20.2 0-36.6 16.4-36.6 36.6 0 15.1 9.6 28.9 23.8 34.3l44.2 16c1 .4 2 1.4 2 2.9 0 1.7-1.4 3.1-3.1 3.1h-65V310h65c20.2 0 36.6-16.4 36.6-36.6.1-15.1-9.5-28.9-23.8-34.3z"/><path id="XMLID_30_" class="st1" d="M562.4 214c11.7 0 22.4 6.3 28.3 16.5h35.8c-7.4-29.1-34.1-50-64.1-50-36.6 0-66.3 29.7-66.3 66.3 0 36.6 29.7 66.3 66.3 66.3 30 0 56.7-20.9 64.1-50h-35.8c-5.9 10.2-16.6 16.5-28.3 16.5-18.1 0-32.8-14.7-32.8-32.8 0-18.1 14.8-32.8 32.8-32.8z"/><path id="XMLID_29_" class="st1" d="M966.2 183.7v46.4H927v-46.4h-33.5v126.2H927v-46.4h39.2v46.4h33.5V183.7z"/></g></g></switch></svg>