<svg xmlns="http://www.w3.org/2000/svg" width="2948" height="979" viewBox="0 0 2948 979"><defs><style>.cls-1{fill-rule:evenodd}</style></defs><path id="I_K_U" data-name="I K U" class="cls-1" d="M8.673 125.836h168v448h-168v126h468v-126h-168v-448h168v-126h-468v126zm1361 287h29l191 287h155v-6l-228-335v-18l216-335v-6h-149l-185 287h-29v-287h-132v700h132v-287zm1441-413v458q0 62.016-29 97-29.01 35.016-91 35-62.01 0-91-35-29.01-34.992-29-97v-458h-132v458q0 120 63.5 188 63.495 68.016 188.5 68 124.995 0 188.5-68t63.5-188v-458h-132z"/><path id="BIOTECH_REDEFINED" data-name="BIOTECH REDEFINED" class="cls-1" d="M8.989 978.111h45.28a41.278 41.278 0 0 0 14.16-2.24 30.4 30.4 0 0 0 10.4-6.16 25.436 25.436 0 0 0 6.4-9.28 30.743 30.743 0 0 0 2.16-11.6v-1.92a22.862 22.862 0 0 0-5.44-15.44 26.981 26.981 0 0 0-13.44-8.56v-1.92a28.212 28.212 0 0 0 7.44-3.28 25.572 25.572 0 0 0 6-5.2 23.294 23.294 0 0 0 4-6.88 23.974 23.974 0 0 0 1.44-8.48v-1.92a30.75 30.75 0 0 0-2.16-11.6 24.727 24.727 0 0 0-6.4-9.2 31.183 31.183 0 0 0-10.4-6.08 41.326 41.326 0 0 0-14.16-2.24H8.989v12.48h9.6v87.04h-9.6v12.48zm23.04-49.92h21.76q9.6 0 15.2 5.04t5.6 13.68v.96q0 8.321-5.92 13.04t-15.36 4.72h-21.28v-37.44zm0-49.6h21.28q9.439 0 15.36 4.72t5.92 12.88v.96q0 8.64-5.6 13.6t-15.2 4.96h-21.76v-37.12zm160 0h28.8v87.04h-28.8v12.48h71.04v-12.48h-28.8v-87.04h28.8v-12.48h-71.04v12.48zm174.88 56q0 22.4 10.4 34.08t28.96 11.68q18.559 0 28.96-11.68t10.4-34.08v-24.96q0-21.758-10.4-33.76t-28.96-12q-18.562 0-28.96 12t-10.4 33.76v24.96zm19.92 24.4q-6.48-8.88-6.48-25.36v-23.04q0-15.36 6.48-24.8t19.44-9.44q12.96 0 19.44 9.44t6.48 24.8v23.04q0 16.481-6.48 25.36t-19.44 8.88q-12.96 0-19.44-8.88zm158.8-80.4h32.64v99.52h13.44v-99.52h32.64v-12.48h-78.72v12.48zm184.16 99.52h68.8v-12.48h-55.36v-37.44h53.44v-12.48h-53.44v-37.12h54.4v-12.48h-67.84v112zm193.84-19.12q-6.48-8.88-6.48-25.36v-23.04q0-15.36 6.48-24.8t19.44-9.44a26.7 26.7 0 0 1 11.68 2.32 22.423 22.423 0 0 1 7.92 6.24 26.474 26.474 0 0 1 4.64 9.04 41.341 41.341 0 0 1 1.68 10.56v1.92h13.44v-1.92a48.644 48.644 0 0 0-2.56-15.92 37.351 37.351 0 0 0-7.52-12.96 34.3 34.3 0 0 0-12.32-8.64 43.147 43.147 0 0 0-16.96-3.12q-18.562 0-28.96 12t-10.4 33.76v24.96q0 22.4 10.4 34.08t28.96 11.68a43.147 43.147 0 0 0 16.96-3.12 34.3 34.3 0 0 0 12.32-8.64 37.351 37.351 0 0 0 7.52-12.96 48.635 48.635 0 0 0 2.56-15.92v-1.92h-13.44v1.92a36.693 36.693 0 0 1-1.52 10.64 26.561 26.561 0 0 1-4.64 8.96 22.217 22.217 0 0 1-8 6.24 27.208 27.208 0 0 1-11.76 2.32q-12.96 0-19.44-8.88zm160.241 19.12h13.44v-49.92h47.68v49.92h13.44v-112h-13.44v49.6h-47.68v-49.6h-13.44v112zm429.76-40.32q0-5.6-2.72-8.64a12.5 12.5 0 0 0-7.52-3.84v-1.92a22.644 22.644 0 0 0 10.64-9.6 25.687 25.687 0 0 0 3.44-12.48v-4.8a31.551 31.551 0 0 0-2.16-11.6 27.51 27.51 0 0 0-6.4-9.68 31.021 31.021 0 0 0-10.64-6.64 41.552 41.552 0 0 0-15.04-2.48h-40v112h13.44v-46.08h34.88q4.8 0 6.72 2.24a9.559 9.559 0 0 1 1.92 6.4v37.44h13.44v-40.32zm-56.96-59.2h24.96q11.355 0 16.88 5.2t5.52 13.68v2.88q0 9.442-5.52 14.32t-16.88 4.88h-24.96v-40.96zm166.72 99.52h68.8v-12.48h-55.36v-37.44h53.44v-12.48h-53.44v-37.12h54.4v-12.48h-67.84v112zm175.36-99.52h9.6v86.88h-9.6v12.64h36.8q20.79 0 30.4-9.92t9.6-31.68v-28.8q0-21.757-9.6-31.68t-30.4-9.92h-36.8v12.48zm23.04 87.04v-87.04h11.84a49.513 49.513 0 0 1 12.72 1.44 19.8 19.8 0 0 1 8.88 4.88 20.715 20.715 0 0 1 5.2 9.2 53.011 53.011 0 0 1 1.68 14.56v26.88a53 53 0 0 1-1.68 14.56 20.7 20.7 0 0 1-5.2 9.2 19.783 19.783 0 0 1-8.88 4.88 49.513 49.513 0 0 1-12.72 1.44h-11.84zm159.04 12.48h68.8v-12.48h-55.36v-37.44h53.44v-12.48h-53.44v-37.12h54.4v-12.48h-67.84v112zm178.88 0h13.44v-49.92h54.4v-12.48h-54.4v-37.12h55.36v-12.48h-68.8v112zm176.96-99.52h28.8v87.04h-28.8v12.48h71.04v-12.48h-28.8v-87.04h28.8v-12.48h-71.04v12.48zm203.84-12.48h-26.88v112h13.44v-106.24h1.92l32.32 106.24h26.88v-112h-13.44v106.24h-1.92zm155.2 112h68.8v-12.48h-55.36v-37.44h53.44v-12.48h-53.44v-37.12h54.4v-12.48h-67.84v112zm175.36-99.52h9.6v86.88h-9.6v12.64h36.8q20.79 0 30.4-9.92t9.6-31.68v-28.8q0-21.757-9.6-31.68t-30.4-9.92h-36.8v12.48zm23.04 87.04v-87.04h11.84a49.513 49.513 0 0 1 12.72 1.44 19.8 19.8 0 0 1 8.88 4.88 20.715 20.715 0 0 1 5.2 9.2 53.011 53.011 0 0 1 1.68 14.56v26.88a53 53 0 0 1-1.68 14.56 20.7 20.7 0 0 1-5.2 9.2 19.783 19.783 0 0 1-8.88 4.88 49.513 49.513 0 0 1-12.72 1.44h-11.84z"/></svg>