<svg id="图层_1" xmlns="http://www.w3.org/2000/svg" viewBox="0 0 894 768"><style>.st0{fill:#11293b}.st1{fill:url(#path-1-copy-7_1_)}.st2{fill:#fff}</style><g id="Group-2" transform="translate(188.131 35.938)"><path id="Rectangle-path" class="st0" d="M150.4 334h11.1c.2 0 .4.2.4.4v57.1c0 .2-.2.4-.4.4h-11.1c-.2 0-.4-.2-.4-.4v-57.1c0-.2.2-.4.4-.4z"/><path id="Shape" class="st0" d="M319.7 313.6v9c0 .2-.2.4-.4.4h-22.5c-.2 0-.4.2-.4.4v68.2c0 .2-.2.4-.4.4h-11.6c-.2 0-.4-.2-.4-.4v-68.2c0-.2-.2-.4-.4-.4H259c-.2 0-.4-.2-.4-.4v-9c0-.2.2-.4.4-.4h60.2c.1 0 .2 0 .3.1.2.1.2.2.2.3z"/><path id="Shape_1_" class="st0" d="M262.2 355h.1v36.5c0 .2-.2.4-.4.4h-10.8c-.2 0-.4-.2-.4-.4v-33.4c0-1.7-.1-3.4-.3-5.1-.8-6.1-3.2-10.5-11.8-10.4-2.5.1-4.9.8-7.1 2-2.5 1.5-5.4 3.6-6.9 6.6.3 1.9.4 3.9.4 5.9v35.1c0 .2-.2.4-.4.4H214c-.2 0-.4-.2-.4-.4v-28.8c0-6.4.3-13-2.7-17.1-1.9-2.5-4.5-3.6-9.6-3.6-2.1 0-4.8.8-6.9 1.8-1.4.7-2.8 1.6-4 2.6-1.7 1.6-3 3.6-3 5.9v38.5c0 .2-.2.4-.4.4h-10.8c-.2 0-.4-.2-.4-.4v-56.7c0-.2.2-.4.4-.4h4.5c1.8 0 3.5 1.2 4 2.9.4 1.2.7 2.3.7 2.3 0 .2.1.3.2.3.1.1.3 0 .4-.1 4.8-4.7 11.7-6.9 18.4-6.9 6.9 0 11.4 2.1 14.3 5.5l-.3-.4c.9 1 1.7 2.2 2.3 3.4.1.1.2.2.3.2s.3 0 .3-.1c4.4-5.4 13-8.5 20-8.5 16 0 20.9 11.1 20.9 22z"/><path id="Shape_2_" class="st0" d="M439.6 392h-11.8c-.1 0-.2-.1-.3-.2-4.4-6.1-7.7-11.9-9.2-13.8l-.3-.3c-2.4-3.1-7.4-9.6-14.3-10.8-.1 0-.3 0-.3.1l-5 5.3c-.1.1-.1.2-.1.3v18.9c0 .2-.2.4-.4.4h-11c-.2 0-.4-.2-.4-.4v-79.2c0-.2.2-.4.4-.4h11c.2 0 .4.2.4.4v45.6c0 .1.1.3.2.3s.3 0 .4-.1l24.1-24.9c.1-.1.2-.1.3-.1h12.9c.2 0 .3.1.3.2.1.1 0 .3-.1.4L412 359.1c-.1.1-.1.2-.1.3 0 .1.1.2.2.3 7.1 3.3 12 9.6 14.3 12.5l.3.3c2 2.5 8.5 12.2 13.3 18.8.1.1.1.3 0 .4-.1.2-.2.3-.4.3z"/><ellipse id="Oval" class="st0" cx="156" cy="317.8" rx="7.2" ry="7.1"/><path id="Shape_3_" class="st0" d="M346.6 331.5c-17.1 0-28.4 11.2-28.4 30.4s11.3 30.4 28.4 30.4 28.4-11.2 28.4-30.4c-.1-19.1-11.4-30.4-28.4-30.4zm0 51.3c-11.6 0-17.1-7.8-17.1-21.4 0-13.5 5.6-20.3 17.1-20.3s17.1 7.3 17.1 20.8-5.6 20.9-17.1 20.9z"/><path id="Shape_4_" class="st0" d="M473.7 383.5c-6.2.9-12.4-1.8-15.9-6.8-1.9-2.5-2.9-5.4-3.6-9.3 0-.1 0-.2.1-.3s.2-.1.3-.2l31.3-4.3c8.6-1.2 12.2-8.9 8.9-16.2-2.9-6.1-8-10.8-14.3-13.3-8.5-3.4-19.9-1.4-26 3.6-8.1 6.7-10.9 14.7-11.3 23.2-.1.9-.1 1.9-.1 2.9 0 2 .2 3.9.5 5.9 2.1 12.8 11.3 24.5 26.6 24.5 17.3.1 25.5-10.3 26.9-18 0-.1 0-.2-.1-.3-.1-.1-.2-.1-.3-.1l-10.8 1.6c-.1 0-.2.1-.3.2-3.2 4.2-6.6 6.1-11.9 6.9zm-16.2-36.2c3-3.8 7.4-6.1 12.2-6.5 4.9-.4 8.8.3 12.3 3.6 1.2 1.2 2.3 2.6 3.1 4.1 1.3 2.2-.1 5.4-2.9 5.8l-28.5 3.9c-.1 0-.2 0-.3-.1-.1-.1-.1-.2-.1-.3.5-4.2 1.8-7.4 4.2-10.5z"/><path id="Shape_5_" class="st0" d="M557.4 356.1v35.4c0 .2-.2.4-.4.4h-10.7c-.2 0-.4-.2-.4-.4V362s.1-5-.3-9.6c-.3-3.3-1.4-6.4-3.9-8.5-3.6-2.9-8.7-2.3-8.7-2.3-6.3.7-11.8 4.6-15.2 8.5-.1.1-.1.2-.2.2l.2-.1v41.2c0 .2-.2.4-.4.4h-10.8c-.2 0-.4-.2-.4-.4v-57.8c0-.2.2-.4.4-.4h8.9c.2 0 .4.2.4.4v5.7c0 .2.1.3.2.3.1.1.3 0 .4-.1 4.6-4.9 11.5-7.8 18.7-7.8 6.1.1 22.2.3 22.2 24.4z"/></g><g id="Group" transform="translate(0 2.938)"><g id="icon_imTokenLogo"><linearGradient id="path-1-copy-7_1_" gradientUnits="userSpaceOnUse" x1="-231.175" y1="763.692" x2="-232.147" y2="762.727" gradientTransform="matrix(134.3987 0 0 -134.8504 31348.697 103302.031)"><stop offset="0" stop-color="#11c4d1"/><stop offset="1" stop-color="#0062ad"/></linearGradient><path id="path-1-copy-7" class="st1" d="M282.9 406s0 14.1-1.5 20.1c-1.5 6.1-4.3 10.3-7.4 13.5-3.1 3.1-7.2 6-13.5 7.5s-20 1.5-20 1.5h-49.6s-14 0-20.1-1.5c-6.1-1.5-10.3-4.3-13.4-7.5-3.1-3.1-6-7.3-7.4-13.6s-1.5-20-1.5-20v-49.8s0-14.1 1.5-20.1c1.5-6.1 4.3-10.3 7.4-13.5 3.1-3.1 7.2-6 13.5-7.5s20-1.5 20-1.5h49.6s14 0 20.1 1.5c6.1 1.5 10.3 4.3 13.4 7.5 3.1 3.1 6 7.3 7.4 13.6 1.5 6.3 1.5 20 1.5 20V406z"/><path id="Combined-Shape" class="st2" d="M261.8 354.9c2.8 38.3-22.7 56.5-45.5 58.5-21.2 1.9-41.1-10.7-42.8-30.1-1.4-16 8.8-22.9 16.9-23.6 8.3-.7 15.2 4.8 15.8 11.5.6 6.4-3.6 9.4-6.5 9.6-2.3.2-5.1-1.1-5.4-4-.2-2.5.8-2.8.5-5.4-.4-4.7-4.6-5.2-6.9-5-2.8.2-7.9 3.4-7.2 11.3.7 7.9 8.5 14.1 18.8 13.2 11.1-1 18.8-9.3 19.4-21.1 0-.6.1-1.2.4-1.8.1-.2.2-.5.4-.7.3-.4.6-.8.9-1.1.3-.3.6-.7 1-1 4.8-4.4 22.3-14.9 38.8-11.7.1 0 .3.1.4.1.6.2 1 .7 1 1.3"/></g></g></svg>