<svg xmlns="http://www.w3.org/2000/svg" width="1000" height="462.974" viewBox="156.666 156.667 1000 462.974"><path d="M567.992 156.667v23.839l56.951-5.866h21.023v38.589l-35.398 10.827-47.959 11.568 7.12 23.307 45.961-17.66 30.276-9.25v63.343h-21.023l-56.951-5.869v23.839h173.921v-23.839l-56.953 5.869h-21.022v-63.343l30.124 9.202 46.116 17.708 7.116-23.307-47.828-11.534-35.528-10.861V174.64h21.022l56.953 5.866v-23.839zm-51.887 304.365v156.665h20.852v-74.171h90.318v-20.601h-90.318v-41.044H638.65v-20.849zm264.453 97.158c0 1.682-.46 41.17-40.289 41.17-37.069 0-40.208-31.523-40.288-41.17v-97.158h-20.852v97.158c0 28.348 16.014 61.45 61.14 61.45 45.124 0 61.139-33.104 61.139-61.45v-97.158h-20.85v97.158zm199.821-47.634c0-24.646-17.141-49.521-55.43-49.521h-67.112v156.662h20.847v-57.624h40.099l35.196 57.624h25.138l-36.701-59.758c9.883-2.324 37.963-12.047 37.963-47.383zm-101.696 28.673V481.69h46.268c12.922 0 34.595 3.751 34.595 28.866 0 23.697-18.812 28.673-34.595 28.673h-46.268zm-448.471-78.197v124.505h-4.552l-73.578-124.505h-26.978v156.665h20.848V497.131h4.55l70.246 120.566h30.309V461.032zm-273.546 0v19.339h46.298v117.991h-46.298v19.335h113.442v-19.335h-46.296V480.371h46.296v-19.339zm943.085-.131h-24.979l-56.918 156.796h21.914l17.154-47.479h60.649l17.178 47.479h21.917l-56.915-156.796zm-35.501 89.033l20.492-56.717h4.975l20.52 56.717h-45.987z" fill="#FF6B4A"/></svg>