<svg xmlns="http://www.w3.org/2000/svg" viewBox="0 0 336 66"><path d="M11.5 13.7V6.4h8v7.2h-8zm.3 38.1V18.7h7.5v33.1h-7.5zm22.2 0h-7.6V18.7H34v5.2c.5-.8 1.1-1.6 1.8-2.2.6-.7 1.4-1.3 2.2-1.9.9-.5 1.8-1 2.8-1.3 1-.3 2.2-.5 3.5-.5 3.7 0 6.6 1.2 8.7 3.4 2 2.3 3.1 5.4 3.1 9.3v21.1h-7.6V33.1c0-2.6-.6-4.6-1.8-6-1.2-1.4-2.9-2.1-5.2-2.1-2.2 0-4 .7-5.3 2.2-1.4 1.4-2.1 3.5-2.1 6v18.6zm27.9-38.1V6.4h8v7.2h-8zm.3 38.1V18.7h7.5v33.1h-7.5zm23.5-10.3c0 1.5.3 2.5 1 3.2.7.6 1.7 1 2.9 1 1.6 0 3.1-.4 4.6-1.1v6.2c-.9.5-1.9 1-3 1.3-1.1.3-2.3.4-3.7.4-1.3 0-2.6-.2-3.8-.5-1.2-.3-2.2-.9-3-1.6-.8-.8-1.5-1.7-1.9-3-.5-1.2-.7-2.8-.7-4.6V25.2H74v-6.5h4.1V9.6h7.5v9.1h8.7v6.5h-8.7v16.3zm13.7-27.8V6.4h8v7.2h-8zm.3 38.1V18.7h7.5v33.1h-7.5zm34.9 0v-4.1c-1.1 1.3-2.6 2.5-4.3 3.4s-3.9 1.4-6.4 1.4c-1.6 0-3.1-.2-4.5-.7-1.4-.4-2.7-1.1-3.7-1.9-1.1-.9-1.9-1.9-2.6-3.2-.6-1.3-1-2.8-1-4.4v-.1c0-1.8.3-3.4 1-4.7.7-1.3 1.6-2.4 2.8-3.3 1.2-.9 2.6-1.5 4.3-2 1.7-.4 3.4-.7 5.4-.7 2 0 3.7.1 5.1.4 1.4.3 2.8.6 4.1 1v-.8c0-2.3-.7-4.1-2.1-5.3-1.4-1.2-3.4-1.8-6.1-1.8-1.9 0-3.6.2-5 .6-1.5.4-3 .9-4.5 1.5L115 21c1.8-.8 3.7-1.5 5.7-2 1.9-.5 4.3-.8 7-.8 4.9 0 8.6 1.2 11 3.7 2.4 2.4 3.6 5.9 3.6 10.3v19.6h-7.7zm.2-14c-1-.4-2.1-.7-3.4-.9-1.3-.3-2.7-.4-4.2-.4-2.4 0-4.3.5-5.6 1.4-1.3.9-2 2.2-2 4v.1c0 1.6.6 2.8 1.9 3.6 1.2.8 2.8 1.3 4.6 1.3 1.3 0 2.4-.2 3.5-.5s2-.8 2.8-1.4c.8-.6 1.4-1.3 1.9-2.2.4-.9.7-1.8.7-2.9v-2.1zm13.3 14V6.1h7.5v45.8h-7.5zm14.6-38.1V6.4h8v7.2h-8zm.3 38.1V18.7h7.5v33.1H163zm13.1-26.9v-6.2h28.1v5.2l-19.1 21.7h19.1v6.2h-28.8v-5.2l19.1-21.7h-18.4zm40.8 19.3c1.7 1.4 3.8 2.2 6.2 2.2 1.9 0 3.5-.3 4.9-1 1.4-.7 2.7-1.7 4.1-2.9l4.4 3.9c-1.6 1.9-3.5 3.4-5.7 4.5s-4.8 1.7-7.8 1.7c-2.4 0-4.6-.4-6.7-1.3-2.1-.8-3.9-2-5.4-3.5-1.5-1.5-2.7-3.3-3.6-5.4-.9-2.1-1.3-4.5-1.3-7 0-2.4.4-4.6 1.2-6.7.8-2.1 1.9-3.9 3.3-5.5s3.1-2.8 5.1-3.7c2-.9 4.1-1.4 6.5-1.4 2.6 0 4.9.5 6.9 1.4 2 1 3.6 2.3 4.9 3.9 1.3 1.6 2.3 3.5 3 5.7.7 2.2 1 4.5 1 6.8v1c0 .3-.1.7-.1 1.1h-24.2c.5 2.7 1.5 4.8 3.3 6.2zM230.5 33c-.1-1.2-.4-2.4-.8-3.4s-1-2-1.7-2.8c-.7-.8-1.6-1.4-2.5-1.8-1-.5-2.1-.7-3.3-.7-2.3 0-4.3.8-5.8 2.4-1.5 1.6-2.4 3.7-2.8 6.3h16.9zm37.3 18.8v-5.5c-1.2 1.7-2.7 3.2-4.5 4.4-1.8 1.2-4.1 1.8-6.7 1.8-2 0-3.9-.4-5.7-1.1-1.8-.7-3.5-1.9-4.9-3.4-1.4-1.5-2.6-3.3-3.4-5.4-.9-2.1-1.3-4.6-1.3-7.3 0-2.8.4-5.2 1.3-7.3.9-2.1 2-3.9 3.4-5.4 1.4-1.5 3.1-2.6 4.9-3.4 1.9-.8 3.8-1.1 5.7-1.1 2.7 0 5 .6 6.7 1.8 1.8 1.2 3.3 2.5 4.5 4.1V6.1h7.6v45.8h-7.6zm-.7-20.9c-.5-1.3-1.2-2.4-2.1-3.4-.9-.9-1.9-1.7-3.1-2.2-1.2-.5-2.4-.8-3.6-.8-1.3 0-2.5.2-3.7.7-1.1.5-2.2 1.2-3 2.1-.9.9-1.6 2-2.1 3.4-.5 1.3-.8 2.8-.8 4.5 0 1.6.3 3.1.8 4.4.5 1.3 1.2 2.4 2.1 3.4.9.9 1.9 1.6 3 2.1s2.4.8 3.7.8c1.2 0 2.5-.2 3.6-.8 1.2-.5 2.2-1.2 3.1-2.2.9-.9 1.6-2.1 2.1-3.4.5-1.3.8-2.8.8-4.4 0-1.5-.2-2.9-.8-4.2zm24.8-11.1c-2.6 4.1-4 8.8-4 14 0 5.3 1.3 9.9 4 14 2.6 4.1 6.4 7.7 11.4 10.7l-1.3 2.1c-5.5-3.1-9.8-7-12.8-11.5s-4.5-9.6-4.5-15.4c0-5.7 1.5-10.8 4.5-15.4 3-4.5 7.3-8.3 12.8-11.5l1.3 2.1c-4.9 3.2-8.7 6.8-11.4 10.9zM309.6 7c5.5 3.1 9.8 7 12.8 11.5s4.5 9.6 4.5 15.4c0 5.7-1.5 10.8-4.5 15.4-3 4.5-7.3 8.3-12.8 11.5l-1.3-2.1c5-3 8.8-6.6 11.4-10.7 2.6-4.1 4-8.8 4-14 0-5.3-1.3-9.9-4-14s-6.5-7.7-11.4-10.7l1.3-2.3z"/></svg>