<svg xmlns="http://www.w3.org/2000/svg" viewBox="0 0 792 612"><switch><g><path d="M247.9 256.5v-39.8h159v65.1h-44.7V256h-43.1v30.4h37v36.7h-37V356H363v-29.1h44.7v68.4H247.9v-39.8h18.9v-99h-18.9zm169.2 0v-39.8h159v65.1h-44.7V256h-43.1v30.4h37v36.7h-37V356h43.9v-29.1h44.7v68.4H417.1v-39.8H436v-99h-18.9zm320 66.3c-6.9 7.1-17.6 9.7-33.4 9.7h-46.2v23h20.2v39.8h-91.3v-39.8h18.9v-99h-18.9v-39.8h117.4c15.8 0 26.5 2.6 33.4 9.7 8.2 8.4 11.5 17.3 11.5 48.2-.1 30.9-3.4 39.8-11.6 48.2zm-57.7-28c7.4 0 10.2-.5 11.7-2 2.3-2.5 2.8-6.4 2.8-17.3 0-11-.5-14.8-2.8-17.4-1.5-1.5-4.3-2-11.7-2h-21.9v38.8h21.9zm-440.9-38.3v-39.8h-90.1V256h14.1l-27.9 32.4h-11.4V256H139v-39.3h-21.4v14.7H106v-14.7H84.9v14.7H73.3v-14.7H52v39.8h18.8v99H52v39.8h87V356h-15.8v-32.4h11.4l27.9 32.4h-14.1v39.3h90.1v-39.8h-14L182.1 306l42.4-49.5z"/></g></switch></svg>