<svg width="322" height="109" viewBox="0 0 322 109" xmlns="http://www.w3.org/2000/svg"><title>Artboard</title><g fill="none" fill-rule="evenodd"><path d="M55.3 55.3c3.7 3.7 9.6 3.7 13.3 0l29.4-29c3.7-3.6 3.7-9.5.1-13.1-3.7-3.7-9.6-3.7-13.3 0l-29.4 29c-3.7 3.5-3.8 9.4-.1 13.1-.1-.1-.1 0 0 0z" fill="#6E76FF"/><path d="M55.5 55.5c-3.7-3.7-3.7-9.7 0-13.4l28.9-28.9a9.476 9.476 0 0 1 13.4 13.4L68.9 55.5c-3.7 3.7-9.7 3.7-13.4 0z" fill="#6E76FF" fill-rule="nonzero"/><path d="M55.6 42c-3.7 3.7-3.7 9.7 0 13.4l28.9 28.9a9.476 9.476 0 0 0 13.4-13.4L69 42c-3.7-3.7-9.7-3.7-13.4 0zm-8-22.1c0-5.2-4.3-9.5-9.5-9.5s-9.5 4.3-9.5 9.5v58.2c0 5.2 4.3 9.5 9.5 9.5s9.5-4.3 9.5-9.5V67.9c0-2.1-1.3-4.9-2.6-6.6l.1.1c-5.9-7.4-5.8-18 .1-25.4 1.2-1.5 2.4-3.4 2.4-5.5V19.9z" fill="#6E76FF" fill-rule="nonzero"/><text fill="#1E1E1E" font-family="Helvetica-Bold, Helvetica" font-size="40" font-weight="bold" transform="translate(28 10)"><tspan x="93" y="57.25">Kickback</tspan></text></g></svg>