<svg width="708" height="347" viewBox="0 0 708 347" fill="none" xmlns="http://www.w3.org/2000/svg"><path fill="#000" fill-opacity="0" d="M0 0h708v346.978H0z"/><path fill="#000" fill-opacity="0" d="M0 0h708v346.978H0z"/><path fill="#000" fill-opacity="0" d="M0 0h708v346.978H0z"/><path fill="#000" fill-opacity="0" d="M309 80.389h399v187.1H309z"/><path d="M413.3 107.289l-24.9 56.9c-2.2 4.9-4.8 8.4-7.8 10.7-3 2.3-6.7 3.4-11 3.4-2.8 0-5.6-.3-8.4-1v-9.3c3.2.3 5.2.4 6 .4 2.6 0 4.8-.5 6.6-1.6 1.8-1 3.3-3 4.6-5.8l2.1-4.8-20.5-48.7h11.8l14.7 37.3 15.1-37.3 11.7-.2zm36.1-.9c7.2 0 13.2 2.5 18 7.6 4.8 5.1 7.2 11.5 7.2 19s-2.4 13.9-7.1 19c-4.7 5.1-10.6 7.6-17.8 7.6-3.7 0-7.2-.7-10.3-2.2-3.1-1.5-5.6-3.5-7.5-6.1v7.2h-10.2v-78.1h10.9v33.2c4.1-4.9 9.8-7.4 17.2-7.4l-.4.2zm-1.6 43.4c4.5 0 8-1.7 11-4.8 3-3.1 4.5-7.2 4.5-12.1 0-4.9-1.5-8.8-4.5-12-3-3.1-6.8-4.7-11.2-4.7-4.3 0-7.9 1.5-10.9 4.4-3 2.9-4.5 7.1-4.5 12.5 0 5.5 1.6 9.7 4.6 12.5 3 2.8 6.7 4.2 10.9 4.2h.1zm-113.2 64.2c5.9 0 10.6 2 14 5.7 3.4 3.7 5.1 8.6 5.1 14.8v32h-10.9v-30.5c0-3.5-1-6.5-3.1-8.6-2.1-2.2-4.8-3.3-8.1-3.3-3.4 0-6.2 1.1-8.4 3.3-2.2 2.2-3.2 5-3.2 8.4v30.7h-11v-51.3h10.2v5.1c3.9-4.2 9-6.2 15.3-6.2l.1-.1zm79.9 30.3h-38.1c.7 4.3 2.6 7.6 5.6 10 3 2.4 6.8 3.5 11.2 3.5 5.3 0 10.3-2 14.9-6l5.2 7.5c-5.8 5.5-12.6 8.2-20.4 8.2-7.9 0-14.5-2.6-19.7-7.7-5.2-5.1-7.8-11.5-7.8-19s2.6-13.8 7.7-19c5.1-5.2 11.3-7.8 18.7-7.8 6.8 0 12.4 2.2 16.9 6.7 4.5 4.5 6.8 10.1 6.8 16.9 0-.2-.1 4.1-1 6.7zm-23.1-21c-3.6 0-6.8 1.1-9.5 3.4s-4.5 5.3-5.3 9.2h27.8c-.1-3.9-1.4-6.9-3.9-9.2-2.5-2.3-5.6-3.4-9.3-3.4h.2zm141.4-86.7h-38.1c.7 4.3 2.6 7.6 5.6 10 3 2.4 6.8 3.5 11.2 3.5 5.3 0 10.3-2 14.9-6l5.2 7.5c-5.8 5.5-12.6 8.2-20.4 8.2-7.9 0-14.5-2.6-19.7-7.7-5.2-5.1-7.8-11.5-7.8-19s2.6-13.8 7.7-19c5.1-5.2 11.3-7.8 18.7-7.8 6.8 0 12.4 2.2 16.9 6.7 4.5 4.5 6.8 10.1 6.8 16.9 0-.2 0 4-1 6.7zm-23.1-21c-3.6 0-6.8 1.1-9.5 3.4s-4.5 5.3-5.3 9.2h27.8c-.1-3.9-1.4-6.9-3.9-9.2-2.5-2.3-5.6-3.4-9.3-3.4h.2zm-55.8 141.9c1.6 0 3.7-.3 6.7-.6v9.3c-3.4.7-6.5 1.1-9.1 1.1-5.9 0-10.5-1.5-13.8-4.4-3.3-2.9-5-7.4-5-13.3v-25h-8.3v-9.5h8.3v-13.4h11v13.4h15.2v9.5h-15.2v24c0 3.2.8 5.5 2.5 6.9 1.7 1.4 4.2 2 7.5 2h.2zm95.9-42.4l-22.7 52.3h-3.7l-16-34-16 34h-3.7l-22.7-52.3h11.7l13.4 33.4 15.5-34.6h3.7l15.7 34.1 13.2-33h11.6v.1zm50.8 6.5c-5.3-5.1-11.6-7.6-19.1-7.6-7.6 0-13.9 2.6-19.2 7.7-5.2 5.1-7.8 11.5-7.8 18.9 0 7.5 2.6 13.8 7.8 18.9 5.2 5.1 11.6 7.7 19.2 7.8 7.5 0 13.8-2.6 19.2-7.8 5.3-5.2 7.9-11.6 7.9-19 .1-7.4-2.6-13.8-8-18.9zm-8 30.8c-3 3.1-6.8 4.7-11.2 4.7-4.6 0-8.3-1.6-11.3-4.7s-4.5-7.1-4.5-11.8c0-4.8 1.5-8.7 4.5-11.9 3-3.1 6.8-4.7 11.3-4.8h.1c4.5.1 8.2 1.7 11.2 4.8 3 3.1 4.5 7.1 4.5 11.9 0 4.7-1.6 8.7-4.6 11.8zm53.6-37.8c1.6 0 2.9.2 4.2.5v9.7H647c-4.3 0-7.8 1.2-10.6 3.7s-4.3 5.9-4.3 10.4v27.5h-10.9v-51.3h10.2v6.7c3.6-4.8 8.6-7.2 15-7.2h-.2zm-73.9-107.6c1.6 0 2.9.2 4.2.5v9.7h-3.3c-4.3 0-7.8 1.2-10.6 3.7s-4.3 5.9-4.3 10.4v27.5h-10.9v-51.3h10.2v6.7c3.6-4.8 8.6-7.2 15-7.2h-.3zm89 81.2h10.9v78.3h-10.9v-78.3zm46.7 78.3h-13.1l-22.3-28.9 20-22.4h13.5l-20.6 22.5 22.5 28.8zm-399-186h10.9v78.3H309v-78.3zm46.7 78.3h-13.1l-22.3-28.9 20-22.4h13.5l-20.6 22.5 22.5 28.8z" fill="#141927"/><path fill="#000" fill-opacity="0" d="M0 0h243.8v346.978H0z"/><path d="M104 173.489l129.6 74.3c4.5 2.6 10.2-.7 10.2-5.9v-136.9c0-5.2-5.7-8.5-10.2-5.9l-129.6 74.4zm122.1-106.4L140 1.389c-4-3-9.7-.9-10.8 4l-31.4 146.4 127.6-73.3c4.2-2.5 4.6-8.4.7-11.4zm-86.1 278.5l86.2-65.8c3.9-3 3.5-8.9-.7-11.3l-127.7-73.3 31.5 146.4c.9 4.9 6.7 7 10.7 4z" fill="#31CB9E"/><path d="M70.8 173.489l33.9-157.7c1.3-6.2-5.8-10.7-10.8-6.8l-86.8 66.3c-4.5 3.4-7.1 8.7-7.1 14.3v168c0 5.6 2.6 10.9 7.1 14.3l86.8 66.2c5 3.8 12.1-.7 10.8-6.8l-33.9-157.8z" fill="#31CB9E"/></svg>