<svg xmlns="http://www.w3.org/2000/svg" viewBox="0 0 701.34 121.58"><defs><style>.cls-1{fill:#061f20}.cls-2{fill:#001f20}</style></defs><title>LL Official Long BLACK</title><g id="Layer_2" data-name="Layer 2"><g id="Solid"><path class="cls-1" d="M181.18 25.86v59.65h30.17v15.29h-47.68V25.86h17.51zm36.3 15.05h15.84v59.9h-15.84zm40.93 0v8.34h.33a18.43 18.43 0 0 1 7.81-7.59 21.91 21.91 0 0 1 9.81-2.38 25.94 25.94 0 0 1 10.43 1.8 15.59 15.59 0 0 1 6.41 5 19.68 19.68 0 0 1 3.29 7.76 50.3 50.3 0 0 1 .95 10.16v36.8H281.6V67q0-7.41-2.23-11.06t-7.91-3.65q-6.48 0-9.37 4t-2.9 13.15v31.36h-15.84V40.91zm86.79 59.89v-8.34h-.34c-2 3.48-4.61 5.12-7.8 6.67a22.4 22.4 0 0 1-9.82 2.31 26.91 26.91 0 0 1-10.42-1.73 15.06 15.06 0 0 1-6.42-4.93 15.88 15.88 0 0 1-3.29-6.89 50.4 50.4 0 0 1-.94-10.14V40.91H322v33.83q0 7.41 2.23 11.06t7.92 3.65q6.47 0 9.37-4t2.9-13.15V40.91h15.83v59.89zm40.03-59.89V49h.23a23 23 0 0 1 7.54-7.17 19.92 19.92 0 0 1 10.1-2.55 22.45 22.45 0 0 1 10 2.21 14.33 14.33 0 0 1 6.86 7.76 24.92 24.92 0 0 1 7-7 18 18 0 0 1 10.42-3 29.77 29.77 0 0 1 8.48 1.16 16.22 16.22 0 0 1 11 10.37 28 28 0 0 1 1.56 9.91v40.11h-15.86V66.86c0-2-.08-3.9-.23-5.68a12.36 12.36 0 0 0-1.22-4.63 7.56 7.56 0 0 0-3-3.13 10.39 10.39 0 0 0-5.3-1.16 9.92 9.92 0 0 0-5.41 1.33 9.55 9.55 0 0 0-3.23 3.48 14.31 14.31 0 0 0-1.56 4.86 38.84 38.84 0 0 0-.39 5.51v33.36h-15.8V67.2c0-1.77 0-3.53-.11-5.27a15.06 15.06 0 0 0-.95-4.8 7.3 7.3 0 0 0-2.78-3.54 10.31 10.31 0 0 0-5.75-1.33 11.29 11.29 0 0 0-2.95.52 9.77 9.77 0 0 0-3.57 2 11.5 11.5 0 0 0-3 4.17 17.51 17.51 0 0 0-1.22 7.13v34.72h-15.8V40.91zm99.79-15.05v59.65h30.16v15.29h-47.67V25.86h17.51zM560 100.94l15.37-.13s-.19-10.63-.19-13.33V56.32a14.83 14.83 0 0 0-2.34-8.75 16.3 16.3 0 0 0-6-5.16 26.49 26.49 0 0 0-8.14-2.49 62.92 62.92 0 0 0-8.81-.64 46.45 46.45 0 0 0-9.53 1 26.85 26.85 0 0 0-8.54 3.3 19.36 19.36 0 0 0-6.24 6.14 19.7 19.7 0 0 0-2.79 9.62h15.84c.29-3.25 1.34-5.56 3.12-6.95a11.71 11.71 0 0 1 7.36-2.09 26 26 0 0 1 4 .29 8.46 8.46 0 0 1 3.23 1.16 6.24 6.24 0 0 1 2.23 2.43 9 9 0 0 1 .84 4.23 4.55 4.55 0 0 1-1.45 3.88 10.42 10.42 0 0 1-4.24 2 41 41 0 0 1-6.13 1q-3.46.34-7 .93a66.79 66.79 0 0 0-7.08 1.56 19.56 19.56 0 0 0-6.24 3 14.72 14.72 0 0 0-4.46 5.27 17.93 17.93 0 0 0-1.73 8.4 19.48 19.48 0 0 0 1.5 8c1 2.24 2.4 3.23 4.19 4.7a17.19 17.19 0 0 0 6.24 3.24 27.15 27.15 0 0 0 7.7 1 34.63 34.63 0 0 0 10.48-1.62c3.42-1.08 6.39-2.11 8.92-4.81.07 1 0 3 0 3zm-.66-23.31a31.66 31.66 0 0 1-.28 3.71 12.73 12.73 0 0 1-1.5 4.57 10.72 10.72 0 0 1-3.79 3.89 13.62 13.62 0 0 1-7.25 1.62 19.22 19.22 0 0 1-3.68-.35 8.79 8.79 0 0 1-3.13-1.22 6.1 6.1 0 0 1-2.12-2.37 8 8 0 0 1-.78-3.71 8.27 8.27 0 0 1 .78-3.82 7.29 7.29 0 0 1 2.07-2.49 10.22 10.22 0 0 1 3-1.57 28.3 28.3 0 0 1 3.51-.92c1.27-.23 2.53-.43 3.79-.58s2.47-.35 3.63-.58a24.1 24.1 0 0 0 3.23-.87 7 7 0 0 0 2.51-1.45zM641 56.6a29.29 29.29 0 0 0-5.52-9.79 21.93 21.93 0 0 0-7.64-5.67 21.13 21.13 0 0 0-8.58-1.86 25.77 25.77 0 0 0-10.32 2.15 17 17 0 0 0-7.86 6.78h-.22V25.86H585v74.94h15.06v-7.64h.22c1.71 3.32 4.24 4.81 7.58 6.2a29.45 29.45 0 0 0 11.38 2.08 21.12 21.12 0 0 0 8.58-1.85 21.84 21.84 0 0 0 7.64-5.68A24.93 24.93 0 0 0 641 85a42.32 42.32 0 0 0 2.12-14.19A42.34 42.34 0 0 0 641 56.6zm-14.49 21.5a19.46 19.46 0 0 1-2.46 6.14 13.07 13.07 0 0 1-4.18 4.22 12.44 12.44 0 0 1-12.1 0 13 13 0 0 1-4.24-4.22 19.69 19.69 0 0 1-2.45-6.14 32.73 32.73 0 0 1-.78-7.19 33.27 33.27 0 0 1 .78-7.3 19.69 19.69 0 0 1 2.45-6.14 13 13 0 0 1 4.24-4.22 12.44 12.44 0 0 1 12.1 0 13.07 13.07 0 0 1 4.18 4.22 19.46 19.46 0 0 1 2.46 6.14 33.27 33.27 0 0 1 .78 7.3 32.73 32.73 0 0 1-.78 7.19zM664 85.91a9.53 9.53 0 0 0 2.76 3.09 11.67 11.67 0 0 0 3.85 1.8 17.34 17.34 0 0 0 4.52.58 16.4 16.4 0 0 0 3.51-.41 11.7 11.7 0 0 0 3.36-1.23 7.73 7.73 0 0 0 2.51-2.32 6.24 6.24 0 0 0 1-3.65q0-3.7-4.74-5.56a93.46 93.46 0 0 0-13.21-3.71c-2.31-.54-4.56-1.17-6.75-1.91a22.72 22.72 0 0 1-5.86-2.89 13.93 13.93 0 0 1-4.12-4.52 13.13 13.13 0 0 1-1.56-6.66 18.56 18.56 0 0 1 2.17-9.5 16.34 16.34 0 0 1 5.74-5.85 24.63 24.63 0 0 1 8-3 47.78 47.78 0 0 1 9.15-.87 43.94 43.94 0 0 1 9.09.93 23.59 23.59 0 0 1 7.86 3.13 18.44 18.44 0 0 1 5.72 5.83 20 20 0 0 1 2.73 9.21h-15c-.22-3.17-1.38-5.31-3.46-6.43a15.29 15.29 0 0 0-7.36-1.68 27.82 27.82 0 0 0-2.9.17 9.35 9.35 0 0 0-2.84.76A5.87 5.87 0 0 0 666 52.9a5.08 5.08 0 0 0 .67 6.54 11.88 11.88 0 0 0 4.07 2.26 50.82 50.82 0 0 0 5.75 1.57c2.15.46 4.35 1 6.58 1.5a65.37 65.37 0 0 1 6.74 2 21.88 21.88 0 0 1 5.86 3.07 14.72 14.72 0 0 1 4.12 4.75 14.3 14.3 0 0 1 1.57 7 16.47 16.47 0 0 1-2.29 9 18.55 18.55 0 0 1-6 6.43 24 24 0 0 1-8.42 3.42 47.7 47.7 0 0 1-9.64 1 45.79 45.79 0 0 1-9.82-1 25.32 25.32 0 0 1-8.53-3.47 19.67 19.67 0 0 1-6.13-6.43 17.39 17.39 0 0 1-2.62-9.16H663a9.22 9.22 0 0 0 1 4.53z"/><path class="cls-2" d="M139.52 84.05L120.46 51l-.87-1.5H104l6.93-12 .87-1.5-.87-1.5-19.07-33L91 0H49.4l-.87 1.5-19.07 33-.86 1.5.86 1.5 6.94 12H20.8l-.87 1.5L.87 84.06 0 85.56l.87 1.5 19.06 33 .87 1.5h41.59l.87-1.5 6.93-12 6.94 12 .86 1.5h41.6l.87-1.5 19.06-33 .87-1.51zm-58-31.87l-.07-.18 7.74-15.4h16.41l-9.21 15.58zM99 54.74l16.47 30-16.19.1-12.19-22.19-4.25-8zm-19.81-3.16l-9.06 16.74L55 68.23l16.55-31.62h15.38zm-26 15.27l-8.05-13.41-.09-.12 16.79-31.58 8.06 13.94zm-1.55 1.36l-19.49-.12-7.81-13.55 19.4.32zm1.91 2a.84.84 0 0 0 .27 0l16.41.2 4.62 9 2.56 5.24-36-.58-7.87-14zm23 8.3l-4.45-9.09L80 54.07h.23v.07l5.14 9.4 12 22.58-8.79 15.75-6.24-12.08zm12.95 25.97L99.5 87a.85.85 0 0 0 .09-.22l15.84-.06-16.67 30.08-16.42.25zm11.82-49.73l15.8.1 17.24 29.9h-16.79zm-12.71-20H71.53l-8.07-14H97.3l8.32 14zM62.35 18.81l-2.25-3.59-6.54-10.67h34.52l8.14 14.26zm-3.85-2.6l2.21 3.62-17 31.62-9.26-15.84L51.74 5.44zM39.75 85l-8.12 14-17-29.12 8.1-14.42zm-9.19 15.91l-1.14 2.2-6.84 12.66L5.31 85.85l8.2-14.09zm-6.2 16L31.08 104l1.17-2.16h35.29l-8.56 15zm9-17l8.06-14 34.58.63-8 13.38zM78.38 86.7l2.28 3.94 6.83 13.28-6.82 12.23-9.56-17.06zm22.55 30.09l17.12-30.13h3.12l13.23.14-17.35 30.06z"/></g></g></svg>