<svg xmlns="http://www.w3.org/2000/svg" viewBox="0 0 298.86667 82.013336" height="82.013" width="298.867"><path d="M92.414 53.08a1.401 1.401 0 0 1 0 2.8H84a1.414 1.414 0 0 1-1.333-1.4V37.654a1.4 1.4 0 0 1 2.8 0V53.08h6.947m12.826 0a1.4 1.4 0 0 1 0 2.8h-8.427a1.402 1.402 0 0 1-1.398-1.402 1.402 1.402 0 0 1 1.398-1.399h2.8V39.066h-2.8a1.4 1.4 0 0 1 0-2.8h8.414a1.4 1.4 0 1 1 0 2.8h-2.8V53.08h2.813m3-11.214a5.613 5.613 0 1 1 11.213 0v8.414a5.413 5.413 0 0 1-.786 2.84l.187.2c.248.179.426.438.506.733.12.353.085.74-.093 1.067-.166.337-.466.59-.827.694a1.342 1.342 0 0 1-1.067-.107 1.498 1.498 0 0 1-.36-.267l-.32-.333a5.614 5.614 0 0 1-8.466-4.84zm8.414 0a2.807 2.807 0 0 0-5.614 0v8.414a2.8 2.8 0 0 0 2.8 2.8c.275.003.549-.033.814-.106L113.72 52a1.33 1.33 0 0 1-.506-.733 1.33 1.33 0 0 1 .093-1.067c.165-.337.465-.59.826-.693a1.334 1.334 0 0 1 1.067.106c.133.07.254.16.36.268l1.013 1.066a2.93 2.93 0 0 0 .067-.64l.014-8.44m12.813-4.214a1.4 1.4 0 0 1 2.8 0v12.614a5.615 5.615 0 0 1-11.227.008V37.653a1.401 1.401 0 0 1 2.8 0v12.614a2.806 2.806 0 0 0 5.613 0l.014-12.614M143.68 53.08a1.4 1.4 0 0 1 0 2.8h-8.413a1.401 1.401 0 0 1 0-2.8h2.8V39.065h-2.8a1.4 1.4 0 1 1 0-2.8h8.413a1.4 1.4 0 1 1 0 2.8h-2.8V53.08h2.8m8.613-16.827a5.6 5.6 0 0 1 5.614 5.587v8.44a5.6 5.6 0 0 1-5.587 5.613h-4.227a1.412 1.412 0 0 1-1.426-1.4v-16.84a1.412 1.412 0 0 1 1.4-1.4zm2.8 5.613a2.8 2.8 0 0 0-2.8-2.8h-2.8V53.08h2.8c1.547 0 2.8-1.252 2.8-2.799v-8.414m14.24 11.213a1.4 1.4 0 0 1 0 2.8h-8.413a1.4 1.4 0 0 1 0-2.8h2.8V39.065h-2.8a1.4 1.4 0 1 1 0-2.8h8.413a1.4 1.4 0 1 1 0 2.8h-2.8V53.08h2.8m12.787-16.827a1.4 1.4 0 0 1 0 2.8h-2.8v15.428a1.4 1.4 0 0 1-2.8 0V39.066h-2.8a1.4 1.4 0 1 1 0-2.8l8.4-.013m7.213 10.16l-4-7.88a1.413 1.413 0 0 1 1.12-2.24c.378-.01.742.14 1 .414.106.112.195.237.267.373l2.947 5.854 2.946-5.894a1.42 1.42 0 0 1 .28-.374c.256-.269.615-.419.987-.413a1.4 1.4 0 0 1 1.12 2.24l-4 7.88v8.08a1.4 1.4 0 1 1-2.8 0l.133-8.04m24.227 8.067a1.4 1.4 0 0 1-2.8 0V37.654c.007-.77.63-1.393 1.4-1.4.376-.01.74.141 1 .413.105.112.196.239.267.374l5.746 11.494v-10.88a1.4 1.4 0 0 1 2.8 0V54.48a1.414 1.414 0 0 1-1.4 1.4 1.333 1.333 0 0 1-.986-.428 1.235 1.235 0 0 1-.28-.36L213.56 43.6v10.88m19.773-18.227a1.4 1.4 0 0 1 0 2.8h-7.013v5.613H232a1.4 1.4 0 0 1 0 2.8h-5.613v5.613h6.946a1.4 1.4 0 0 1 0 2.802h-8.413a1.415 1.415 0 0 1-1.4-1.4V37.653c.008-.77.63-1.393 1.4-1.4h8.413m12.867 0a1.4 1.4 0 0 1 0 2.8h-2.8v15.428a1.4 1.4 0 0 1-2.8 0V39.066h-2.8a1.4 1.4 0 0 1 0-2.8l8.4-.013m3 1.4a1.4 1.4 0 0 1 2.8 0V52.32a.708.708 0 0 0 1.2.494.668.668 0 0 0 .2-.494V41.866a1.4 1.4 0 0 1 2.8 0v10.52a.707.707 0 1 0 1.4 0V37.72a1.4 1.4 0 1 1 2.8 0v14.667a3.521 3.521 0 0 1-5.613 2.813 3.508 3.508 0 0 1-5.614-2.813l.027-14.734m12.813 4.213a5.613 5.613 0 1 1 11.214 0v8.414a5.614 5.614 0 1 1-11.214 0zm8.414 0a2.806 2.806 0 1 0-5.614 0v8.414a2.807 2.807 0 0 0 5.614 0v-8.414m7.213 12.628a1.4 1.4 0 1 1-2.8 0v-16.84c.008-.77.63-1.394 1.4-1.4h4.2a5.615 5.615 0 0 1 4 9.573c-.536.55-1.181.98-1.893 1.267l3.266 6.52a1.412 1.412 0 0 1-1.12 2.239 1.336 1.336 0 0 1-.986-.426 1.203 1.203 0 0 1-.28-.36l-3.814-7.627h-1.933zm0-15.428v5.6h2.8a2.807 2.807 0 0 0 0-5.613l-2.8.013m14.747 5.6l3.813-7.626c.073-.138.167-.265.28-.374.257-.269.615-.419.987-.413a1.4 1.4 0 0 1 1.12 2.24l-3.774 7.547 3.774 7.547a1.4 1.4 0 0 1-1.12 2.24 1.33 1.33 0 0 1-.987-.427 1.319 1.319 0 0 1-.28-.36l-3.813-7.627h-1.934v7.014a1.4 1.4 0 0 1-2.8 0V37.653a1.4 1.4 0 0 1 2.8 0v7.013h1.934M60.88 39.294a8.28 8.28 0 0 0-8.2 7.106H41.573A8.247 8.247 0 0 0 40 42.666l13.333-13.333a5.947 5.947 0 1 0-1.654-1.68L38.347 40.987a8.225 8.225 0 0 0-3.8-1.574v-22.92a8.294 8.294 0 1 0-2.36 0v22.894a8.228 8.228 0 0 0-3.8 1.586l-10.8-10.8a3.52 3.52 0 0 0 .374-1.56 3.614 3.614 0 1 0-2.053 3.227l10.76 10.826a8.24 8.24 0 0 0-.453 9.215L9.334 68.814a5.96 5.96 0 1 0 1.626 1.706l16.813-16.827a8.23 8.23 0 0 0 4.414 2.093v14.468a5.932 5.932 0 0 0-4.635 6.995 5.934 5.934 0 1 0 6.995-6.995V55.786a8.233 8.233 0 0 0 3.786-1.56l10.8 10.8a3.613 3.613 0 1 0 1.667-1.667L40 52.547a8.26 8.26 0 0 0 1.573-3.787H52.68a8.294 8.294 0 1 0 8.2-9.467" fill="#203e70"/></svg>