<svg version="1" xmlns="http://www.w3.org/2000/svg" width="3094.667" height="1433.333" viewBox="0 0 2321.000000 1075.000000"><path d="M391 452.2c-60.2 95.8-109.5 175-109.5 175.9 0 1 44 36.8 109.7 89.3 60.3 48.2 109.9 87.6 110.2 87.6.3 0 .6-118.6.6-263.5s-.3-263.5-.7-263.5c-.5 0-50.1 78.4-110.3 174.2zm749.5 81.3c-22.1 4.8-36.3 17.9-41 37.7-2.2 9.5-2.2 185.2 0 194.7 4.1 17.2 15.8 29.5 34 35.7 10.7 3.6 33 4.6 45.2 1.9 21.3-4.6 36-17.6 40.8-36 2.3-8.9 2.3-189.1 0-198-2.2-8.3-6.2-15.2-12.5-21.5-11.2-11.2-25.6-16-47.5-15.9-7.1 0-15.7.7-19 1.4zm27.8 38.9c1.8.7 4.5 2.8 6 4.5l2.7 3.3v176.5l-2.2 2.8c-4.8 6.1-16.3 8.3-24.5 4.6-7.9-3.6-7.3 3.8-7.3-95.6 0-99.4-.6-92 7.3-95.6 5-2.2 13.4-2.5 18-.5zm119.7-38.8c-3.6.7-10.2 3.2-14.6 5.4-13.8 6.8-22.7 18.3-25.9 33.5-2.2 10.4-2.2 181.6 0 192 3.2 15.2 12.1 26.8 25.9 33.5 10.6 5.2 19.1 7 34.6 7 14.9 0 23.8-1.7 33.7-6.4 12.3-5.9 20.7-15.3 25.5-28.6l2.3-6.5v-190l-2.3-6.5c-6.3-17.6-20.3-29.4-39.7-33.5-8.8-1.9-30.7-1.8-39.5.1zm29.7 39.5c7.8 3.8 7.3-2.6 7.3 95.4 0 75.4-.2 88-1.5 90.4-3.3 6.5-16.6 9.2-25 5.1-8-3.9-7.5 3.1-7.5-95.5 0-81.1.1-87.9 1.7-90.6 3.9-6.6 16.4-9 25-4.8zm646.4-40c-12.5 2.4-22.6 7.5-30.1 15-5.6 5.6-11.5 16.9-13 24.8-.6 3.3-1 39.8-1 96 0 76.5.3 91.6 1.5 96.9 4.1 17.4 15.8 29.7 34 35.8 10.7 3.6 33 4.6 45.2 1.9 21.3-4.6 36-17.6 40.8-36 1.2-4.9 1.5-13.9 1.5-52.7V668h-61v38h18v24.7c0 28.1-.3 29.4-7.9 33.3-5.9 2.9-16.6 2.8-21.2-.3-6.7-4.5-6.4.8-6.7-94.7-.3-97.3-.7-91.1 7.3-95.8 3.4-2 5.1-2.2 11.1-1.9 5.2.3 8.2 1 10.8 2.6 6.4 4 6.6 5.1 6.6 32.6V631h43v-27.8c0-30.3-.6-34.9-5.8-44.6-1.5-2.8-5.2-7.6-8.2-10.6-11.2-11.2-25.6-16.1-47.5-15.9-7.1.1-15 .5-17.4 1zM663 534.5c0 .3 12.8 20.9 28.4 45.8 15.7 24.9 28.8 46 29.1 46.9.5 1.2-25 22-106.9 87.4-59.1 47.3-107.1 86-106.7 86.2 1.4.5 435-264.2 435.1-265.6 0-.9-28.5-1.2-139.5-1.2-76.7 0-139.5.2-139.5.5zm318 134V803h103v-38h-59V534h-44v134.5zm416 0V803h45V700h15.8c9.5 0 18.3-.6 22.3-1.4 19.9-4.2 33.6-16.8 38.4-35.1 2.2-8.6 2.2-84.3 0-92.8-3.6-13.8-12.2-24.3-24.7-30.2-12.6-5.9-18.2-6.5-59.8-6.5h-37v134.5zm72.8-94.5c6 3.7 6.2 5.2 6.2 43.2 0 30.7-.2 34.7-1.8 37.7-3.2 6.5-5.7 7.5-19.7 7.9l-12.5.4V572h12.3c10.5 0 12.7.3 15.5 2zm71.2 94.4V803h44V700h12.5l13.4 50.2c7.4 27.7 13.6 50.9 13.9 51.5.6 1.8 44.2 1.9 44.2.2 0-.9-26.1-99.8-28.5-107.9-.3-.9 1.4-2.8 4.6-4.9 9-6.1 14.7-15.6 17.4-28.9 1.4-6.8 1.6-13.8 1.3-46.9-.4-36.1-.5-39.2-2.5-45-2.9-8.7-6.2-14-12.5-20-6.2-5.8-10.3-8.1-20.3-11.4-6.8-2.2-8.4-2.3-47.2-2.7l-40.3-.3v134.5zm74.2-92.6l3.3 3.2.3 37c.2 31.8.1 37.4-1.3 40-2.6 5-6.5 6.3-20.2 6.8l-12.3.4v-91.4l13.5.4 13.5.3 3.2 3.3zm75.8 92.7V803h44V534h-44v134.5zm75 0V803h40.1l-.3-72c-.2-39.6-.2-71.7-.1-71.3.2.5 8.8 32.1 19.3 70.3 10.5 38.2 19.3 70.3 19.6 71.2.5 1.7 2.5 1.8 24 1.8h23.4V534h-40l-.2 69.2-.3 69.3-17.9-65.9c-9.8-36.3-18.3-67.4-18.8-69.3l-.9-3.3H1766v134.5z"/></svg>