<svg width="300" height="300" viewBox="0 0 300 300" xmlns="http://www.w3.org/2000/svg"><title>mkr-logo-typo-bicolor</title><g fill="none" fill-rule="evenodd"><g fill-rule="nonzero"><path d="M140.915 175.937v-58.16a3.9 3.9 0 0 0-1.556-3.117L71.837 63.883c-2.57-1.933-6.244-.1-6.244 3.117v108.938a3.9 3.9 0 1 0 7.8 0V67l-6.244 3.117 67.522 50.777-1.556-3.117v58.16a3.9 3.9 0 0 0 7.8 0z" fill="#1ABC9C"/><path d="M161.691 175.937v-58.16l-1.556 3.117 67.522-50.777L221.413 67v108.938a3.9 3.9 0 0 0 7.8 0V67c0-3.216-3.673-5.05-6.244-3.117l-67.522 50.777a3.9 3.9 0 0 0-1.556 3.117v58.16a3.9 3.9 0 0 0 7.8 0z" fill="#546979"/></g><path d="M68.159 206.624l12.257 20.22s.007.009.023.024v.023c.03.03.06.068.09.113l.092.092.091.09a.84.84 0 0 1 .115.092c.076.046.09.053.045.023.015 0 .023.007.023.023h.046c.045.03.091.053.137.068.03.015.068.03.114.046a.431.431 0 0 0 .137.022c.03.016.068.023.114.023a.431.431 0 0 0 .274 0 .254.254 0 0 0 .114-.023.431.431 0 0 0 .137-.022.886.886 0 0 0 .114-.046.576.576 0 0 0 .137-.068c.06-.03.084-.038.068-.023-.045.03-.03.023.046-.023.03-.03.069-.06.114-.091l.091-.091.092-.092a.747.747 0 0 1 .091-.113v-.023l.023-.023L95 206.625v25.007c0 .38.13.707.388.98.274.259.594.388.959.388.38 0 .7-.13.958-.388.274-.273.411-.6.411-.98v-29.886c0-.684-.334-1.117-1.004-1.3-.654-.182-1.164.023-1.53.616L81.58 223.517l-13.604-22.455c-.365-.593-.875-.798-1.53-.616-.669.183-1.004.616-1.004 1.3v29.886c0 .38.13.707.388.98.274.259.601.388.982.388.365 0 .685-.13.958-.388.26-.273.389-.6.389-.98v-25.008zm47.09 16.004l7.212-17.371 7.213 17.37h-14.426zM110.043 233c.609 0 1.027-.281 1.255-.843l2.83-6.794h16.663l2.83 6.794c.229.562.647.843 1.256.843.183 0 .358-.038.525-.114.35-.137.593-.38.73-.73a1.254 1.254 0 0 0 0-1.048l-3.172-7.637v-.023l-9.245-22.272a3.34 3.34 0 0 0-.114-.25c0 .014-.03-.016-.091-.092a1.38 1.38 0 0 0-.091-.114c-.016 0-.054-.03-.114-.091l-.092-.069a1.214 1.214 0 0 0-.502-.205h-.114a1.14 1.14 0 0 0-.137-.023 1.76 1.76 0 0 0-.16.023h-.114a1.218 1.218 0 0 0-.57.274c-.061.045-.1.076-.115.091a1.38 1.38 0 0 0-.091.114l-.091.091a3.34 3.34 0 0 0-.114.25l-9.245 22.273v.023l-3.172 7.637c-.153.35-.153.699 0 1.049.137.35.38.592.73.729.167.076.342.114.525.114zm38.553-.638c.274-.259.41-.578.41-.958v-8.708l4.064-4.286 13.49 14.18c.273.273.6.41.981.41.365 0 .677-.122.936-.365.274-.258.418-.577.434-.957 0-.38-.13-.7-.388-.958l-13.582-14.27 13.125-13.77c.259-.273.38-.6.365-.98 0-.365-.137-.676-.41-.934a1.38 1.38 0 0 0-.982-.388c-.365.015-.677.16-.936.433l-17.096 17.964v-17.166c0-.365-.137-.684-.411-.957a1.303 1.303 0 0 0-.959-.388c-.365 0-.684.13-.958.388a1.35 1.35 0 0 0-.388.957v29.795c0 .38.129.7.388.958.274.273.593.41.958.41.38 0 .7-.137.959-.41zm50.285.638c.38 0 .7-.137.959-.41.274-.259.41-.578.41-.958s-.136-.699-.41-.957a1.267 1.267 0 0 0-.959-.41h-16.754V218h12.532c.38 0 .7-.137.958-.41.274-.259.411-.578.411-.958s-.137-.7-.41-.957a1.267 1.267 0 0 0-.96-.41h-12.53V203l16.753.045c.38 0 .7-.129.959-.387.274-.274.41-.6.41-.98 0-.365-.136-.684-.41-.958a1.267 1.267 0 0 0-.959-.41l-18.123-.046c-.365-.015-.685.122-.959.41-.274.259-.41.578-.41.958v30c0 .38.136.7.41.958.259.273.578.41.959.41h18.123zm28.875-19.582c-1.293 1.185-2.868 1.793-4.725 1.823h-9.13v-12.196h8.97c1.888 0 3.5.6 4.84 1.801 1.339 1.186 2.008 2.622 2.008 4.309 0 1.656-.654 3.077-1.963 4.263zm-15.224-13.063c-.365 0-.685.13-.959.388a1.3 1.3 0 0 0-.388.957v29.727c0 .365.13.684.388.957.274.259.594.388.959.388.38 0 .7-.13.958-.388.274-.273.411-.592.411-.957v-13.473h7.624l7.053 14.294c.243.501.647.752 1.21.752.213 0 .41-.046.593-.137.335-.167.563-.425.685-.775.122-.35.099-.691-.069-1.026l-6.505-13.245c2.268-.35 4.147-1.337 5.638-2.963 1.522-1.641 2.283-3.541 2.283-5.7 0-2.43-.929-4.505-2.785-6.223-1.872-1.717-4.124-2.576-6.756-2.576h-10.34z" fill="#546979"/></g></svg>