<svg xmlns="http://www.w3.org/2000/svg" viewBox="0 0 108.19 26.13"><defs><style>.cls-1{fill:#0b1547}.cls-2{fill:#2bbdf7}.cls-2,.cls-3,.cls-4{fill-rule:evenodd}.cls-3{fill:#2891f9}.cls-4{fill:#2b6def}</style></defs><title>blue_dark</title><g id="Layer_2" data-name="Layer 2"><g id="Layer_1-2" data-name="Layer 1"><path class="cls-1" d="M74.46 8.4h2.76v12.79h-2.76v-1.84A5.18 5.18 0 0 1 70 21.52a6 6 0 0 1-4.5-1.94 6.69 6.69 0 0 1-1.86-4.79A6.63 6.63 0 0 1 65.48 10 6 6 0 0 1 70 8.07a5.21 5.21 0 0 1 4.48 2.15zm-4 10.49a4 4 0 0 0 2.89-1.15 4.07 4.07 0 0 0 1.16-2.95 4 4 0 0 0-1.16-2.91 4.12 4.12 0 0 0-5.77 0 3.94 3.94 0 0 0-1.15 2.91 4.07 4.07 0 0 0 1.15 2.95 3.93 3.93 0 0 0 2.83 1.15zm17.46-7.83h-3.17v6.14c0 1.63 1.07 1.6 3.17 1.5v2.49c-4.22.51-5.93-.65-5.93-4v-6.13h-2.36V8.4H82V4.83h2.77V8.4h3.17zM90.57 6a1.73 1.73 0 0 1 0-2.48 1.72 1.72 0 0 1 2.5 0A1.76 1.76 0 0 1 90.57 6zm-.13 15.21V8.4h2.77v12.79zm7.17-1.63a6.57 6.57 0 0 1-1.92-4.79A6.48 6.48 0 0 1 97.61 10a6.57 6.57 0 0 1 4.83-1.94 6.29 6.29 0 0 1 5.7 3.3l-2.37 1.38a3.55 3.55 0 0 0-3.35-2 3.88 3.88 0 0 0-2.85 1.14 4 4 0 0 0-1.12 2.86 4 4 0 0 0 1.12 2.87 3.91 3.91 0 0 0 2.85 1.14 3.69 3.69 0 0 0 3.39-2l2.38 1.35a6.42 6.42 0 0 1-5.75 3.33 6.57 6.57 0 0 1-4.83-1.85z"/><path class="cls-2" d="M12.85 10.87l3.71 8.21 5.51-3.18h.01V9.54l-9.23 1.33z"/><path class="cls-3" d="M29.2 4.77l-3.44-1.29-3.68-.3V23l5.52 3.18 4.4-8.96-2.79-8.62z"/><path class="cls-2" d="M28.88 3.18L27.6 6.36v19.77l5.52-3.18V3.18h-4.24z"/><path class="cls-4" d="M27.6 0l-5.52 3.18 5.52 3.18 5.52-3.18L27.6 0z"/><path class="cls-3" d="M16.56 12.72l-5.52-6.18L0 3.18v19.77l5.52 3.18L7.1 15.19l3.94.71 5.52 3.18v-6.36z"/><path class="cls-1" d="M58.2 4.83l-5.42 8.94-5.4-8.94h-3.17v16.36h2.95V9.94l4.87 8.08h1.5l4.87-8.05v11.22h2.97V4.83H58.2z"/><path class="cls-4" d="M5.52 0L0 3.18l16.56 9.54 2.5-1.44 3.02-1.74L5.52 0z"/><path class="cls-2" d="M5.52 12.72v13.41l5.52-3.18V15.9l-5.52-3.18z"/></g></g></svg>