<svg id="Layer_1" xmlns="http://www.w3.org/2000/svg" xmlns:xlink="http://www.w3.org/1999/xlink" viewBox="0 0 1936 1036"><style>.st0{fill:#030353;stroke:#fff;stroke-width:8;stroke-miterlimit:10}.st1{fill:#fff}.st2{fill:url(#SVGID_1_)}.st3{fill:url(#SVGID_2_)}.st4{fill:url(#SVGID_3_)}.st5{fill:url(#SVGID_4_)}.st6{fill:url(#SVGID_5_)}.st7{fill:url(#SVGID_6_)}.st8{fill:url(#SVGID_7_)}.st9{fill:url(#SVGID_8_)}.st10{fill:url(#SVGID_9_)}.st11{fill:url(#SVGID_10_)}.st12{fill:url(#SVGID_11_)}.st13{fill:url(#SVGID_12_)}.st14{fill:url(#SVGID_13_)}.st15{fill:url(#SVGID_14_)}.st16{fill:#008}.st17{fill:#c00}.st18{fill:#030353}</style><image width="1662" height="822" xlink:href="A206C091.png" transform="translate(213 113)" overflow="visible" opacity=".48"/><path class="st0" d="M876 186.8c14.8-16 33.9-21.2 54.5-21.9 13.7-.4 27.5-.4 41.1 1 13.7 1.4 27 5.2 38 15.4 1.2-1.6 2.3-2.8 3.1-4.1 5.6-8.8 14.2-12.4 24.1-12.5 26-.2 52-.2 78 0 14.2.1 27.8 3.5 40.7 10.2 6.6-8.5 15.9-10.5 26.1-10.4 11.1.1 22.2-.2 33.4.1 9.4.2 17.9 2.9 22.6 11.9 1.9 3.7 2.7 7.9 3.8 12 1.3 5.1 2.4 10.4 4.6 15.6 1.4-6.4 3.1-12.7 4.2-19.1 2.4-14.3 12.9-20.1 25.3-20.4 11.4-.3 23-1.1 34.3.2 15.7 1.8 31.1-1 46.7-.4 15.5.6 31.1.3 46.6.1 16.3-.2 31.8 2.9 46.8 9.9 7.1-8 16.5-9.9 26.8-9.9 35.3.2 70.6.1 105.9 0 10.6 0 20.1 2.1 26.8 11.5 17.6-10 36.5-12.1 56-11.5 13.9.4 27.8 0 41.6 1.4 11.1 1.2 22.1 4.3 31.5 11.2 12.8 9.3 21.4 21.2 25.3 36.7 3 11.8 4.5 23.7 4.5 35.9-.1 182 0 364 0 545.9 0 9.8-1.9 19.3-11.5 24.3-4.4 2.3-9.9 3.9-14.9 3.9-43.2.3-86.3.2-129.5.1-3.7 0-7.5-.6-11.2-1.1-16.9-2.6-33.7.9-50.6.2-17-.7-34-.2-51-.2h-51c-12.8 0-25.3-2.5-38.4-.5-15.7 2.3-32 .7-48 .5-6.5-.1-13.1-1-18.3-5.6-2.5-2.2-5.1-4.8-6.5-7.8-1.2-2.6-2.6-3.1-5.1-3.1-9.8.1-19.5 0-29.7 0-3.7 11.7-13.3 16.1-25 16.4-16.7.4-33.4.6-50 0-13.5-.5-21.9-4.6-27.1-19-7 3.4-13.7 7.3-21 10-15 5.7-30.6 9.2-46.9 9.1-29.4-.1-58.9.5-88.3-.3-10.9-.3-21.7-.4-32.7-.1-47.1 1-94.2.5-141.3.3-10.4 0-19.9-3-25.4-12.8-2-3.6-2.8-7.9-4-11.2-50.7 35.4-102.8 35.2-156.4 6.3-5.3 13.1-13 17.1-26.7 17.6-16.6.7-33.4.4-50 .1-9.2-.2-17.9-2.7-23-11.5-1.5-2.5-2.2-5.4-3.5-8.5h-30c-3.4 5.1-5.9 10.1-9.5 13.9-4.7 5-11.6 5.9-18.1 6-16.5.3-33 .4-49.5 0-13.1-.3-23.3-5.6-27.4-19.8-15.2 10.6-32 15.5-49.5 18.5-5.4.9-11 1.4-16.6 1.4-30.4.1-60.8.2-91.2 0-10.2-.1-19.8-2.8-25-12.5-2.5-4.5-4-10.2-4.1-15.3-.6-32.8-.9-65.7-1-98.5-.1-78 0-156-.1-234-.1-77-.4-154-.2-231 0-25.9 9.9-47.2 32-62.1 12.8-8.7 27.2-12 42.2-12 122.1-.1 244.3-.1 366.4-.1 37.8 0 75.5-.1 113.3 0 24.8.1 46.1 8.1 61.5 28.6.4.4.8.5 1.5 1z"/><path class="st1" d="M575 180.6h240.8c30.4 0 50.8 20.4 50.8 50.7v212.4c0 29.8-21 50.8-51 50.8H333.4c-29.8 0-51-21.2-51-51V231.1c0-29.8 20.8-50.5 50.7-50.5H575zm-85 123.6c-.1-.4-.2-.8-.4-1.2 9.5-6.6 19-13.3 28.6-19.7 2.8-1.9 4.1-3.9 4.4-7.4 2.3-31.3 23.1-50.8 54.5-51.3 16.8-.3 32.2 4.3 46.6 12.9 9.8 5.8 16.6 14.1 20.7 24.7 4.7 12.1 5.6 24.7 5.2 37.6-.1 4.3-.9 7.5-6.5 6.2 0 5.5-.4 10.5.1 15.5.4 4.4 3.1 6.8 8 6.7 11.4-.2 22.9.3 34.3-.2 15.7-.7 30.1 2.7 43.5 11 .2.1.6 0 1.1 0 1.1-3.7 2.5-7.4 3.1-11.3.3-1.9 0-4.6-1.1-6.1-31.1-40.6-62.4-81.1-93.7-121.5-1.3-1.6-4-3-6-3-100.2-.1-200.4-.2-300.6-.1-18.7 0-32 13.6-32 32.4-.1 71.9 0 143.8 0 215.8 0 19.2 13.6 32.7 32.8 32.7h191.7c1.3 0 2.7-.2 4.6-.4-3.6-6-6.6-11.6-10.2-16.8-1-1.5-3.5-2.9-5.3-3-6.5-.4-13-.1-20.3-.1.6-9.2.9-17.8 1.9-26.4 2-17.5 6.2-34.4 15.6-49.6 5.6-8.9 12.6-16.5 22.7-20.1 4.8-1.7 6-4.4 5.4-8.8-.2-1.9-.4-3.9-.8-5.8-1.5-7.6-2.1-8.1-9.9-8.1h-3.4c-5.7-.2-6.2-1-3.9-6 3-6.5 6.1-13 9-19.5 2.6-5.9.6-9-5.6-9-11.3-.1-22.7-.1-34.1-.1zm269 173.6h56.9c21.8 0 34.7-12.9 34.7-34.8V231.6c0-22-12.8-34.7-34.7-34.7H683.1c1.3 2.1 2.1 3.5 2.9 4.9 24 39.9 47.9 79.8 71.8 119.8 2.1 3.4 3.7 6.8 8.7 6.5 1.1-.1 2.8 1.2 3.4 2.3 1.6 2.9 2.7 6 4.2 9.5 5.9 1.3 8.5 5.9 8.6 12.3 5.2 1.5 10.4 3.8 9.6 9.9-1.1 8 2.6 12.5 8.8 16.1 3.7 2.1 7.5 4 10.9 6.6 2.9 2.2 6.4 4.7 7.6 7.8 3.3 8.7 7.6 16.6 14.4 23.1 2.5 2.4 3.2 5.3 1.6 8.5-3.7 7-7.1 14.3-11.5 20.9-5.7 8.6-13.5 13.7-24.8 12.6-8.1-.8-16.3-.2-24.5-.2h-15.4c-.4 6.9-.4 13.3-.4 20.3zM425.1 653.9c49.4 20.9 49.5 94.9 17.9 122.7-16.9 14.8-36.8 22.4-59.1 22.8-31.7.5-63.4.1-95.1.3-5.3 0-5.1-3-5.1-6.7V564.5c0-12.7.1-25.5 0-38.2 0-3.3.7-5.3 4.6-5.2 29.9.3 59.8.1 89.7 1 16.5.5 32.2 5.6 46.5 14 23.4 13.9 33.3 35.4 33.5 61.9.2 24.3-9.4 43-31.2 54.7-.6.3-1.1.8-1.7 1.2zm-80.8 22.3v78c9.4 0 18.6.8 27.6-.2 15.9-1.8 27.8-12.1 30.1-27.2 1.3-8.6.4-17.9-1.3-26.6-2.3-11.7-10.4-19.6-22.2-21.5-11.2-1.8-22.6-1.7-34.2-2.5zm0-110.6v68c9 0 17.7.6 26.3-.1 14.4-1.2 24.5-10.5 26.8-24.4.9-5.2 1-10.8.4-16.1-1.4-14.2-9.7-23.6-23.9-25.9-9.5-1.4-19.4-1-29.6-1.5zm834 88.2c33.4 15.3 42.7 47.8 39.2 78.8-4.8 42.7-37.4 61.1-70.5 66-5.6.8-11.4.8-17.1.9-28.9.1-57.9 0-86.8.1-4.4 0-6-1.2-6-5.8.1-88.9.1-177.8 0-266.7 0-4.8 1.6-6.1 6.2-6.1 24.5.2 49 0 73.5.1 19.9.1 39 3.6 56.8 12.7 23.5 12 35.6 31.6 37.2 57.5.6 9.1-.3 18.7-2.5 27.6-3.9 16-14.9 27.2-30 34.9zm-80.5 24v76.6c9 0 17.7.5 26.3-.1 16-1.2 28.5-11.7 31.3-27.1 1.4-7.4 1-15.4-.2-22.8-2.6-15.7-11.2-24.3-26.8-26.3-9.9-1.3-20.2-.3-30.6-.3zm-.1-44.2c9.3 0 18.4.8 27.2-.2 14.2-1.5 23.6-10.6 26-24.1.9-5.4 1-11.1.4-16.5-1.3-13.1-9.1-22.7-21.8-25.1-10.3-1.9-21-1.5-31.8-2.2v68.1zM591.9 737H540c-4.3 20.8-8.5 41.5-12.8 62.6h-45.9c-13.9 0-12.9 1.3-10-12.2 18.8-86.6 37.6-173.2 56.2-259.8.9-4.4 2.7-5.6 7.1-5.5 21.6.3 43.1.2 64.7 0 3.5 0 5 .7 5.8 4.5 18.9 89.1 38 178.1 57 267.1 1.1 5 .5 5.8-4.6 5.8-16.3 0-32.7-.1-49 .1-3.1 0-4.2-.9-4.8-4-3.4-18-7.1-35.9-10.7-53.8-.3-1.5-.7-3.1-1.1-4.8zm-25.3-138.2h-.9c-5.6 31.2-11.2 62.4-16.9 93.7h34.6c-5.6-31.5-11.2-62.6-16.8-93.7zm778.7 138.1h-51.9c-4.2 20.6-8.5 41.3-12.8 62.2-1.4.1-2.7.3-3.9.3h-48.5c-5.4 0-6-.7-4.8-6.1 19.2-88.5 38.4-177 57.4-265.6 1-4.5 2.5-6 7.3-5.9 21.6.3 43.1.2 64.7.1 3.6 0 5 1 5.7 4.7 18.9 89.1 38 178.1 57.1 267.1.9 4 .1 5.8-4.3 5.8-16.5-.1-33-.1-49.5 0-3.2 0-4.1-1.2-4.7-4.1-3.4-17.9-7.1-35.9-10.7-53.8-.3-1.4-.7-3-1.1-4.7zm-43-44.4h34.6c-5.7-31.5-11.3-62.7-16.9-93.8-.3 0-.5.1-.8.1-5.6 31-11.2 62.1-16.9 93.7zm299.8-349c0-33-.2-66.1.1-99.1.1-8.1.9-16.4 3-24.2 4.5-17.3 16.2-29 33.8-30.5 22-1.9 44.5-2.3 66.5-.3 22.7 2 35.8 17.7 38.3 40.5.6 5.3.9 10.8.9 16.1.1 65.2.1 130.5 0 195.7 0 7.3-.5 14.8-2.1 21.9-4.2 19.5-16.6 32.4-36.3 34-21.9 1.8-44.2 2.1-66-.1-23.3-2.4-36.7-19.7-37.7-44.2-.8-18.9-.4-37.9-.5-56.9v-52.9zm46.5.1c0 32.8 0 65.7.1 98.5 0 9.5 4.2 13.9 13.6 14.3 7.2.3 14.4.2 21.6.1 10.1-.1 13.8-3.7 14.5-13.8.1-1.5.1-2.9.1-4.4V249.1c0-2.1 0-4.3-.3-6.4-1-7.9-5-11.8-12.9-12.1-8-.3-16-.3-24 0-7.9.3-12.1 4.8-12.5 12.8-.1 2.1-.1 4.2-.1 6.4-.1 31.4-.1 62.6-.1 93.8zM1097.2 376h-19.5v115.5c0 7.1-.7 7.8-7.9 7.8-10.6 0-21.3-.1-31.9 0-4.5.1-6.6-1.5-6.6-6.2.1-99.7.1-199.4 0-299.1 0-4.5 1.9-6.1 6.2-6 25.7.1 51.3 0 77 .1 5.2 0 10.5.5 15.5 1.7 19.4 4.6 31.7 19.7 32.8 41.8 1 21.2.9 42.5.8 63.7-.1 14-.3 28.1-1.9 42-1.5 13.2-7.7 24.5-19.5 32.1-1.2.8-1.8 3.9-1.4 5.7 5.2 23.8 10.6 47.5 15.9 71.2 3.5 15.4 6.9 30.9 10.3 46.4 1 4.5-.6 6.5-5 6.6-11.4.1-22.9-.2-34.3.1-4.3.1-4.2-2.7-4.7-5.3-8.3-38-16.5-75.9-24.8-113.9-.2-1.3-.6-2.7-1-4.2zm-19.3-40.7c8.9 0 17.2.3 25.5-.1 8-.4 12.3-4.9 13.4-13 .3-2.4.4-4.9.4-7.3v-63.7c0-2.6 0-5.3-.4-7.8-1-5.6-3.2-11.2-9.4-11.8-9.8-.8-19.7-.2-29.5-.2v103.9zm-157 230.8v71.8h5.5c19.8 0 39.6.1 59.3-.1 4.5 0 6.1 1.3 6 5.9-.3 11.3-.2 22.6 0 33.8.1 4.1-1.4 5.4-5.4 5.4-19.9-.1-39.9-.1-59.8-.1H921v71.8h90c7 0 7 0 7 7.2 0 10.8-.1 21.6.1 32.4.1 4-1.3 5.5-5.4 5.5-47.6-.1-95.2-.1-142.7 0-4 0-5.4-1.3-5.4-5.4.1-89.3.1-178.5 0-267.8 0-4.1 1.4-5.4 5.4-5.4 47.6.1 95.2.1 142.7 0 4.1 0 5.4 1.4 5.4 5.5-.2 11.3-.3 22.6 0 33.8.1 4.7-1.7 5.8-6.1 5.8-28.3-.1-56.6-.1-84.9-.1h-6.2zM720.3 718.7c1.1 4.8 2 9.5 3.4 13.9 4.1 12.9 11.1 23.3 25.1 27.1 12.7 3.4 27.3-1.9 34.9-12.4 6.4-8.7 6.4-23-1.2-33.6-4.5-6.3-10-12.2-16.1-17-20.1-15.9-41-30.9-61-46.9-12.9-10.3-23.7-22.6-28.9-38.8-10.3-32-.7-70.7 40.5-86.1 28.2-10.5 57-9.4 84.7 2.2 23 9.6 36.1 27.8 40.3 52.3.3 1.6.2 3.2.3 5.2-14.3 2.1-28.4 4.2-42.4 6.1-10.2 1.4-10.2 1.2-13.4-8.8-6.3-19.8-18.9-24.9-35.9-22.1-13.2 2.2-21.4 15.3-19.9 30.1.9 8.7 4.6 16.3 9.8 23.2 7.8 10.3 18 17.9 28.4 25.3 14.2 10.1 28.7 20 42 31.2 14.9 12.6 26.4 28.2 31.9 47.3 8.3 28.5-7.7 62.2-35.9 75.7-18.7 8.9-38.5 10.7-58.9 9.3-18.9-1.3-36.3-6.4-51.3-18.4-18.1-14.6-26.7-34.2-29.4-56.8-.3-2.8-.2-5.3 3.6-5.5 16.6-.8 32.9-1.7 49.4-2.5zm656.6-330.2V492c0 6.4-.9 7.3-7.4 7.3-10.9 0-21.9-.1-32.8 0-4.4 0-6.1-1.8-6.1-6.2.1-99.7.1-199.4 0-299.1 0-4.4 1.8-6.1 6.1-6.1 24.2.1 48.4 0 72.6.2 5.2 0 10.5.5 15.5 1.7 20.6 4.8 33.1 20.1 34.5 42.7.8 13.2.7 26.5.7 39.7 0 23.5.4 47.1-.7 70.6-1.3 28.6-19.1 45-47.8 45.6-11.3.3-22.6.1-34.6.1zm.2-42.8c8.9 0 17.4.4 25.8-.1 6.3-.4 9.5-4.2 10.2-10.5.3-2.8.3-5.5.3-8.3v-53.9c0-10 .1-19.9-.3-29.9-.2-7-3.9-11.4-10.7-11.9-8.4-.6-16.8-.2-25.4-.2.1 38.4.1 76.4.1 114.8zm-496-2.1c0-33.2-.1-66.4.1-99.5.1-7.3.7-14.8 2.3-21.8 4.4-18.6 16.3-30.7 35.2-32.6 17.4-1.8 35.3-2.1 52.7-.3 22.6 2.4 35.9 16.9 38.2 39.4 1.6 15.4.9 31 1.2 46.5.1 3.2-1.9 4.7-5 4.7h-36.3c-3.8 0-5.1-2.1-5.1-5.6.1-8.8.1-17.7 0-26.5-.1-12.9-4.2-17.1-17-17.2-17.7-.1-20.1 2.2-20.1 19.9v187.3c0 16.1 2.7 18.8 18.8 18.8 15.2 0 18.3-3.1 18.3-18.4v-10.8c0-3.4 1.5-5.3 4.9-5.3 12.1 0 24.2-.2 36.3.2 1.8.1 4.9 2.9 4.9 4.5-.1 11.7.2 23.6-1.7 35.1-3.6 21.9-17.9 34.9-39.9 36.5-14.9 1.1-30.1 1.3-45 .1-26.1-2.2-41.4-18.7-42.5-45.1-.8-18.3-.4-36.6-.4-54.9 0-18.4.1-36.7.1-55zm365.8-30.8c7.2-34.3 14.1-67.5 21-100.8 1.4-6.7 2.8-13.4 4.1-20.2.5-2.9 1.8-4 4.9-3.9 11.6.2 23.2 0 34.8.1 5.7 0 7 1.7 5.6 7.2-15.6 61.2-31.3 122.4-46.8 183.6-1 3.7-1.4 7.7-1.4 11.6-.1 33.8-.1 67.7-.1 101.5 0 6.6-.9 7.4-7.3 7.5h-31.4c-7.1 0-7.7-.6-7.7-8 0-33.3.5-66.7-.3-100-.2-10.2-3.4-20.5-6-30.5-14.2-55.2-28.6-110.3-42.9-165.4-1.5-5.7-.2-7.3 5.9-7.4 11.3 0 22.6.2 33.8-.1 3.8-.1 5 1.4 5.7 4.8 8.8 38.3 17.6 76.7 26.5 115 .4 1.3.9 2.6 1.6 5zm245.7 441.8h29.1c18.6 0 37.3.1 55.9-.1 4.5 0 6.1 1.5 6 5.9-.2 11.1-.2 22.2 0 33.3.1 4.1-1.2 5.8-5.6 5.8-45.3-.1-90.6-.1-135.9 0-4.2 0-5.7-1.3-5.7-5.6.1-88.8.1-177.6 0-266.3 0-4.2 1.3-5.8 5.6-5.7 14.9.2 29.8.2 44.6 0 4.9-.1 6.1 1.8 6.1 6.4-.1 73.2-.1 146.5-.1 219.7v6.6zm159 0h6.3c26.2 0 52.3.1 78.5-.1 4.8 0 6.3 1.6 6.2 6.2-.2 11.1-.2 22.2 0 33.3.1 3.9-1.2 5.5-5.4 5.5-45.5-.1-90.9-.1-136.4 0-4 0-5.4-1.3-5.4-5.4.1-88.9.1-177.9 0-266.8 0-4.1 1.4-5.5 5.4-5.4 14.7.2 29.4.1 44.1.1 6.5 0 6.7.2 6.7 6.5v226.1z"/><linearGradient id="SVGID_1_" gradientUnits="userSpaceOnUse" x1="374.899" y1="521.052" x2="374.899" y2="799.636"><stop offset="0" stop-color="#fff" stop-opacity="0"/><stop offset=".103" stop-color="#fbfbfb" stop-opacity=".237"/><stop offset=".201" stop-color="#f0f0f0" stop-opacity=".462"/><stop offset=".297" stop-color="#ddd" stop-opacity=".682"/><stop offset=".391" stop-color="#c2c2c2" stop-opacity=".898"/><stop offset=".436" stop-color="#b3b3b3"/><stop offset=".58" stop-color="#d0d0d0"/><stop offset=".741" stop-color="#eaeaea"/><stop offset=".886" stop-color="#fafafa"/><stop offset="1" stop-color="#fff"/></linearGradient><path class="st2" d="M425.8 653.9c49.4 20.9 49.5 94.9 17.9 122.7-16.9 14.8-36.8 22.4-59.1 22.8-31.7.5-63.4.1-95.1.3-5.3 0-5.1-3-5.1-6.7V564.5c0-12.7.1-25.5 0-38.2 0-3.3.7-5.3 4.6-5.2 29.9.3 59.8.1 89.7 1 16.5.5 32.2 5.6 46.5 14 23.4 13.9 33.3 35.4 33.5 61.9.2 24.3-9.4 43-31.2 54.7-.7.3-1.2.8-1.7 1.2zm-80.9 22.3v78c9.4 0 18.6.8 27.6-.2 15.9-1.8 27.8-12.1 30.1-27.2 1.3-8.6.4-17.9-1.3-26.6-2.3-11.7-10.4-19.6-22.2-21.5-11.2-1.8-22.6-1.7-34.2-2.5zm0-110.6v68c9 0 17.7.6 26.3-.1 14.4-1.2 24.5-10.5 26.8-24.4.9-5.2 1-10.8.4-16.1-1.4-14.2-9.7-23.6-23.9-25.9-9.5-1.4-19.4-1-29.6-1.5z"/><linearGradient id="SVGID_2_" gradientUnits="userSpaceOnUse" x1="1128.278" y1="521.005" x2="1128.278" y2="799.625"><stop offset="0" stop-color="#fff" stop-opacity="0"/><stop offset=".103" stop-color="#fbfbfb" stop-opacity=".237"/><stop offset=".201" stop-color="#f0f0f0" stop-opacity=".462"/><stop offset=".297" stop-color="#ddd" stop-opacity=".682"/><stop offset=".391" stop-color="#c2c2c2" stop-opacity=".898"/><stop offset=".436" stop-color="#b3b3b3"/><stop offset=".58" stop-color="#d0d0d0"/><stop offset=".741" stop-color="#eaeaea"/><stop offset=".886" stop-color="#fafafa"/><stop offset="1" stop-color="#fff"/></linearGradient><path class="st3" d="M1178.9 653.8c33.4 15.3 42.7 47.8 39.2 78.8-4.8 42.7-37.4 61.1-70.5 66-5.6.8-11.4.8-17.1.9-28.9.1-57.9 0-86.8.1-4.4 0-6-1.2-6-5.8.1-88.9.1-177.8 0-266.7 0-4.8 1.6-6.1 6.2-6.1 24.5.2 49 0 73.5.1 19.9.1 39 3.6 56.8 12.7 23.5 12 35.6 31.6 37.2 57.5.6 9.1-.3 18.7-2.5 27.6-3.9 16-14.8 27.2-30 34.9zm-80.5 24v76.6c9 0 17.7.5 26.3-.1 16-1.2 28.5-11.7 31.3-27.1 1.4-7.4 1-15.4-.2-22.8-2.6-15.7-11.2-24.3-26.8-26.3-9.9-1.3-20.1-.3-30.6-.3zm-.1-44.2c9.3 0 18.4.8 27.2-.2 14.2-1.5 23.6-10.6 26-24.1.9-5.4 1-11.1.4-16.5-1.3-13.1-9.1-22.7-21.8-25.1-10.3-1.9-21-1.5-31.8-2.2v68.1z"/><linearGradient id="SVGID_3_" gradientUnits="userSpaceOnUse" x1="566.655" y1="521.954" x2="566.655" y2="799.613"><stop offset="0" stop-color="#fff" stop-opacity="0"/><stop offset=".103" stop-color="#fbfbfb" stop-opacity=".237"/><stop offset=".201" stop-color="#f0f0f0" stop-opacity=".462"/><stop offset=".297" stop-color="#ddd" stop-opacity=".682"/><stop offset=".391" stop-color="#c2c2c2" stop-opacity=".898"/><stop offset=".436" stop-color="#b3b3b3"/><stop offset=".58" stop-color="#d0d0d0"/><stop offset=".741" stop-color="#eaeaea"/><stop offset=".886" stop-color="#fafafa"/><stop offset="1" stop-color="#fff"/></linearGradient><path class="st4" d="M592.5 737h-51.9c-4.3 20.8-8.5 41.5-12.8 62.6h-45.9c-13.9 0-12.9 1.3-10-12.2 18.8-86.6 37.6-173.2 56.2-259.8.9-4.4 2.7-5.6 7.1-5.5 21.6.3 43.1.2 64.7 0 3.5 0 5 .7 5.8 4.5 18.9 89.1 38 178.1 57 267.1 1.1 5 .5 5.8-4.6 5.8-16.3 0-32.7-.1-49 .1-3.1 0-4.2-.9-4.8-4-3.4-18-7.1-35.9-10.7-53.8-.3-1.5-.7-3.1-1.1-4.8zm-25.3-138.2h-.9c-5.6 31.2-11.2 62.4-16.9 93.7H584c-5.6-31.5-11.2-62.6-16.8-93.7z"/><linearGradient id="SVGID_4_" gradientUnits="userSpaceOnUse" x1="1320.08" y1="521.933" x2="1320.08" y2="799.621"><stop offset="0" stop-color="#fff" stop-opacity="0"/><stop offset=".103" stop-color="#fbfbfb" stop-opacity=".237"/><stop offset=".201" stop-color="#f0f0f0" stop-opacity=".462"/><stop offset=".297" stop-color="#ddd" stop-opacity=".682"/><stop offset=".391" stop-color="#c2c2c2" stop-opacity=".898"/><stop offset=".436" stop-color="#b3b3b3"/><stop offset=".58" stop-color="#d0d0d0"/><stop offset=".741" stop-color="#eaeaea"/><stop offset=".886" stop-color="#fafafa"/><stop offset="1" stop-color="#fff"/></linearGradient><path class="st5" d="M1346 736.9h-51.9c-4.2 20.6-8.5 41.3-12.8 62.2-1.4.1-2.7.3-3.9.3h-48.5c-5.4 0-6-.7-4.8-6.1 19.2-88.5 38.4-177 57.4-265.6 1-4.5 2.5-6 7.3-5.9 21.6.3 43.1.2 64.7.1 3.6 0 5 1 5.7 4.7 18.9 89.1 38 178.1 57.1 267.1.9 4 .1 5.8-4.3 5.8-16.5-.1-33-.1-49.5 0-3.2 0-4.1-1.2-4.7-4.1-3.4-17.9-7.1-35.9-10.7-53.8-.3-1.4-.7-3-1.1-4.7zm-43.1-44.4h34.6c-5.7-31.5-11.3-62.7-16.9-93.8-.3 0-.5.1-.8.1-5.6 31-11.2 62.1-16.9 93.7z"/><linearGradient id="SVGID_5_" gradientUnits="userSpaceOnUse" x1="941.863" y1="521.029" x2="941.863" y2="799.606"><stop offset="0" stop-color="#fff" stop-opacity="0"/><stop offset=".103" stop-color="#fbfbfb" stop-opacity=".237"/><stop offset=".201" stop-color="#f0f0f0" stop-opacity=".462"/><stop offset=".297" stop-color="#ddd" stop-opacity=".682"/><stop offset=".391" stop-color="#c2c2c2" stop-opacity=".898"/><stop offset=".436" stop-color="#b3b3b3"/><stop offset=".58" stop-color="#d0d0d0"/><stop offset=".741" stop-color="#eaeaea"/><stop offset=".886" stop-color="#fafafa"/><stop offset="1" stop-color="#fff"/></linearGradient><path class="st6" d="M921.6 566.1v71.8h5.5c19.8 0 39.6.1 59.3-.1 4.5 0 6.1 1.3 6 5.9-.3 11.3-.2 22.6 0 33.8.1 4.1-1.4 5.4-5.4 5.4-19.9-.1-39.9-.1-59.8-.1h-5.5v71.8h90c7 0 7 0 7 7.2 0 10.8-.1 21.6.1 32.4.1 4-1.3 5.5-5.4 5.5-47.6-.1-95.2-.1-142.7 0-4 0-5.4-1.3-5.4-5.4.1-89.3.1-178.5 0-267.8 0-4.1 1.4-5.4 5.4-5.4 47.6.1 95.2.1 142.7 0 4.1 0 5.4 1.4 5.4 5.5-.2 11.3-.3 22.6 0 33.8.1 4.7-1.7 5.8-6.1 5.8-28.3-.1-56.6-.1-84.9-.1h-6.2z"/><linearGradient id="SVGID_6_" gradientUnits="userSpaceOnUse" x1="756.917" y1="517.642" x2="756.917" y2="802.404"><stop offset="0" stop-color="#fff" stop-opacity="0"/><stop offset=".103" stop-color="#fbfbfb" stop-opacity=".237"/><stop offset=".201" stop-color="#f0f0f0" stop-opacity=".462"/><stop offset=".297" stop-color="#ddd" stop-opacity=".682"/><stop offset=".391" stop-color="#c2c2c2" stop-opacity=".898"/><stop offset=".436" stop-color="#b3b3b3"/><stop offset=".58" stop-color="#d0d0d0"/><stop offset=".741" stop-color="#eaeaea"/><stop offset=".886" stop-color="#fafafa"/><stop offset="1" stop-color="#fff"/></linearGradient><path class="st7" d="M720.9 718.7c1.1 4.8 2 9.5 3.4 13.9 4.1 12.9 11.1 23.3 25.1 27.1 12.7 3.4 27.3-1.9 34.9-12.4 6.4-8.7 6.4-23-1.2-33.6-4.5-6.3-10-12.2-16.1-17-20.1-15.9-41-30.9-61-46.9-12.9-10.3-23.7-22.6-28.9-38.8-10.3-32-.7-70.7 40.5-86.1 28.2-10.5 57-9.4 84.7 2.2 23 9.6 36.1 27.8 40.3 52.3.3 1.6.2 3.2.3 5.2-14.3 2.1-28.4 4.2-42.4 6.1-10.2 1.4-10.2 1.2-13.4-8.8-6.3-19.8-18.9-24.9-35.9-22.1-13.2 2.2-21.4 15.3-19.9 30.1.9 8.7 4.6 16.3 9.8 23.2 7.8 10.3 18 17.9 28.4 25.3 14.2 10.1 28.7 20 42 31.2 14.9 12.6 26.4 28.2 31.9 47.3 8.3 28.5-7.7 62.2-35.9 75.7-18.7 8.9-38.5 10.7-58.9 9.3-18.9-1.3-36.3-6.4-51.3-18.4-18.1-14.6-26.7-34.2-29.4-56.8-.3-2.8-.2-5.3 3.6-5.5 16.6-.8 32.9-1.7 49.4-2.5z"/><linearGradient id="SVGID_7_" gradientUnits="userSpaceOnUse" x1="1510.632" y1="521.977" x2="1510.632" y2="799.619"><stop offset="0" stop-color="#fff" stop-opacity="0"/><stop offset=".103" stop-color="#fbfbfb" stop-opacity=".237"/><stop offset=".201" stop-color="#f0f0f0" stop-opacity=".462"/><stop offset=".297" stop-color="#ddd" stop-opacity=".682"/><stop offset=".391" stop-color="#c2c2c2" stop-opacity=".898"/><stop offset=".436" stop-color="#b3b3b3"/><stop offset=".58" stop-color="#d0d0d0"/><stop offset=".741" stop-color="#eaeaea"/><stop offset=".886" stop-color="#fafafa"/><stop offset="1" stop-color="#fff"/></linearGradient><path class="st8" d="M1493.3 754.6h29.1c18.6 0 37.3.1 55.9-.1 4.5 0 6.1 1.5 6 5.9-.2 11.1-.2 22.2 0 33.3.1 4.1-1.2 5.8-5.6 5.8-45.3-.1-90.6-.1-135.9 0-4.2 0-5.7-1.3-5.7-5.6.1-88.8.1-177.6 0-266.3 0-4.2 1.3-5.8 5.6-5.7 14.9.2 29.8.2 44.6 0 4.9-.1 6.1 1.8 6.1 6.4-.1 73.2-.1 146.5-.1 219.7v6.6z"/><linearGradient id="SVGID_8_" gradientUnits="userSpaceOnUse" x1="1669.57" y1="522.005" x2="1669.57" y2="799.61"><stop offset="0" stop-color="#fff" stop-opacity="0"/><stop offset=".103" stop-color="#fbfbfb" stop-opacity=".237"/><stop offset=".201" stop-color="#f0f0f0" stop-opacity=".462"/><stop offset=".297" stop-color="#ddd" stop-opacity=".682"/><stop offset=".391" stop-color="#c2c2c2" stop-opacity=".898"/><stop offset=".436" stop-color="#b3b3b3"/><stop offset=".58" stop-color="#d0d0d0"/><stop offset=".741" stop-color="#eaeaea"/><stop offset=".886" stop-color="#fafafa"/><stop offset="1" stop-color="#fff"/></linearGradient><path class="st9" d="M1652.2 754.6h6.3c26.2 0 52.3.1 78.5-.1 4.8 0 6.3 1.6 6.2 6.2-.2 11.1-.2 22.2 0 33.3.1 3.9-1.2 5.5-5.4 5.5-45.5-.1-90.9-.1-136.4 0-4 0-5.4-1.3-5.4-5.4.1-88.9.1-177.9 0-266.8 0-4.1 1.4-5.5 5.4-5.4 14.7.2 29.4.1 44.1.1 6.5 0 6.7.2 6.7 6.5v226.1z"/><path class="st1" d="M1505.8 230.6h-31.9c-6.2 0-7.1-.8-7.1-7.1 0-9.8.1-19.6 0-29.4-.1-4.4 1.8-6.1 6.1-6.1 37.4.1 74.9.1 112.3 0 4.6 0 6.5 1.9 6.4 6.4-.1 9.8 0 19.6-.1 29.4 0 5.6-1.2 6.7-7 6.7h-32.1v260c0 8.3-.5 8.8-9 8.8H1514c-7.5 0-8.2-.7-8.2-8V230.6z"/><linearGradient id="SVGID_9_" gradientUnits="userSpaceOnUse" x1="1673.439" y1="188.171" x2="1673.439" y2="499.204"><stop offset="0" stop-color="#fff" stop-opacity="0"/><stop offset=".103" stop-color="#fbfbfb" stop-opacity=".237"/><stop offset=".201" stop-color="#f0f0f0" stop-opacity=".462"/><stop offset=".297" stop-color="#ddd" stop-opacity=".682"/><stop offset=".391" stop-color="#c2c2c2" stop-opacity=".898"/><stop offset=".436" stop-color="#b3b3b3"/><stop offset=".58" stop-color="#d0d0d0"/><stop offset=".741" stop-color="#eaeaea"/><stop offset=".886" stop-color="#fafafa"/><stop offset="1" stop-color="#fff"/></linearGradient><path class="st10" d="M1602.1 343.5c0-33-.2-66.1.1-99.1.1-8.1.9-16.4 3-24.2 4.5-17.3 16.2-29 33.8-30.5 22-1.9 44.5-2.3 66.5-.3 22.7 2 35.8 17.7 38.3 40.5.6 5.3.9 10.8.9 16.1.1 65.2.1 130.5 0 195.7 0 7.3-.5 14.8-2.1 21.9-4.2 19.5-16.6 32.4-36.3 34-21.9 1.8-44.2 2.1-66-.1-23.3-2.4-36.7-19.7-37.7-44.2-.8-18.9-.4-37.9-.5-56.9v-52.9zm46.5.1c0 32.8 0 65.7.1 98.5 0 9.5 4.2 13.9 13.6 14.3 7.2.3 14.4.2 21.6.1 10.1-.1 13.8-3.7 14.5-13.8.1-1.5.1-2.9.1-4.4V249.1c0-2.1 0-4.3-.3-6.4-1-7.9-5-11.8-12.9-12.1-8-.3-16-.3-24 0-7.9.3-12.1 4.8-12.5 12.8-.1 2.1-.1 4.2-.1 6.4-.1 31.4-.1 62.6-.1 93.8z"/><linearGradient id="SVGID_10_" gradientUnits="userSpaceOnUse" x1="1099.361" y1="188" x2="1099.361" y2="499.446"><stop offset="0" stop-color="#fff" stop-opacity="0"/><stop offset=".103" stop-color="#fbfbfb" stop-opacity=".237"/><stop offset=".201" stop-color="#f0f0f0" stop-opacity=".462"/><stop offset=".297" stop-color="#ddd" stop-opacity=".682"/><stop offset=".391" stop-color="#c2c2c2" stop-opacity=".898"/><stop offset=".436" stop-color="#b3b3b3"/><stop offset=".58" stop-color="#d0d0d0"/><stop offset=".741" stop-color="#eaeaea"/><stop offset=".886" stop-color="#fafafa"/><stop offset="1" stop-color="#fff"/></linearGradient><path class="st11" d="M1097.2 376h-19.5v115.5c0 7.1-.7 7.8-7.9 7.8-10.6 0-21.3-.1-31.9 0-4.5.1-6.6-1.5-6.6-6.2.1-99.7.1-199.4 0-299.1 0-4.5 1.9-6.1 6.2-6 25.7.1 51.3 0 77 .1 5.2 0 10.5.5 15.5 1.7 19.4 4.6 31.7 19.7 32.8 41.8 1 21.2.9 42.5.8 63.7-.1 14-.3 28.1-1.9 42-1.5 13.2-7.7 24.5-19.5 32.1-1.2.8-1.8 3.9-1.4 5.7 5.2 23.8 10.6 47.5 15.9 71.2 3.5 15.4 6.9 30.9 10.3 46.4 1 4.5-.6 6.5-5 6.6-11.4.1-22.9-.2-34.3.1-4.3.1-4.2-2.7-4.7-5.3-8.3-38-16.5-75.9-24.8-113.9-.2-1.3-.6-2.7-1-4.2zm-19.3-40.7c8.9 0 17.2.3 25.5-.1 8-.4 12.3-4.9 13.4-13 .3-2.4.4-4.9.4-7.3v-63.7c0-2.6 0-5.3-.4-7.8-1-5.6-3.2-11.2-9.4-11.8-9.8-.8-19.7-.2-29.5-.2v103.9z"/><linearGradient id="SVGID_11_" gradientUnits="userSpaceOnUse" x1="1395.282" y1="188" x2="1395.282" y2="499.38"><stop offset="0" stop-color="#fff" stop-opacity="0"/><stop offset=".103" stop-color="#fbfbfb" stop-opacity=".237"/><stop offset=".201" stop-color="#f0f0f0" stop-opacity=".462"/><stop offset=".297" stop-color="#ddd" stop-opacity=".682"/><stop offset=".391" stop-color="#c2c2c2" stop-opacity=".898"/><stop offset=".436" stop-color="#b3b3b3"/><stop offset=".58" stop-color="#d0d0d0"/><stop offset=".741" stop-color="#eaeaea"/><stop offset=".886" stop-color="#fafafa"/><stop offset="1" stop-color="#fff"/></linearGradient><path class="st12" d="M1376.9 388.5V492c0 6.4-.9 7.3-7.4 7.3-10.9 0-21.9-.1-32.8 0-4.4 0-6.1-1.8-6.1-6.2.1-99.7.1-199.4 0-299.1 0-4.4 1.8-6.1 6.1-6.1 24.2.1 48.4 0 72.6.2 5.2 0 10.5.5 15.5 1.7 20.6 4.8 33.1 20.1 34.5 42.7.8 13.2.7 26.5.7 39.7 0 23.5.4 47.1-.7 70.6-1.3 28.6-19.1 45-47.8 45.6-11.3.3-22.6.1-34.6.1zm.2-42.8c8.9 0 17.4.4 25.8-.1 6.3-.4 9.5-4.2 10.2-10.5.3-2.8.3-5.5.3-8.3v-53.9c0-10 .1-19.9-.3-29.9-.2-7-3.9-11.4-10.7-11.9-8.4-.6-16.8-.2-25.4-.2.1 38.4.1 76.4.1 114.8z"/><linearGradient id="SVGID_12_" gradientUnits="userSpaceOnUse" x1="945.943" y1="188.108" x2="945.943" y2="499.328"><stop offset="0" stop-color="#fff" stop-opacity="0"/><stop offset=".103" stop-color="#fbfbfb" stop-opacity=".237"/><stop offset=".201" stop-color="#f0f0f0" stop-opacity=".462"/><stop offset=".297" stop-color="#ddd" stop-opacity=".682"/><stop offset=".391" stop-color="#c2c2c2" stop-opacity=".898"/><stop offset=".436" stop-color="#b3b3b3"/><stop offset=".58" stop-color="#d0d0d0"/><stop offset=".741" stop-color="#eaeaea"/><stop offset=".886" stop-color="#fafafa"/><stop offset="1" stop-color="#fff"/></linearGradient><path class="st13" d="M881.1 343.6c0-33.2-.1-66.4.1-99.5.1-7.3.7-14.8 2.3-21.8 4.4-18.6 16.3-30.7 35.2-32.6 17.4-1.8 35.3-2.1 52.7-.3 22.6 2.4 35.9 16.9 38.2 39.4 1.6 15.4.9 31 1.2 46.5.1 3.2-1.9 4.7-5 4.7h-36.3c-3.8 0-5.1-2.1-5.1-5.6.1-8.8.1-17.7 0-26.5-.1-12.9-4.2-17.1-17-17.2-17.7-.1-20.1 2.2-20.1 19.9v187.3c0 16.1 2.7 18.8 18.8 18.8 15.2 0 18.3-3.1 18.3-18.4v-10.8c0-3.4 1.5-5.3 4.9-5.3 12.1 0 24.2-.2 36.3.2 1.8.1 4.9 2.9 4.9 4.5-.1 11.7.2 23.6-1.7 35.1-3.6 21.9-17.9 34.9-39.9 36.5-14.9 1.1-30.1 1.3-45 .1-26.1-2.2-41.4-18.7-42.5-45.1-.8-18.3-.4-36.6-.4-54.9 0-18.4.1-36.7.1-55z"/><linearGradient id="SVGID_13_" gradientUnits="userSpaceOnUse" x1="1245.384" y1="187.932" x2="1245.384" y2="499.347"><stop offset="0" stop-color="#fff" stop-opacity="0"/><stop offset=".103" stop-color="#fbfbfb" stop-opacity=".237"/><stop offset=".201" stop-color="#f0f0f0" stop-opacity=".462"/><stop offset=".297" stop-color="#ddd" stop-opacity=".682"/><stop offset=".391" stop-color="#c2c2c2" stop-opacity=".898"/><stop offset=".436" stop-color="#b3b3b3"/><stop offset=".58" stop-color="#d0d0d0"/><stop offset=".741" stop-color="#eaeaea"/><stop offset=".886" stop-color="#fafafa"/><stop offset="1" stop-color="#fff"/></linearGradient><path class="st14" d="M1246.9 312.8c7.2-34.3 14.1-67.5 21-100.8 1.4-6.7 2.8-13.4 4.1-20.2.5-2.9 1.8-4 4.9-3.9 11.6.2 23.2 0 34.8.1 5.7 0 7 1.7 5.6 7.2-15.6 61.2-31.3 122.4-46.8 183.6-1 3.7-1.4 7.7-1.4 11.6-.1 33.8-.1 67.7-.1 101.5 0 6.6-.9 7.4-7.3 7.5h-31.4c-7.1 0-7.7-.6-7.7-8 0-33.3.5-66.7-.3-100-.2-10.2-3.4-20.5-6-30.5-14.2-55.2-28.6-110.3-42.9-165.4-1.5-5.7-.2-7.3 5.9-7.4 11.3 0 22.6.2 33.8-.1 3.8-.1 5 1.4 5.7 4.8 8.8 38.3 17.6 76.7 26.5 115 .4 1.3.9 2.6 1.6 5z"/><linearGradient id="SVGID_14_" gradientUnits="userSpaceOnUse" x1="1529.144" y1="187.995" x2="1529.144" y2="499.343"><stop offset="0" stop-color="#fff" stop-opacity="0"/><stop offset=".103" stop-color="#fbfbfb" stop-opacity=".237"/><stop offset=".201" stop-color="#f0f0f0" stop-opacity=".462"/><stop offset=".297" stop-color="#ddd" stop-opacity=".682"/><stop offset=".391" stop-color="#c2c2c2" stop-opacity=".898"/><stop offset=".436" stop-color="#b3b3b3"/><stop offset=".58" stop-color="#d0d0d0"/><stop offset=".741" stop-color="#eaeaea"/><stop offset=".886" stop-color="#fafafa"/><stop offset="1" stop-color="#fff"/></linearGradient><path class="st15" d="M1505.8 230.6h-31.9c-6.2 0-7.1-.8-7.1-7.1 0-9.8.1-19.6 0-29.4-.1-4.4 1.8-6.1 6.1-6.1 37.4.1 74.9.1 112.3 0 4.6 0 6.5 1.9 6.4 6.4-.1 9.8 0 19.6-.1 29.4 0 5.6-1.2 6.7-7 6.7h-32.1v260c0 8.3-.5 8.8-9 8.8H1514c-7.5 0-8.2-.7-8.2-8V230.6z"/><path class="st1" d="M971.4 189.4c-17.4-1.9-35.3-1.5-52.7.3-19 1.9-30.9 14-35.2 32.6-1.7 7.1-2.3 14.5-2.3 21.8-.2 23.7-.1 47.3-.1 71h46.4v-64.5c0-17.7 2.4-20 20.1-19.9 12.8.1 16.9 4.2 17 17.2.1 8.8.1 17.7 0 26.5 0 3.5 1.2 5.6 5.1 5.6h36.3c3.1 0 5.1-1.5 5-4.7-.3-15.5.4-31.1-1.2-46.5-2.5-22.6-15.8-37-38.4-39.4zm773.3 56.7c0-5.4-.3-10.8-.9-16.1-2.5-22.8-15.6-38.5-38.3-40.5-22-2-44.4-1.5-66.5.3-17.6 1.5-29.3 13.1-33.8 30.5-2 7.8-2.9 16.1-3 24.2-.2 23.5-.2 47.1-.2 70.6h46.4V250c0-2.1 0-4.3.1-6.4.4-8 4.6-12.5 12.5-12.8 8-.3 16-.3 24 0 7.9.3 11.8 4.2 12.9 12.1.3 2.1.3 4.2.3 6.4v65.9h46.4c.1-23.1.1-46.1.1-69.1zM1585.1 188c-37.4.1-74.9.1-112.3 0-4.4 0-6.2 1.7-6.1 6.1.1 9.8 0 19.6 0 29.4 0 6.2.8 7 7.1 7.1h31.9v84.5h46.6v-84.5h32.1c5.8 0 7-1.1 7-6.7 0-9.8-.1-19.6.1-29.4.1-4.6-1.8-6.5-6.4-6.5zm-125.9 44.6c-1.4-22.6-13.9-37.9-34.5-42.7-5-1.2-10.3-1.7-15.5-1.7-24.2-.2-48.4-.1-72.6-.2-4.4 0-6.1 1.7-6.1 6.1V315h46.5v-84.1c8.6 0 17.1-.5 25.4.2 6.8.5 10.4 4.9 10.7 11.9.3 10 .2 19.9.3 29.9v42.2h46.5c.1-14.3 0-28.5 0-42.8 0-13.2.1-26.5-.7-39.7zM1311.6 188c-11.6 0-23.2.1-34.8-.1-3.1 0-4.4 1-4.9 3.9-1.2 6.7-2.7 13.4-4.1 20.2-6.9 33.2-13.9 66.4-21 100.8-.7-2.4-1.2-3.8-1.5-5.1-8.9-38.3-17.7-76.6-26.5-115-.8-3.4-1.9-4.9-5.7-4.8-11.3.3-22.6.1-33.8.1-6.1 0-7.3 1.6-5.9 7.4 10.4 39.9 20.8 79.9 31.1 119.8h82.1l30.6-120c1.4-5.5.2-7.1-5.6-7.2zm-181.6 1.9c-5-1.2-10.3-1.7-15.5-1.7-25.7-.2-51.3-.1-77-.1-4.3 0-6.2 1.6-6.2 6v121.2h46.5v-83.8c9.8 0 19.7-.6 29.5.2 6.1.5 8.4 6.2 9.4 11.8.5 2.6.4 5.2.4 7.8v64h46.2c.2-6.6.3-13.2.3-19.8.1-21.2.2-42.5-.8-63.7-1.1-22.2-13.5-37.3-32.8-41.9z"/><path class="st1" d="M1675.6 193.2c10.2 0 20.1.4 29.5 1.3 19.4 1.8 31.4 14.6 33.8 36.1.6 5.4.9 10.7.9 15.6.1 63 .1 130 0 195.7 0 8-.7 14.8-2 20.8-2.8 12.8-10.6 28.3-31.8 30.1-11.7 1-22.9 1.5-33.5 1.5-11 0-21.6-.5-31.5-1.6-10.1-1-18.1-5.1-23.9-12-5.7-6.8-8.9-16.3-9.3-27.4-.5-13.6-.5-27.6-.5-41.1v-95.3c0-23.7-.1-48.2.2-72.4.1-8.4 1-16.1 2.8-23 4.1-16 14.6-25.5 29.4-26.7 12.4-1.1 24.5-1.6 35.9-1.6m-32 155.4v93.6c0 12.2 6.2 18.7 18.4 19.3 3.6.2 7.3.2 11.9.2 3.2 0 6.4 0 10-.1 12.7-.2 18.5-5.7 19.4-18.4.1-1.4.1-2.7.1-3.9v-190c0-2.3 0-4.6-.3-7-1.4-10.4-7.5-16-17.6-16.4-4.1-.1-8.2-.2-12.2-.2-4.1 0-8.2.1-12.2.2-10.4.4-16.7 6.8-17.3 17.6-.1 1.9-.1 3.8-.1 5.6v94.6l-.1 4.9m32-160.4c-12.2 0-24.5.6-36.6 1.6-17.6 1.5-29.3 13.1-33.8 30.5-2 7.8-2.9 16.1-3 24.2-.3 33-.1 66.1-.1 99.1v53c.1 19-.3 37.9.5 56.9 1 24.5 14.4 41.8 37.7 44.2 10.6 1.1 21.3 1.6 32 1.6 11.3 0 22.7-.5 33.9-1.5 19.7-1.6 32-14.6 36.3-34 1.6-7.1 2.1-14.6 2.1-21.9.2-65.2.1-130.5 0-195.7 0-5.4-.3-10.8-.9-16.1-2.5-22.8-15.6-38.5-38.3-40.5-9.8-1-19.8-1.4-29.8-1.4zm-27 155.4V250c0-2.1 0-4.3.1-6.4.4-8 4.6-12.5 12.5-12.8 4-.2 8-.2 12-.2s8 .1 12 .2c7.9.3 11.8 4.2 12.9 12.1.3 2.1.3 4.2.3 6.4v189.2c0 1.5 0 2.9-.1 4.4-.7 10.1-4.3 13.6-14.5 13.8-3.3 0-6.6.1-9.9.1-3.9 0-7.8-.1-11.7-.2-9.4-.4-13.6-4.8-13.6-14.3-.1-33 0-65.8 0-98.7zM1037.5 193h32c14.8 0 30 0 45 .1 5.3 0 10.1.6 14.4 1.6 17.5 4.1 28 17.7 29 37.2 1 21.2.9 42.7.8 63.4-.1 14.8-.3 28.1-1.8 41.5-1.4 12.4-7.2 22-17.2 28.4-3.6 2.3-4.3 7.9-3.6 10.9 3.7 17 7.6 34.3 11.4 51 1.5 6.8 3 13.5 4.6 20.3 3.5 15.4 6.9 31 10.3 46.3 0 .2.1.3.1.5h-20.6c-5.4 0-9.5 0-13.5.1v-.2c-.1-.4-.1-.8-.2-1.1-5.9-27-11.8-54.4-17.6-80.9l-7.2-33c-.2-1-.5-2.1-.7-3.1-.1-.5-.2-.9-.4-1.4l-.9-3.8H1073v120.6c0 1.3 0 2.1-.1 2.7-.6 0-1.5.1-2.9.1h-18.6c-5.2 0-9.5 0-13.4.1h-.2c-.6 0-1 0-1.2-.1 0-.2-.1-.6-.1-1.1.1-97 .1-197.6 0-299.1 0-.4 0-.8.1-1h.9m35.4 147.3h5c2.7 0 5.4 0 8 .1 2.5 0 5.1.1 7.7.1 3.9 0 7.1-.1 10-.2 10.2-.5 16.6-6.6 18.1-17.3.4-2.7.4-5.5.4-8v-64c0-2.7 0-5.5-.5-8.4-2.2-12.3-8.8-15.4-13.9-15.9-3.6-.3-7.6-.5-12.3-.5-3 0-6 .1-8.9.1-2.9.1-5.8.1-8.7.1h-5v113.9M1037.5 188c-4.3 0-6.2 1.6-6.1 6 .1 99.7.1 199.4 0 299.1 0 4.7 2 6.2 6.3 6.2h.3c4.4-.1 8.9-.1 13.3-.1h18.6c7.2 0 7.9-.7 7.9-7.8V375.9h19.5c.4 1.5.8 2.9 1.1 4.3 8.2 38 16.5 75.9 24.8 113.9.5 2.5.5 5.3 4.5 5.3h.2c4.6-.1 9.3-.2 13.9-.2h20.5c4.5 0 6-2.1 5-6.6-3.4-15.5-6.8-30.9-10.3-46.4-5.3-23.7-10.7-47.4-15.9-71.2-.4-1.8.2-4.9 1.4-5.7 11.7-7.6 17.9-18.8 19.5-32.1 1.6-13.9 1.8-28 1.9-42 .1-21.2.2-42.5-.8-63.7-1.1-22.1-13.5-37.3-32.8-41.8-5-1.2-10.3-1.7-15.5-1.7-25.9 0-51.6.1-77.3 0zm56.1 147.4c-5.1 0-10.3-.1-15.7-.1V231.4c5.8 0 11.7-.2 17.5-.2 4 0 8 .1 11.9.4 6.1.5 8.4 6.2 9.4 11.8.5 2.6.4 5.2.4 7.8v63.7c0 2.4-.1 4.9-.4 7.3-1.1 8.1-5.5 12.6-13.4 13-3.2.2-6.5.2-9.7.2zm243-142.4c10.1 0 20.4.1 30.3.1 13.9 0 28.2 0 42.3.1 5.2 0 10.1.6 14.4 1.6 18.5 4.3 29.4 17.9 30.6 38.2.7 12.1.7 24.5.7 36.6v19.5c.1 17.6.1 35.8-.7 53.6-1.2 25.8-16.5 40.3-43 40.9-3.7.1-7.7.1-12.6.1h-26.8v108.5c0 1 0 1.8-.1 2.2-.5 0-1.2.1-2.4.1h-19.4c-5.3 0-9.6 0-13.6.1h-.1c-.4 0-.7 0-.9-.1 0-.2-.1-.6-.1-1.1.1-102.1.1-202.8 0-299.1 0-.5 0-.8.1-1.1.5-.2.8-.2 1.3-.2m35.5 157.7h5c2.7 0 5.3 0 7.9.1 2.5 0 5.2.1 7.7.1 4 0 7.3-.1 10.4-.3 8.5-.5 13.9-6 14.9-15 .3-3 .3-6.1.3-8.9v-60.3c0-7.7 0-15.7-.3-23.6-.3-9.6-6.2-16-15.3-16.7-3.1-.2-6.4-.3-10.4-.3-2.6 0-5.2 0-7.7.1-2.5 0-5.1.1-7.7.1h-5v124.7M1336.6 188c-4.3 0-6.1 1.7-6 6.1.1 99.7.1 199.4 0 299.1 0 4.3 1.7 6.2 5.9 6.2h.2c4.5 0 9-.1 13.5-.1h19.4c6.5 0 7.4-.9 7.4-7.3V388.5c7.5 0 14.7.1 21.8.1 4.3 0 8.5 0 12.7-.1 28.7-.6 46.5-17 47.8-45.6 1.1-23.5.7-47 .7-70.6 0-13.2.1-26.5-.7-39.7-1.4-22.6-13.9-37.9-34.5-42.7-5-1.2-10.3-1.7-15.5-1.7-24.3-.2-48.5-.1-72.7-.2zm56.2 157.9c-5.1 0-10.3-.1-15.7-.1V231c5.2 0 10.3-.2 15.4-.2 3.4 0 6.7.1 10 .3 6.8.5 10.4 4.9 10.7 11.9.3 10 .2 19.9.3 29.9v53.9c0 2.8 0 5.6-.3 8.3-.7 6.3-3.9 10.1-10.2 10.5-3.5.2-6.8.3-10.2.3zM947.5 193.1c8.1 0 16 .4 23.5 1.2 9.9 1.1 17.9 4.7 23.6 10.7 5.7 5.9 9.1 14.1 10.1 24.3 1.1 10.7 1.1 21.8 1.1 32.6 0 4.3 0 8.7.1 13.1h-36.3v-.6c.1-8.2.1-16.9 0-26.5-.1-15.6-6.5-22.1-22-22.1h-1c-19.6 0-24.1 4.7-24.1 24.9V438c0 18.9 4.9 23.8 23.8 23.8 8.1 0 14.3-.8 18.4-5 4.1-4.1 4.9-10.3 4.9-18.5v-11.1h17.6c7.1 0 12.7.1 17.9.2.2.1.4.3.6.5v5.1c0 9.4-.1 19.1-1.6 28.2-1.6 9.7-5.5 17.5-11.5 23s-14 8.6-23.9 9.3c-8.3.6-16.3.9-23.8.9-7.1 0-14-.3-20.5-.8-23.4-1.9-36.9-16.3-37.9-40.3-.6-13.2-.5-26.6-.5-39.6v-96.4c0-24-.1-48.8.1-73.1.1-7.9.8-14.7 2.2-20.7 2.8-12 10.5-26.7 30.9-28.8 9.8-1.1 19.3-1.6 28.3-1.6m0-5c-9.6 0-19.2.5-28.7 1.5-19 1.9-30.9 14-35.2 32.6-1.7 7.1-2.3 14.5-2.3 21.8-.2 33.2-.1 66.4-.1 99.5v54.9c.1 18.3-.3 36.6.4 54.9 1.1 26.4 16.4 42.9 42.5 45.1 6.9.6 13.9.8 20.9.8 8.1 0 16.1-.3 24.1-.9 22-1.6 36.3-14.6 39.9-36.5 1.9-11.5 1.6-23.4 1.7-35.1 0-1.5-3.1-4.4-4.9-4.5-6.2-.2-12.4-.3-18.6-.3-5.9 0-11.8 0-17.7.1-3.4 0-5 1.9-4.9 5.3v10.8c0 15.3-3.1 18.4-18.3 18.4-16 0-18.7-2.7-18.7-18.8V250.4c0-17.4 2.3-19.9 19.1-19.9h1c12.8.1 16.9 4.2 17 17.2.1 8.8.1 17.7 0 26.5 0 3.5 1.2 5.6 5 5.6h36.2c3.1 0 5.1-1.5 5-4.7-.3-15.5.4-31.1-1.2-46.5-2.3-22.5-15.6-36.9-38.2-39.4-8-.7-16-1.1-24-1.1zm266 4.8h.3c.1.2.1.5.2.9 7.6 33.3 15.4 67.2 23 99.9l3.5 15.1c.2 1.1.5 2 .9 3.2.2.6.4 1.3.6 2.2l5.6 19.3 4.1-19.7 5.6-26.6c5.2-25 10.3-49.6 15.5-74.1.3-1.3.5-2.5.8-3.8 1.1-5.3 2.3-10.8 3.3-16.3 4.3.1 8.9.1 14.9.1h20.9c-.1.3-.1.5-.2.9-3.8 14.7-7.5 29.4-11.3 44.1-11.7 45.7-23.7 93-35.5 139.5-1 4.1-1.6 8.5-1.6 12.8-.1 25.3-.1 50.9-.1 75.8v25.7c0 1.1 0 1.9-.1 2.4-.5 0-1.2.1-2.2.1h-31.3c-1.1 0-2 0-2.6-.1-.1-1-.1-2.3-.1-2.9 0-9.3 0-18.8.1-27.9.1-23.7.2-48.1-.4-72.2-.2-9.2-2.6-18.1-4.9-26.8-.4-1.6-.9-3.2-1.3-4.9-10.3-40-20.8-80.6-31-119.9-3.9-15.2-7.9-30.3-11.8-45.5-.1-.4-.2-.8-.2-1.1h20.7c5.7 0 10.3 0 14.6-.2-.1 0 0 0 0 0m0-5h-.3c-4.8.1-9.6.2-14.4.2h-19.4c-6.1 0-7.3 1.6-5.9 7.4 14.3 55.1 28.7 110.2 42.9 165.4 2.6 10.1 5.8 20.3 6 30.5.8 33.3.3 66.7.3 100 0 7.4.5 8 7.7 8h31.3c6.4 0 7.3-.9 7.3-7.5 0-33.8 0-67.7.1-101.5 0-3.9.5-7.8 1.4-11.6 15.5-61.2 31.2-122.4 46.8-183.6 1.4-5.5.1-7.1-5.6-7.2h-19.9c-5 0-9.9 0-14.9-.1h-.2c-2.9 0-4.2 1.1-4.7 3.9-1.2 6.7-2.7 13.4-4.1 20.2-6.9 33.2-13.9 66.4-21 100.8-.7-2.4-1.2-3.8-1.5-5.1-8.9-38.3-17.7-76.6-26.5-115-.7-3.3-1.8-4.8-5.4-4.8zm371.7.1v5c.6 0 1.1.1 1.3.1 0 .2.1.6.1 1.3-.1 6.2-.1 12.5-.1 18.5v11c0 .8 0 1.3-.1 1.7-.4 0-1 .1-2 .1h-37.1v264.9c0 .8 0 2.5-.1 3.7-1.2.1-3 .1-3.9.1h-29.5c-1.4 0-2.4 0-3.1-.1 0-.6-.1-1.5-.1-2.9V225.7h-36.9c-.9 0-1.6 0-2-.1 0-.5-.1-1.1-.1-2v-10.1c0-6.3 0-12.9-.1-19.4v-1c.2 0 .6-.1 1.1-.1 19 0 37.9.1 56.4.1 18.8 0 37.6 0 55.9-.1l.3-5m0 0c-18.7 0-37.3.1-56 .1-18.8 0-37.6 0-56.4-.1-4.4 0-6.2 1.8-6.1 6.1.1 9.8 0 19.6 0 29.4 0 6.2.8 7 7.1 7.1h31.9v260.8c0 7.3.7 8 8.2 8h29.5c8.5 0 9-.5 9-8.8v-260h32.2c5.8 0 7-1.1 7-6.7 0-9.8-.1-19.6.1-29.4-.1-4.6-1.9-6.5-6.5-6.5z"/><path class="st16" d="M490 304.2h34.2c6.2 0 8.2 3.2 5.6 9-2.9 6.5-6 13-9 19.5-2.3 5-1.8 5.8 3.9 6h3.4c7.7 0 8.4.5 9.9 8.1.4 1.9.6 3.9.8 5.8.5 4.4-.7 7.1-5.4 8.8-10.1 3.6-17.1 11.2-22.7 20.1-9.5 15.2-13.7 32.1-15.6 49.6-1 8.5-1.2 17.2-1.9 26.4 7.3 0 13.8-.2 20.3.1 1.9.1 4.3 1.4 5.3 3 3.6 5.2 6.6 10.8 10.2 16.8-1.9.2-3.2.4-4.6.4H332.7c-19.2 0-32.8-13.5-32.8-32.7V229.3c0-18.8 13.3-32.4 32-32.4 100.2-.1 200.4-.1 300.6.1 2 0 4.7 1.4 6 3 31.4 40.4 62.6 80.9 93.7 121.5 1.1 1.5 1.4 4.1 1.1 6.1-.7 3.8-2 7.5-3.1 11.3-.5 0-.9.1-1.1 0-13.3-8.3-27.8-11.8-43.5-11-11.4.5-22.9 0-34.3.2-4.9.1-7.6-2.3-8-6.7-.5-5-.1-10-.1-15.5 5.6 1.3 6.3-1.9 6.5-6.2.4-12.8-.5-25.5-5.2-37.6-4.1-10.6-10.9-18.9-20.7-24.7-14.4-8.6-29.8-13.1-46.6-12.9-31.4.5-52.3 20-54.5 51.3-.3 3.5-1.5 5.5-4.4 7.4-9.6 6.4-19.1 13.1-28.6 19.7.1.5.2.9.3 1.3zM387.1 411.3c0-12-9.9-21.7-21.9-21.7-12 0-21.8 9.7-21.8 21.7-.1 12.2 9.9 22.1 22.1 22 12-.2 21.6-10 21.6-22z"/><path class="st17" d="M759 477.8v-20.4h15.4c8.2 0 16.4-.7 24.5.2 11.3 1.1 19-3.9 24.8-12.6 4.4-6.6 7.8-13.9 11.5-20.9 1.7-3.1.9-6.1-1.6-8.5-6.7-6.5-11-14.4-14.4-23.1-1.2-3.1-4.7-5.6-7.6-7.8-3.4-2.5-7.2-4.4-10.9-6.6-6.2-3.6-9.9-8.1-8.8-16.1.8-6.1-4.4-8.4-9.6-9.9-.1-6.4-2.7-10.9-8.6-12.3-1.5-3.4-2.6-6.6-4.2-9.5-.6-1.1-2.3-2.4-3.4-2.3-4.9.3-6.6-3.1-8.7-6.5-23.9-40-47.9-79.9-71.8-119.8-.8-1.4-1.6-2.7-2.9-4.9h132.8c22 0 34.7 12.7 34.7 34.7v211.4c0 21.9-12.9 34.8-34.7 34.8-18.4.1-37.2.1-56.5.1z"/><path class="st18" d="M344.3 676.2c11.6.8 23 .6 34.2 2.5 11.8 1.9 19.9 9.8 22.2 21.5 1.7 8.6 2.6 18 1.3 26.6-2.3 15.1-14.2 25.4-30.1 27.2-9 1-18.2.2-27.6.2v-78zm0-110.6c10.2.5 20.1.1 29.6 1.6 14.2 2.2 22.4 11.7 23.9 25.9.5 5.3.4 10.8-.4 16.1-2.4 13.9-12.5 23.2-26.8 24.4-8.6.7-17.3.1-26.3.1v-68.1zm753.5 112.2c10.5 0 20.7-1 30.6.2 15.6 2 24.1 10.6 26.8 26.3 1.2 7.4 1.6 15.4.2 22.8-2.9 15.4-15.3 25.9-31.3 27.1-8.6.7-17.3.1-26.3.1v-76.5zm-.1-44.2v-68.1c10.8.6 21.5.3 31.8 2.2 12.7 2.3 20.5 12 21.8 25.1.5 5.5.5 11.2-.4 16.5-2.3 13.6-11.8 22.6-26 24.1-8.9.9-17.9.2-27.2.2zm-531.1-34.8c5.6 31.1 11.2 62.2 16.9 93.6h-34.6c5.6-31.3 11.2-62.5 16.9-93.7.2.1.5.1.8.1zm735.7 93.7c5.7-31.5 11.3-62.6 16.9-93.7.3 0 .5-.1.8-.1 5.6 31.1 11.2 62.3 16.9 93.8h-34.6zm346.3-348.9V250c0-2.1 0-4.3.1-6.4.4-8 4.6-12.5 12.5-12.8 8-.3 16-.3 24 0 7.9.3 11.8 4.2 12.9 12.1.3 2.1.3 4.2.3 6.4v189.2c0 1.5 0 2.9-.1 4.4-.7 10.1-4.3 13.6-14.5 13.8-7.2.1-14.4.2-21.6-.1-9.4-.4-13.6-4.8-13.6-14.3-.1-33 0-65.8 0-98.7zm-570.7-8.3V231.4c9.8 0 19.7-.6 29.5.2 6.1.5 8.4 6.2 9.4 11.8.5 2.6.4 5.2.4 7.8v63.7c0 2.4-.1 4.9-.4 7.3-1.1 8.1-5.5 12.6-13.4 13-8.4.4-16.7.1-25.5.1zm299.2 10.4V230.9c8.6 0 17.1-.5 25.4.2 6.8.5 10.4 4.9 10.7 11.9.3 10 .2 19.9.3 29.9v53.9c0 2.8 0 5.6-.3 8.3-.7 6.3-3.9 10.1-10.2 10.5-8.5.5-17 .1-25.9.1z"/><path class="st1" d="M387.1 411.3c0 12-9.6 21.8-21.6 22-12.2.2-22.1-9.7-22.1-22 .1-12 9.8-21.7 21.8-21.7 12-.1 21.8 9.7 21.9 21.7zm-98.4 114.8c9.9.1 19.9.2 29.6.2 19.5.1 39.7.2 59.5.8 15.1.4 29.9 4.9 44.1 13.3 20.7 12.2 30.8 31.1 31 57.7.2 23.4-9.2 39.8-28.6 50.3-.8.4-1.4 1-1.9 1.3-.1.1-.2.2-.4.3l-6.8 5.2 7.9 3.4c9.9 4.2 18.1 10.9 24.3 19.8 5.6 8.2 9.6 18.2 11.3 29.1 2 12.2 1.2 25.4-2.2 37.1-3.4 11.9-9.3 21.7-16.9 28.4-15.9 13.9-34.7 21.2-55.9 21.5-11 .2-22.7.3-38 .3h-57.2V526.4c.2-.2.2-.3.2-.3m50.6 112.6h5c2.8 0 5.6.1 8.3.1 2.7.1 5.5.1 8.2.1 3.9 0 7.2-.1 10.2-.4 16.6-1.4 28.6-12.3 31.3-28.5.9-5.4 1.1-11.5.5-17.4-1.7-16.7-11.9-27.8-28.1-30.3-6.9-1.1-14-1.2-20.9-1.4-3-.1-6.2-.1-9.3-.3l-5.2-.2v78.3m0 120.5h5c2.9 0 5.8.1 8.6.2s5.8.2 8.7.2c4.2 0 7.6-.2 10.9-.5 18.4-2.1 31.9-14.4 34.5-31.4 1.2-8.2.8-17.4-1.4-28.3-2.7-13.7-12.5-23.2-26.3-25.5-8-1.3-16.2-1.7-24.2-2-3.4-.1-7-.3-10.5-.5l-5.3-.3v88.1m-51.2-238.1c-3.8 0-4.5 1.9-4.4 5.2.1 12.7 0 25.5 0 38.2V793c0 3.6-.2 6.7 5 6.7h18.4c12.9 0 25.9.1 38.8.1 12.7 0 25.4-.1 38-.3 22.3-.4 42.2-7.9 59.1-22.8 31.7-27.8 31.5-101.8-17.9-122.7.6-.4 1-.9 1.6-1.2 21.8-11.7 31.4-30.4 31.2-54.7-.2-26.6-10.1-48.1-33.5-61.9-14.2-8.4-30-13.5-46.5-14-29.9-.9-59.8-.7-89.7-1 0-.1 0-.1-.1-.1zm72.7 112.8c-5.4 0-10.9-.2-16.4-.2v-68c10.2.5 20.1.1 29.6 1.6 14.2 2.2 22.4 11.7 23.9 25.9.5 5.3.4 10.8-.4 16.1-2.4 13.9-12.5 23.2-26.8 24.4-3.4.1-6.6.2-9.9.2zm.8 120.6c-5.7 0-11.5-.3-17.3-.3v-78c11.6.8 23 .6 34.2 2.5 11.8 1.9 19.9 9.8 22.2 21.5 1.7 8.6 2.6 18 1.3 26.6-2.3 15.1-14.2 25.4-30.1 27.2-3.4.4-6.8.5-10.3.5zM1043.2 526h.1c11.5.1 23 .1 31.7.1h41.9c20.8.1 38.7 4 54.6 12.1 21.4 10.9 33 28.9 34.5 53.4.5 8.8-.3 17.8-2.4 26.1-3.4 13.6-12.4 24-27.6 31.7l-9.2 4.7 9.4 4.3c14.5 6.6 24.9 17 31 31 5.3 12.2 7.2 26.9 5.4 42.7-5.1 45.8-43.7 58.3-66.3 61.6-5.2.8-10.8.8-16.2.8h-44.3c-12.9 0-27.9 0-42.8.1h-1v-.8c.1-91.5.1-181.3 0-266.7v-1c.4-.1.7-.1 1.2-.1m49.5 112.6h5c2.9 0 5.7.1 8.5.1 2.8.1 5.7.1 8.5.1 4.1 0 7.5-.2 10.7-.5 16.3-1.7 27.6-12.3 30.4-28.3.9-5.5 1.1-11.5.5-17.9-1.6-15.8-11.2-26.8-25.9-29.5-7.5-1.4-15.1-1.6-22.5-1.8-3.2-.1-6.6-.2-9.8-.4l-5.3-.3v78.5m0 120.8h5c2.8 0 5.6.1 8.3.1 2.7.1 5.5.1 8.2.1 3.9 0 7.1-.1 10.2-.3 18.5-1.4 32.6-13.7 35.9-31.2 1.4-7.3 1.3-15.5-.2-24.5-3-18-13.5-28.2-31.1-30.4-3.6-.5-7.4-.7-12.1-.7-3.2 0-6.4.1-9.6.2-3.1.1-6.4.2-9.6.2h-5v86.5M1043.2 521c-4.5 0-6.1 1.3-6.1 6.1.1 88.9.1 177.8 0 266.7 0 4.6 1.6 5.8 5.9 5.8h.1c14.2-.1 28.5-.1 42.7-.1h44c5.7 0 11.5 0 17.1-.9 33.1-4.9 65.7-23.3 70.5-66 3.5-31-5.8-63.5-39.2-78.8 15.2-7.8 26.1-18.9 30.1-34.9 2.2-8.9 3.1-18.4 2.5-27.6-1.6-25.9-13.7-45.6-37.2-57.5-17.8-9.1-37-12.6-56.8-12.7h-41.9c-10.6 0-21.1 0-31.7-.1.1 0 0 0 0 0zm71.5 112.9c-5.6 0-11.3-.3-17-.3v-68.1c10.8.6 21.5.3 31.8 2.2 12.7 2.3 20.5 12 21.8 25.1.5 5.5.5 11.2-.4 16.5-2.3 13.6-11.8 22.6-26 24.1-3.4.3-6.8.5-10.2.5zm-.4 120.7c-5.4 0-10.9-.2-16.5-.2v-76.6c6.5 0 12.9-.4 19.1-.4 3.9 0 7.7.1 11.5.6 15.6 2 24.1 10.6 26.8 26.3 1.2 7.4 1.6 15.4.2 22.8-2.9 15.4-15.3 25.9-31.3 27.1-3.3.3-6.5.4-9.8.4zM534.3 527h.2c9.7.1 20 .2 31.4.2 12.1 0 24.2-.1 33.4-.1h.8c0 .1.1.3.1.6 15.7 73.9 31.8 149.1 47.3 221.8l9.7 45.2h-25.9c-6.7 0-14.5 0-22.7.1-2.7-13.9-5.5-28.1-8.3-41.8l-2.4-12c-.2-1.1-.5-2.2-.8-3.4-.1-.5-.2-1.1-.4-1.6l-.9-3.9h-59.9l-.8 4-5.2 25.3-6.8 33.3h-48.2c.2-.9.4-2 .7-3 .2-1 .5-2 .7-3.2l1.8-8.2c17.9-82.5 36.4-167.7 54.4-251.6.2-.8.3-1.3.4-1.5.1-.2.6-.2 1.4-.2m8.6 170.4h46.6l-1.1-5.9-16.9-93.6-.7-3.9-4-.2h-.9l-4.4-.2-.8 4.3-8.3 46.2-8.5 47.5-1 5.8M534.3 522c-4.2 0-5.9 1.2-6.8 5.5-18.6 86.6-37.4 173.2-56.2 259.8-2.5 11.4-3.6 12.3 4.4 12.3h51.5c4.3-21 8.6-41.8 12.8-62.6h51.9c.4 1.7.8 3.3 1.1 4.9 3.6 17.9 7.2 35.8 10.7 53.8.6 3 1.7 4 4.7 4h.1c7.6-.1 15.2-.1 22.8-.1h26.3c5.1 0 5.7-.8 4.6-5.8-19-89-38.1-178.1-57-267.1-.8-3.8-2.3-4.5-5.7-4.5h-.1c-11.1.1-22.3.1-33.4.1-10.4 0-20.9 0-31.3-.2-.2-.1-.3-.1-.4-.1zm14.6 170.4c5.6-31.3 11.2-62.5 16.9-93.7h.9c5.6 31.1 11.2 62.2 16.9 93.6-11.8.1-22.9.1-34.7.1zm738.9-165.5h.2c9.6.1 19.8.2 31.1.2 11.8 0 23.6-.1 33.7-.1h.6c.1.2.1.4.2.7 16.7 78.4 34.8 163.3 57 266.9-8.6-.1-16.4-.1-23.7-.1-8.9 0-17 0-25 .1-2.7-14.3-5.7-28.8-8.5-42.8-.7-3.7-1.5-7.4-2.2-11.1-.2-1.2-.5-2.3-.8-3.4-.1-.5-.2-1-.4-1.5l-.9-3.9h-60l-.8 4-8 39-4 19.6h-48.2l9.7-44.8c15.7-72.3 31.9-147.2 47.7-220.8.2-1.1.5-1.6.6-1.9.4 0 .8-.1 1.7-.1m8.5 170.6h46.6l-1.1-5.9-15-83.3-1.9-10.5-.8-4.5-4.6.4-.8.1-3.8.4-.7 3.7-6.9 38.3-10 55.4-1 5.9m-8.5-175.6c-4.5 0-6.1 1.6-7 5.9-19 88.5-38.2 177-57.4 265.6-1.2 5.4-.7 6.1 4.8 6.1h48.5c1.3 0 2.5-.2 3.9-.3 4.3-20.9 8.6-41.6 12.8-62.2h51.9c.4 1.7.8 3.2 1.1 4.8 3.6 17.9 7.2 35.8 10.7 53.8.6 2.9 1.5 4.1 4.6 4.1h.1c8.4-.1 16.8-.1 25.2-.1 8.1 0 16.2 0 24.3.1h.1c4.3 0 5.1-1.8 4.2-5.8-19.1-89-38.2-178.1-57.1-267.1-.8-3.6-2.1-4.7-5.6-4.7h-.1c-11.2.1-22.4.1-33.6.1-10.4 0-20.7-.1-31.1-.2-.1-.1-.2-.1-.3-.1zm14.5 170.6c5.7-31.5 11.3-62.6 16.9-93.7.3 0 .5-.1.8-.1 5.6 31.1 11.2 62.3 16.9 93.8h-34.6zM869.8 521v5c23.7 0 47.8.1 71.7.1 23.5 0 47.4 0 71.1-.1h.3v.4c-.2 13.3-.2 24.1 0 34.1v.6h-1c-12.3-.1-25.6-.1-43-.1h-53.1v81.8h42.1c11.1 0 19.7 0 27.8-.1h1v.7c-.2 10.2-.2 21.1 0 34v.3h-.4c-8.3-.1-17.1-.1-28.6-.1h-41.8v81.8h96.9V771c0 7.6-.1 15.4.1 23.1v.4h-.3c-23.6 0-47.5-.1-71.1-.1-23.8 0-47.9 0-71.6.1h-.4v-.4c.1-88.6.1-178.7 0-267.8v-.4h.4V521m-.1 0c-4 0-5.4 1.3-5.4 5.4.1 89.3.1 178.5 0 267.8 0 4.1 1.4 5.4 5.4 5.4 23.9 0 47.7-.1 71.6-.1 23.7 0 47.4 0 71.1.1 4.1 0 5.4-1.5 5.3-5.5-.2-10.8-.1-21.6-.1-32.4 0-7.2 0-7.2-7-7.2h-90v-71.8h36.8c9.5 0 19 0 28.5.1h.1c3.9 0 5.4-1.3 5.3-5.4-.2-11.3-.2-22.6 0-33.8.1-4.5-1.5-5.9-5.8-5.9h-.2c-9.3.1-18.5.1-27.8.1h-37.1V566h48.1c14.3 0 28.6 0 42.9.1h.1c4.2 0 6.1-1.1 5.9-5.8-.3-11.3-.2-22.6 0-33.8.1-4-1.3-5.5-5.3-5.5-23.7 0-47.4.1-71.1.1-23.5 0-47.3 0-71.3-.1.1 0 .1 0 0 0zm-113.4 1.6c14.4 0 29 3 43.3 9 20.7 8.7 33.3 25 37.3 48.6l-8.4 1.2c-9.7 1.4-19.7 2.9-29.4 4.2-2.6.3-4.4.6-5.5.6h-.3c-.5-.9-1.2-3.3-2-5.6l-.1-.3c-5.5-17.4-16.5-26.3-32.6-26.3-2.8 0-5.8.3-8.9.8-15.5 2.5-25.8 17.8-24 35.5.9 8.9 4.4 17.3 10.7 25.7 8.1 10.8 18.6 18.7 29.5 26.4 2.2 1.5 4.3 3.1 6.5 4.6 11.8 8.4 24.1 17 35.2 26.4 15.2 12.8 25.4 27.9 30.4 44.9 7.6 26-7.3 57.4-33.3 69.8-12.9 6.2-27.5 9.2-44.6 9.2-3.7 0-7.7-.1-11.7-.4-19.8-1.4-35.7-7-48.5-17.3-15.8-12.7-24.8-30.2-27.5-53.4 11.6-.6 23.4-1.2 34.8-1.8l9-.5c0 .1.1.3.1.4.7 3.2 1.4 6.6 2.5 9.8 5.3 16.7 14.6 26.7 28.6 30.4 3 .8 6.1 1.2 9.2 1.2 12.2 0 24.1-5.9 31-15.5 7.9-10.8 7.4-27.4-1.2-39.5-4.8-6.7-10.7-12.9-17-18-9.5-7.5-19.3-14.9-28.8-22.1-10.6-8-21.6-16.4-32.1-24.8-14.3-11.4-23-23-27.3-36.4-9.5-29.3-1.5-65.3 37.5-79.8 12.3-4.6 25-7 37.6-7m0-5c-13.1 0-26.3 2.4-39.4 7.3-41.2 15.3-50.8 54-40.5 86.1 5.2 16.2 16.1 28.5 28.9 38.8 20 16 40.9 31 61 46.9 6.1 4.8 11.6 10.7 16.1 17 7.6 10.7 7.6 24.9 1.2 33.6-6.1 8.4-16.5 13.4-27 13.4-2.7 0-5.3-.3-7.9-1-14-3.7-21-14.1-25.1-27.1-1.4-4.5-2.2-9.1-3.4-13.9-16.6.9-32.8 1.8-49.1 2.6-3.8.2-3.9 2.6-3.6 5.5 2.6 22.6 11.3 42.2 29.4 56.8 14.9 12 32.4 17.1 51.3 18.4 4 .3 8.1.4 12.1.4 16.1 0 31.8-2.5 46.8-9.7 28.2-13.5 44.3-47.2 35.9-75.7-5.6-19.1-17-34.7-31.9-47.3-13.3-11.2-27.8-21.1-42-31.2-10.4-7.4-20.6-15-28.4-25.3-5.2-6.9-8.9-14.4-9.8-23.2-1.5-14.8 6.7-27.9 19.9-30.1 2.8-.5 5.5-.7 8.1-.7 12.9 0 22.6 6.2 27.8 22.8 2.3 7.4 2.9 9.4 7.2 9.4 1.5 0 3.5-.3 6.2-.6 14-1.9 28.1-4 42.4-6.1-.1-2 0-3.6-.3-5.2-4.2-24.5-17.3-42.7-40.3-52.3-15.2-6.4-30.3-9.6-45.6-9.6zM1487 527h.7c0 .3.1.7.1 1.3-.1 59.7-.1 120.4-.1 179.2v52.2h64.2c10.2 0 18.4 0 25.9-.1h.9v.8c-.2 10-.2 21 0 33.5v.7h-.6c-22.2-.1-45-.1-67.9-.1-22.2 0-45.1 0-68 .1h-.7v-.6c.1-87.2.1-176.8 0-266.3v-.7h.6c8.2.1 15.7.2 23 .2 7.5 0 14.9-.1 21.8-.2h.1m0-5h-.3c-7.2.1-14.5.2-21.7.2-7.6 0-15.3-.1-22.9-.2h-.2c-4.1 0-5.4 1.5-5.4 5.7.1 88.8.1 177.6 0 266.3 0 4.3 1.5 5.6 5.7 5.6h.1c22.7-.1 45.3-.1 68-.1 22.6 0 45.2 0 67.9.1 4.4 0 5.6-1.7 5.5-5.8-.2-11.1-.2-22.2 0-33.3.1-4.4-1.4-5.9-5.8-5.9h-.2c-8.6.1-17.2.1-25.8.1h-59.2v-6.5c0-73.2 0-146.5.1-219.7-.1-4.6-1.2-6.5-5.8-6.5zm113.6 5h.1c5.8.1 11.8.1 19.7.1h26.3v232.5h51.6c15.4 0 27.2 0 38.3-.1h1.1v1.1c-.3 11.9-.2 23.6 0 33.5v.5h-.3c-22.4-.1-45.3-.1-68.2-.1-22.4 0-45.3 0-68.2.1h-.4v-.4c.1-88.1.1-177.9 0-266.8v-.4c-.2 0-.1 0 0 0m0-5c-3.9 0-5.2 1.4-5.2 5.4.1 88.9.1 177.9 0 266.8 0 4.1 1.4 5.4 5.4 5.4 22.7 0 45.5-.1 68.2-.1 22.7 0 45.4 0 68.2.1 4.1 0 5.4-1.6 5.3-5.5-.1-11.1-.2-22.2 0-33.3.1-4.6-1.3-6.2-6-6.2h-.2c-12.7.1-25.5.1-38.2.1h-46.5v-226c0-6.4-.2-6.5-6.7-6.5h-24.6c-6.5 0-13.1 0-19.6-.1 0-.1-.1-.1-.1-.1z"/><path class="st1" d="M284.2 565.5v89.1H426l1.2-.9c21.8-11.7 31.4-30.4 31.2-54.7-.2-26.6-10.1-48.1-33.5-61.9-14.2-8.4-30-13.5-46.5-14-29.9-.9-59.8-.7-89.7-1-3.9 0-4.6 1.9-4.6 5.2.1 12.7.1 25.5.1 38.2zm60.6 1.1c10.2.5 20.1.1 29.6 1.6 14.2 2.2 22.4 11.7 23.9 25.9.5 5.3.4 10.8-.4 16.1-2.4 13.9-12.5 23.2-26.8 24.4-8.6.7-17.3.1-26.3.1v-68.1zm211.6 87.2c3.3-18.4 6.6-36.7 9.9-55h.9c3.3 18.3 6.6 36.6 9.9 55h55.7c-9.1-42.4-18.1-84.8-27.1-127.3-.8-3.8-2.4-4.6-5.8-4.5-21.6.1-43.1.2-64.7 0-4.4-.1-6.1 1.1-7.1 5.5l-27.3 126.3h55.6zm245.9-125.9c-27.7-11.6-56.5-12.7-84.7-2.2-41.2 15.3-50.8 54-40.5 86.1 5.2 16.2 16.1 28.5 28.9 38.8 1.7 1.4 3.4 2.7 5.1 4h80c-7.1-5.2-14.4-10.2-21.6-15.4-10.4-7.4-20.6-15-28.4-25.3-5.2-6.9-8.9-14.4-9.8-23.2-1.5-14.8 6.7-27.9 19.9-30.1 17-2.8 29.6 2.2 35.9 22.1 3.2 10 3.1 10.1 13.4 8.8 14-1.9 28.1-4 42.4-6.1-.1-2 0-3.6-.3-5.2-4.2-24.6-17.3-42.7-40.3-52.3zm216.3-.6c.1-4-1.3-5.5-5.4-5.5-47.6.1-95.2.1-142.7 0-4 0-5.4 1.3-5.4 5.4 0 42.5.1 84.9.1 127.4h127c0-3.4.1-6.8.1-10.1.1-4.6-1.5-5.9-6-5.9-19.8.2-39.6.1-59.3.1h-5.5v-71.8h6.2c28.3 0 56.6-.1 84.9.1 4.3 0 6.2-1.1 6.1-5.8-.4-11.4-.3-22.6-.1-33.9zm155.8 7.3c-17.8-9.1-37-12.6-56.8-12.7-24.5-.1-49 .1-73.5-.1-4.6 0-6.3 1.2-6.2 6.1.1 42.2.1 84.5.1 126.7h141.1c15.1-7.8 26-18.9 30.1-34.9 2.2-8.9 3.1-18.4 2.5-27.6-1.7-25.9-13.9-45.6-37.3-57.5zm-22.9 75.4c-2.3 13.6-11.8 22.6-26 24.1-8.9.9-17.9.2-27.2.2v-68.1c10.8.6 21.5.3 31.8 2.2 12.7 2.3 20.5 12 21.8 25.1.5 5.5.5 11.1-.4 16.5zm500.7-80.6c0-6.4-.2-6.5-6.7-6.5-14.7 0-29.4.1-44.1-.1-4 0-5.4 1.3-5.4 5.4 0 42.1.1 84.2.1 126.4h56.2c-.1-41.8-.1-83.5-.1-125.2zm-164.9-6.6c-14.9.3-29.8.2-44.6 0-4.3-.1-5.6 1.4-5.6 5.7 0 42 .1 84.1.1 126.1h56.2c0-41.8 0-83.6.1-125.4-.1-4.7-1.3-6.5-6.2-6.4zm-133.8 0c-21.6.2-43.1.3-64.7-.1-4.8-.1-6.3 1.5-7.3 5.9-8.7 40.6-17.5 81.3-26.3 121.9h55.5c3.1-17.1 6.1-34 9.2-51 .3 0 .5-.1.8-.1 3.1 17 6.1 34 9.2 51.1h55.6c-8.8-41-17.5-82.1-26.2-123.1-.9-3.7-2.2-4.6-5.8-4.6z"/></svg>