<svg xmlns="http://www.w3.org/2000/svg" viewBox="0 0 118.57 100.07"><defs><style>.cls-1{fill:url(#_ÂÁ_Ï_ÌÌ_È_ËÂÌÚ_300)}</style><linearGradient id="_ÂÁ_Ï_ÌÌ_È_ËÂÌÚ_300" x1="17.89" y1="21.55" x2="100.81" y2="104.46" gradientUnits="userSpaceOnUse"><stop offset="0" stop-color="#892890"/><stop offset=".2" stop-color="#813095"/><stop offset=".53" stop-color="#6d48a1"/><stop offset=".93" stop-color="#4b6db6"/><stop offset="1" stop-color="#4475ba"/></linearGradient></defs><title>Asset 2</title><g id="Layer_2" data-name="Layer 2"><path class="cls-1" d="M39.71 75.48a2.75 2.75 0 0 1 .55 1.79 2.83 2.83 0 0 1-1.19 2.43 4.06 4.06 0 0 1-1 .55 6.21 6.21 0 0 1-4.3 0 3 3 0 0 1-1.79-1.74 1.07 1.07 0 0 1 .6-1.24 1 1 0 0 1 1.32 0 .56.56 0 0 1 .14.09c.52.67 1.44.9 2.75.68a1.14 1.14 0 0 0 1-.59.71.71 0 0 0 0-.69 1.92 1.92 0 0 0-1.46-.46 4.47 4.47 0 0 1-3.33-.86 2.9 2.9 0 0 1-1-2.52 2.86 2.86 0 0 1 .6-1.79 3.79 3.79 0 0 1 3.38-1.41H36a4.79 4.79 0 0 1 2.28.5c1 .58 1.48 1.24 1.33 2a1.07 1.07 0 0 1-.87.91 1 1 0 0 1-1.14-.32 2 2 0 0 0-2.05-.81.2.2 0 0 0-.14 0 1.19 1.19 0 0 0-1 .78.92.92 0 0 0 .09.78 3.14 3.14 0 0 0 1.78.32 4.94 4.94 0 0 1 1.1.09 3.16 3.16 0 0 1 2.33 1.51zM35.82 98a1.11 1.11 0 0 1-.46 1.1 4.51 4.51 0 0 1-1.64.77 10.71 10.71 0 0 1-2.29.09 4 4 0 0 1-2.29-.77A5.53 5.53 0 0 1 27 94.76v-.51a5.44 5.44 0 0 1 2.11-4.44A4.58 4.58 0 0 1 31.7 89a4.38 4.38 0 0 1 1.93.46 5 5 0 0 1 2.19 4.58v.46a1.2 1.2 0 0 1-.09.45 1.14 1.14 0 0 1-1.14.74h-5a2 2 0 0 0 1.83 1.78h.41a4.49 4.49 0 0 0 2-.27 1.22 1.22 0 0 1 1.26-.2 1.17 1.17 0 0 1 .73 1zm-6.22-4.71h3.75v-.09a1.87 1.87 0 0 0-.92-1.51 1.44 1.44 0 0 0-.73-.18h-.27a1.8 1.8 0 0 0-.92.27 2.21 2.21 0 0 0-.91 1.51zm16.8 4.21a1.35 1.35 0 0 1-.92 0 .7.7 0 0 1-.46-.23 1.35 1.35 0 0 1-.22-.92v-4.71h1.51a1.08 1.08 0 0 0 1.09-.59 1 1 0 0 0 0-1.19 1.17 1.17 0 0 0-1.09-.64H44.8v-3.16a1 1 0 0 0-.32-.87 1.24 1.24 0 0 0-.92-.37 1.76 1.76 0 0 0-.55.09 1.3 1.3 0 0 0-.64 1.15v3.16h-.73a1.1 1.1 0 0 0-1.06.64 1.07 1.07 0 0 0 0 1.19 1 1 0 0 0 1.06.59h.73v4.76a3.73 3.73 0 0 0 .82 2.52 3.34 3.34 0 0 0 3 1.1l.87-.14A1.14 1.14 0 0 0 48 99a1.17 1.17 0 0 0-.27-1.19 1.21 1.21 0 0 0-1.33-.31zm4.21-19.36a1.42 1.42 0 0 1-.92 0 .69.69 0 0 1-.45-.23A1.31 1.31 0 0 1 49 77v-4.72h1.51a1.11 1.11 0 0 0 1.1-.6 1.07 1.07 0 0 0 0-1.19 1.21 1.21 0 0 0-1.1-.64H49v-3.16a1.07 1.07 0 0 0-.32-.87 1.27 1.27 0 0 0-.92-.36 1.81 1.81 0 0 0-.55.09 1.28 1.28 0 0 0-.64 1.14v3.16h-.73a1.09 1.09 0 0 0-1.05.64 1 1 0 0 0 0 1.19 1 1 0 0 0 1.05.6h.73V77a3.73 3.73 0 0 0 .83 2.52 3.35 3.35 0 0 0 3 1.1l.87-.14a1.26 1.26 0 0 0 .59-2.06 1.18 1.18 0 0 0-1.25-.28zm14.1 11.26a1.08 1.08 0 0 0-1.33-.09 1.31 1.31 0 0 0-.59 1.42v5.63a.47.47 0 0 1 0 .14c-.12.7-.43 1.06-.91 1.09-.95 0-1.5-.15-1.65-.55a2.27 2.27 0 0 1-.19-.59L60 95a1.5 1.5 0 0 0-.46-1.37 1.19 1.19 0 0 0-1.05-.23 1.17 1.17 0 0 0-.87.87v2.15a.14.14 0 0 1 0 .1c-.13.7-.43 1.06-.92 1.09-.91.1-1.46-.09-1.65-.55a1.93 1.93 0 0 1-.18-.59v-6.2a1 1 0 0 0-.13-.5 1.08 1.08 0 0 0-1.06-.6.94.94 0 0 0-.68.18 1.17 1.17 0 0 0-.51 1.24v6a2 2 0 0 0 .1.64 3.33 3.33 0 0 0 1.78 2.38 3.6 3.6 0 0 0 1.42.46 3.84 3.84 0 0 0 3.16-1 3.9 3.9 0 0 0 2.61 1 3.66 3.66 0 0 0 3-1.33 4.36 4.36 0 0 0 .87-3.11v-5.41a1.08 1.08 0 0 0-.72-.82zM9.11 69.72a3.83 3.83 0 0 0-2.61 1 3.89 3.89 0 0 0-2.65-1 4.47 4.47 0 0 0-1.29.18A3.58 3.58 0 0 0 0 73.47v5.91a1.19 1.19 0 0 0 .59 1.05 1.16 1.16 0 0 0 1.24 0 1.07 1.07 0 0 0 .6-1.05v-5.91a2.22 2.22 0 0 1 .32-.87 1.17 1.17 0 0 1 1.1-.46 2 2 0 0 1 .68.09 1.41 1.41 0 0 1 .73 1.24V76a1.09 1.09 0 0 0 .6 1 1.12 1.12 0 0 0 1.24 0 1.16 1.16 0 0 0 .59-1v-2.53A2.07 2.07 0 0 1 8 72.6a1.21 1.21 0 0 1 1.14-.46 2 2 0 0 1 .69.09 1.43 1.43 0 0 1 .73 1.24v5.91a1.19 1.19 0 0 0 .59 1.05 1.16 1.16 0 0 0 1.24 0 1.18 1.18 0 0 0 .6-1.05v-5.91a3.44 3.44 0 0 0-.83-2.38 3.64 3.64 0 0 0-3.05-1.37zm17.15.18a1.22 1.22 0 0 0-1.2 0 1.26 1.26 0 0 0-.64 1.1v5.26a4 4 0 0 1-.09.92 1.4 1.4 0 0 1-.82.73 2.12 2.12 0 0 1-1 .32 1.6 1.6 0 0 1-.91-.32 3.12 3.12 0 0 1-1-2.7V71a1.16 1.16 0 0 0-.37-.87 1.21 1.21 0 0 0-.91-.37 1 1 0 0 0-.46.09 1.16 1.16 0 0 0-.75 1.15v4.21a6.93 6.93 0 0 0 .09 1.14 4.66 4.66 0 0 0 3.48 4.22 4.22 4.22 0 0 0 2.74-.37c0 1-.13 1.68-.41 1.92a2.29 2.29 0 0 1-1.51.32h-.09a5.31 5.31 0 0 1-2.47-.44 1 1 0 0 0-1.19 0 1.08 1.08 0 0 0-.64 1 1.14 1.14 0 0 0 .59 1 5.81 5.81 0 0 0 3.85.78 4.25 4.25 0 0 0 3.16-1A5.26 5.26 0 0 0 26.9 80v-9a1.26 1.26 0 0 0-.64-1.1zm-8.75 19.45a4 4 0 0 0-3.34 1.47 4.3 4.3 0 0 0-1 2.79v5.22a1.25 1.25 0 0 0 .09.46 1.11 1.11 0 0 0 1.1.73.78.78 0 0 0 .46-.14 1.09 1.09 0 0 0 .73-1v-5.27a2.1 2.1 0 0 1 0-.41 1.73 1.73 0 0 1 1.88-1.47 1.86 1.86 0 0 1 1.92 1.88v5.22a1.09 1.09 0 0 0 .1.46 1 1 0 0 0 1 .73 1.15 1.15 0 0 0 .5-.14 1.08 1.08 0 0 0 .69-1v-5.27a8.22 8.22 0 0 0-.18-1.28q-.65-2.65-3.95-2.98zm67.16-24a1.1 1.1 0 0 0-1 .82.91.91 0 0 0-.09.41v.19a1.18 1.18 0 0 0 .6 1 1.14 1.14 0 0 0 1.23 0 1.18 1.18 0 0 0 .6-1v-.17a1.35 1.35 0 0 0-.41-1 1.07 1.07 0 0 0-.93-.23zm15.7 10.89V71a1.2 1.2 0 0 0-.64-1.1 1.07 1.07 0 0 0-1.19 0 1.2 1.2 0 0 0-.64 1.1v5.22a2.59 2.59 0 0 1-.23 1.06l-.14.22a1.65 1.65 0 0 1-1.55.69 2.69 2.69 0 0 1-.92-.14 1.65 1.65 0 0 1-.78-.77 2.22 2.22 0 0 1-.23-1.06V71a1.24 1.24 0 0 0-.36-.91 1.34 1.34 0 0 0-.92-.37 1 1 0 0 0-.5.14 1.15 1.15 0 0 0-.69 1.14v5.22a4.67 4.67 0 0 0 .55 2.15 3.73 3.73 0 0 0 .41.6A4.06 4.06 0 0 0 96 80.66a4.18 4.18 0 0 0 1.55-.28 4.37 4.37 0 0 0 2.82-4.12zm17.38-5.17a3.66 3.66 0 0 0-3-1.37 3.86 3.86 0 0 0-2.61 1 3.88 3.88 0 0 0-2.65-1 4.35 4.35 0 0 0-1.28.18 3.59 3.59 0 0 0-2.57 3.57v5.91a1.18 1.18 0 0 0 .6 1.05 1.14 1.14 0 0 0 1.23 0 1.07 1.07 0 0 0 .6-1.05v-5.89a2.39 2.39 0 0 1 .32-.87 1.17 1.17 0 0 1 1.1-.46 2.05 2.05 0 0 1 .69.09 1.43 1.43 0 0 1 .73 1.24V76a1.1 1.1 0 0 0 .59 1 1.12 1.12 0 0 0 1.24 0 1.14 1.14 0 0 0 .59-1v-2.53a2.4 2.4 0 0 1 .28-.87 1.21 1.21 0 0 1 1.14-.46 2 2 0 0 1 .69.09 1.41 1.41 0 0 1 .73 1.24v5.91a1.18 1.18 0 0 0 .6 1.05 1.14 1.14 0 0 0 1.23 0 1.18 1.18 0 0 0 .6-1.05v-5.91a3.43 3.43 0 0 0-.85-2.38zm-32.35 9.4a1.15 1.15 0 0 0 .6-1V71a1.19 1.19 0 0 0-.37-.87 1.07 1.07 0 0 0-.87-.37 1 1 0 0 0-1.05.73 1 1 0 0 0-.14.51v8.42a1.15 1.15 0 0 0 .6 1 1.1 1.1 0 0 0 1.23.05zm-13 0a1.17 1.17 0 0 0 .55-1v-5.31a3.25 3.25 0 0 1 .27-1.06 1 1 0 0 0 .14-.23 1.74 1.74 0 0 1 1.56-.64 2.81 2.81 0 0 1 .82.09 1.28 1.28 0 0 1 .83.78 1.33 1.33 0 0 0 1 .78 1.2 1.2 0 0 0 1.19-.55 1.27 1.27 0 0 0 0-1.33 4.15 4.15 0 0 0-3.84-2.24 3.92 3.92 0 0 0-1.56.32 4.21 4.21 0 0 0-2.79 4.08v5.26a1.16 1.16 0 0 0 .59 1 1.12 1.12 0 0 0 1.24.05zm16.44 8.65a3.77 3.77 0 0 0-1.56.33 4.19 4.19 0 0 0-2.79 4.07v5.26a1.17 1.17 0 0 0 .59 1.06 1.16 1.16 0 0 0 1.24 0 1.22 1.22 0 0 0 .55-1.06v-5.26a3.13 3.13 0 0 1 .27-1 2.38 2.38 0 0 0 .14-.23 1.7 1.7 0 0 1 1.56-.64 2.81 2.81 0 0 1 .82.09 1.2 1.2 0 0 1 .82.78 1.36 1.36 0 0 0 1 .77 1.19 1.19 0 0 0 1.19-.54 1.27 1.27 0 0 0 0-1.33 4.15 4.15 0 0 0-3.83-2.3zM65.35 78.64a1.1 1.1 0 0 1-.46 1.1 4.48 4.48 0 0 1-1.65.78 11.32 11.32 0 0 1-2.28.09 4 4 0 0 1-2.29-.78 5.47 5.47 0 0 1-2.11-4.44v-.5a5.38 5.38 0 0 1 2.11-4.44 4.56 4.56 0 0 1 2.56-.78 4.18 4.18 0 0 1 1.92.46 5 5 0 0 1 2.2 4.58v.45a1.22 1.22 0 0 1-.09.46 1.15 1.15 0 0 1-1.15.73h-5A2.07 2.07 0 0 0 61 78.14h.41a4.3 4.3 0 0 0 2-.28 1.22 1.22 0 0 1 1.24-.22 1.15 1.15 0 0 1 .7 1zm-6.23-4.71h3.76v-.09a1.89 1.89 0 0 0-.88-1.52 1.44 1.44 0 0 0-.73-.18H61a1.73 1.73 0 0 0-.92.28 2.24 2.24 0 0 0-.96 1.51zm20.19 20.64c0 2.23-.68 3.8-2.06 4.72a4.87 4.87 0 0 1-5.4-.18 5.5 5.5 0 0 1-1.69-4.54c0-2.16.68-3.71 2.06-4.62a4.15 4.15 0 0 1 2.47-.78 4.55 4.55 0 0 1 2.56.73 5.47 5.47 0 0 1 2.06 4.67zm-2.38 0c0-2-.74-3-2.24-3a2 2 0 0 0-1.14.36 2.86 2.86 0 0 0-1 2.61v.19c0 1.92.72 2.88 2.15 2.88s2.23-.99 2.23-3.04zm25.41-1.19l2.84-2.65a3.84 3.84 0 0 0 .27-.42 1.11 1.11 0 0 0-.23-1.32 1.47 1.47 0 0 0-.36-.28 1.21 1.21 0 0 0-1.37.23l-3.9 3.71v-6.73a1.19 1.19 0 0 0-.36-.87 1.23 1.23 0 0 0-.87-.37 1 1 0 0 0-.51.14 1.13 1.13 0 0 0-.68 1.1v12.86a1.19 1.19 0 0 0 .59 1.06 1.16 1.16 0 0 0 1.24 0 1.17 1.17 0 0 0 .59-1.06V96l1-.91 3.25 4.44a.83.83 0 0 0 .32.27 1.1 1.1 0 0 0 1.37 0 1.94 1.94 0 0 0 .32-.32 1.1 1.1 0 0 0 0-1.38zM96.28 60.3l-16.81-17a1.76 1.76 0 0 0-2.49 0l-16.82 17a1.5 1.5 0 0 1-1 .43 1.46 1.46 0 0 1-1-.43l-16.82-17a1.76 1.76 0 0 0-2.49 0L22 60.3a1.49 1.49 0 0 1-2.06 0L2 42.26a3.21 3.21 0 0 1 0-4.52L39 .43a1.5 1.5 0 0 1 2.07 0l16.81 17a1.76 1.76 0 0 0 2.49 0l16.81-17a1.5 1.5 0 0 1 1-.43 1.48 1.48 0 0 1 1 .43l37 37.32a3.2 3.2 0 0 1 0 4.51l-17.88 18a1.45 1.45 0 0 1-2.06 0zm1.85-31.67l8.42 16a1.76 1.76 0 0 0 2.8.42l3.79-3.82a1.75 1.75 0 0 0 0-2.47l-11.33-11.42a1.74 1.74 0 0 0-1.29-.52h-1.35a1.22 1.22 0 0 0-1.04 1.81zM70.19 13l1.59 5.11a1.76 1.76 0 0 0 2.9.74l6.54-6.36a1.74 1.74 0 0 0 .48-1.7l-1.22-4.6a1.71 1.71 0 0 0-.48-.83l-.57-.58a1.76 1.76 0 0 0-2.49 0l-6.35 6.41a1.74 1.74 0 0 0-.4 1.81zm-10.4 17.82a1.75 1.75 0 0 0 1.07 1.75l1.2.5a1.74 1.74 0 0 0 1.29 0l7.46-2.8a1.76 1.76 0 0 0 1.06-2.16l-3.45-11.04a1.75 1.75 0 0 0-2.92-.72L61 20.91a1.74 1.74 0 0 0-.51 1.1zm-4.27 2.68a1.75 1.75 0 0 0-2.24.83l-1.59 3.16a1.76 1.76 0 0 0 .88 2.4l8 3.45a1.4 1.4 0 0 0 1.92-1.55l-1-4.92a1.72 1.72 0 0 0-1-1.28zm-7.39-18.31l3.08 12.58a1.73 1.73 0 0 0 1 1.2l2.39 1a1.75 1.75 0 0 0 2.42-1.48l.51-6.42a1.74 1.74 0 0 0-.5-1.37l-6.7-6.76a1.33 1.33 0 0 0-2.2 1.25zm-11.64 7.22l8.39 3.5a1.76 1.76 0 0 0 2.38-2L43.14 7a1.75 1.75 0 0 0-.45-.82l-1.41-1.4a1.76 1.76 0 0 0-2.49 0L37.68 5.9a1.72 1.72 0 0 0-.49 1l-1.76 13.66a1.76 1.76 0 0 0 1.06 1.85zM21.05 25.3L31.28 22a1.76 1.76 0 0 0 1.21-1.45l1-7.47a1.16 1.16 0 0 0-2-1l-11.43 11.6a1 1 0 0 0 .99 1.62zM10 44.27L20.78 38a1.75 1.75 0 0 0 .87-1.56l-.14-5.86a1.74 1.74 0 0 0-2.28-1.62l-6 1.9a1.84 1.84 0 0 0-.72.44l-7.4 7.47a1.75 1.75 0 0 0 0 2.47L7.83 44a1.76 1.76 0 0 0 2.17.27zm12.11 11.24l-.28-11.77a1.75 1.75 0 0 0-2.63-1.48l-6.33 3.68a1.75 1.75 0 0 0-.37 2.75l7.61 7.68a1.17 1.17 0 0 0 2-.86zm12.56-15.75l-7.74-2.59a1.76 1.76 0 0 0-2.31 1.71l.29 11.73a1.07 1.07 0 0 0 1.84.73l8.61-8.69a1.75 1.75 0 0 0-.69-2.89zM36.62 35l-3.25-8.8a1.76 1.76 0 0 0-2.18-1.07l-5.59 1.78a1.74 1.74 0 0 0-1.22 1.71l.08 3.44a1.75 1.75 0 0 0 1.2 1.62l9.25 3.09A1.37 1.37 0 0 0 36.62 35zm9.94 6.25l3.92-7.82a1.76 1.76 0 0 0-.9-2.4l-9.67-4a1.75 1.75 0 0 0-2.32 2.22l3.56 9.64a1.88 1.88 0 0 0 .4.63l2.19 2.21a1.76 1.76 0 0 0 2.82-.49zm17.73 9.67l-.42-2.16a1.77 1.77 0 0 0-1-1.28l-11.77-5a1.75 1.75 0 0 0-2.26.82l-.62 1.24a1.75 1.75 0 0 0 .32 2L57.88 56a1.76 1.76 0 0 0 2.49 0l3.44-3.47a1.75 1.75 0 0 0 .48-1.62zM75 38.77l-4.13-4.26a1.74 1.74 0 0 0-1.87-.42l-3.27 1.22a1.75 1.75 0 0 0-1.1 2l1.69 8.77a1.76 1.76 0 0 0 3 .9L75 41.22a1.74 1.74 0 0 0 0-2.45zM82.55 29l-7 2.63a1.75 1.75 0 0 0-.64 2.86L79.25 39l1.36 1.37a1.75 1.75 0 0 0 3-1l1.3-8.48A1.75 1.75 0 0 0 82.55 29zM85 23.29l-1.73-6.59a1.05 1.05 0 0 0-1.75-.49l-7.15 6.94a1.76 1.76 0 0 0-.45 1.78l.62 2A1.75 1.75 0 0 0 76.83 28l7.11-2.67A1.74 1.74 0 0 0 85 23.29zm.7-8.71l2.2 8.31a1.76 1.76 0 0 0 1.74 1.31l4.76-.13a1.75 1.75 0 0 0 1.19-3l-7.68-7.76a1.32 1.32 0 0 0-2.19 1.27zm4.8 32.93l7.77-10.19a1.74 1.74 0 0 0 .15-1.87L94.48 28a1.75 1.75 0 0 0-1.6-.94l-3 .08a1.76 1.76 0 0 0-1.69 1.49l-2.44 16a1.75 1.75 0 0 0 .48 1.5l1.63 1.64a1.76 1.76 0 0 0 2.64-.26zM96.06 56a1.77 1.77 0 0 0 2.5 0l6.06-6.12a1.76 1.76 0 0 0 .3-2.05l-3.2-6.09a1.76 1.76 0 0 0-3-.24L92.27 50a1.76 1.76 0 0 0 .15 2.3z" id="Layer_1-2" data-name="Layer 1"/></g></svg>