<svg xmlns="http://www.w3.org/2000/svg" viewBox="0 0 1103.8 431.15"><defs><style>.cls-1{fill:#3cba8d}.cls-2{fill:#232c5a}</style></defs><title>资源 21@2x11</title><g id="图层_2" data-name="图层 2"><g id="图层_1-2" data-name="图层 1"><path class="cls-1" d="M105.92 193h15.2v67.57h-15.2zm147.77-22.4h15.2v67.57h-15.2zm-137.95-5.5l-.16-.1-7.6 13.26 57.96 33.69.16.09 7.61-13.25-57.97-33.69zm93.13 54.13l-.16-.1-7.6 13.26 57.96 33.69.17.09 7.6-13.25-57.97-33.69z"/><path class="cls-2" d="M183.24 0h8.34v23.33h-8.34zm-35.65 25.57l20.07 11.66 4.17-7.27-20.07-11.66-4.17 7.27zm75.47-7.27l-20.08 11.66 4.18 7.27 20.07-11.66-4.17-7.27zm-115.1 89.03h11.12v44.8h-11.12zm-53.42 37.51l38.54 22.4 5.56-9.7-38.54-22.4-5.56 9.7zm5.56 65.33l38.54-22.4-5.56-9.7-38.54 22.4 5.56 9.7zM181.85 64.4h11.12v44.8h-11.12zm-53.42 37.51l38.53 22.4 5.57-9.7-38.54-22.4-5.56 9.7zm5.56 65.33l38.54-22.4-5.57-9.7-38.53 22.4 5.56 9.7zm47.86-16.98h11.12v44.8h-11.12zm64.54 7.28l-38.54-22.4-5.56 9.7 38.54 22.4 5.56-9.7zm-5.56-65.33l-38.54 22.4 5.56 9.7 38.54-22.4-5.56-9.7zm-58.97 143.91h11.12v44.8h-11.12zm-53.42 37.51l38.53 22.4 5.57-9.7L134 263.94l-5.56 9.69zm5.56 65.33l38.54-22.4-5.57-9.69-38.53 22.39 5.56 9.7zm47.86-16.98h11.12v44.8h-11.12zm64.54 7.28l-38.54-22.39-5.56 9.69 38.54 22.4 5.56-9.7zm-5.56-65.32l-38.54 22.39 5.56 9.7 38.54-22.4-5.56-9.69zm14.9 15.11h11.12v44.8h-11.12zm64.55 7.28l-38.54-22.39-5.56 9.69 38.53 22.4 5.57-9.7zM314.72 221l-38.53 22.4 5.56 9.7 38.54-22.4-5.57-9.7zm-260.18 9.7l38.54 22.4 5.56-9.7L60.1 221l-5.56 9.7zm53.42 48.35h11.12v44.8h-11.12zm147.77-171.72h11.12v44.8h-11.12zm-47.85 102.84l38.53-22.4-5.56-9.7-38.54 22.4 5.57 9.7zm112.39-9.7l-38.53-22.4-5.56 9.7 38.53 22.4 5.56-9.7zm-5.56-65.33l-38.53 22.4 5.56 9.7 38.53-22.4-5.56-9.7zM166.94 221l-38.54 22.4 5.57 9.7 38.53-22.4-5.56-9.7zm-73.89 42.94l-38.53 22.39 5.56 9.7 38.54-22.4-5.57-9.69zm16.39-221.01h8.34v23.33h-8.34zM73.79 68.5l20.07 11.67 4.18-7.28-20.07-11.66-4.18 7.27zm98.04-10.73l-4.17-7.28-38.47 22.4 4.17 7.28 38.47-22.4zM35.65 85.86h8.34v23.33h-8.34zM0 111.43l20.07 11.67 4.17-7.28-20.07-11.66L0 111.43zm4.17 43.86l20.07-11.66-4.17-7.28L0 148.02l4.17 7.27zm93.87-54.59l-4.18-7.28-38.46 22.4 4.17 7.28 38.47-22.4zm-62.39 49.56h8.34v44.8h-8.34zM0 197.29l20.07 11.67 4.17-7.27-20.07-11.67L0 197.29zm4.17 43.87l20.07-11.67-4.17-7.27L0 233.88l4.17 7.28zm31.48-5.04h8.34v44.8h-8.34zM0 283.15l20.07 11.67 4.17-7.27-20.07-11.67L0 283.15zm4.17 43.87l20.07-11.67-4.17-7.27L0 319.75l4.17 7.27zm31.48-5.04h8.34v23.33h-8.34zm23.92-13.9l-4.17 7.27 38.46 22.4 4.18-7.27-38.47-22.4zm18.4 61.87l20.07-11.67-4.18-7.27-20.07 11.67 4.18 7.27zm31.47-5.04h8.34v23.33h-8.34zm23.92-13.9l-4.17 7.27 38.49 22.37 4.17-7.27-38.49-22.37zm18.42 61.84l20.07-11.66-4.17-7.28-20.07 11.67 4.17 7.27zm31.47-5.03h8.34v23.33h-8.34zm44-2.24l-20.08-11.67-4.17 7.28 20.07 11.66 4.18-7.27zm18.48-47.3l-4.17-7.27L203 373.38l4.17 7.27 38.56-22.37zm11.4 6.63h8.34v23.33h-8.34zm44-2.23l-20.08-11.67-4.17 7.27 20.07 11.67 4.18-7.27zm18.47-47.33l-4.17-7.27-38.55 22.4 4.17 7.27 38.55-22.4zm11.41 6.63h8.34v23.33h-8.34zm43.99-2.23l-20.07-11.67-4.17 7.27 20.07 11.67 4.17-7.27zm-4.17-43.87l-20.07 11.67 4.17 7.27L375 283.15l-4.17-7.27zm-39.82-39.76h8.34v44.8h-8.34zm43.99-2.24l-20.07-11.66-4.17 7.27 20.07 11.67 4.17-7.28zm-4.17-43.86l-20.07 11.67 4.17 7.27L375 197.29l-4.17-7.27zM331.01 85.96h8.34v23.33h-8.34zm0 64.39h8.34v44.7h-8.34zm43.99-2.24l-20.07-11.66-4.17 7.27 20.07 11.67 4.17-7.28zm-4.17-43.86l-20.07 11.67 4.17 7.27L375 111.52l-4.17-7.27zM257.1 42.99h8.34v23.33h-8.34zm-49.94 7.5l-4.18 7.28 38.54 22.46 4.18-7.27-38.54-22.47zm73.86 43l-4.17 7.27 38.58 22.43 4.17-7.27-38.58-22.43zm15.9-32.2l-20.07 11.67 4.17 7.27 20.07-11.67-4.17-7.27zm237.69 93.36v83.43l-80.8-88.94v131.91h18.44v-83.56l80.8 88.52V154.65h-18.44zm65.02 110.04v-44.4h49.65v-16.36h-49.65v-32.91h54.6v-16.37h-72.9v126.4h74.69v-16.36h-56.39zm128.83-35.35c16.53-5.08 27.17-19.51 27.17-37 0-22.22-16-37.73-39-37.73h-38v126.4h18.44v-50.48h11.63l34.21 50.3.15.22h22zm8.73-37c0 7-2.14 12.88-6 16.66-3.73 3.62-9 5.54-15.18 5.54h-18.9V171h19.55c3.62 0 8.85.68 13.17 3.92 4.88 3.6 7.35 9.47 7.35 17.47zm124.25-37.69l-34.38 85.85-38.21-85.54-.13-.31h-20.05l58.39 130.75 54.57-130.75h-20.19z"/><path class="cls-1" d="M947.79 153.41c-34.44 0-60.41 27.65-60.41 64.31 0 37.42 25.46 64.58 60.55 64.58s60.41-27.16 60.41-64.58c0-36.67-26.03-64.31-60.55-64.31zm42.1 64.31c0 14.25-5.47 28.15-14.64 37.19a37.19 37.19 0 0 1-27.46 11c-20.93-.43-42.11-17.13-42.11-48.22a52.58 52.58 0 0 1 11.75-33.29c7.9-9.45 18.68-14.65 30.35-14.65 26.02.02 42.11 24.91 42.11 47.96z"/><path class="cls-2" d="M1068.81 205.06c-6.94-2.52-23.07-9.33-23.07-18.22 0-10.53 7.39-17.08 19.29-17.08 7.35 0 14.4 4 18.13 8l.31.33 13.64-10.57-.36-.4a44 44 0 0 0-31.75-13.85c-28.48 0-38.63 17.42-38.63 33.72 0 17.51 16.51 26.71 32.66 33.4 19.6 8.16 25.26 13.62 25.26 24.31 0 6.11-1.85 11.11-5.49 14.87-4.26 4.22-10.42 6.36-18.29 6.36a25.13 25.13 0 0 1-12.76-3.4c-4.68-2.64-8.4-7-11.06-12.92l-.17-.37-17.86 4.1.21.54c9.14 23.48 28.15 28.41 42.5 28.41 25.35 0 42.39-15.11 42.39-37.59.04-18.47-10.76-30.7-34.95-39.64z"/></g></g></svg>