<svg width="318" height="339" viewBox="0 0 318 339" xmlns="http://www.w3.org/2000/svg"><title>opentoken_logo</title><g fill="#14D4C8" fill-rule="evenodd"><path d="M158.553 319.302C70.987 319.302 0 247.824 0 159.65 0 71.478 70.987 0 158.553 0s158.553 71.478 158.553 159.65c0 88.174-70.987 159.652-158.553 159.652zm-1.257-23.418c74.935 0 135.682-61.168 135.682-136.622 0-75.454-60.747-136.621-135.682-136.621-74.935 0-135.682 61.167-135.682 136.621 0 75.454 60.747 136.622 135.682 136.622z"/><path d="M181.675 338.427c6.205-43.24 1.192-66.536-2.576-89.084 43.828-12.32 81.636-48.5 86.306-94.669-60.801-4.386-80.006 8.393-95.38 66.054 0-115.317-76.095-114.864-105.669-120.946-22.143 77.734 15.633 126.911 75.485 148.232 0 0 4.526 1.12 10.715 1.99 3.773 21.05 8.843 42.105 0 88.423h31.12z"/></g></svg>