<svg id="Livello_1" xmlns="http://www.w3.org/2000/svg" viewBox="0 0 511 167"><style>.st0{fill:#33b1f5}.st1{fill:#475965}.st2{fill:none;stroke:#33b1f5;stroke-width:8;stroke-miterlimit:10}</style><switch><g><path class="st0" d="M198.9 55.8c.8-.1 1.7-.2 2.7-.3l3.3-.3c1.2-.1 2.3-.1 3.5-.2 1.2-.1 2.3-.1 3.3-.1 2.8 0 5.5.3 8 .8 2.5.6 4.8 1.5 6.7 2.9 1.9 1.4 3.5 3.2 4.6 5.5 1.1 2.3 1.7 5.1 1.7 8.6 0 3.6-.6 6.6-1.8 9-1.2 2.4-2.8 4.3-4.8 5.7-2 1.4-4.2 2.5-6.7 3-2.5.6-5.1.9-7.7.9h-2.6c-.7 0-1.6-.1-2.4-.2v20c-1.2.2-2.5.2-3.9.2h-2c-.7 0-1.3-.1-2-.2V55.8zm7.9 28.5c.8.1 1.5.2 2.2.2.6.1 1.5.1 2.7.1 1.6 0 3.2-.2 4.7-.5 1.6-.3 3-.9 4.2-1.8 1.2-.9 2.2-2.1 3-3.6.7-1.5 1.1-3.5 1.1-5.9 0-2.1-.3-3.9-1-5.3-.6-1.4-1.5-2.6-2.7-3.5-1.1-.9-2.5-1.5-4.1-1.8-1.6-.4-3.3-.5-5.2-.5-1.9 0-3.6.1-5 .2v22.4zm35.1-12.6c.6-.1 1.1-.2 1.6-.2s1.1-.1 1.6-.1c.6 0 1.1 0 1.7.1.6.1 1.1.1 1.5.2.2.8.3 1.8.5 3 .2 1.3.2 2.3.2 3.2 1.1-1.7 2.5-3.3 4.3-4.5s4-1.9 6.8-1.9h1.3c.4 0 .8.1 1.1.1.1.5.2 1 .2 1.5.1.5.1 1.1.1 1.6 0 .6 0 1.3-.1 1.9-.1.7-.2 1.3-.3 1.9-.4-.1-.8-.2-1.3-.2h-1c-1.4 0-2.7.2-4 .6-1.3.4-2.4 1.1-3.4 2-1 1-1.8 2.3-2.4 4-.6 1.7-.9 3.9-.9 6.5V111c-.6.1-1.2.2-1.9.2s-1.3.1-1.9.1c-.6 0-1.2 0-1.9-.1s-1.3-.1-2-.2V71.7zm43.5 40.4c-3.1 0-5.8-.5-8.1-1.6s-4.2-2.5-5.8-4.4-2.7-4-3.4-6.5c-.7-2.5-1.1-5.2-1.1-8.2s.4-5.6 1.1-8.2c.7-2.5 1.9-4.7 3.4-6.5s3.5-3.3 5.8-4.4c2.3-1.1 5-1.6 8.1-1.6 3.1 0 5.8.5 8.1 1.6s4.2 2.5 5.8 4.4 2.7 4 3.4 6.5c.7 2.5 1.1 5.2 1.1 8.2s-.4 5.6-1.1 8.2c-.7 2.5-1.9 4.7-3.4 6.5s-3.5 3.3-5.8 4.4c-2.4 1.1-5.1 1.6-8.1 1.6zm0-6c3.5 0 6.2-1.3 7.9-3.8 1.7-2.6 2.5-6.1 2.5-10.7s-.8-8.1-2.5-10.7-4.3-3.8-7.9-3.8c-3.5 0-6.1 1.3-7.8 3.8-1.7 2.5-2.5 6.1-2.5 10.7s.8 8.1 2.5 10.7c1.6 2.5 4.2 3.8 7.8 3.8zm22-34.4c.7-.1 1.5-.2 2.2-.2.8 0 1.5-.1 2.1-.1.7 0 1.4 0 2.2.1.8.1 1.5.1 2 .2l10.8 32.6 10.9-32.6c.6-.1 1.2-.2 1.9-.2s1.4-.1 2.1-.1c.6 0 1.2 0 1.9.1s1.4.1 2.2.2l-15.4 39.5c-.7.1-1.3.2-2 .2s-1.3.1-1.8.1c-.6 0-1.2 0-1.8-.1-.6-.1-1.3-.1-1.9-.2l-15.4-39.5zM374 85.2c0-3-.8-5.1-2.3-6.3-1.5-1.2-3.8-1.8-6.7-1.8-1.8 0-3.5.1-5 .4-1.6.3-3.1.7-4.6 1.1-1-1.7-1.5-3.7-1.5-6.1 1.7-.6 3.7-1 5.8-1.3 2.1-.3 4.1-.5 6.1-.5 5.1 0 9 1.2 11.7 3.5 2.7 2.3 4 6.1 4 11.2v24.7c-1.8.4-4 .8-6.5 1.3-2.6.4-5.2.7-7.9.7-2.5 0-4.8-.2-6.8-.7-2-.5-3.7-1.2-5.2-2.2-1.4-1-2.5-2.3-3.3-3.9-.8-1.6-1.2-3.5-1.2-5.8 0-2.2.4-4.1 1.3-5.8.9-1.7 2.1-3.1 3.7-4.2 1.5-1.1 3.3-1.9 5.3-2.5s4.1-.8 6.3-.8c1.6 0 3 0 4 .1 1.1.1 1.9.2 2.7.3v-1.4zm0 7.5c-.8-.1-1.7-.2-2.9-.3-1.2-.1-2.2-.2-3-.2-3.2 0-5.6.6-7.3 1.8-1.7 1.2-2.5 3-2.5 5.4 0 1.5.3 2.7.8 3.6.6.9 1.3 1.5 2.1 2s1.8.7 2.8.8c1 .1 2 .2 2.9.2 1.2 0 2.4-.1 3.7-.2 1.3-.1 2.4-.3 3.3-.6V92.7zm18.9-37.9c.6-.1 1.2-.2 1.9-.2.7-.1 1.3-.1 1.9-.1.6 0 1.2 0 1.9.1s1.4.1 1.9.2v21.7c.9-1.5 2.4-2.9 4.3-4 2-1.1 4.3-1.7 7.1-1.7 2.4 0 4.5.4 6.5 1.2 2 .8 3.7 2 5.2 3.6 1.4 1.6 2.6 3.7 3.3 6.2.8 2.5 1.2 5.4 1.2 8.8 0 6.8-1.9 12.1-5.7 15.9-3.8 3.8-9.3 5.7-16.5 5.7-2.3 0-4.6-.2-7-.7-2.4-.4-4.4-.9-6-1.5V54.8zm7.6 50c.9.3 1.9.5 3 .7 1.1.1 2.1.2 3.3.2 1.9 0 3.7-.3 5.3-.9 1.6-.6 3-1.5 4.2-2.7 1.2-1.2 2.1-2.7 2.8-4.6s1-4.1 1-6.7c0-4.3-.7-7.6-2.2-9.9-1.5-2.4-4-3.5-7.4-3.5-1.2 0-2.3.2-3.5.6-1.2.4-2.2 1-3.2 1.8s-1.8 2-2.3 3.4c-.6 1.4-.9 3.1-.9 5.1v16.5zm37.7-50c.6-.1 1.2-.2 1.9-.2.7-.1 1.3-.1 1.9-.1.6 0 1.2 0 1.9.1s1.3.1 1.9.2v44.5c0 1.4.1 2.6.4 3.4.3.8.6 1.5 1 1.9.4.4.9.7 1.5.8.6.1 1.2.2 1.9.2.5 0 1 0 1.6-.1.6 0 1.1-.1 1.5-.2.5 1.8.7 3.7.7 5.9-.7.3-1.6.4-2.6.5-1 .1-2 .1-2.8.1-1.5 0-2.9-.2-4.2-.5s-2.4-.9-3.4-1.8c-1-.8-1.7-1.9-2.3-3.3-.6-1.4-.8-3.1-.8-5.2V54.8zM467 93.4c.1 4.3 1.2 7.5 3.3 9.5s5.3 3 9.4 3c3.6 0 7.1-.6 10.4-1.9.4.8.7 1.7 1 2.8.3 1.1.4 2.2.5 3.3-1.7.7-3.6 1.3-5.6 1.6-2 .4-4.3.5-6.7.5-3.6 0-6.7-.5-9.2-1.5-2.6-1-4.7-2.4-6.4-4.2-1.7-1.8-2.9-4-3.7-6.5-.8-2.5-1.2-5.2-1.2-8.2 0-2.9.4-5.7 1.1-8.2.7-2.5 1.9-4.7 3.4-6.6 1.5-1.9 3.5-3.4 5.8-4.5s5.1-1.7 8.3-1.7c2.7 0 5.1.5 7.2 1.4 2.1.9 3.8 2.2 5.2 3.8 1.4 1.6 2.4 3.5 3.2 5.8.7 2.2 1.1 4.7 1.1 7.3 0 .7 0 1.5-.1 2.3-.1.8-.1 1.5-.2 2H467zm19.6-5.7c0-1.4-.2-2.8-.6-4.1-.4-1.3-1-2.5-1.7-3.4-.7-1-1.7-1.8-2.8-2.3-1.2-.6-2.5-.9-4.1-.9-3.1 0-5.5 1-7.2 2.8-1.7 1.9-2.7 4.5-3 7.9h19.4z"/><path class="st1" d="M153.4 50.1c-9.9-20.5-27.3-36.8-49.5-42.8-25.2-6.8-52-.4-71.7 16.4-3.7 3.1 1.6 8.4 5.3 5.3 18.1-15.4 43-20.7 65.8-14.1 19.9 5.8 34.8 20.7 43.7 39 2.1 4.3 8.5.5 6.4-3.8zm-43.3 104.5c15.7-6.2 29.6-16.3 38.7-30.7 9.7-15.3 13.1-34.1 10.8-52-.6-4.7-8.1-4.8-7.5 0 2.1 16.2-.5 33-9.1 47.1-8 13.2-20.6 22.8-34.9 28.4-4.4 1.7-2.5 8.9 2 7.2zM18.2 39.7c-15.8 25.4-17 57.4-1 83.2 14.7 23.7 41.2 37.5 68.9 36.6 4.8-.2 4.8-7.7 0-7.5-25.1.8-49.1-11.4-62.4-32.9-14.6-23.5-13.4-52.4 1-75.6 2.5-4.1-3.9-7.9-6.5-3.8z"/><path class="st1" d="M83 25c-20 .3-38.6 10.6-49 27.8-12.2 20-10.8 43.9 3.4 62.5 2.9 3.8 9.4.1 6.5-3.8-6.5-8.5-11.2-18.5-11-29.4.2-8.9 3-17.9 7.6-25.5 9-15 25.1-23.9 42.5-24.1 4.8-.1 4.8-7.6 0-7.5zM55.4 132.2c21.1 12.1 48.3 8.4 66.2-7.8C139.3 108.3 145 82 135.8 60c-5.3-12.6-15-22.8-27.1-29.1-4.3-2.2-8.1 4.3-3.8 6.5 24.6 12.6 35.4 43.3 22.1 68.1-12.8 23.8-44 33.9-67.8 20.2-4.2-2.4-8 4.1-3.8 6.5z"/><circle class="st2" cx="83" cy="82.1" r="33"/><circle class="st1" cx="35.3" cy="26.4" r="7.8"/><circle class="st1" cx="86.3" cy="155.9" r="7.8"/><circle class="st1" cx="155.6" cy="71.9" r="7.8"/><circle class="st1" cx="106.6" cy="34.1" r="7.8"/><circle class="st1" cx="40.6" cy="115.1" r="7.8"/></g></switch></svg>