<svg xmlns="http://www.w3.org/2000/svg" width="332.969" height="85.839" viewBox="0 0 332.969 85.839"><path fill="#4E4E4E" d="M12.729 58.743c2.21-10.11 6.075-34.786 10.976-48.044 1.217-3.291 9.202-4.779 13.702-1.054-3.34 12.214-6.447 30.626-6.447 30.626 1.592-.122 3.1-.55 4.524-1.285a17.629 17.629 0 0 0 3.972-2.823 21.655 21.655 0 0 0 3.306-3.974 28.94 28.94 0 0 0 4.087-9.895c.367-1.761.551-3.483.551-5.166 0-1.745-.222-3.392-.666-4.938-.444-1.545-1.132-2.908-2.067-4.087-.934-1.178-2.143-2.104-3.626-2.778-1.486-.673-3.254-1.011-5.305-1.011-3.827 0-7.248.522-10.263 1.562-3.015 1.041-5.564 2.542-7.646 4.501s-4.058 4.354-5.375 7.185c-1.317 2.832-1.974 6.039-1.974 9.621 0 1.194.082 2.166.246 2.916.165.75.338 1.348.521 1.791.183.445.357.789.521 1.034.165.245.248.459.248.642-1.94 0-3.658-.161-5.157-.481-1.5-.321-2.752-.833-3.757-1.538-1.007-.704-1.775-1.639-2.305-2.802C.265 27.584 0 26.144 0 24.43c0-2.082.539-4.133 1.618-6.154 1.079-2.02 2.585-3.907 4.443-5.739C11.608 7.065 18.012 3.242 27.723.94A34.276 34.276 0 0 1 35.645 0c3.856 0 7.178.514 9.964 1.538 2.786 1.025 5.089 2.396 6.912 4.109 1.821 1.715 3.16 3.683 4.018 5.901a19.172 19.172 0 0 1 1.285 6.957c0 3.001-.62 6.001-1.86 9.001-1.239 3.001-3.03 5.702-5.372 8.104-2.342 2.404-5.19 4.356-8.542 5.856-3.352 1.5-7.14 2.25-11.365 2.25h-.505s-5.114 23.088-7.527 31.051c-2.301 7.594-8.239 11.071-16.719 11.071 0 .001 5.29-20.208 6.795-27.095m72.407-9.659c-.969 2.422-5.845 4.465-9.206 3.089-.345 4.085-1.129 7.768-2.352 11.047-1.223 3.279-2.769 6.069-4.638 8.37-1.871 2.304-4.014 4.072-6.43 5.309a16.632 16.632 0 0 1-7.681 1.855c-2.043 0-3.934-.252-5.674-.756-1.741-.503-3.236-1.308-4.488-2.416-1.251-1.106-2.23-2.546-2.934-4.314-.704-1.77-1.057-3.92-1.057-6.451 0-1.727.18-3.69.539-5.891.36-2.2.935-4.467 1.726-6.796a40.722 40.722 0 0 1 3.063-6.84 26.344 26.344 0 0 1 4.574-5.976 21.89 21.89 0 0 1 6.236-4.25c2.358-1.078 5.049-1.618 8.069-1.618 7.565 0 11.349 4.703 11.349 14.109 0 .022-.017.073 0 .087 4.726 2.337 8.408-.663 9.709-2.93m-17.347 7.72c-.921-.229-1.547-.683-1.877-1.358-.331-.676-.496-1.46-.496-2.353 0-1.235.251-2.251.755-3.042a4.534 4.534 0 0 1 2.007-1.748c-.058-.948-.159-1.746-.303-2.395-.144-.647-.345-1.179-.604-1.596s-.583-.712-.97-.886c-.389-.173-.885-.259-1.489-.259-1.065 0-2.086.41-3.064 1.231-.978.818-1.906 1.904-2.783 3.257-.878 1.352-1.683 2.899-2.417 4.639-.734 1.74-1.359 3.53-1.877 5.372s-.921 3.661-1.208 5.458c-.288 1.799-.431 3.432-.431 4.899s.078 2.661.237 3.581c.158.921.416 1.646.777 2.179.359.532.826.899 1.402 1.1.575.202 1.279.303 2.115.303 1.063 0 2.135-.475 3.214-1.425 1.078-.948 2.078-2.242 2.999-3.884.92-1.639 1.733-3.581 2.438-5.825.704-2.242 1.23-4.659 1.575-7.248"/><path fill="#4E4E4E" d="M105.053 65.827c.545-.963.988-2.142 1.333-3.263l4.175.008c-.834 2.389-1.762 4.46-2.783 6.215s-2.086 3.234-3.193 4.442c-1.108 1.209-2.243 2.188-3.409 2.936-1.165.749-2.294 1.323-3.387 1.726a15.46 15.46 0 0 1-3.129.82c-.992.144-1.877.217-2.653.217-1.324 0-2.561-.203-3.711-.605a7.693 7.693 0 0 1-2.999-1.898c-.849-.863-1.518-1.955-2.007-3.28a11.905 11.905 0 0 1-.734-4.789c.82-15.762 9.039-50.055 9.039-50.055 5.333-.669 13.074-1.77 13.074-1.77s-9.519 43.844-9.383 50.572c.038 1.884.788 3.28 3.582 3.28 3.081 0 5.496-3.337 6.185-4.556"/><path fill="#4E4E4E" d="M141.18 64.255c.194-1.11.992-4.4.992-4.4.145-.576.238-1.145.281-1.704.043-.562.065-1.116.065-1.663 0-1.409-.195-2.739-.583-3.991a9.34 9.34 0 0 0-1.79-3.301c-.806-.95-1.82-1.697-3.043-2.244-1.222-.546-2.654-.819-4.294-.819-.978 0-1.956.131-2.934.39L149.456 32.8l-10.65 1.424-17.044 13.42 7.058-33.905-13.075 1.812s-3.01 14.703-6.154 31.77c-2.654 14.403-7.118 31.09-7.118 31.09h12.73l4.618-21.835c1.236-1.006 2.38-1.803 3.429-2.394 1.051-.589 2.079-.885 3.086-.885 1.208 0 2.043.39 2.503 1.164.46.777.691 1.813.691 3.108 0 .49-.022 1.006-.066 1.553a10.39 10.39 0 0 1-.28 1.685l-.733 3.45c-.346 1.698-.519 3.236-.519 4.617 0 3.224.935 5.703 2.806 7.444 1.869 1.741 4.645 2.611 8.328 2.611.977 0 2.15-.159 3.516-.477 1.367-.314 2.784-1.027 4.251-2.135 1.467-1.107 2.941-2.748 4.423-4.919 1.481-2.172 2.841-5.115 4.077-8.825h-3.71c-.461 1.151-.879 2.234-1.403 3.172-1.69 3.021-3.88 6.307-6.492 6.896-6.028 1.359-3.122-5.091-2.548-8.386"/><path fill="#4E4E4E" d="M188.32 67.104c-.257 2.519 1.207 3.798 3.623 3.798a4.55 4.55 0 0 0 2.396-.669c.733-.446 1.401-1.043 2.006-1.791.604-.747 1.138-1.633 1.597-2.654a23.15 23.15 0 0 0 1.166-3.214h3.711c-.834 2.387-1.742 4.46-2.72 6.213-.978 1.755-1.991 3.236-3.042 4.444-1.05 1.209-2.121 2.187-3.214 2.934-1.095.749-2.158 1.325-3.194 1.728-1.035.402-2.027.676-2.977.818-.949.146-1.812.217-2.59.217-2.502 0-4.494-.684-5.975-2.051-1.482-1.365-2.382-3.386-2.697-6.062a33.775 33.775 0 0 1-2.375 2.956 17.618 17.618 0 0 1-2.891 2.59 14.635 14.635 0 0 1-3.56 1.854c-1.309.475-2.755.712-4.336.712-1.526 0-2.993-.244-4.402-.732-1.409-.491-2.661-1.296-3.754-2.417-1.093-1.122-1.971-2.589-2.632-4.402-.661-1.812-.992-4.026-.992-6.645 0-2.014.202-4.171.604-6.474.403-2.301 1.021-4.602 1.855-6.903s1.877-4.51 3.128-6.623c1.252-2.114 2.719-3.985 4.402-5.61a20.086 20.086 0 0 1 5.718-3.883c2.128-.964 4.472-1.447 7.033-1.447 2.503 0 4.322.433 5.458 1.295 1.136.864 1.704 1.929 1.704 3.193v.647l.951-4.703s8.299-.659 12.873-1.425c-3.562 11.378-6.571 28.556-6.874 34.306m-7.768-24.467c0-.26-.058-.582-.172-.972a3.512 3.512 0 0 0-.583-1.121 3.329 3.329 0 0 0-1.1-.907c-.461-.242-1.052-.365-1.771-.365-1.235 0-2.409.402-3.517 1.209-1.107.804-2.121 1.877-3.043 3.214-.92 1.338-1.739 2.854-2.458 4.551a43.545 43.545 0 0 0-1.834 5.245 43.593 43.593 0 0 0-1.144 5.307c-.258 1.74-.388 3.302-.388 4.683 0 1.696.158 3.007.475 3.927.316.92.697 1.603 1.143 2.048.446.448.928.713 1.446.799.518.087.977.129 1.381.129.662 0 1.358-.165 2.092-.495s1.438-.819 2.115-1.468c.674-.646 1.293-1.46 1.855-2.438.561-.979.984-2.115 1.271-3.408l4.232-19.938z"/><path fill="#4E4E4E" d="M250.217 62.572c-.836 2.389-1.742 4.444-2.72 6.171-.978 1.726-1.993 3.172-3.042 4.337-1.05 1.165-2.122 2.1-3.215 2.805-1.094.705-2.158 1.245-3.193 1.618-1.035.374-2.027.619-2.977.732-.95.115-1.812.174-2.59.174-2.445 0-4.416-.641-5.911-1.921-1.496-1.278-2.416-3.172-2.763-5.675a26.321 26.321 0 0 1-2.265 2.956c-.849.965-1.813 1.827-2.892 2.59s-2.28 1.382-3.603 1.856c-1.323.473-2.763.711-4.315.711-1.525 0-2.992-.245-4.401-.733-1.41-.489-2.661-1.296-3.754-2.417-1.095-1.122-1.972-2.589-2.632-4.4-.661-1.813-.993-4.028-.993-6.646 0-2.012.202-4.171.604-6.472a41.01 41.01 0 0 1 1.855-6.905 39.223 39.223 0 0 1 3.128-6.623 26.603 26.603 0 0 1 4.401-5.608 20.161 20.161 0 0 1 5.718-3.885c2.129-.964 4.473-1.445 7.034-1.445 2.503 0 4.32.431 5.458 1.295 1.136.863 1.704 1.927 1.704 3.191v.347l4.656-21.966s6.668-.824 13.485-1.886c-6.233 17.689-10.892 49.483-10.892 49.483-.145.49-.245.97-.303 1.445-.058.475-.086.941-.086 1.401 0 1.238.295 2.093.885 2.568.59.475 1.502.712 2.74.712.862 0 1.661-.194 2.396-.582a6.763 6.763 0 0 0 1.983-1.619c.59-.689 1.115-1.516 1.575-2.48.46-.964.864-2.008 1.208-3.129h3.717zm-26.496 0l4.314-20.237a6.73 6.73 0 0 0-.28-.907 3.835 3.835 0 0 0-.582-1.013c-.259-.33-.612-.605-1.057-.82-.446-.216-1.015-.324-1.705-.324-1.237 0-2.409.404-3.517 1.209-1.108.806-2.121 1.877-3.043 3.214-.92 1.339-1.739 2.856-2.459 4.553a43.522 43.522 0 0 0-1.834 5.244 43.568 43.568 0 0 0-1.144 5.308c-.259 1.74-.388 3.3-.388 4.681 0 1.698.158 3.007.475 3.927.316.922.697 1.604 1.143 2.05.447.446.929.713 1.447.799.518.087.977.129 1.381.129.604 0 1.271-.151 2.006-.454.733-.301 1.438-.754 2.115-1.359.674-.603 1.293-1.364 1.854-2.286.562-.921.985-1.998 1.272-3.235v-.479z"/><path fill="#4E4E4E" d="M289.988 49.455c-1.535 1.957-5.482 3.582-8.976 2.718-.345 4.085-1.128 7.768-2.351 11.047-1.224 3.279-2.771 6.069-4.64 8.37-1.87 2.304-4.013 4.072-6.429 5.309a16.636 16.636 0 0 1-7.682 1.855c-2.043 0-3.935-.252-5.674-.756-1.742-.503-3.236-1.308-4.487-2.416-1.253-1.106-2.23-2.546-2.935-4.314-.705-1.77-1.057-3.92-1.057-6.451 0-1.727.179-3.69.539-5.891.359-2.2.934-4.467 1.727-6.796a40.797 40.797 0 0 1 3.062-6.84 26.287 26.287 0 0 1 4.574-5.976 21.88 21.88 0 0 1 6.234-4.25c2.359-1.078 5.051-1.618 8.07-1.618 7.564 0 11.349 4.703 11.349 14.109 0 0-.017.072 0 .087 2.539 3.167 7.648-.084 9.479-2.041m-17.113 6.831c-.921-.229-1.547-.683-1.877-1.358-.331-.676-.497-1.46-.497-2.353 0-1.235.252-2.251.756-3.042a4.531 4.531 0 0 1 2.006-1.748c-.058-.948-.157-1.746-.302-2.395-.145-.647-.345-1.179-.604-1.596-.26-.417-.584-.712-.972-.886-.388-.173-.885-.259-1.489-.259-1.063 0-2.086.41-3.063 1.231-.978.818-1.905 1.904-2.783 3.257-.877 1.352-1.683 2.899-2.416 4.639-.733 1.74-1.358 3.53-1.877 5.372s-.921 3.661-1.208 5.458c-.288 1.799-.432 3.432-.432 4.899s.078 2.661.238 3.581c.156.921.416 1.646.775 2.179s.827.899 1.403 1.1c.575.202 1.278.303 2.114.303 1.063 0 2.136-.475 3.215-1.425 1.078-.948 2.078-2.242 2.998-3.884.921-1.639 1.733-3.581 2.438-5.825.706-2.242 1.231-4.659 1.577-7.248"/><path fill="#4E4E4E" d="M313.686 63.96s-.496 5.416-4.137 8.969c-3.54 3.455-8.152 5.999-14.406 5.999-1.584 0-2.936-.253-4.058-.756-1.122-.504-2.035-1.201-2.739-2.094-.705-.89-1.223-1.947-1.555-3.171-.33-1.223-.495-2.539-.495-3.948 0-1.524.172-3.093.517-4.703l5.653-26.494h-2.934l.733-3.539h2.892l2.675-12.211s11.67-5.026 15.13-9.341c-.427 1.58-2.343 8.771-2.487 9.447-.144.677-.287 1.39-.431 2.137a104.356 104.356 0 0 0-1.014 4.424 789.598 789.598 0 0 0-1.145 5.544h9.856l-.69 3.539h-9.856l-5.652 26.494a15.13 15.13 0 0 0-.324 1.66 10.88 10.88 0 0 0-.107 1.445c0 .921.209 1.685.625 2.287.418.605 1.23.907 2.438.907 5.361.001 11.511-6.595 11.511-6.595"/><path fill="#D75EA1" d="M332.969 71.604a7.323 7.323 0 1 1-14.646 0 7.323 7.323 0 0 1 14.646 0"/></svg>