<svg id="Layer_1" xmlns="http://www.w3.org/2000/svg" viewBox="0 0 841.9 595.3"><style>.st0{fill:#878787}.st1{fill:none}.st2{fill:url(#XMLID_2_)}</style><path class="st0" d="M185.7 535.4c12.2-9 20.1-23.5 20.1-39.8 0-27.3-22.1-49.5-49.5-49.5-27.3 0-49.5 22.1-49.5 49.5s22.1 49.5 49.5 49.5c5.4 0 10.6-.9 15.5-2.5l17.6 19.2H210l-24.3-26.4zm-60.2-39.8c0-18.7 13.8-33.8 30.9-33.8s30.9 15.1 30.9 33.8c0 18.7-13.8 33.8-30.9 33.8s-30.9-15.1-30.9-33.8zm138.2-20.7V524h.1c-1.9 4.4-7.2 7.7-13.4 7.7-7.8 0-14.2-5-14.2-11.2v-45.6h-15.5V524h.1c0 .3-.1.6-.1.8 0 11.1 10.8 20.2 24.1 20.2 9 0 16.9-4.2 21-10.4v7.2h11.6v-66.9h-13.7zm37.4 0h16.1V545h-16.1z"/><circle class="st0" cx="309.2" cy="456.1" r="11.6"/><path class="st0" d="M375.9 504.7l24.8-29.8h-17.1l-15.4 18.6-6.3 7.7H356l-.1-.1v-56.6h-16.1v32.3l-.3.2.3.4v67.7h16.1v-33.8h7l3.4 5 19.7 28.8h17.5zm105.7-59.4v69l-48.3-63-4.5-6h-11.6v100.6h16.1V479l48.3 61.8 3.9 5.1h12.2V445.3zm66.8 29.6c-18.5 0-33.6 15.7-33.6 35.1 0 19.4 15 35.1 33.6 35.1S582 529.4 582 510c-.1-19.4-15.1-35.1-33.6-35.1zm0 57.2c-9.8 0-17.8-9.9-17.8-22.1s8-22.1 17.8-22.1 17.8 9.9 17.8 22.1-8 22.1-17.8 22.1zm90.8-86.8V481c-4.9-4.9-11.1-7.8-17.8-7.8-15.8 0-28.6 16.1-28.6 36s12.8 36 28.6 36c6.7 0 12.9-2.9 17.8-7.8v7.8h16.1v-99.7h-16.1zm-12.5 86.8c-8.8 0-16-9.9-16-22.1s7.2-22.1 16-22.1c5.1 0 9.6 3.2 12.5 8.3v27.7c-2.9 5-7.4 8.2-12.5 8.2z"/><path class="st1" d="M720.1 500.7c.1-.5.1-1 .1-1.5 0-7.4-7.2-13.4-16.1-13.4-8.9 0-16.1 6-16.1 13.4 0 .5 0 1 .1 1.5h32z"/><path class="st0" d="M709.1 532.1c-11.9 0-21.6-9-23.2-20.6h32c5.4 0 10.8-.1 16.1-.1.2-.9 1.1-4.5.9-9.2 0-1-.6-9.3-5.6-16.2-6.7-9.2-20-13.7-31.5-11-15.6 3.7-24.6 19.6-24.9 33.8-.3 16.9 11.9 32 26 35.5 7.1 1.7 13.8.2 17.2-.8 9.4-2.9 14.9-9 16.9-11.5l-7.1-7.3c-4.2 4.6-10.1 7.4-16.8 7.4zm-5-46.3c8.9 0 16.1 6 16.1 13.4 0 .5 0 1-.1 1.5H688c-.1-.5-.1-1-.1-1.5 0-7.4 7.2-13.4 16.2-13.4z"/><g id="XMLID_38_"><linearGradient id="XMLID_2_" gradientUnits="userSpaceOnUse" x1="288.828" y1="87.567" x2="607.606" y2="406.346"><stop offset="0" stop-color="#12c1c1"/><stop offset="1" stop-color="#27b1fc"/></linearGradient><path id="XMLID_39_" class="st2" d="M420.9 335.8c-64.1 0-116.1-52-116.1-116.1s52-116.1 116.1-116.1c84.1 0 139.3 86.3 106.6 162l-74-24 104.8 104.8c30.7-33.3 49.5-77.8 49.5-126.7 0-103.2-83.7-186.8-186.8-186.8-103.2 0-186.8 83.7-186.8 186.8 0 103.2 83.7 186.8 186.8 186.8 36 0 69.7-10.2 98.3-27.9l83.1 33-104.9-104.7c-20.4 18-47.2 28.9-76.6 28.9z"/></g></svg>