<svg version="1" xmlns="http://www.w3.org/2000/svg" width="18766.667" height="6060" viewBox="0 0 14075.000000 4545.000000"><path d="M4383 2270v1513h170V2385h432.8l6.4 19.7c3.5 10.9 105.8 325.5 227.3 699l220.9 679.3h93.8c62.5 0 93.8-.3 93.8-1 0-.6-107.8-320.6-239.5-711.2s-239.2-710.5-238.8-710.9c.5-.3 6-2.3 12.3-4.4 28.2-9.2 63.3-24.6 88.5-39 147.8-84 234.2-245.2 266-496 8.1-64.4 11.7-115.5 13.7-198.1 2-84.5-1.1-175.3-8.8-252.4-21.8-220.9-81.3-377.6-180.9-476.5-76.7-76.3-175-118.1-309-131.5-45-4.4-38.2-4.3-349.7-4.7l-298.8-.4V2270zm606-1356.7c46 5.3 79.2 12.9 112 25.4 45.3 17.3 82.8 41.8 115.7 75.6 62.6 64.4 103.3 159.6 124.8 292.2 12.1 74.5 18.5 165.8 18.5 266 0 204.5-24.2 354.1-74.5 459-54.9 114.7-143.9 179.9-271.2 198.5-38 5.5-30.2 5.3-254 5.7l-207.3.4V910.9l210.8.4c189.7.3 212.1.5 225.2 2zm1603.5-155.1c-.2.7-146.1 679-324 1507.3-178 828.3-324.2 1508.6-324.9 1511.7l-1.3 5.8h188.3l88.8-452.7c48.8-249.1 89-453.6 89.2-454.6.5-1.6 17.9-1.7 352.7-1.5l352.2.3 91.2 454c50.2 249.7 91.3 454.1 91.3 454.2 0 .5 188 .3 188-.1 0-.3-629.2-2987.2-635.7-3017.9l-1.6-7.7h-76.9c-60.6 0-77 .3-77.3 1.2zM6983 2718.7c0 1-64.7 1.3-320.1 1.3-304.3 0-320-.1-319.5-1.8.3-.9 71.7-362.4 158.6-803.2 87-440.8 158.4-802.2 158.7-803 .5-1.2 322.1 1602.4 322.3 1606.7zm723-448.7v1513h170V757h-170v1513zm782 0v1513l310.8-.3c335.4-.3 313.5 0 354.7-5.2 103.9-13.2 197.3-50.4 268-106.5 29.5-23.5 64.1-59.5 93.2-97.1 68.4-88.5 103.4-194.8 123.7-376.9 17.6-157.2 25.1-368.6 26.5-752.3 1-291.3-.4-543.4-3.9-695.2-9.2-395.3-34.5-579.7-96.5-703.5-25.2-50.4-59.4-96.6-106.7-144.1-79-79.3-192.2-128.4-325.8-141.3-35.1-3.4-51-3.6-347.6-3.6H8488v1513zm596.2-1358c87.5 6 159.5 29.6 214.3 70.5 30.5 22.7 67.3 62.5 91 98.5 67.2 102.1 91.3 254.2 100.5 634 5.8 240 6.3 802 1 1065-6.5 321.4-22.1 480-57.5 586.5-17 51-37.5 88.4-70 127.6-13.7 16.6-39 42.6-51.5 53.1-49.7 41.8-114.9 68-193 77.7-35.6 4.5-32.5 4.4-250.7 4.8l-210.3.4V911h205.4c131.3 0 211 .4 220.8 1zM10133 2270v1513h978v-153h-808V2347h697v-154h-697V911h808V757h-978v1513zm1411 0v1513h170l.2-1277.2.3-1277.2 445.5 1276.9 445.6 1277 94.2.3 94.2.2V757h-171l-.2 1277-.3 1277-445.5-1277-445.5-1277H11544v1513zM1159.5 763c1.1.5 20.7 8.3 43.5 17.3 454.9 180.3 812.4 411.8 1060 686.7 230.9 256.2 365.5 554.3 382 845.9 1.9 34.9 1.1 87.7-1.9 113.3l-.7 6.8h693.4l.7-10.3c1.2-15.7.9-109.2-.4-136.7-4.7-101.2-15.2-187.7-34.1-282-39.3-196.4-111.5-389.4-215.7-576.8-106.8-192.2-249.2-378.7-410-537.2-48.7-48.1-92.5-87.6-134.1-121.3l-8.3-6.7-688.2.1c-398.6 0-687.4.4-686.2.9zM1661 2825.8c0 526.5.2 957.2.4 957.2.3 0 194.6-112.7 431.8-250.4 287.3-166.8 431.3-250.9 431.2-251.9-.1-1.4-860.3-1408.7-862.6-1411.2-.4-.5-.8 429.8-.8 956.3z"/></svg>