<svg xmlns="http://www.w3.org/2000/svg" width="572.68" height="220.752" viewBox="0 0 572.68 220.752"><path d="M291.188 170.962c-2.568 2.652-5.52 3.979-8.858 3.979-2.026 0-3.909-.421-5.649-1.262a14.566 14.566 0 0 1-4.536-3.402c-1.284-1.427-2.29-3.08-3.018-4.965a16.256 16.256 0 0 1-1.09-5.905c0-2.054.363-4.008 1.09-5.863.728-1.854 1.734-3.479 3.018-4.879a14.179 14.179 0 0 1 4.579-3.315c1.768-.814 3.694-1.221 5.776-1.221 2.911 0 5.349.606 7.318 1.819 1.969 1.214 3.453 2.817 4.451 4.813l-3.68 2.654c-.828-1.654-1.97-2.896-3.424-3.724-1.456-.826-3.053-1.241-4.794-1.241-1.426 0-2.724.309-3.894.92a9.61 9.61 0 0 0-2.996 2.439c-.827 1.013-1.462 2.191-1.904 3.531a13.309 13.309 0 0 0-.663 4.193c0 1.541.25 2.982.749 4.323.499 1.341 1.184 2.511 2.055 3.51a9.766 9.766 0 0 0 3.103 2.374c1.198.585 2.496.877 3.894.877a9.685 9.685 0 0 0 4.429-1.069c1.412-.713 2.762-1.84 4.045-3.381v-3.252h-6.376v-3.552h10.4v15.362h-4.023v-3.763zm8.944-27.475h4.706v24.777c0 .828.215 1.477.643 1.947.429.471 1.027.705 1.798.705.313 0 .678-.057 1.091-.171.412-.113.806-.24 1.177-.384l.686 3.679c-.686.315-1.498.564-2.439.75-.942.185-1.783.278-2.525.278-1.625 0-2.889-.441-3.787-1.326-.899-.885-1.348-2.141-1.348-3.766v-26.489zm22.894 31.667c-1.768 0-3.357-.313-4.771-.941-1.413-.627-2.617-1.469-3.617-2.524a11.141 11.141 0 0 1-2.311-3.702 12.27 12.27 0 0 1-.813-4.429c0-1.541.271-3.018.813-4.43a10.957 10.957 0 0 1 2.334-3.701c1.012-1.056 2.226-1.898 3.637-2.525 1.412-.627 2.987-.941 4.728-.941 1.742 0 3.317.314 4.73.941s2.624 1.47 3.637 2.525a10.94 10.94 0 0 1 2.333 3.701c.541 1.412.813 2.889.813 4.43 0 1.542-.271 3.017-.813 4.429a10.944 10.944 0 0 1-2.333 3.702c-1.013 1.056-2.224 1.897-3.637 2.524-1.413.628-2.988.941-4.73.941zm-6.675-11.554c0 1.086.172 2.083.513 2.996a7.434 7.434 0 0 0 1.413 2.375 6.602 6.602 0 0 0 2.118 1.583 6.04 6.04 0 0 0 2.631.578c.942 0 1.819-.191 2.632-.578a6.427 6.427 0 0 0 2.12-1.604 7.7 7.7 0 0 0 1.412-2.397c.344-.913.513-1.91.513-2.995a8.487 8.487 0 0 0-.513-2.975 7.67 7.67 0 0 0-1.412-2.418 6.437 6.437 0 0 0-2.12-1.604 6.053 6.053 0 0 0-2.632-.578c-.912 0-1.774.2-2.587.601a6.71 6.71 0 0 0-2.119 1.625 7.948 7.948 0 0 0-1.433 2.418 8.176 8.176 0 0 0-.536 2.973zm34.449 11.554c-1.712 0-3.26-.406-4.642-1.219a8.978 8.978 0 0 1-3.274-3.274v4.065h-4.15v-31.239h4.706v13.096c.884-1.428 1.989-2.553 3.317-3.382 1.326-.827 2.889-1.241 4.684-1.241 1.485 0 2.84.321 4.067.963 1.227.643 2.275 1.497 3.146 2.567s1.541 2.312 2.012 3.724.706 2.888.706 4.43c0 1.598-.271 3.096-.813 4.493-.543 1.397-1.283 2.616-2.226 3.658a10.293 10.293 0 0 1-3.359 2.462c-1.3.598-2.69.897-4.174.897zm-1.239-4.022c1.026 0 1.967-.207 2.823-.621a7.035 7.035 0 0 0 2.204-1.647 7.558 7.558 0 0 0 1.434-2.374c.342-.899.514-1.847.514-2.846s-.164-1.961-.493-2.889a7.788 7.788 0 0 0-1.369-2.439 6.865 6.865 0 0 0-2.096-1.691 5.67 5.67 0 0 0-2.675-.642c-1.455 0-2.747.471-3.873 1.413a9.379 9.379 0 0 0-2.59 3.422v5.906c.172.657.471 1.248.899 1.777.428.527.926.991 1.498 1.391a6.908 6.908 0 0 0 1.84.919 6.066 6.066 0 0 0 1.884.321zm21.994 4.022a8.39 8.39 0 0 1-3.017-.533 7.284 7.284 0 0 1-2.396-1.479 6.846 6.846 0 0 1-1.583-2.226 6.69 6.69 0 0 1-.578-2.78c0-1.056.228-2.012.686-2.868.454-.854 1.104-1.598 1.946-2.226.841-.625 1.842-1.112 2.996-1.455 1.154-.341 2.431-.513 3.831-.513 1.055 0 2.097.094 3.123.278 1.027.187 1.954.435 2.781.748v-1.54c0-1.653-.47-2.946-1.411-3.873-.941-.926-2.297-1.391-4.066-1.391a9.834 9.834 0 0 0-3.531.663c-1.154.442-2.346 1.078-3.572 1.905l-1.455-2.995c2.881-1.94 5.877-2.911 8.986-2.911 3.082 0 5.479.784 7.189 2.354 1.712 1.568 2.569 3.823 2.569 6.761v8.088c0 .999.412 1.513 1.24 1.54v4.023c-.457.087-.85.143-1.177.172a11.34 11.34 0 0 1-.963.042c-.913 0-1.618-.227-2.119-.684-.499-.456-.805-1.041-.92-1.755l-.129-1.413a9.978 9.978 0 0 1-3.7 3.018c-1.469.7-3.046 1.05-4.73 1.05zm1.284-3.466a8.445 8.445 0 0 0 3.23-.621c1.015-.412 1.806-.991 2.375-1.732.601-.514.899-1.056.899-1.626v-2.953a14.208 14.208 0 0 0-2.545-.728 14.074 14.074 0 0 0-2.634-.257c-1.683 0-3.059.363-4.129 1.091-1.068.728-1.604 1.69-1.604 2.89 0 1.111.412 2.048 1.241 2.802.828.757 1.883 1.134 3.167 1.134zm16.949-28.201h4.706v24.777c0 .828.215 1.477.642 1.947.429.471 1.028.705 1.799.705a4.17 4.17 0 0 0 1.09-.171c.414-.113.807-.24 1.179-.384l.684 3.679c-.684.315-1.498.564-2.439.75-.941.185-1.783.278-2.524.278-1.627 0-2.89-.441-3.788-1.326-.897-.885-1.347-2.141-1.347-3.766v-26.489zm22.124 0h4.708v24.777c0 .828.213 1.477.641 1.947.429.471 1.027.705 1.798.705a4.19 4.19 0 0 0 1.092-.171c.414-.113.805-.24 1.177-.384l.685 3.679c-.685.315-1.498.564-2.438.75-.941.185-1.783.278-2.524.278-1.627 0-2.89-.441-3.788-1.326-.899-.885-1.349-2.141-1.349-3.766v-26.489zm22.981 31.667c-1.741 0-3.325-.306-4.751-.92-1.428-.612-2.646-1.447-3.659-2.503a11.318 11.318 0 0 1-2.354-3.681 11.93 11.93 0 0 1-.835-4.451c0-1.568.279-3.06.835-4.472a11.542 11.542 0 0 1 2.354-3.724c1.013-1.069 2.231-1.91 3.659-2.524 1.426-.613 3.022-.92 4.793-.92 1.74 0 3.317.314 4.729.941 1.413.627 2.617 1.463 3.617 2.503a10.7 10.7 0 0 1 2.289 3.639 12.103 12.103 0 0 1 .664 6.057h-17.932c.085.997.32 1.896.705 2.694a7.102 7.102 0 0 0 1.498 2.075 6.515 6.515 0 0 0 2.098 1.349 6.556 6.556 0 0 0 2.46.471c.628 0 1.248-.078 1.863-.235a6.632 6.632 0 0 0 1.688-.684 6.02 6.02 0 0 0 1.37-1.093 5.08 5.08 0 0 0 .941-1.412l4.023 1.155c-.771 1.685-2.048 3.061-3.831 4.131s-3.857 1.604-6.224 1.604zm6.804-13.308a7.465 7.465 0 0 0-.707-2.61 6.674 6.674 0 0 0-1.476-2.033 6.586 6.586 0 0 0-2.097-1.305 6.849 6.849 0 0 0-2.524-.471c-.885 0-1.72.156-2.503.471a6.61 6.61 0 0 0-2.077 1.305 6.373 6.373 0 0 0-1.454 2.033 7.813 7.813 0 0 0-.686 2.61h13.524zm28.588 12.881h-4.709v-12.539c0-2.11-.335-3.644-1.006-4.6-.67-.955-1.663-1.435-2.974-1.435-.686 0-1.371.129-2.055.385a7.233 7.233 0 0 0-1.926 1.092 8.482 8.482 0 0 0-1.604 1.669 7.645 7.645 0 0 0-1.091 2.117v13.311h-4.708v-22.382h4.28v4.494c.854-1.512 2.097-2.703 3.722-3.573 1.626-.871 3.425-1.306 5.394-1.306 1.34 0 2.439.242 3.294.728a5.426 5.426 0 0 1 2.032 1.989c.501.843.85 1.813 1.05 2.911.199 1.099.301 2.262.301 3.487v13.652zm14.591.427c-1.513 0-2.911-.306-4.194-.92a10.46 10.46 0 0 1-3.338-2.503c-.942-1.056-1.678-2.289-2.204-3.702-.529-1.411-.792-2.93-.792-4.557 0-1.57.25-3.046.748-4.43a11.734 11.734 0 0 1 2.097-3.659 10.136 10.136 0 0 1 3.167-2.504c1.213-.613 2.548-.92 4.003-.92 1.796 0 3.38.435 4.749 1.306 1.37.87 2.439 1.976 3.21 3.317v-13.096h4.708v25.676c0 .543.093.928.277 1.155.187.229.521.357 1.007.385v4.023c-.485.087-.878.143-1.179.172a8.251 8.251 0 0 1-.748.042c-.94 0-1.712-.242-2.311-.728a2.558 2.558 0 0 1-.984-1.883l-.086-1.669a8.93 8.93 0 0 1-3.381 3.295c-1.426.801-3.01 1.2-4.749 1.2zm1.155-4.022c.685 0 1.369-.112 2.055-.342a7.329 7.329 0 0 0 1.883-.941c.57-.4 1.063-.87 1.477-1.412a5.116 5.116 0 0 0 .877-1.755v-5.864a7.016 7.016 0 0 0-1.091-1.967 7.854 7.854 0 0 0-1.605-1.542 7.348 7.348 0 0 0-1.904-.983 6.247 6.247 0 0 0-2.032-.343c-.941 0-1.804.215-2.59.642a6.67 6.67 0 0 0-2.032 1.712 8.464 8.464 0 0 0-1.349 2.439 8.294 8.294 0 0 0-.492 2.824c0 1.027.179 1.998.535 2.911.355.912.849 1.711 1.477 2.396s1.348 1.228 2.161 1.628c.81.399 1.688.597 2.63.597zm16.99-22.468v-5.177h4.707v5.177h-4.707zm0 26.063v-22.382h4.707v22.382h-4.707zm30.427 0h-4.707v-12.539c0-2.11-.337-3.644-1.006-4.6-.671-.955-1.663-1.435-2.975-1.435-.684 0-1.369.129-2.055.385a7.228 7.228 0 0 0-1.925 1.092 8.578 8.578 0 0 0-1.606 1.669 7.724 7.724 0 0 0-1.09 2.117v13.311h-4.707v-22.382h4.278v4.494c.857-1.512 2.099-2.703 3.724-3.573 1.626-.871 3.425-1.306 5.392-1.306 1.342 0 2.44.242 3.296.728s1.533 1.148 2.033 1.989c.499.843.85 1.813 1.048 2.911.2 1.099.3 2.262.3 3.487v13.652zm14.336.213c-1.513 0-2.896-.307-4.152-.92-1.256-.612-2.332-1.448-3.23-2.504s-1.598-2.269-2.096-3.638a12.49 12.49 0 0 1-.75-4.321c0-1.599.257-3.104.771-4.515.513-1.413 1.227-2.64 2.14-3.681a10.195 10.195 0 0 1 3.273-2.482c1.27-.613 2.675-.92 4.217-.92 1.796 0 3.373.428 4.729 1.284a10.843 10.843 0 0 1 3.359 3.339v-4.238h4.15v21.741c0 1.625-.3 3.066-.899 4.321s-1.434 2.318-2.503 3.188-2.333 1.532-3.786 1.991c-1.456.454-3.025.684-4.709.684-2.481 0-4.543-.422-6.184-1.263a11.73 11.73 0 0 1-4.13-3.529l2.654-2.484a8.286 8.286 0 0 0 3.315 2.741c1.354.626 2.804.94 4.344.94a9.66 9.66 0 0 0 2.761-.386 6.376 6.376 0 0 0 2.289-1.199 5.787 5.787 0 0 0 1.563-2.053c.385-.829.576-1.812.576-2.952v-3.425a8.185 8.185 0 0 1-3.295 3.167 9.239 9.239 0 0 1-4.407 1.114zm1.541-3.808a5.9 5.9 0 0 0 2.054-.362 7.198 7.198 0 0 0 1.819-.986 7.053 7.053 0 0 0 1.433-1.411 5.101 5.101 0 0 0 .855-1.69v-5.864a7.912 7.912 0 0 0-2.675-3.465 7.684 7.684 0 0 0-1.861-1.007 5.68 5.68 0 0 0-1.968-.363c-1.026 0-1.948.222-2.761.663a6.634 6.634 0 0 0-2.076 1.755 8.36 8.36 0 0 0-1.326 2.46 8.663 8.663 0 0 0-.471 2.825c0 1.027.178 1.99.535 2.889a7.402 7.402 0 0 0 1.476 2.354 7.267 7.267 0 0 0 2.205 1.605c.84.399 1.761.597 2.761.597z"/><g fill="#4155FF"><path d="M120.584 205.927c-52.688 0-95.553-42.863-95.553-95.548 0-52.69 42.865-95.554 95.553-95.554 52.685 0 95.549 42.864 95.549 95.554.001 52.684-42.863 95.548-95.549 95.548zm0-179.524c-46.304 0-83.976 37.672-83.976 83.976 0 46.302 37.672 83.974 83.976 83.974 46.303 0 83.972-37.672 83.972-83.974 0-46.304-37.669-83.976-83.972-83.976z"/><path d="M129.174 39.304l-8.186 8.187 25.864 25.862c-10.427.24-27.535 1.563-46.611 6.781-18.056 4.939-34.121 12.368-47.746 22.081-17.149 12.222-30.421 28.072-39.449 47.11a5.789 5.789 0 0 0 10.46 4.962c14.834-31.283 41.564-52.445 79.453-62.892 17.792-4.909 34.025-6.182 43.862-6.438l-20.84 20.845 8.188 8.185 34.842-34.845-39.837-39.838z"/><path d="M225.373 63.721a5.786 5.786 0 0 0-7.712 2.749c-14.833 31.28-41.566 52.439-79.454 62.892-17.791 4.906-34.025 6.18-43.862 6.434l20.842-20.843-8.188-8.186-34.841 34.848 39.834 39.835 8.188-8.187L94.315 147.4c10.425-.239 27.533-1.563 46.609-6.78 18.058-4.938 34.121-12.368 47.746-22.079 17.15-12.223 30.423-28.074 39.449-47.112a5.781 5.781 0 0 0-2.746-7.708z"/></g><path d="M270.07 118.835V46.567h32.572c3.39 0 6.53.713 9.414 2.139 2.882 1.424 5.378 3.293 7.483 5.599a26.295 26.295 0 0 1 4.937 7.835c1.188 2.919 1.781 5.871 1.781 8.858 0 2.239-.274 4.393-.815 6.462a25.051 25.051 0 0 1-2.342 5.853 22.16 22.16 0 0 1-3.714 4.935 22.113 22.113 0 0 1-4.938 3.715l15.878 26.872h-18.829l-13.842-23.31h-10.891v23.31H270.07zm16.694-37.861h15.267c1.967 0 3.665-.936 5.088-2.801 1.427-1.866 2.14-4.259 2.14-7.175 0-2.987-.815-5.359-2.444-7.126-1.627-1.764-3.394-2.646-5.293-2.646h-14.757v19.748zm47.265 1.117c0-4.341.816-8.669 2.442-12.98a35.453 35.453 0 0 1 7.127-11.55c3.119-3.393 6.921-6.143 11.4-8.246 4.478-2.103 9.568-3.157 15.267-3.157 6.785 0 12.673 1.462 17.662 4.378 4.984 2.919 8.702 6.72 11.145 11.401l-12.828 8.958c-.813-1.9-1.848-3.478-3.103-4.736a16.963 16.963 0 0 0-8.701-4.68 23.967 23.967 0 0 0-4.58-.457c-3.191 0-5.974.646-8.347 1.933-2.377 1.291-4.346 2.952-5.906 4.989-1.561 2.034-2.712 4.343-3.459 6.923a28.043 28.043 0 0 0-1.119 7.834c0 2.85.438 5.599 1.32 8.243.882 2.647 2.156 4.988 3.818 7.021a18.402 18.402 0 0 0 6.006 4.837c2.342 1.188 4.971 1.78 7.888 1.78a20.43 20.43 0 0 0 4.632-.556 18.765 18.765 0 0 0 4.58-1.732 16.35 16.35 0 0 0 4.021-3.054c1.222-1.254 2.204-2.8 2.949-4.63l13.643 8.04c-1.087 2.647-2.696 5.025-4.837 7.125-2.138 2.106-4.598 3.869-7.378 5.294a39.631 39.631 0 0 1-8.857 3.258c-3.121.746-6.174 1.118-9.159 1.118-5.225 0-10.027-1.066-14.4-3.205-4.38-2.136-8.145-4.973-11.301-8.503-3.156-3.524-5.598-7.529-7.329-12.011-1.73-4.476-2.596-9.018-2.596-13.635zm90.958-4.579v41.323h-16.693V46.567h13.029l33.691 42.446V46.567h16.693v72.268H458.27l-33.283-41.323z"/></svg>