<svg width="339" height="167" viewBox="0 0 339 167" xmlns="http://www.w3.org/2000/svg"><title>Group</title><defs><linearGradient x1="50%" y1="0%" x2="50%" y2="100%" id="a"><stop stop-color="#E6AE31" offset="0%"/><stop stop-color="#E6AE31" stop-opacity="0" offset="100%"/></linearGradient></defs><g fill="none" fill-rule="evenodd"><g transform="translate(-1.14 -.367)" fill="url(#a)"><ellipse cx="57.05" cy="54.831" rx="57.05" ry="54.722" transform="rotate(-90 59.306 56.028)"/><ellipse cx="57.05" cy="54.831" rx="57.05" ry="54.722" transform="rotate(90 28.739 81.903)"/></g><path d="M189.549 134.129c-15.025 0-27.233-3.488-36.892-8.988l8.452-25.623h.67c4.696 18.781 19.318 28.44 32.867 28.44 7.647 0 13.281-4.427 13.281-11.537 0-4.293-1.744-8.317-9.524-11.805l-22.27-10.196c-13.146-6.17-19.988-17.171-19.988-28.976 0-14.623 9.257-30.587 36.087-30.587 12.073 0 26.025 3.89 33.94 8.318l-9.659 22h-.67c-5.367-16.5-17.306-24.415-28.977-24.415-9.793 0-13.281 4.964-13.281 9.39 0 4.428 2.28 8.586 9.39 12.074l22.94 10.866c14.757 6.842 19.184 15.293 19.184 26.965 0 19.049-14.22 34.074-35.55 34.074zm80.437-20.66c6.707 0 11.67-2.012 15.293-7.11l1.073.269c-3.622 20.659-17.574 26.83-28.306 26.83-15.427 0-30.586-12.342-30.586-35.818 0-22.537 13.281-38.635 31.525-38.635 11.403 0 27.635 6.036 27.635 31.525h-38.635c2.012 15.159 10.061 22.94 22 22.94zm-13.952-50.038c-5.5 0-8.586 7.11-8.586 19.184 0 1.341 0 2.549.135 3.756h16.634c0-17.708-2.817-22.94-8.183-22.94zm81.242 49.77l1.207.403c-2.951 9.927-11 19.854-24.952 19.854-12.744 0-18.378-8.183-18.378-19.318V64.773h-6.574v-.67c10.33-8.855 21.33-17.038 31.928-26.294h.134v23.476h12.342v3.354h-12.342v45.88c0 5.768 2.55 9.524 7.244 9.524 5.232 0 8.184-3.488 9.391-6.842z" fill="#0F0835"/></g></svg>