<svg xmlns="http://www.w3.org/2000/svg" viewBox="0 0 227.2 110.9"><g fill="#80225F"><path d="M67.6 50.9L53.7 37v-1.6c0-10.6-8.6-19.3-19.3-19.3s-19.3 8.6-19.3 19.3v17c0 1.1.4 2.1 1.2 2.8L30.2 69v7.6c0 2.2 1.8 4 4 4s4-1.8 4-4v-9.2c0-1.1-.4-2.1-1.2-2.8L23.1 50.7V35.4c0-6.2 5.1-11.3 11.3-11.3s11.3 5.1 11.3 11.3v3c0 .4 0 .8.1 1.2v.1c0 .2.1.4.2.6.2.6.7 1.2 1.2 1.6l13.7 13.7v21.1c0 14.5-11.8 26.4-26.4 26.4-14-.2-25.5-11-26.4-24.8-.1-2.2-2.1-3.9-4.3-3.7-2.2.1-3.9 2.1-3.7 4.3 1.2 18 16.3 32.1 34.3 32.1 19 0 34.4-15.4 34.4-34.4V53.8c0-1.1-.5-2.1-1.2-2.9z"/><path d="M15.1 73.4v3.2c0 10.6 8.6 19.3 19.3 19.3s19.3-8.6 19.3-19.3V59.9c0-1.1-.4-2.1-1.2-2.8L38.3 42.9v-7.6c0-2.2-1.8-4-4-4s-4 1.8-4 4v9.3c0 1.1.4 2.1 1.2 2.8l14.2 14.1v15c0 6.2-5.1 11.3-11.3 11.3s-11.3-5.1-11.3-11.3v-3.7c.3-1.3 0-2.7-1-3.8H22l-.1-.1L8 55V34.4C8 19.8 19.8 8 34.4 8c13.4 0 24.9 10.4 26.2 23.7v.4c.2 2.2 2.1 3.8 4.3 3.7 2.2-.2 3.8-2.1 3.7-4.3l-.1-.6C66.8 13.3 52.1 0 34.4 0 15.4 0 0 15.4 0 34.4v22.3c0 1.1.4 2.1 1.2 2.8l13.9 13.9z"/></g><path d="M86.1 47.2c0-7.3 5-12.1 12.6-12.1 5.8 0 10.3 3.2 12 8.5.7 2.3-1.1 4.6-3.5 4.6h-.4c-1.6 0-3-1.1-3.5-2.6-.7-2.2-2.5-3.2-4.7-3.2-2.9 0-4.8 1.7-4.8 4.4 0 8.3 17.8 11.2 17.8 23.6 0 7.7-4.6 12.8-12.8 12.8-6.2 0-11-3.3-12.7-8.9-.7-2.3 1.1-4.6 3.5-4.6h.6c1.6 0 2.9 1.1 3.3 2.6.8 2.5 2.9 3.5 5.3 3.5 3 0 5.2-1.8 5.2-4.9.1-8-17.9-12-17.9-23.7zM121 82.5h-.1c-2 0-3.6-1.6-3.6-3.6V36.2c0-2.1 1.7-3.7 3.7-3.7s3.6 1.6 3.6 3.6v9.1s1.1-1.1 5.3-1.1c4.6 0 10.6 4.7 10.6 11.9v22.8c0 2.1-1.7 3.7-3.7 3.7h-.1c-2 0-3.6-1.6-3.6-3.6V57.7c0-4.3-1.2-6.2-4.3-6.2-2.7 0-4.2 1.5-4.2 5v22.3c0 2.1-1.6 3.7-3.6 3.7zm32.6.1l-8.4-32.7c-.6-2.3 1.1-4.5 3.5-4.5h.4c1.7 0 3.2 1.2 3.5 2.8l4.6 21.4 4.6-21.4c.4-1.7 1.8-2.9 3.5-2.9h.5c2.4 0 4.1 2.2 3.5 4.5l-10.9 42.8c-.4 1.6-1.8 2.7-3.5 2.7h-4.7l3.4-12.7zm57.5-6.2c-.1 0-.3-.1-.4-.1-3.8 0-4.4-1.7-4.4-5.2V51.9h3.9c1.8 0 3.3-1.5 3.3-3.3s-1.5-3.3-3.3-3.3h-3.7v-9.7c0-2-1.6-3.6-3.6-3.6h-3.7v13.3h-12.7c0-5.2.5-7.1 5.4-6.7v-6.3s-1.2-.2-3.1-.2c-8 0-9.7 4-9.7 13.2h-2.5c-1.8 0-3.3 1.5-3.3 3.3s1.5 3.3 3.3 3.3h2.5v30.6h3.7c2 0 3.6-1.6 3.6-3.6v-27H199v16.9c0 8.2 1 13.6 9 14.1h2.5c1.8 0 3.3-1.5 3.3-3.3 0-1.6-1.1-2.9-2.7-3.2zm9.7-29.9h-1.5V52h-1.1v-5.5h-1.4v-1h4v1zm1.8 1.6V52h-1.1v-6.5h1.1l1.8 4.2 1.8-4.2h1V52h-1.1v-3.9l-1.4 3.1h-.7l-1.4-3.1z" fill="#3E2B2E"/></svg>