<svg xmlns="http://www.w3.org/2000/svg" viewBox="0 0 462.72 163.09332" height="163.093" width="462.72"><g fill-rule="evenodd"><path d="M91.063 114.126c-2.308 1.486 1.714 12.52 8.345 8.08 28.25-18.92 37.584-50.471 38.665-87.529.044-1.52-.641-2.847-1.906-3.69-12.123-8.075-25.601-13.951-41.615-15.708-5.197-.57-6.406 2.854-6.492 6.538a4.787 4.787 0 0 0 4.292 4.883c13.406 1.42 24.557 6.504 34.565 13.441-.638 32.215-8.888 59.347-35.854 73.985" fill="#e61d25"/><path d="M84.17 117.587c.421-.23.268.018.343.246-3.97 12.234-9.052 26.432-13.14 39.591-.35 1.128-1.22 5.279-1.745 5.616-.4.256-3.153-.495-3.732-.599-3.076-.553-6.096-1.01-8.967-1.655a1.345 1.345 0 0 1-.985-.849 1.35 1.35 0 0 1 .157-1.292 2270.875 2270.875 0 0 0 28.07-41.058m-8.909-7.059c.406.017.186.13.141.328-8.236 7.152-18.14 15.245-26.866 23.016-.748.667-3.195 3.302-3.724 3.317-.403.011-2.075-1.74-2.45-2.068-1.993-1.747-3.988-3.4-5.79-5.126a1.138 1.138 0 0 1-.345-1.046c.07-.397.311-.706.678-.87a1925.657 1925.657 0 0 0 38.356-17.55" fill="#e9e9e9"/><path d="M69.13 126.575c.186-.046.102.034.107.13-2.78 4.315-6.191 9.276-9.112 13.936-.251.4-1.011 1.914-1.248 1.99-.18.058-1.167-.514-1.38-.612-1.13-.527-2.249-1.012-3.29-1.555a.535.535 0 0 1-.294-.428.533.533 0 0 1 .193-.481 912.197 912.197 0 0 0 15.024-12.98" fill="#e61d25"/><path d="M63.06 101.656c.408.25.115.242-.045.42-12.591 2.624-27.44 5.258-40.892 8.237-1.154.257-5.189 1.562-5.742 1.272-.42-.22-1.135-2.983-1.332-3.538-1.046-2.945-2.148-5.792-3.013-8.605-.14-.454-.05-.909.248-1.277a1.35 1.35 0 0 1 1.199-.504 2271.244 2271.244 0 0 0 49.576 3.995m-4.559 9.246c.146.047.055.066.02.134-3.692 1.803-8.08 3.787-12.012 5.768-.336.17-1.483.892-1.677.845-.147-.034-.586-.833-.69-.99-.556-.829-1.12-1.623-1.61-2.427a.433.433 0 0 1-.024-.415.43.43 0 0 1 .332-.25 719.343 719.343 0 0 0 15.661-2.665" fill="#3d67bb"/><path d="M52.398 92.606c.165.12.042.107-.031.176-5.414.707-11.782 1.344-17.57 2.173-.497.07-2.246.494-2.472.353-.17-.107-.384-1.298-.45-1.54-.347-1.28-.722-2.52-.997-3.739a.57.57 0 0 1 .145-.532.571.571 0 0 1 .524-.174 961.61 961.61 0 0 0 20.851 3.283" fill="#e61d25"/><path d="M49.818 80.904c.357.321.073.26-.117.405-12.858.336-27.938.276-41.707.808-1.18.045-5.383.61-5.877.226-.373-.291-.583-3.138-.679-3.718C.935 75.54.358 72.54.011 69.619a1.342 1.342 0 0 1 .472-1.212c.36-.308.812-.41 1.27-.282a2263.416 2263.416 0 0 0 48.065 12.78" fill="#e9e9e9"/><path d="M45.172 64.985c.185.443-.045.265-.28.315-11.756-5.219-25.35-11.747-38.011-17.18-1.086-.466-5.124-1.763-5.405-2.32-.213-.424.82-3.084.984-3.65.87-3.001 1.637-5.958 2.578-8.746.152-.45.488-.767.946-.891.458-.124.91-.021 1.268.29a2265.32 2265.32 0 0 0 37.92 32.182" fill="#e61d25"/><path d="M56.723 48.198c.045.338-.081.172-.25.164-7.093-5.755-15.202-12.748-22.876-18.818-.657-.521-3.186-2.157-3.276-2.59-.066-.331 1.134-1.965 1.35-2.32 1.154-1.898 2.227-3.782 3.388-5.52a.95.95 0 0 1 .814-.435.96.96 0 0 1 .816.433 1611.653 1611.653 0 0 0 20.034 29.086" fill="#3d67bb"/><path d="M80.284 42.391c-.13.378-.182.14-.355.042-4.515-9.827-9.46-21.498-14.431-31.962-.422-.896-2.249-3.959-2.115-4.467.099-.387 2.228-1.49 2.647-1.755 2.214-1.41 4.34-2.848 6.488-4.082a1.12 1.12 0 0 1 1.091-.038c.356.175.586.491.638.884a1896.317 1896.317 0 0 0 6.037 41.378" fill="#e9e9e9"/><path d="M62.269 35.173c-.025.19-.069.082-.16.052-3.02-4.151-6.415-9.124-9.706-13.53-.283-.379-1.42-1.634-1.405-1.883.01-.188.9-.903 1.07-1.064.9-.864 1.755-1.732 2.638-2.508a.537.537 0 0 1 .505-.12.54.54 0 0 1 .38.355 908.08 908.08 0 0 0 6.678 18.698m25.598 51.846l8.109-8.044a6.797 6.797 0 0 1 8.966-8.895l14.275-14.161c.365-3.753.574-7.61.652-11.553-10.31-7.148-22.003-12.05-36.66-12.134l-1.567.029 3.264 12.89a5.464 5.464 0 0 1-3.379 6.438 5.465 5.465 0 0 1-6.772-2.635l-3.15-6.2a4.882 4.882 0 0 0-1.964-2.065 2.916 2.916 0 0 0-3.633.613 2.914 2.914 0 0 0-.18 3.681l6.068 8.35 3.855 5.306.277.349c2.144 2.47.39 5.918-2.363 6.392-.722.125-1.513.044-2.32-.313a5.44 5.44 0 0 1-1.387-.885c-1.64-1.432-6.697-5.97-12.905-11.43-1.434-1.262-2.788-1.731-3.994-1.612-3.596.353-5.871 5.939-5.047 11.276l7.868 4.25a5.468 5.468 0 0 1 2.535 6.696 5.466 5.466 0 0 1-6.27 3.442l-.798-.173a67.302 67.302 0 0 0 2.974 7.515l9.906-9.61a5.068 5.068 0 0 1 5.004-5.886 5.07 5.07 0 1 1-.721 10.09L57.262 89.652c3.373 5.567 7.69 10.507 13.147 14.686l8.788-8.718a6.797 6.797 0 0 1 8.53-8.46l.14-.141m30.084-21.879l-9.116 9.545a6.799 6.799 0 0 1-7.929 8.3l-8.61 9.012a6.797 6.797 0 0 1-7.943 8.315l-7.77 8.137a64.708 64.708 0 0 0 6.626 3.321c21.142-9.158 30.976-25.868 34.742-46.63" fill="#e61d25"/><path d="M102.234 79.107a2.797 2.797 0 0 0 2.791-2.791 2.797 2.797 0 0 0-2.791-2.792 2.797 2.797 0 0 0-2.792 2.792 2.797 2.797 0 0 0 2.792 2.791M85.703 96.44a2.797 2.797 0 0 0 2.792-2.79 2.798 2.798 0 0 0-2.792-2.793 2.797 2.797 0 0 0-2.792 2.792 2.797 2.797 0 0 0 2.792 2.792M69.231 75.802a2.086 2.086 0 0 0 2.082-2.083 2.086 2.086 0 0 0-2.082-2.081 2.087 2.087 0 0 0-2.082 2.081c0 1.148.936 2.083 2.082 2.083" fill="#e61d25"/><path d="M176.955 67.92c0 2.6-.482 4.86-1.443 6.823-.975 1.95-2.273 3.574-3.924 4.885-1.664 1.3-3.587 2.287-5.795 2.95-2.209.664-4.574.988-7.096.988-1.701 0-3.274-.143-4.742-.428-1.455-.287-2.742-.624-3.859-1.027-1.117-.39-2.053-.806-2.807-1.248-.753-.442-1.286-.832-1.624-1.157-.325-.337-.558-.818-.702-1.442-.143-.623-.208-1.507-.208-2.677 0-.793.026-1.442.078-1.975.052-.532.13-.96.247-1.299.117-.325.273-.558.455-.701.194-.144.416-.209.676-.209.35 0 .857.209 1.506.637a27.4 27.4 0 0 0 2.496 1.39c1.014.507 2.235.975 3.651 1.39 1.404.43 3.041.638 4.899.638 1.221 0 2.313-.143 3.274-.43.975-.298 1.794-.701 2.47-1.234a5.31 5.31 0 0 0 1.546-1.962c.35-.78.532-1.65.532-2.612 0-1.117-.298-2.079-.909-2.871-.61-.806-1.403-1.508-2.39-2.131a24.188 24.188 0 0 0-3.34-1.754 260.007 260.007 0 0 1-3.847-1.73 33.314 33.314 0 0 1-3.847-2.078 15.23 15.23 0 0 1-3.339-2.768c-.988-1.078-1.78-2.351-2.39-3.833-.611-1.468-.911-3.235-.911-5.289 0-2.351.443-4.43 1.313-6.224.871-1.78 2.054-3.261 3.535-4.443 1.493-1.183 3.235-2.066 5.25-2.651 2.013-.585 4.157-.871 6.418-.871 1.157 0 2.327.091 3.496.273a23.38 23.38 0 0 1 3.275.715c1.013.311 1.909.65 2.702 1.026.78.39 1.299.702 1.559.962.247.247.416.467.507.637.09.18.169.415.234.714.066.286.103.65.13 1.104.025.443.038.988.038 1.65 0 .729-.013 1.353-.05 1.86a6.97 6.97 0 0 1-.196 1.26c-.091.324-.22.571-.378.714-.168.156-.389.234-.674.234-.274 0-.715-.182-1.326-.533-.61-.35-1.364-.74-2.248-1.169a21.535 21.535 0 0 0-3.093-1.13c-1.17-.352-2.443-.52-3.845-.52-1.092 0-2.04.13-2.859.402-.805.26-1.481.637-2.028 1.105a4.26 4.26 0 0 0-1.221 1.69 5.464 5.464 0 0 0-.403 2.091c0 1.091.299 2.04.897 2.833.598.806 1.403 1.52 2.404 2.144 1 .61 2.144 1.195 3.418 1.741 1.26.546 2.56 1.13 3.885 1.728 1.324.61 2.624 1.3 3.884 2.08a16.038 16.038 0 0 1 3.405 2.78 12.911 12.911 0 0 1 2.404 3.808c.611 1.454.91 3.17.91 5.144m31.238-3.326c0-1.441-.105-2.832-.326-4.158-.207-1.324-.584-2.507-1.104-3.546-.519-1.04-1.195-1.872-2.04-2.483-.858-.624-1.911-.936-3.171-.936-.636 0-1.26.092-1.884.286a7.096 7.096 0 0 0-1.896.936c-.65.429-1.313.987-1.99 1.663a23.255 23.255 0 0 0-2.17 2.547v11.188c1.339 1.69 2.625 2.989 3.833 3.911 1.223.923 2.483 1.378 3.795 1.378 1.248 0 2.3-.312 3.17-.95a7.387 7.387 0 0 0 2.146-2.48c.557-1.027.973-2.184 1.233-3.483.274-1.287.404-2.586.404-3.873zm9.979-.662c0 3.015-.325 5.743-.975 8.16-.637 2.417-1.585 4.483-2.833 6.185a12.563 12.563 0 0 1-4.625 3.924c-1.859.91-3.976 1.365-6.354 1.365-.988 0-1.898-.091-2.717-.285a10.905 10.905 0 0 1-2.403-.872 16.166 16.166 0 0 1-2.3-1.468 29.033 29.033 0 0 1-2.353-2.053V94.87c0 .26-.077.481-.233.69-.143.195-.403.375-.779.506-.364.143-.859.247-1.456.325-.61.078-1.39.117-2.325.117-.936 0-1.716-.039-2.327-.117-.597-.078-1.09-.182-1.456-.325-.376-.13-.636-.311-.779-.507a1.103 1.103 0 0 1-.233-.689V47.43c0-.248.064-.468.195-.664.116-.194.337-.35.662-.48.312-.117.728-.22 1.26-.286.52-.065 1.17-.091 1.95-.091.766 0 1.402.026 1.922.091s.95.169 1.262.286c.31.13.532.286.662.48.13.196.195.416.195.676v4.002c.987-1.013 1.95-1.91 2.91-2.676.949-.78 1.91-1.416 2.898-1.937a13.85 13.85 0 0 1 3.067-1.169 14.661 14.661 0 0 1 3.365-.377c2.481 0 4.6.494 6.355 1.468A12.064 12.064 0 0 1 215 50.77c1.104 1.689 1.911 3.677 2.416 5.938.507 2.248.755 4.665.755 7.225m27.185 3.026h-3.652c-1.547 0-2.859.117-3.95.338-1.093.234-1.975.572-2.665 1.04-.688.455-1.181 1-1.493 1.65-.325.65-.481 1.39-.481 2.222 0 1.43.456 2.547 1.352 3.353.896.818 2.144 1.221 3.741 1.221a6.983 6.983 0 0 0 3.704-1.026c1.13-.69 2.275-1.69 3.444-3.015zm9.433 14.58c0 .35-.13.623-.376.831-.261.209-.662.35-1.21.442-.546.091-1.35.13-2.43.13-1.142 0-1.974-.039-2.494-.13-.52-.091-.896-.233-1.104-.442-.222-.208-.326-.48-.326-.831v-2.703c-1.402 1.494-2.988 2.65-4.781 3.482-1.78.833-3.768 1.248-5.952 1.248-1.793 0-3.456-.235-4.963-.702-1.508-.468-2.808-1.17-3.912-2.091a9.574 9.574 0 0 1-2.573-3.444c-.61-1.378-.91-2.976-.91-4.795 0-1.988.391-3.703 1.158-5.159.779-1.469 1.936-2.664 3.47-3.625 1.533-.948 3.43-1.65 5.717-2.105 2.273-.455 4.925-.689 7.938-.689h3.315v-2.053c0-1.066-.105-2.001-.327-2.807-.206-.793-.57-1.468-1.064-2-.493-.533-1.144-.923-1.976-1.183-.818-.247-1.845-.377-3.053-.377-1.597 0-3.027.182-4.275.532-1.26.351-2.364.755-3.326 1.183-.962.429-1.767.832-2.418 1.183-.649.35-1.168.532-1.572.532-.286 0-.533-.09-.74-.26a1.879 1.879 0 0 1-.533-.766c-.143-.325-.247-.74-.324-1.222a9.893 9.893 0 0 1-.117-1.585c0-.792.064-1.416.194-1.87.118-.456.364-.859.715-1.235.364-.364.975-.767 1.87-1.209a21.3 21.3 0 0 1 3.12-1.234 26.82 26.82 0 0 1 3.897-.936 25.46 25.46 0 0 1 4.368-.364c2.664 0 4.937.26 6.834.78 1.884.52 3.443 1.325 4.652 2.404 1.222 1.078 2.118 2.469 2.676 4.171.559 1.69.832 3.716.832 6.042V81.54m31.394-30.94c0 .909-.027 1.663-.079 2.247-.052.585-.13 1.04-.22 1.366-.104.324-.247.558-.403.688-.169.13-.377.182-.637.182a2.12 2.12 0 0 1-.688-.13c-.247-.09-.533-.182-.857-.286a12.974 12.974 0 0 0-1.042-.286 5.56 5.56 0 0 0-1.26-.13c-.532 0-1.065.104-1.597.325a6.602 6.602 0 0 0-1.663 1.014c-.573.454-1.169 1.065-1.793 1.819-.625.766-1.288 1.703-2.001 2.82v21.193c0 .247-.079.468-.235.663-.143.194-.403.35-.78.48a7.515 7.515 0 0 1-1.455.286c-.612.065-1.389.091-2.326.091-.935 0-1.715-.026-2.326-.09a7.68 7.68 0 0 1-1.456-.286c-.376-.13-.636-.287-.78-.481a1.04 1.04 0 0 1-.232-.663V47.429c0-.247.064-.467.194-.663.117-.194.352-.35.677-.48.337-.117.752-.22 1.272-.286.52-.065 1.184-.091 1.963-.091.818 0 1.481.026 2.013.091.533.065.95.169 1.248.286.287.13.493.286.624.48.13.196.195.416.195.663v4.236c.882-1.273 1.728-2.313 2.508-3.131.792-.82 1.546-1.481 2.248-1.962.714-.48 1.429-.819 2.144-1.001a7.952 7.952 0 0 1 2.132-.286c.324 0 .686.013 1.065.052a10.332 10.332 0 0 1 2.247.494c.312.117.534.234.676.364.13.13.234.273.3.416a3.5 3.5 0 0 1 .169.636c.05.26.09.663.115 1.196.026.532.04 1.247.04 2.157m37.461 30.861c0 .247-.064.468-.208.663-.141.194-.39.338-.765.455-.366.116-.871.207-1.508.272-.636.065-1.456.091-2.482.091a33.06 33.06 0 0 1-2.534-.078c-.65-.052-1.182-.13-1.599-.247-.415-.116-.74-.273-.973-.481-.235-.195-.43-.467-.611-.792l-11.305-17.906v17.984c0 .247-.078.468-.235.663-.143.194-.401.35-.78.48a7.522 7.522 0 0 1-1.453.286c-.611.065-1.391.091-2.327.091-.936 0-1.716-.026-2.327-.09a7.641 7.641 0 0 1-1.454-.286c-.378-.13-.638-.287-.779-.481a1.027 1.027 0 0 1-.235-.663V31.33c0-.26.078-.48.235-.689.141-.195.401-.377.779-.506.364-.143.857-.247 1.454-.326.611-.077 1.391-.117 2.327-.117.936 0 1.716.04 2.327.117.597.079 1.09.183 1.453.326.379.13.637.311.78.506a1.1 1.1 0 0 1 .235.689v29.82l10.057-13.526c.208-.313.428-.572.69-.807.246-.22.583-.403 1-.532.415-.117.935-.22 1.56-.286.622-.065 1.415-.091 2.377-.091.934 0 1.728.026 2.377.091a8.903 8.903 0 0 1 1.56.286c.39.13.663.286.805.48.156.196.234.43.234.702 0 .377-.091.793-.286 1.222-.194.429-.481.884-.857 1.377l-9.927 11.279 11.524 17.789c.3.506.522.948.663 1.312.144.364.208.702.208 1.014m33.136-1.623c0 .52-.027.948-.079 1.286a3.231 3.231 0 0 1-.246.884c-.118.233-.247.416-.416.533a1.02 1.02 0 0 1-.598.168H333.65c-.584 0-1.142-.194-1.662-.584-.519-.403-.78-1.092-.78-2.08V34.422a.89.89 0 0 1 .156-.532c.105-.157.273-.273.533-.364.247-.091.597-.17 1.025-.234.431-.065.95-.091 1.56-.091.638 0 1.158.026 1.587.09.415.066.752.144 1 .235.26.09.428.207.532.364a.89.89 0 0 1 .156.532v42.594h17.685c.234 0 .428.052.598.17.156.117.298.285.416.494.117.22.194.506.246.87.052.351.079.78.079 1.287m26.066-13.735h-5.368c-1.715 0-3.21.143-4.483.442-1.26.286-2.312.727-3.157 1.3-.831.57-1.443 1.247-1.846 2.052-.389.806-.584 1.729-.584 2.768 0 1.78.559 3.197 1.688 4.25 1.131 1.052 2.704 1.584 4.744 1.584a8.73 8.73 0 0 0 4.575-1.26c1.401-.832 2.884-2.118 4.43-3.847zm6.237 15.696c0 .3-.105.533-.3.69-.208.155-.48.259-.844.337-.352.078-.87.117-1.56.117-.65 0-1.183-.039-1.573-.117-.39-.078-.675-.182-.856-.337-.183-.157-.274-.377-.274-.69v-3.43c-1.493 1.598-3.157 2.846-5.002 3.73a13.543 13.543 0 0 1-5.848 1.311c-1.806 0-3.443-.232-4.899-.701-1.455-.468-2.703-1.156-3.73-2.04a9.208 9.208 0 0 1-2.402-3.274c-.572-1.3-.859-2.768-.859-4.419 0-1.935.391-3.611 1.183-5.028.78-1.43 1.91-2.612 3.392-3.548 1.467-.935 3.275-1.65 5.405-2.118 2.131-.467 4.535-.7 7.199-.7h4.73v-2.678c0-1.312-.143-2.482-.417-3.508-.285-1.014-.728-1.858-1.35-2.534-.624-.676-1.43-1.182-2.418-1.52-.986-.351-2.208-.52-3.65-.52-1.547 0-2.938.182-4.158.558-1.234.377-2.314.78-3.236 1.235-.922.454-1.702.857-2.326 1.235-.611.376-1.079.558-1.376.558a.895.895 0 0 1-.535-.156c-.155-.091-.285-.247-.403-.455-.116-.195-.194-.454-.246-.766a6.732 6.732 0 0 1-.078-1.053c0-.623.039-1.13.13-1.495.09-.363.312-.714.649-1.039.339-.324.936-.714 1.767-1.169a20.5 20.5 0 0 1 2.898-1.235 27.033 27.033 0 0 1 3.574-.922 20.765 20.765 0 0 1 3.912-.364c2.454 0 4.548.273 6.276.832 1.726.558 3.117 1.39 4.182 2.468 1.067 1.08 1.834 2.417 2.315 4.015.48 1.6.728 3.47.728 5.601v23.129m36.486-16.931c0-1.753-.13-3.456-.402-5.106-.26-1.664-.728-3.12-1.39-4.392-.663-1.274-1.534-2.3-2.626-3.067-1.09-.779-2.456-1.17-4.08-1.17-.805 0-1.61.118-2.404.338-.779.234-1.584.624-2.39 1.157-.82.532-1.663 1.222-2.534 2.066-.883.832-1.82 1.897-2.807 3.17v13.67c1.728 2.118 3.378 3.73 4.951 4.834 1.572 1.104 3.223 1.663 4.924 1.663 1.573 0 2.91-.376 4.03-1.143 1.117-.767 2.025-1.78 2.727-3.04.702-1.248 1.208-2.665 1.52-4.224.326-1.572.482-3.157.482-4.756zm6.55-.727c0 2.975-.325 5.64-.976 8.017-.636 2.378-1.584 4.405-2.844 6.068-1.248 1.677-2.795 2.963-4.613 3.846-1.82.897-3.912 1.338-6.264 1.338-1.091 0-2.106-.104-3.027-.324a10.52 10.52 0 0 1-2.716-1.039 17.928 17.928 0 0 1-2.664-1.833 34.26 34.26 0 0 1-2.807-2.663v4.21a.949.949 0 0 1-.156.532c-.104.157-.26.274-.493.364a4.173 4.173 0 0 1-.859.208 9.26 9.26 0 0 1-1.325.078c-.507 0-.948-.026-1.299-.078a3.986 3.986 0 0 1-.882-.208c-.223-.09-.379-.207-.456-.364a1.14 1.14 0 0 1-.116-.532V30.914c0-.208.037-.39.128-.533.092-.156.261-.286.508-.39a4.24 4.24 0 0 1 .974-.22c.403-.052.91-.079 1.534-.079.637 0 1.156.027 1.558.078.418.053.728.13.963.222.233.103.39.233.493.389a.892.892 0 0 1 .156.533v20.479c1.014-1.04 1.987-1.924 2.95-2.638.948-.702 1.87-1.287 2.78-1.728a13.113 13.113 0 0 1 2.742-.975c.91-.195 1.871-.299 2.886-.299 2.481 0 4.598.494 6.365 1.482a12.441 12.441 0 0 1 4.29 3.976c1.103 1.663 1.91 3.612 2.415 5.847.507 2.235.755 4.6.755 7.082m30.6 8.264c0 1.754-.324 3.313-.973 4.691a9.52 9.52 0 0 1-2.756 3.456c-1.195.936-2.612 1.65-4.262 2.13-1.649.483-3.47.728-5.444.728-1.222 0-2.378-.09-3.482-.284-1.106-.183-2.094-.417-2.976-.716a15.666 15.666 0 0 1-2.223-.896c-.61-.312-1.052-.598-1.325-.845-.286-.247-.494-.61-.611-1.065-.13-.455-.195-1.079-.195-1.872 0-.48.027-.882.079-1.208a5.26 5.26 0 0 1 .181-.806.908.908 0 0 1 .326-.441.859.859 0 0 1 .48-.13c.272 0 .689.169 1.234.52a28.35 28.35 0 0 0 2.015 1.117c.793.402 1.74.78 2.832 1.118 1.092.35 2.34.52 3.755.52 1.066 0 2.028-.118 2.885-.352.87-.22 1.61-.558 2.248-1.013a4.529 4.529 0 0 0 1.468-1.702c.337-.69.507-1.508.507-2.456 0-.962-.246-1.78-.74-2.43-.494-.663-1.144-1.248-1.95-1.754a16.378 16.378 0 0 0-2.741-1.352c-1.015-.389-2.053-.806-3.132-1.234a36.272 36.272 0 0 1-3.144-1.469 12.043 12.043 0 0 1-2.755-2 9.242 9.242 0 0 1-1.949-2.82c-.493-1.092-.741-2.391-.741-3.925 0-1.338.26-2.625.78-3.859a8.92 8.92 0 0 1 2.338-3.235c1.054-.923 2.354-1.677 3.912-2.235 1.559-.559 3.379-.832 5.471-.832.91 0 1.819.078 2.741.234.91.156 1.73.364 2.468.598.742.233 1.366.494 1.884.767.52.286.924.519 1.183.74.273.208.443.39.533.533.091.156.156.325.195.52.039.181.079.415.117.688.039.286.052.623.052 1.026 0 .43-.013.806-.052 1.118a2.57 2.57 0 0 1-.196.766c-.089.208-.193.352-.324.442a.712.712 0 0 1-.414.13c-.235 0-.56-.142-1.002-.428a15.63 15.63 0 0 0-1.676-.897 17.01 17.01 0 0 0-2.417-.896c-.923-.286-1.988-.43-3.184-.43-1.065 0-2.013.118-2.82.365-.819.234-1.48.572-2.001 1.013a4.238 4.238 0 0 0-1.182 1.573 4.707 4.707 0 0 0-.402 1.961c0 .988.258 1.82.766 2.495.507.676 1.156 1.26 1.975 1.768.805.506 1.741.961 2.781 1.377 1.039.403 2.092.819 3.171 1.248a44.27 44.27 0 0 1 3.196 1.455 12.04 12.04 0 0 1 2.795 1.936 8.736 8.736 0 0 1 1.96 2.741c.494 1.066.741 2.34.741 3.808" fill="#131420"/><path d="M212.992 109.665c0 .281-.007.522-.023.718a3.312 3.312 0 0 1-.081.506 1.241 1.241 0 0 1-.132.368 1.757 1.757 0 0 1-.27.34c-.12.127-.362.293-.714.494a8.93 8.93 0 0 1-1.3.575 11.798 11.798 0 0 1-3.881.638c-1.49 0-2.836-.229-4.038-.69a7.966 7.966 0 0 1-3.065-2.064c-.845-.915-1.49-2.053-1.939-3.428-.448-1.369-.672-2.963-.672-4.779 0-1.853.247-3.497.742-4.935.494-1.437 1.185-2.645 2.07-3.623a8.637 8.637 0 0 1 3.192-2.22c1.236-.507 2.606-.76 4.1-.76a9.59 9.59 0 0 1 1.75.157c.562.096 1.08.229 1.557.395a7.96 7.96 0 0 1 1.29.564c.378.22.649.403.798.553.15.154.253.282.31.38.06.102.105.23.133.385.034.16.064.345.081.557.017.214.023.472.023.788 0 .333-.011.621-.035.857a2.39 2.39 0 0 1-.115.57.823.823 0 0 1-.201.317.407.407 0 0 1-.27.102c-.167 0-.38-.097-.638-.292a10.97 10.97 0 0 0-1.001-.657 8.03 8.03 0 0 0-1.467-.655c-.564-.195-1.236-.294-2.024-.294-.864 0-1.633.179-2.312.53a5 5 0 0 0-1.732 1.512c-.477.66-.839 1.455-1.087 2.387-.246.927-.368 1.979-.368 3.146 0 1.276.132 2.387.398 3.325.264.93.638 1.708 1.126 2.31a4.49 4.49 0 0 0 1.766 1.352c.69.3 1.466.45 2.329.45.783 0 1.46-.093 2.036-.276a9.148 9.148 0 0 0 1.467-.61c.414-.225.748-.426 1.012-.604.265-.178.466-.27.616-.27.109 0 .201.023.264.068.069.046.126.133.173.271.04.132.075.322.097.564.023.246.035.569.035.978m11.635 3.294l-1.823 5.315c-.104.281-.375.483-.823.61-.449.12-1.104.183-1.966.183-.45 0-.812-.017-1.076-.057-.271-.04-.471-.104-.61-.195-.133-.093-.208-.202-.218-.334-.012-.138.022-.3.104-.49l2.001-5.032a1.172 1.172 0 0 1-.392-.31 1.514 1.514 0 0 1-.264-.449l-5.159-13.825c-.144-.391-.218-.696-.218-.904 0-.207.068-.367.201-.489.132-.114.363-.195.679-.24.322-.047.742-.07 1.27-.07.478 0 .858.006 1.139.023s.5.063.656.128a.696.696 0 0 1 .35.315c.08.138.157.34.237.599l3.536 10.065h.053l3.208-10.267c.07-.293.156-.489.265-.588.104-.09.282-.16.528-.205.248-.047.686-.07 1.302-.07.488 0 .89.023 1.206.07.323.045.559.126.714.252a.607.607 0 0 1 .224.495c0 .207-.04.454-.132.736l-4.992 14.734m18.386-8c0-.638-.045-1.254-.144-1.845a5.145 5.145 0 0 0-.494-1.582 3.065 3.065 0 0 0-.92-1.1c-.374-.275-.852-.413-1.427-.413-.276 0-.552.04-.823.114-.269.081-.545.22-.833.41-.288.19-.58.437-.885.736a10.61 10.61 0 0 0-.96 1.127v4.987c.597.759 1.168 1.333 1.708 1.73.545.397 1.116.593 1.713.593.547 0 1.019-.138 1.397-.42a3.46 3.46 0 0 0 .955-1.092 5.35 5.35 0 0 0 .547-1.53c.109-.57.166-1.145.166-1.715zm4.383-.293c0 1.335-.144 2.537-.437 3.607-.294 1.064-.714 1.972-1.26 2.725a5.677 5.677 0 0 1-2.03 1.737c-.805.403-1.714.604-2.732.604a6.46 6.46 0 0 1-1.414-.143 4.672 4.672 0 0 1-1.255-.461 6.837 6.837 0 0 1-1.179-.811 11.221 11.221 0 0 1-1.184-1.179v1.64a.56.56 0 0 1-.093.316.745.745 0 0 1-.304.213 2.353 2.353 0 0 1-.564.115 9.38 9.38 0 0 1-.861.034 9.24 9.24 0 0 1-.864-.034 2.235 2.235 0 0 1-.558-.115c-.144-.058-.242-.127-.294-.213a.55.55 0 0 1-.086-.31V90.218c0-.115.035-.213.104-.304.063-.087.179-.167.346-.225.161-.063.378-.109.644-.144a8.277 8.277 0 0 1 1.029-.052c.413 0 .759.017 1.03.052.263.035.483.081.643.144.167.058.283.138.344.225.07.09.106.195.106.304v8.317c.378-.38.765-.707 1.144-.978.378-.27.764-.49 1.144-.668a5.38 5.38 0 0 1 1.178-.379 6.92 6.92 0 0 1 1.278-.115c1.109 0 2.053.224 2.829.667a5.474 5.474 0 0 1 1.892 1.794c.49.748.845 1.628 1.07 2.635.225 1.006.334 2.065.334 3.174m13.171-1.436c.033-1.19-.207-2.128-.719-2.808-.513-.683-1.301-1.023-2.37-1.023-.54 0-1.013.104-1.409.305a2.826 2.826 0 0 0-1.001.816 3.7 3.7 0 0 0-.604 1.215 6.012 6.012 0 0 0-.248 1.495zm4.106 1.208c0 .517-.116.896-.345 1.143-.23.248-.547.375-.956.375h-9.156c0 .638.076 1.214.23 1.736.15.518.391.96.72 1.323.333.363.758.64 1.282.828.524.19 1.144.288 1.875.288.742 0 1.392-.052 1.956-.162a12.78 12.78 0 0 0 1.454-.355 16.7 16.7 0 0 0 1.018-.357c.272-.11.49-.162.657-.162.103 0 .188.018.252.058.07.04.127.11.173.213a1.5 1.5 0 0 1 .091.426 11.033 11.033 0 0 1 .007 1.328 3.702 3.702 0 0 1-.052.443 1 1 0 0 1-.098.311 1.175 1.175 0 0 1-.178.246c-.075.076-.271.185-.598.323a9.256 9.256 0 0 1-1.249.402 16.55 16.55 0 0 1-1.73.346c-.651.097-1.346.15-2.089.15-1.34 0-2.508-.167-3.514-.507-1-.333-1.839-.845-2.518-1.53-.673-.684-1.173-1.552-1.508-2.594-.326-1.047-.493-2.272-.493-3.674 0-1.335.172-2.537.523-3.612.345-1.07.85-1.98 1.518-2.727a6.458 6.458 0 0 1 2.416-1.707c.954-.397 2.024-.593 3.215-.593 1.259 0 2.335.184 3.227.558.896.369 1.626.885 2.202 1.541.57.656.995 1.438 1.264 2.335.271.897.404 1.875.404 2.934v.673m13.164-5.689c0 .403-.012.736-.034.995-.023.26-.058.46-.099.604a.659.659 0 0 1-.177.305.443.443 0 0 1-.282.08.924.924 0 0 1-.305-.057 8.905 8.905 0 0 0-.84-.254 2.517 2.517 0 0 0-.559-.057c-.234 0-.47.047-.706.144a2.953 2.953 0 0 0-.736.448 5.518 5.518 0 0 0-.794.807 13.31 13.31 0 0 0-.886 1.247v9.38a.46.46 0 0 1-.103.295c-.064.085-.177.153-.344.211a3.357 3.357 0 0 1-.645.127c-.271.029-.616.04-1.03.04-.414 0-.76-.011-1.029-.04a3.299 3.299 0 0 1-.644-.127c-.167-.058-.283-.126-.345-.211a.46.46 0 0 1-.104-.295V97.344c0-.11.029-.206.086-.292.051-.086.156-.156.299-.213.15-.052.335-.097.564-.127.23-.03.523-.04.868-.04.363 0 .656.01.892.04s.42.075.552.127a.63.63 0 0 1 .276.213.516.516 0 0 1 .087.292v1.875a11.52 11.52 0 0 1 1.11-1.385c.35-.363.683-.656.995-.868.316-.214.63-.364.948-.443.31-.088.627-.127.944-.127.143 0 .304.006.47.023.167.016.346.045.525.087.178.039.34.086.47.132a.957.957 0 0 1 .3.161.68.68 0 0 1 .134.183c.028.07.05.162.073.282.023.116.04.294.052.53.012.235.017.552.017.954m24.586 4.532c0 .317-.016.582-.051.794a1.73 1.73 0 0 1-.15.518.762.762 0 0 1-.235.276.528.528 0 0 1-.288.086h-5.244v5.71a.5.5 0 0 1-.088.294.585.585 0 0 1-.282.219 2.03 2.03 0 0 1-.54.143 5.627 5.627 0 0 1-.84.052 5.61 5.61 0 0 1-.844-.052 2.053 2.053 0 0 1-.542-.143.696.696 0 0 1-.292-.22.47.47 0 0 1-.092-.292v-5.711h-5.211a.498.498 0 0 1-.283-.086.814.814 0 0 1-.224-.276 1.881 1.881 0 0 1-.161-.518 4.411 4.411 0 0 1-.057-.793c0-.305.017-.57.052-.79.033-.217.081-.39.144-.522a.711.711 0 0 1 .206-.277.446.446 0 0 1 .271-.086h5.263v-5.71c0-.11.029-.213.092-.31a.68.68 0 0 1 .292-.236 2.09 2.09 0 0 1 .542-.145c.223-.034.504-.05.844-.05.334 0 .616.016.84.05.224.035.403.081.54.145.132.062.231.138.282.235a.59.59 0 0 1 .088.31v5.711h5.296c.086 0 .172.029.26.086.085.059.16.15.217.277.064.132.11.305.144.523.035.22.05.484.05.789m22.223 3.294c0-.505-.085-.96-.252-1.362a2.567 2.567 0 0 0-.742-1.001c-.322-.27-.735-.477-1.242-.627-.505-.144-1.161-.218-1.972-.218h-2.624v6.21h3.199c.616 0 1.132-.062 1.559-.195.42-.126.782-.321 1.092-.575a2.69 2.69 0 0 0 .725-.943c.172-.374.257-.805.257-1.289zm-1.137-9.35c0-.438-.07-.829-.201-1.18a2.126 2.126 0 0 0-.604-.868c-.271-.231-.611-.403-1.018-.529-.409-.121-.954-.184-1.64-.184h-2.232v5.66h2.468c.638 0 1.151-.077 1.53-.231a2.6 2.6 0 0 0 .949-.622 2.59 2.59 0 0 0 .564-.925c.12-.357.184-.726.184-1.121zm5.728 9.19c0 .776-.11 1.478-.321 2.11a5.729 5.729 0 0 1-.882 1.668 5.899 5.899 0 0 1-1.344 1.248c-.524.351-1.1.633-1.725.863-.628.224-1.301.39-2.015.495-.712.11-1.506.16-2.38.16h-5.792c-.368 0-.678-.108-.93-.327-.255-.218-.38-.575-.38-1.07V92.547c0-.493.125-.85.38-1.068a1.37 1.37 0 0 1 .93-.328h5.464c1.335 0 2.462.115 3.388.34.926.223 1.702.563 2.335 1.017a4.454 4.454 0 0 1 1.455 1.726c.338.695.505 1.511.505 2.456 0 .528-.068 1.023-.2 1.49a4.332 4.332 0 0 1-1.541 2.282c-.375.294-.8.53-1.283.707.616.116 1.19.31 1.713.594.524.28.978.643 1.363 1.086.39.443.696.966.921 1.558.224.599.339 1.266.339 2.008m7.574 5.975a.46.46 0 0 1-.103.295c-.064.085-.179.153-.346.211a3.32 3.32 0 0 1-.644.127c-.269.029-.614.04-1.028.04-.416 0-.76-.011-1.03-.04a3.32 3.32 0 0 1-.644-.127c-.167-.058-.282-.126-.346-.211a.46.46 0 0 1-.102-.295V90.22c0-.116.033-.214.102-.305a.711.711 0 0 1 .346-.225 2.89 2.89 0 0 1 .644-.144c.27-.035.614-.052 1.03-.052.414 0 .759.017 1.028.052.264.035.483.081.644.144a.711.711 0 0 1 .346.225.48.48 0 0 1 .102.304v22.171m15.07-7.505c0-.742-.058-1.426-.179-2.048-.12-.626-.316-1.167-.604-1.628a3.016 3.016 0 0 0-1.121-1.08c-.471-.26-1.058-.386-1.771-.386-.632 0-1.184.116-1.663.345a3 3 0 0 0-1.168 1.013c-.304.443-.533.978-.682 1.6-.158.625-.231 1.332-.231 2.132 0 .742.064 1.425.183 2.048.128.626.329 1.166.605 1.627.276.46.65.817 1.127 1.07.472.253 1.058.38 1.761.38.643 0 1.201-.116 1.677-.345a3.01 3.01 0 0 0 1.168-1.001c.306-.443.53-.972.679-1.593a9.54 9.54 0 0 0 .219-2.134zm4.348-.167c0 1.276-.167 2.444-.507 3.503-.339 1.052-.845 1.96-1.535 2.725-.685.766-1.542 1.351-2.577 1.772-1.035.414-2.243.621-3.624.621-1.339 0-2.501-.185-3.49-.558-.989-.367-1.811-.908-2.462-1.616-.65-.707-1.132-1.576-1.448-2.61-.317-1.031-.472-2.209-.472-3.537 0-1.278.172-2.45.512-3.51.345-1.063.856-1.972 1.547-2.731.685-.753 1.541-1.34 2.57-1.76 1.024-.415 2.231-.62 3.612-.62 1.351 0 2.519.183 3.508.545.991.369 1.807.904 2.45 1.61.65.708 1.128 1.576 1.444 2.612.317 1.03.472 2.214.472 3.554m14.723 5.274c0 .293-.006.535-.023.737a4.31 4.31 0 0 1-.068.5c-.03.133-.064.24-.106.328-.038.086-.125.188-.257.321a3.95 3.95 0 0 1-.69.472 7.212 7.212 0 0 1-1.115.501 8.82 8.82 0 0 1-1.352.35c-.49.093-.995.138-1.514.138-1.156 0-2.18-.178-3.07-.54a5.758 5.758 0 0 1-2.255-1.594c-.604-.702-1.064-1.564-1.368-2.577-.312-1.011-.467-2.167-.467-3.472 0-1.508.191-2.813.564-3.905.379-1.1.903-2.008 1.576-2.727a6.327 6.327 0 0 1 2.392-1.605c.92-.35 1.934-.523 3.038-.523.448 0 .885.04 1.322.12a6.951 6.951 0 0 1 2.22.77c.299.175.512.318.632.444.127.121.214.225.266.311.045.086.085.196.114.328.028.138.052.305.07.5.016.2.022.436.022.72 0 .655-.052 1.115-.166 1.38-.116.263-.259.396-.438.396-.19 0-.397-.08-.609-.235a15.664 15.664 0 0 0-.759-.524 5.417 5.417 0 0 0-1.042-.523c-.402-.155-.886-.236-1.45-.236-1.104 0-1.944.426-2.529 1.27-.581.852-.875 2.094-.875 3.733 0 .806.075 1.52.219 2.14.15.615.361 1.133.65 1.547.287.414.645.73 1.075.938.438.207.938.31 1.514.31.58 0 1.086-.086 1.505-.265.42-.171.788-.368 1.105-.58.311-.214.575-.41.794-.581.212-.179.39-.265.534-.265.104 0 .184.03.254.086.069.058.12.162.161.312.039.154.07.35.092.586.023.235.035.54.035.914m17.064 2.415a.49.49 0 0 1-.094.294c-.061.086-.17.15-.338.2a3.386 3.386 0 0 1-.667.122c-.281.029-.645.04-1.1.04-.459 0-.833-.011-1.121-.034a3.828 3.828 0 0 1-.707-.11 1.062 1.062 0 0 1-.43-.213 1.216 1.216 0 0 1-.271-.35l-5.004-7.926v7.96a.46.46 0 0 1-.103.295c-.064.085-.179.153-.345.211a3.32 3.32 0 0 1-.644.127c-.272.029-.616.04-1.031.04a10.1 10.1 0 0 1-1.028-.04 3.315 3.315 0 0 1-.645-.127c-.167-.058-.282-.126-.346-.211a.467.467 0 0 1-.102-.295V90.22a.49.49 0 0 1 .102-.305.711.711 0 0 1 .346-.225c.161-.063.38-.109.645-.144.27-.035.615-.052 1.028-.052.415 0 .759.017 1.03.052.265.035.483.081.645.144a.711.711 0 0 1 .345.225c.07.09.103.189.103.304v13.2l4.452-5.987c.092-.14.189-.254.304-.357a1.18 1.18 0 0 1 .442-.236c.186-.052.415-.097.691-.127.276-.03.627-.04 1.052-.04.415 0 .765.01 1.053.04.282.03.512.075.691.127.17.057.292.127.356.213a.48.48 0 0 1 .103.31c0 .167-.04.351-.126.541a3.25 3.25 0 0 1-.381.61l-4.392 4.992 5.101 7.873c.131.224.231.42.292.58.063.161.094.31.094.449m13.18-2.415c0 .293-.004.535-.022.737-.018.195-.04.362-.069.5a1.57 1.57 0 0 1-.104.328c-.04.086-.127.188-.257.321a4.14 4.14 0 0 1-.691.472 7.133 7.133 0 0 1-1.117.501 8.684 8.684 0 0 1-1.351.35 8.13 8.13 0 0 1-1.512.138c-1.156 0-2.18-.178-3.072-.54a5.754 5.754 0 0 1-2.253-1.594c-.606-.702-1.064-1.564-1.371-2.577-.31-1.011-.464-2.167-.464-3.472 0-1.508.19-2.813.563-3.905.38-1.1.902-2.008 1.576-2.727a6.348 6.348 0 0 1 2.392-1.605c.92-.35 1.932-.523 3.036-.523.449 0 .886.04 1.324.12.432.076.834.185 1.213.317.375.138.713.287 1.007.454.298.174.51.317.632.443.126.121.212.225.264.311.048.086.088.196.116.328.029.138.052.305.069.5.017.2.023.436.023.72 0 .655-.051 1.115-.167 1.38-.115.263-.26.396-.436.396-.19 0-.397-.08-.61-.235a14.532 14.532 0 0 0-.76-.524 5.389 5.389 0 0 0-1.04-.523c-.403-.155-.886-.236-1.45-.236-1.104 0-1.944.426-2.53 1.27-.582.852-.875 2.094-.875 3.733 0 .806.074 1.52.218 2.14.151.615.363 1.133.651 1.547.288.414.643.73 1.075.938.437.207.937.31 1.513.31.581 0 1.087-.086 1.507-.265a6.238 6.238 0 0 0 1.104-.58c.31-.214.576-.41.793-.581.213-.179.392-.265.535-.265.104 0 .184.03.254.086.067.058.119.162.16.312.04.154.07.35.092.586.024.235.034.54.034.914m17.444 2.398a.46.46 0 0 1-.104.295c-.063.085-.178.153-.334.211a3.266 3.266 0 0 1-.654.127c-.276.029-.616.04-1.019.04-.42 0-.765-.011-1.041-.04a3.247 3.247 0 0 1-.655-.127c-.156-.058-.27-.126-.333-.211a.46.46 0 0 1-.104-.295v-8.575c0-.73-.052-1.305-.16-1.719a3.25 3.25 0 0 0-.462-1.07 2.114 2.114 0 0 0-.782-.696 2.44 2.44 0 0 0-1.115-.242c-.541 0-1.081.195-1.633.592-.547.393-1.122.966-1.715 1.715v9.995a.46.46 0 0 1-.104.295c-.063.085-.177.153-.344.211-.161.053-.38.098-.645.127-.27.029-.615.04-1.028.04-.415 0-.76-.011-1.031-.04a3.283 3.283 0 0 1-.643-.127c-.168-.058-.282-.126-.345-.211a.46.46 0 0 1-.104-.295V90.22c0-.116.035-.214.104-.305.063-.087.177-.167.345-.225a2.89 2.89 0 0 1 .643-.144c.27-.035.616-.052 1.03-.052.414 0 .76.017 1.029.052.265.035.484.081.645.144.167.058.281.138.344.225.07.09.104.195.104.304v8.317c.73-.719 1.473-1.254 2.232-1.61a5.57 5.57 0 0 1 2.37-.53c1.023 0 1.886.167 2.587.506a4.53 4.53 0 0 1 1.703 1.38 5.67 5.67 0 0 1 .932 2.048c.19.782.287 1.73.287 2.841v9.22m12.791-6.401h-1.617a8.94 8.94 0 0 0-1.748.149c-.482.103-.873.252-1.178.46a1.817 1.817 0 0 0-.662.73 2.17 2.17 0 0 0-.213.984c0 .632.201 1.127.599 1.483.396.362.949.54 1.656.54.593 0 1.138-.149 1.638-.454.502-.304 1.007-.747 1.524-1.333zm4.175 6.452a.454.454 0 0 1-.166.367c-.116.093-.294.157-.535.197-.243.04-.599.057-1.076.057-.507 0-.873-.017-1.104-.057-.23-.04-.397-.104-.49-.197a.481.481 0 0 1-.143-.367v-1.197a6.802 6.802 0 0 1-2.116 1.542c-.788.367-1.668.552-2.634.552a7.46 7.46 0 0 1-2.198-.31 4.96 4.96 0 0 1-1.73-.927 4.234 4.234 0 0 1-1.14-1.523c-.269-.61-.402-1.318-.402-2.123 0-.88.173-1.639.512-2.283.345-.65.857-1.179 1.536-1.605.678-.419 1.518-.73 2.53-.93 1.007-.203 2.18-.307 3.515-.307h1.465v-.907c0-.473-.045-.887-.142-1.244a2.071 2.071 0 0 0-.472-.885c-.219-.236-.507-.407-.875-.524-.361-.109-.816-.166-1.352-.166-.707 0-1.339.08-1.892.236a10.48 10.48 0 0 0-1.472.523c-.425.19-.783.368-1.07.524-.287.154-.517.235-.695.235a.507.507 0 0 1-.328-.115.823.823 0 0 1-.236-.34 2.318 2.318 0 0 1-.144-.54 4.382 4.382 0 0 1-.052-.701c0-.35.029-.627.086-.828.052-.201.162-.38.316-.546.162-.162.432-.34.828-.535a9.55 9.55 0 0 1 1.38-.547c.531-.172 1.107-.31 1.727-.414.627-.11 1.27-.16 1.933-.16 1.178 0 2.184.114 3.024.345.835.229 1.526.586 2.059 1.063.54.477.937 1.093 1.185 1.846.247.748.368 1.645.368 2.674v10.117m8.822-20.204c0 .856-.172 1.444-.523 1.772-.35.327-.995.488-1.943.488-.956 0-1.605-.155-1.933-.471-.333-.316-.5-.886-.5-1.703 0-.857.17-1.45.516-1.783.34-.328.99-.495 1.95-.495.943 0 1.589.162 1.927.483.339.317.506.886.506 1.709zm-.344 20.152a.46.46 0 0 1-.104.295c-.063.085-.178.153-.344.211a3.357 3.357 0 0 1-.646.127c-.27.029-.616.04-1.028.04-.416 0-.761-.011-1.03-.04a3.32 3.32 0 0 1-.644-.127c-.167-.058-.282-.126-.346-.211a.46.46 0 0 1-.102-.295V97.38c0-.11.033-.207.102-.293.064-.087.179-.162.346-.22.161-.063.38-.109.644-.143a8.51 8.51 0 0 1 1.03-.051c.412 0 .758.017 1.028.05.264.035.483.081.646.145.166.057.281.132.344.219a.455.455 0 0 1 .104.293v15.01m18.587 0a.46.46 0 0 1-.102.295c-.064.085-.179.153-.335.211a3.2 3.2 0 0 1-.654.127c-.276.029-.616.04-1.019.04-.42 0-.765-.011-1.041-.04a3.322 3.322 0 0 1-.656-.127c-.155-.058-.271-.126-.334-.211a.468.468 0 0 1-.104-.295v-8.575c0-.73-.05-1.305-.16-1.719a3.248 3.248 0 0 0-.46-1.07 2.12 2.12 0 0 0-.781-.696 2.454 2.454 0 0 0-1.116-.242c-.543 0-1.083.195-1.635.592-.545.393-1.121.966-1.713 1.715v9.995c0 .11-.035.207-.103.295-.064.085-.178.153-.345.211a3.32 3.32 0 0 1-.644.127c-.272.029-.616.04-1.03.04-.414 0-.76-.011-1.029-.04a3.294 3.294 0 0 1-.645-.127c-.167-.058-.283-.126-.345-.211a.468.468 0 0 1-.104-.295V97.344a.5.5 0 0 1 .088-.292c.05-.086.154-.156.297-.213a2.82 2.82 0 0 1 .564-.127 7.1 7.1 0 0 1 .87-.04c.36 0 .655.01.891.04.235.03.419.075.552.127a.638.638 0 0 1 .276.213.515.515 0 0 1 .086.292v1.737c.828-.896 1.673-1.563 2.536-2.013a5.733 5.733 0 0 1 2.686-.672c1.024 0 1.886.167 2.588.506a4.522 4.522 0 0 1 1.703 1.375c.43.575.741 1.254.93 2.03.191.776.289 1.708.289 2.795v9.288" fill="#e61d25"/></g></svg>