<svg id="Ebene_1" xmlns="http://www.w3.org/2000/svg" viewBox="0 0 566.9 708.7"><style>.st0,.st1{fill:#fc6124}.st1{fill-rule:evenodd;clip-rule:evenodd}</style><path class="st1" d="M437.4 590.4c-5.1 0-9.3 5.6-9.3 10.7v14.7c0 5.1 4.2 10.7 9.3 10.7 0 0 8.3.7 13.5.7 5.3 0 13.6-.7 13.6-.7 5.1 0 9.3-5.6 9.3-10.7v-14.7c0-5.1-4.2-10.7-9.3-10.7 0 0-8.3-.7-13.6-.7-5.2 0-13.5.7-13.5.7zm-3.7-11.1s10.5-.7 17.2-.7c6.8 0 17.4.7 17.4.7 9.2 0 16.7 8.9 16.7 18.1v22.2c0 9.2-7.5 18.1-16.7 18.1 0 0-10.6.7-17.4.7-6.7 0-17.2-.7-17.2-.7-9.2 0-16.7-8.9-16.7-18.1v-22.2c0-9.2 7.5-18.1 16.7-18.1z"/><path class="st0" d="M175.5 612.5c-3.3 0-5.9 2.3-5.9 5.6v3c0 3.3 2.7 5.5 5.9 5.5 0 0 8.7.7 14.3.7 6.1 0 15.5-.7 15.5-.7 3.3 0 5.9-2.3 5.9-5.5v-3c0-3.3-2.7-5.6-5.9-5.6 0 0-9.5-.4-15.5-.4-5.6.1-14.3.4-14.3.4zm-3.2-10.9s10.7-.4 17.5-.4c7 0 17.8.4 17.8.4h3.6v-1.9c0-5.1-4.2-9.3-9.3-9.3h-39.1v-11.1h42.9c9.2 0 16.7 7 16.8 15.6l-.1 23.5v4.5c0 8.2-6.6 14.8-14.9 14.8 0 0-10.9.7-17.8.7-6.8 0-17.5-.7-17.5-.7-8.2 0-14.9-6.6-14.9-14.8v-6.6c.1-8.1 6.8-14.7 15-14.7zM62.9 590.4c-5.1 0-9.3 5.6-9.3 10.7v14.7c0 5.1 4.2 10.7 9.3 10.7 0 0 7.3.7 12.1.7 4.7 0 12.1-.7 12.1-.7 5.1 0 9.3-5.6 9.3-10.7v-14.7c0-5.1-4.2-10.7-9.3-10.7 0 0-7.4-.7-12.1-.7-4.7 0-12.1.7-12.1.7zm-3.7-11.1s9.6-.7 15.7-.7c6.2 0 15.9.7 15.9.7 9.2 0 16.7 8.9 16.7 18.1v22.2c0 9.2-7.5 18.1-16.7 18.1 0 0-9.7.7-15.9.7-6.1 0-15.7-.7-15.7-.7-9.2 0-16.7-8.9-16.7-18.1v-58.8h11.1v19.1c2.5-.2 3.6-.4 5.6-.6zm61.1 58.4v-40.3c0-9.2 7.5-18.1 16.7-18.1h15.7v11.1h-12c-5.1 0-9.3 5.6-9.3 10.7v36.6h-11.1zm240.2-47.3c-5.1 0-9.3 5.6-9.3 10.7v14.7c0 5.1 4.2 10.7 9.3 10.7 0 0 7.3.7 12.1.7 4.7 0 12.1-.7 12.1-.7 5.1 0 9.3-5.6 9.3-10.7v-14.7c0-5.1-4.2-10.7-9.3-10.7 0 0-7.4-.7-12.1-.7-4.7 0-12.1.7-12.1.7zm-3.7-11.1s9.6-.7 15.7-.7c6.2 0 15.9.7 15.9.7 9.2 0 16.7 8.9 16.7 18.1v22.2c0 9.2-7.5 18.1-16.7 18.1 0 0-9.7.7-15.9.7-6.1 0-15.7-.7-15.7-.7-9.2 0-16.7-8.9-16.7-18.1v-58.8h11.1v19.1c2.5-.2 3.6-.4 5.6-.6zm-120.4 1.1h11.8v57.3h-11.8v-57.3zm2.2-19.6h7.4c2.1 0 3.7 1.7 3.7 3.7v3.7c0 2-1.7 3.7-3.7 3.7h-7.4c-2 0-3.7-1.7-3.7-3.7v-3.7c0-2.1 1.6-3.7 3.7-3.7zm257.3 0h11.8v18.5h16.7v11.1h-16.7v47.3h-11.8v-76.9zm-179.6 76.9v-36.6c0-5.1-4.2-10.7-9.3-10.7 0 0-7.4-.7-12.1-.7-4.7 0-12.1.7-12.1.7-5.1 0-9.3 5.6-9.3 10.7v36.6h-11.1v-40.3c0-9.2 7.5-18.1 16.7-18.1 0 0 9.6-.7 15.7-.7 6.2 0 15.9.7 15.9.7 9.2 0 16.7 8.9 16.7 18.1v40.3h-11.1zM78.1 477.8h410.8V67H78.1v410.8zM524.4 31.5v481.9H42.5V31.5h481.9z"/><path class="st0" d="M154.6 239.9c12.6 21.8 59.8 22.1 108.2-5.9 48.4-28 71.8-68.9 59.2-90.8-12.6-21.8-59.8-22.1-108.2 5.9-48.4 28-71.8 69-59.2 90.8zm221.9-68.6c-25.2 0-49 40.7-49 96.6 0 55.9 23.8 96.6 49 96.6s49-40.7 49-96.6c0-55.9-23.8-96.6-49-96.6zm-52.2 226.5c12.6-21.8-10.8-62.8-59.2-90.8-48.4-28-95.6-27.7-108.2-5.9-12.6 21.9 10.7 62.9 59.2 90.9 48.4 27.9 95.6 27.7 108.2 5.8zm-176.5-154c-16.7-28.8 14.3-74 62.1-101.6 47.8-27.6 102.4-31.8 119-3 .4.7.8 1.5 1.2 2.3 14.8 5.2 28.4 12.8 40.3 22.4 2-.4 4-.6 6.1-.6 33.3 0 56.9 49.3 56.9 104.5s-23.6 104.5-56.9 104.5h-1.1c-12.4 11-26.7 19.8-42.4 25.7-.5 1.3-1.2 2.6-1.9 3.8-16.7 28.8-71.2 24.6-119-3s-78.7-72.7-62.1-101.6c.3-.6.7-1.1 1-1.7-1.5-8.2-2.3-16.6-2.3-25.3 0-7.6.6-15.1 1.8-22.4-1-1.1-1.9-2.5-2.7-4z"/></svg>