<svg id="Layer_1" data-name="Layer 1" xmlns="http://www.w3.org/2000/svg" xmlns:xlink="http://www.w3.org/1999/xlink" viewBox="0 0 195 195"><defs><style>.cls-1{fill:url(#linear-gradient)}.cls-2{fill:url(#linear-gradient-2)}</style><linearGradient id="linear-gradient" x1="-12.9" y1="34.18" x2="209.9" y2="162.82" gradientUnits="userSpaceOnUse"><stop offset="0" stop-color="#00f"/><stop offset=".36" stop-color="#0500f9"/><stop offset=".84" stop-color="#1400e7"/><stop offset="1" stop-color="#1a00e0"/></linearGradient><linearGradient id="linear-gradient-2" x1="101.8" y1="138.16" x2="118.17" y2="147.61" xlink:href="#linear-gradient"/></defs><title>logo-blue</title><path class="cls-1" d="M183.58 1H13.42A12.46 12.46 0 0 0 1 13.42v170.16A12.46 12.46 0 0 0 13.42 196h170.16A12.46 12.46 0 0 0 196 183.58V13.42A12.46 12.46 0 0 0 183.58 1zM83.3 130.24l-16.42 40.52a3.09 3.09 0 0 1-3.14 2.18h-6.46a3.1 3.1 0 0 1-3.14-2.18l-16.33-40.52a3.68 3.68 0 0 1-.18-.78 1.94 1.94 0 0 1 1.93-1.93h7.07a2.33 2.33 0 0 1 2.26 1.66l11.62 30.65 11.61-30.65a2.44 2.44 0 0 1 2.28-1.66h7.16a1.93 1.93 0 0 1 1.83 1.93 2.59 2.59 0 0 1-.09.78zm47.49 21.31a2.08 2.08 0 0 1-2.09 2.09H99.63v.71c.17 6.11 3.49 11.34 9.51 11.34a10.1 10.1 0 0 0 8.3-4c1-1.31 1.39-1.48 2.7-1.48h7.51a1.76 1.76 0 0 1 1.92 1.83c-.26 3.74-7.25 11.78-20.34 11.78-12.83 0-21-7.76-21.48-21.48a39.81 39.81 0 0 1 0-4.37c.61-13.18 8.65-21.29 21.48-21.29 14.14 0 21.56 9.51 21.56 23zm20.7 19.29a2.1 2.1 0 0 1-2.1 2.1h-7.24a2.06 2.06 0 0 1-2.09-2.1v-41.21a2.07 2.07 0 0 1 2.09-2.1h7.24a2.1 2.1 0 0 1 2.1 2.09zm.44-52.89a2.09 2.09 0 0 1-2.19 2.09h-7.94a2 2 0 0 1-2.1-2.09v-6.31a2.07 2.07 0 0 1 2.1-2.09h7.94a2.14 2.14 0 0 1 2.19 2.09zm22.7 52.89a2.1 2.1 0 0 1-2.09 2.1h-7.25a2.11 2.11 0 0 1-2.1-2.11v-57.78a2.1 2.1 0 0 1 2.1-2.1h7.25a2.09 2.09 0 0 1 2.09 2.09z" transform="translate(-1 -1)"/><path class="cls-2" d="M118.92 146.05v.26H99.63v-.26c0-6.73 3.49-11.44 9.6-11.44s9.69 4.71 9.69 11.44z" transform="translate(-1 -1)"/></svg>