<svg id="Layer_1" xmlns="http://www.w3.org/2000/svg" viewBox="0 0 1125 238"><style>.st0{fill:#fff}.st1{fill:#8d8fc6}.st2{fill:#579fd6}.st3{fill:#f27046}.st4{fill:#eb407a}</style><path class="st1" d="M82.5 24.3l-53.2 92.2 53.2 92.2h106.4l1.8-3 51.5-89.1L189 24.4H82.5zm10.2 12.2h78.8l-51.8 16.4c.9 1.5 1.6 3.2 2 5l59.7-18.8 12 57.9c1.7-.5 3.5-.8 5.4-.8l-9.9-47.9 37.9 65.5h-7.6c.1.9.2 1.8.2 2.7 0 .9-.1 1.8-.2 2.7h7.6l-39.1 67.7 10.9-50.1c-1.8-.1-3.6-.3-5.3-.8l-12.9 59-58.4-19.5c-.3 1.8-.9 3.5-1.7 5l47.5 15.9H92.7l4-6.9c-1.7-.7-3.2-1.5-4.7-2.6l-3.9 6.8L50.7 129l37 32.7c1-1.5 2.2-2.8 3.6-4l-46.6-41.1L93 73.8c-1.3-1.3-2.4-2.7-3.2-4.3l-39.5 35L88 39.2l5.6 9.7c1.3-1.2 2.9-2.2 4.5-2.9l-5.4-9.5zm28.2 31.2c-.6 1.7-1.5 3.2-2.7 4.6l62 35.8c.7-1.6 1.7-3.1 2.8-4.5l-62.1-35.9zm-20 10.5v75.3c.8-.1 1.6-.2 2.5-.2 1 0 2 .1 2.9.2v-75c-.4.1-.9.1-1.3.1-1.4.1-2.8-.1-4.1-.4zm79.3 46.6l-62.1 35.8c1.1 1.4 2 3 2.7 4.7l62.2-36c-1.1-1.3-2-2.8-2.8-4.5z"/><path class="st2" d="M105 44.6c-9.4 0-17.1 7.6-17.1 17.1 0 9.4 7.7 17.1 17.1 17.1s17-7.8 17-17.2c0-9.4-7.7-17-17-17zm0 5.3c6.5 0 11.7 5.2 11.7 11.7s-5.2 11.7-11.7 11.7-11.7-5.2-11.7-11.7 5.2-11.7 11.7-11.7z"/><path class="st3" d="M103.4 153.4c-10.4 0-18.8 8.4-18.8 18.7 0 10.4 8.4 18.8 18.8 18.8 10.3 0 18.7-8.4 18.7-18.8 0-10.3-8.4-18.7-18.7-18.7zm0 5.3c7.4 0 13.4 6 13.4 13.4 0 7.5-6 13.4-13.4 13.4-7.5 0-13.4-5.9-13.4-13.4 0-7.4 5.9-13.4 13.4-13.4z"/><path class="st4" d="M198.7 96.2c-11.2 0-20.3 9.1-20.3 20.3s9.1 20.3 20.3 20.3 20.3-9.1 20.3-20.3-9.1-20.3-20.3-20.3zm0 5.4c8.3 0 14.9 6.6 14.9 14.9s-6.6 14.9-14.9 14.9-14.9-6.6-14.9-14.9 6.6-14.9 14.9-14.9z"/><path class="st1" d="M733.4 148.2V85.1h1.4l42 48.3V85.1h6.2v63.1h-1.4l-41.7-47.7v47.7zm104.4-15.5l5.1 2.7c-1.7 3.2-3.6 5.9-5.8 7.9-2.2 2-4.6 3.6-7.4 4.6-2.7 1-5.8 1.5-9.2 1.5-7.6 0-13.5-2.5-17.8-7.5-4.3-5-6.4-10.7-6.4-16.9 0-5.9 1.8-11.2 5.4-15.8 4.6-5.9 10.8-8.9 18.5-8.9 7.9 0 14.3 3 19.1 9.1 3.3 4.2 5 9.6 5.2 16h-42c.1 5.4 1.8 9.9 5.2 13.4 3.3 3.5 7.5 5.2 12.4 5.2 2.4 0 4.7-.4 6.9-1.2 2.3-.8 4.2-1.9 5.8-3.3 1.5-1.5 3.2-3.7 5-6.8zm0-12.5c-.8-3.2-2-5.8-3.5-7.7-1.5-2-3.6-3.5-6.1-4.6-2.5-1.2-5.2-1.8-7.9-1.8-4.6 0-8.5 1.4-11.8 4.4-2.4 2.2-4.2 5.4-5.5 9.7h34.8zm24.2-36h6.1v17.3h9.5v5.2h-9.5v41.5H862v-41.5h-8.2v-5.2h8.2zm19.4 17.3h6.2l14.3 34 15-34h1l15 34 14.5-34h6.3l-20.2 46.7h-1.2l-14.9-33.4-15 33.4h-1.1zm102.6-1.2c7.2 0 13.1 2.6 17.9 7.8 4.3 4.7 6.4 10.4 6.4 16.8 0 6.5-2.3 12.3-6.9 17.1-4.5 4.9-10.4 7.3-17.5 7.3-7.2 0-13-2.4-17.6-7.3-4.5-4.8-6.8-10.6-6.8-17.1 0-6.5 2.2-12.1 6.4-16.8 5-5.1 10.9-7.8 18.1-7.8zm0 5.9c-5 0-9.3 1.9-12.8 5.6-3.6 3.7-5.4 8.1-5.4 13.4 0 3.3.8 6.5 2.4 9.4 1.6 2.9 3.9 5.2 6.6 6.7 2.8 1.6 5.9 2.4 9.2 2.4 3.3 0 6.4-.8 9.1-2.4 2.8-1.6 5-3.9 6.6-6.7 1.6-2.9 2.4-6.1 2.4-9.4 0-5.3-1.8-9.7-5.4-13.4-3.4-3.7-7.7-5.6-12.7-5.6zm34.3-4.7h6.1v6.9c1.9-2.7 3.8-4.7 5.8-6 2-1.3 4.1-2 6.3-2 1.6 0 3.5.5 5.3 1.6l-3.1 5c-1.2-.6-2.3-.8-3.1-.8-2 0-4 .8-5.8 2.5-1.9 1.6-3.2 4.2-4.2 7.6-.8 2.7-1.1 8-1.1 16.1v15.8h-6.1v-46.7zm29.7-18h6.1v36.8l21.5-18.8h8.9l-25.7 22.3 27.2 24.4h-8.5l-23.4-21v21h-6.1zM679.2 57.2h4.9v118.6h-4.9zM570 55.3c-33.7 0-61.2 27.4-61.2 61.1s27.5 61.2 61.2 61.2 61.1-27.5 61.1-61.2-27.4-61.1-61.1-61.1zm-266.4.2l-8.2 8.1 53 52.9-53 52.9 8.2 8.2 52.9-53 44.8 44.8 8.1 8.2 114-114-8.1-8.1-52.9 52.9-53-52.9-8.1 8.1-44.8 44.8-52.9-52.9zM570 66.8c27.5 0 49.6 22.2 49.6 49.6S597.4 166 570 166c-27.5 0-49.6-22.2-49.6-49.6s22.2-49.6 49.6-49.6zm-160.6 4.9l44.8 44.8-44.8 44.8-44.8-44.8 44.8-44.8z"/></svg>