<svg data-name="Layer 1" xmlns="http://www.w3.org/2000/svg" viewBox="0 0 875 220"><title>zk-capital-logo-positivesvg</title><path d="M277.63 78.56a28.75 28.75 0 0 1 24.85 13.25L319 81.72c-7.83-13.45-23.48-21.55-41.19-21.55-29.58 0-50.45 20.93-50.45 49.83s20.87 49.83 50.45 49.83c17.57 0 32.06-7.82 40.57-20.31l-15.65-11.26a29.43 29.43 0 0 1-25.06 13.18c-16.95 0-30.27-12.15-30.33-31.44-.04-18.67 12.86-31.44 30.29-31.44zM360.58 62l-37.41 96.1h20l8.37-22.38h41l8.38 22.38h20.45L383.92 62zm-2.47 56l13.94-37.1 13.86 37.1zm112.73-56h-39.2v96.1h19.16v-35.2H471c22.78 0 35-11.94 35-30.4S493.76 62 470.84 62zm-.35 43.45H450.8V79.59h19.69c10.44 0 15.86 4.33 15.86 12.91s-5.42 12.9-15.86 12.9zm48.35-43.5h19.15v96.1h-19.15zm110.6 0h-78.73v17.92h29.79v78.18h19.15V79.87h29.79V61.95zM657 62l-37.41 96.1h20l8.37-22.38h41l8.38 22.38h20.45L680.33 62zm-2.48 56l13.94-37.1 13.86 37.1zm92.69-56.05h-19.16v96.1H798v-17.92h-50.79V61.95zM789 76.08a4.62 4.62 0 0 0 3.88-1.94l-1.32-1a3.21 3.21 0 1 1-2.56-5.27 3 3 0 0 1 2.57 1.34l1.4-.94a4.65 4.65 0 0 0-3.94-2 4.93 4.93 0 0 0 0 9.86z"/><path d="M788.74 80.37a9.21 9.21 0 1 0-9.28-9.21 9.25 9.25 0 0 0 9.28 9.21zm0-16.76a7.56 7.56 0 1 1-7.56 7.55 7.55 7.55 0 0 1 7.56-7.55zm-614.82 59.23l26.22-31.3h-21.96l-18.74 23.68h-6.32V61.95h-17.91v44.87l-30.91 35.24h30.91v15.99h17.91v-26.91h6.04l19.15 26.91h22.04l-26.43-35.21zm-63.35-15.38h-.01.01zm-2.68 0H77v34.68l30.89-34.68zM77 145.15z"/></svg>